<?xml version="1.0" standalone="no"?><!-- Generator: Gravit.io --><svg xmlns="http://www.w3.org/2000/svg" xmlns:xlink="http://www.w3.org/1999/xlink" style="isolation:isolate" viewBox="0 0 759 444" width="759" height="444"><defs><clipPath id="_clipPath_yKFkX647iQ6lf8RJk2IdDtRdOSW8H2GY"><rect width="759" height="444"/></clipPath></defs><g clip-path="url(#_clipPath_yKFkX647iQ6lf8RJk2IdDtRdOSW8H2GY)"><path d=" M 53 207.5 C 53 189.011 68.011 174 86.5 174 C 104.989 174 120 189.011 120 207.5 C 120 225.989 104.989 241 86.5 241 C 68.011 241 53 225.989 53 207.5 Z " fill="none" stroke-width="5" stroke="rgb(0,0,0)" stroke-linejoin="miter" stroke-linecap="square" stroke-miterlimit="3"/><g id="Group"><line x1="168" y1="0" x2="168" y2="444" stroke-width="4" stroke="rgb(0,0,0)" stroke-opacity="0.3" stroke-linejoin="miter" stroke-linecap="square" stroke-miterlimit="3"/><line x1="241" y1="0" x2="241" y2="444" stroke-width="4" stroke="rgb(0,0,0)" stroke-opacity="0.3" stroke-linejoin="miter" stroke-linecap="square" stroke-miterlimit="3"/><line x1="314" y1="0" x2="314" y2="444" stroke-width="4" stroke="rgb(0,0,0)" stroke-opacity="0.3" stroke-linejoin="miter" stroke-linecap="square" stroke-miterlimit="3"/><line x1="387" y1="0" x2="387" y2="443.85" stroke-width="4" stroke="rgb(0,0,0)" stroke-opacity="0.3" stroke-linejoin="miter" stroke-linecap="square" stroke-miterlimit="3"/><line x1="460" y1="0" x2="460" y2="443.85" stroke-width="4" stroke="rgb(0,0,0)" stroke-opacity="0.3" stroke-linejoin="miter" stroke-linecap="square" stroke-miterlimit="3"/><line x1="533" y1="0" x2="533" y2="444" stroke-width="4" stroke="rgb(0,0,0)" stroke-opacity="0.3" stroke-linejoin="miter" stroke-linecap="square" stroke-miterlimit="3"/><line x1="607" y1="0" x2="607" y2="443.85" stroke-width="4" stroke="rgb(0,0,0)" stroke-opacity="0.3" stroke-linejoin="miter" stroke-linecap="square" stroke-miterlimit="3"/><line x1="679" y1="0" x2="679" y2="443.85" stroke-width="4" stroke="rgb(0,0,0)" stroke-opacity="0.3" stroke-linejoin="miter" stroke-linecap="square" stroke-miterlimit="3"/><rect x="0" y="75" width="759" height="91" transform="matrix(1,0,0,1,0,0)" fill="rgb(0,0,0)" fill-opacity="0.3"/><rect x="0" y="257" width="759" height="91" transform="matrix(1,0,0,1,0,0)" fill="rgb(0,0,0)" fill-opacity="0.3"/></g><path d=" M 53 392 C 53 373.511 68.011 358.5 86.5 358.5 C 104.989 358.5 120 373.511 120 392 C 120 410.489 104.989 425.5 86.5 425.5 C 68.011 425.5 53 410.489 53 392 Z " fill="none" stroke-width="5" stroke="rgb(0,0,0)" stroke-linejoin="miter" stroke-linecap="square" stroke-miterlimit="3"/><path d=" M 137 390.467 C 121.166 392.788 104.974 394 88.5 394 C 69.237 394 50.357 392.343 32 389.153" fill="none" stroke-width="5" stroke="rgb(0,0,0)" stroke-linejoin="miter" stroke-linecap="square" stroke-miterlimit="3"/><path d=" M 137 244.467 C 121.166 246.788 104.974 248 88.5 248 C 69.237 248 50.357 246.343 32 243.153" fill="none" stroke-width="5" stroke="rgb(0,0,0)" stroke-linejoin="miter" stroke-linecap="square" stroke-miterlimit="3"/><path d=" M 32 307.894 C 38.942 309.105 45.961 310.089 53.047 310.848 C 54.04 293.243 68.649 279.25 86.5 279.25 C 104.492 279.25 119.191 293.465 119.975 311.265 C 125.692 310.722 131.367 310.034 137 309.215" fill="none" stroke-width="5" stroke="rgb(0,0,0)" stroke-linejoin="miter" stroke-linecap="square" stroke-miterlimit="3"/><path d=" M 32 148.156 C 46.905 150.737 62.153 152.314 77.67 152.815 C 63.458 148.942 53 135.932 53 120.5 C 53 102.011 68.011 87 86.5 87 C 104.989 87 120 102.011 120 120.5 C 120 136.063 109.365 149.162 94.975 152.926 C 109.221 152.661 123.245 151.482 137 149.469" fill="none" stroke-width="5" stroke="rgb(0,0,0)" stroke-linejoin="miter" stroke-linecap="square" stroke-miterlimit="3"/><path d=" M 268 39 C 268 33.481 272.481 29 278 29 C 283.519 29 288 33.481 288 39 C 288 44.519 283.519 49 278 49 C 272.481 49 268 44.519 268 39 Z " fill="rgb(0,0,0)"/><path d=" M 334 29 C 334 23.481 338.481 19 344 19 C 349.519 19 354 23.481 354 29 C 354 34.519 349.519 39 344 39 C 338.481 39 334 34.519 334 29 Z " fill="rgb(0,0,0)"/><path d=" M 350 45 C 350 39.481 354.481 35 360 35 C 365.519 35 370 39.481 370 45 C 370 50.519 365.519 55 360 55 C 354.481 55 350 50.519 350 45 Z " fill="rgb(0,0,0)"/><path d=" M 475.615 36.071 C 471.713 32.168 471.713 25.832 475.615 21.929 C 479.518 18.026 485.855 18.026 489.757 21.929 C 493.66 25.832 493.66 32.168 489.757 36.071 C 485.855 39.974 479.518 39.974 475.615 36.071 Z " fill="rgb(0,0,0)"/><path d=" M 498.243 36.071 C 494.34 32.168 494.34 25.832 498.243 21.929 C 502.145 18.026 508.482 18.026 512.385 21.929 C 516.287 25.832 516.287 32.168 512.385 36.071 C 508.482 39.974 502.145 39.974 498.243 36.071 Z " fill="rgb(0,0,0)"/><path d=" M 475.615 59.069 C 471.713 55.166 471.713 48.83 475.615 44.927 C 479.518 41.024 485.855 41.024 489.757 44.927 C 493.66 48.83 493.66 55.166 489.757 59.069 C 485.855 62.972 479.518 62.972 475.615 59.069 Z " fill="rgb(0,0,0)"/><path d=" M 498.243 59.069 C 494.34 55.166 494.34 48.83 498.243 44.927 C 502.145 41.024 508.482 41.024 512.385 44.927 C 516.287 48.83 516.287 55.166 512.385 59.069 C 508.482 62.972 502.145 62.972 498.243 59.069 Z " fill="rgb(0,0,0)"/><path d=" M 397 23 C 397 17.481 401.481 13 407 13 C 412.519 13 417 17.481 417 23 C 417 28.519 412.519 33 407 33 C 401.481 33 397 28.519 397 23 Z " fill="rgb(0,0,0)"/><path d=" M 413 39 C 413 33.481 417.481 29 423 29 C 428.519 29 433 33.481 433 39 C 433 44.519 428.519 49 423 49 C 417.481 49 413 44.519 413 39 Z " fill="rgb(0,0,0)"/><path d=" M 449 55 C 449 60.519 444.519 65 439 65 C 433.481 65 429 60.519 429 55 C 429 49.481 433.481 45 439 45 C 444.519 45 449 49.481 449 55 Z " fill="rgb(0,0,0)"/><line x1="569" y1="13" x2="569" y2="68" stroke-width="4" stroke="rgb(0,0,0)" stroke-linejoin="miter" stroke-linecap="square" stroke-miterlimit="3"/><line x1="639" y1="13" x2="639" y2="68" stroke-width="4" stroke="rgb(0,0,0)" stroke-linejoin="miter" stroke-linecap="square" stroke-miterlimit="3"/><line x1="649" y1="13" x2="649" y2="68" stroke-width="4" stroke="rgb(0,0,0)" stroke-linejoin="miter" stroke-linecap="square" stroke-miterlimit="3"/><line x1="709" y1="9" x2="709" y2="65" stroke-width="4" stroke="rgb(0,0,0)" stroke-linejoin="miter" stroke-linecap="square" stroke-miterlimit="3"/><line x1="720" y1="9" x2="720" y2="65" stroke-width="4" stroke="rgb(0,0,0)" stroke-linejoin="miter" stroke-linecap="square" stroke-miterlimit="3"/><line x1="731" y1="9" x2="731" y2="65" stroke-width="4" stroke="rgb(0,0,0)" stroke-linejoin="miter" stroke-linecap="square" stroke-miterlimit="3"/><path d=" M 345.299 134.912 L 345.875 137.168 L 345.875 137.168 Q 341.795 138.752 338.099 138.752 L 338.099 138.752 L 338.099 138.752 Q 337.331 138.752 335.771 138.608 L 335.771 138.608 L 335.771 138.608 Q 334.211 138.464 332.459 137.528 L 332.459 137.528 L 332.459 137.528 Q 330.707 136.592 329.627 134.552 L 329.627 134.552 L 329.627 134.552 Q 328.547 132.512 328.547 129.488 L 328.547 129.488 L 328.547 114.08 L 328.547 114.08 Q 328.547 110.432 329.579 108.56 L 329.579 108.56 L 329.579 108.56 Q 330.611 106.688 332.723 105.392 L 332.723 105.392 L 332.723 105.392 Q 334.883 104.192 337.859 104.192 L 337.859 104.192 L 337.859 104.192 Q 341.555 104.192 344.675 105.776 L 344.675 105.776 L 343.907 107.6 L 343.907 107.6 Q 341.171 106.592 338.723 106.592 L 338.723 106.592 L 338.723 106.592 Q 331.235 106.592 331.235 113.648 L 331.235 113.648 L 331.235 129.392 L 331.235 129.392 Q 331.235 135.68 337.331 136.256 L 337.331 136.256 L 337.331 136.256 Q 337.811 136.352 338.339 136.352 L 338.339 136.352 L 338.339 136.352 Q 341.219 136.352 345.299 134.912 L 345.299 134.912 L 345.299 134.912 Z  M 370.691 104.672 L 370.691 138.272 L 368.003 138.272 L 368.003 121.088 L 352.739 121.088 L 352.739 138.272 L 350.051 138.272 L 350.051 104.672 L 352.739 104.672 L 352.739 118.448 L 368.003 118.448 L 368.003 104.672 L 370.691 104.672 L 370.691 104.672 Z " fill-rule="evenodd" fill="rgb(0,0,0)"/><path d=" M 579.581 123.872 L 579.581 138.272 L 577.613 138.272 L 576.941 136.304 L 576.941 136.304 Q 574.445 138.752 570.101 138.752 L 570.101 138.752 L 570.101 138.752 Q 565.757 138.752 562.805 136.352 L 562.805 136.352 L 562.805 136.352 Q 559.853 133.952 559.853 129.2 L 559.853 129.2 L 559.853 114.128 L 559.853 114.128 Q 559.853 107.984 564.029 105.44 L 564.029 105.44 L 564.029 105.44 Q 566.189 104.24 569.165 104.24 L 569.165 104.24 L 569.165 104.24 Q 572.861 104.24 575.981 105.824 L 575.981 105.824 L 575.213 107.648 L 575.213 107.648 Q 572.477 106.64 570.029 106.64 L 570.029 106.64 L 570.029 106.64 Q 562.541 106.64 562.541 113.696 L 562.541 113.696 L 562.541 129.296 L 562.541 129.296 Q 562.541 132.512 564.629 134.336 L 564.629 134.336 L 564.629 134.336 Q 566.717 136.16 569.957 136.16 L 569.957 136.16 L 569.957 136.16 Q 573.197 136.16 575.117 134.288 L 575.117 134.288 L 575.117 134.288 Q 577.037 132.416 577.037 129.344 L 577.037 129.344 L 577.037 126.512 L 573.869 126.512 L 572.957 123.872 L 579.581 123.872 L 579.581 123.872 Z " fill="rgb(0,0,0)"/><path d=" M 652.893 104.672 L 652.893 138.272 L 650.205 138.272 L 650.205 121.088 L 634.941 121.088 L 634.941 138.272 L 632.253 138.272 L 632.253 104.672 L 634.941 104.672 L 634.941 118.448 L 650.205 118.448 L 650.205 104.672 L 652.893 104.672 L 652.893 104.672 Z " fill="rgb(0,0,0)"/><path d=" M 716.373 121.088 L 716.373 138.272 L 713.685 138.272 L 713.685 104.672 L 729.717 104.672 L 729.717 107.216 L 716.373 107.216 L 716.373 118.448 L 724.581 118.448 L 723.477 121.088 L 716.373 121.088 L 716.373 121.088 Z " fill="rgb(0,0,0)"/><path d=" M 421.904 138.272 L 421.904 138.272 L 411.92 138.272 L 411.92 104.624 L 420.944 104.624 L 420.944 104.624 Q 426.368 104.624 429.224 107.6 L 429.224 107.6 L 429.224 107.6 Q 432.08 110.576 432.08 115.52 L 432.08 115.52 L 432.08 128.672 L 432.08 128.672 Q 432.08 138.272 421.904 138.272 Z  M 429.392 129.152 L 429.392 129.152 L 429.392 115.04 L 429.392 115.04 Q 429.392 111.008 426.992 109.04 L 426.992 109.04 L 426.992 109.04 Q 424.592 107.072 421.424 107.072 L 421.424 107.072 L 414.608 107.072 L 414.608 135.872 L 421.136 135.872 L 421.136 135.872 Q 429.392 135.872 429.392 129.152 Z " fill-rule="evenodd" fill="rgb(0,0,0)"/><path d=" M 203.97 138.272 L 203.97 138.272 L 192.93 138.272 L 192.93 104.672 L 203.538 104.672 L 203.538 104.672 Q 207.474 104.672 209.73 106.688 L 209.73 106.688 L 209.73 106.688 Q 211.986 108.704 211.986 112.952 L 211.986 112.952 L 211.986 112.952 Q 211.986 117.2 208.818 119.36 L 208.818 119.36 L 208.818 119.36 Q 208.77 119.408 208.77 119.456 L 208.77 119.456 L 208.77 119.504 L 208.77 119.504 Q 210.882 120.464 212.298 122.624 L 212.298 122.624 L 212.298 122.624 Q 213.714 124.784 213.714 128.24 L 213.714 128.24 L 213.714 128.24 Q 213.714 132.08 211.746 134.912 L 211.746 134.912 L 211.746 134.912 Q 210.738 136.448 208.746 137.36 L 208.746 137.36 L 208.746 137.36 Q 206.754 138.272 203.97 138.272 Z  M 195.618 107.216 L 195.618 118.448 L 203.442 118.448 L 203.442 118.448 Q 206.13 118.448 207.666 117.008 L 207.666 117.008 L 207.666 117.008 Q 209.202 115.568 209.202 112.832 L 209.202 112.832 L 209.202 112.832 Q 209.202 107.216 203.154 107.216 L 203.154 107.216 L 195.618 107.216 L 195.618 107.216 Z  M 195.618 121.088 L 195.618 135.728 L 203.874 135.728 L 203.874 135.728 Q 210.834 135.728 210.834 128.048 L 210.834 128.048 L 210.834 128.048 Q 210.834 124.688 209.01 122.888 L 209.01 122.888 L 209.01 122.888 Q 207.186 121.088 204.69 121.088 L 204.69 121.088 L 195.618 121.088 L 195.618 121.088 Z " fill-rule="evenodd" fill="rgb(0,0,0)"/><path d=" M 198.834 236.048 L 198.834 236.048 L 198.21 234.272 L 198.21 234.272 Q 199.794 234.272 200.97 232.976 L 200.97 232.976 L 200.97 232.976 Q 202.146 231.68 202.146 228.8 L 202.146 228.8 L 202.146 203.12 L 198.93 203.024 L 198.93 200.672 L 204.882 200.672 L 204.882 228.608 L 204.882 228.608 Q 204.882 232.16 203.274 234.104 L 203.274 234.104 L 203.274 234.104 Q 201.666 236.048 198.834 236.048 Z " fill="rgb(0,0,0)"/><path d=" M 203.442 294.322 L 203.442 325.522 L 200.754 325.522 L 200.754 294.322 L 192.594 294.322 L 192.594 291.922 L 211.89 291.922 L 211.89 294.322 L 203.442 294.322 L 203.442 294.322 Z " fill="rgb(0,0,0)"/><path d=" M 191.848 390.072 L 191.848 421.272 L 189.16 421.272 L 189.16 390.072 L 181 390.072 L 181 387.672 L 200.296 387.672 L 200.296 390.072 L 191.848 390.072 L 191.848 390.072 Z  M 224.68 387.672 L 224.68 421.272 L 221.992 421.272 L 221.992 404.088 L 206.728 404.088 L 206.728 421.272 L 204.04 421.272 L 204.04 387.672 L 206.728 387.672 L 206.728 401.448 L 221.992 401.448 L 221.992 387.672 L 224.68 387.672 L 224.68 387.672 Z " fill-rule="evenodd" fill="rgb(0,0,0)"/><path d=" M 354.712 422.608 L 354.712 422.608 L 354.088 420.832 L 354.088 420.832 Q 357.016 419.728 357.016 414.976 L 357.016 414.976 L 357.016 408.16 L 357.016 408.16 Q 355.72 409.312 353.56 409.912 L 353.56 409.912 L 353.56 409.912 Q 351.4 410.512 349.432 410.512 L 349.432 410.512 L 349.432 410.512 Q 344.344 410.512 341.392 407.992 L 341.392 407.992 L 341.392 407.992 Q 338.44 405.472 338.44 400.528 L 338.44 400.528 L 338.44 388.672 L 341.128 388.672 L 341.128 401.008 L 341.128 401.008 Q 341.128 404.368 343.432 406.12 L 343.432 406.12 L 343.432 406.12 Q 345.736 407.872 349 407.872 L 349 407.872 L 349 407.872 Q 352.264 407.872 354.376 406.672 L 354.376 406.672 L 354.376 406.672 Q 356.488 405.472 357.016 403.072 L 357.016 403.072 L 357.016 388.672 L 359.752 388.672 L 359.752 414.784 L 359.752 414.784 Q 359.752 418.288 358.432 420.28 L 358.432 420.28 L 358.432 420.28 Q 357.112 422.272 354.712 422.608 Z " fill="rgb(0,0,0)"/><path d=" M 433.664 418.824 L 433.664 421.272 L 410.288 421.272 L 410.288 418.872 L 429.968 390.12 L 410.912 390.12 L 410.912 387.672 L 433.376 387.672 L 433.376 390.072 L 413.696 418.824 L 433.664 418.824 L 433.664 418.824 Z " fill="rgb(0,0,0)"/><path d=" M 563.544 423.192 L 563.544 423.192 L 563.544 425.784 L 563.544 425.784 Q 557.784 425.784 555.768 421.8 L 555.768 421.8 L 555.768 421.8 Q 552.024 421.704 549.144 419.64 L 549.144 419.64 L 549.144 419.64 Q 547.704 418.584 546.864 416.712 L 546.864 416.712 L 546.864 416.712 Q 546.024 414.84 546.024 412.392 L 546.024 412.392 L 546.024 396.936 L 546.024 396.936 Q 546.024 391.992 548.736 389.448 L 548.736 389.448 L 548.736 389.448 Q 551.448 386.904 556.2 386.904 L 556.2 386.904 L 556.2 386.904 Q 560.952 386.904 563.568 389.592 L 563.568 389.592 L 563.568 389.592 Q 566.184 392.28 566.184 396.984 L 566.184 396.984 L 566.184 412.392 L 566.184 412.392 Q 566.184 416.568 564 418.8 L 564 418.8 L 564 418.8 Q 561.816 421.032 558.456 421.608 L 558.456 421.608 L 558.456 421.608 Q 559.752 423.192 563.352 423.192 L 563.352 423.192 L 563.352 423.192 Q 563.448 423.192 563.544 423.192 Z  M 563.544 412.296 L 563.544 412.296 L 563.544 396.504 L 563.544 396.504 Q 563.544 393 561.504 391.224 L 561.504 391.224 L 561.504 391.224 Q 559.464 389.448 556.104 389.448 L 556.104 389.448 L 556.104 389.448 Q 552.744 389.448 550.728 391.224 L 550.728 391.224 L 550.728 391.224 Q 548.712 393 548.712 396.504 L 548.712 396.504 L 548.712 412.344 L 548.712 412.344 Q 548.712 415.416 550.416 417.168 L 550.416 417.168 L 550.416 417.168 Q 552.12 418.92 554.904 419.208 L 554.904 419.208 L 554.904 419.208 Q 554.712 418.056 554.712 416.424 L 554.712 416.424 L 554.712 412.92 L 557.4 412.92 L 557.4 416.376 L 557.4 416.376 Q 557.4 418.344 557.544 419.16 L 557.544 419.16 L 557.544 419.16 Q 560.28 418.824 561.912 417.12 L 561.912 417.12 L 561.912 417.12 Q 563.544 415.416 563.544 412.296 Z  M 590.424 412.728 L 590.424 412.728 L 590.424 387.624 L 593.112 387.624 L 593.112 412.344 L 593.112 412.344 Q 593.112 414.888 592.224 416.76 L 592.224 416.76 L 592.224 416.76 Q 591.336 418.632 589.824 419.64 L 589.824 419.64 L 589.824 419.64 Q 588.312 420.648 586.632 421.128 L 586.632 421.128 L 586.632 421.128 Q 584.952 421.608 583.032 421.608 L 583.032 421.608 L 583.032 421.608 Q 581.112 421.608 579.408 421.128 L 579.408 421.128 L 579.408 421.128 Q 577.704 420.648 576.192 419.64 L 576.192 419.64 L 576.192 419.64 Q 574.68 418.632 573.792 416.76 L 573.792 416.76 L 573.792 416.76 Q 572.904 414.888 572.904 412.344 L 572.904 412.344 L 572.904 387.624 L 575.592 387.624 L 575.592 412.728 L 575.592 412.728 Q 575.592 415.656 577.728 417.432 L 577.728 417.432 L 577.728 417.432 Q 579.864 419.208 582.984 419.208 L 582.984 419.208 L 582.984 419.208 Q 586.104 419.208 588.264 417.432 L 588.264 417.432 L 588.264 417.432 Q 590.424 415.656 590.424 412.728 Z " fill-rule="evenodd" fill="rgb(0,0,0)"/><path d=" M 503.632 423.192 L 503.632 423.192 L 503.632 425.784 L 503.632 425.784 Q 497.872 425.784 495.856 421.8 L 495.856 421.8 L 495.856 421.8 Q 492.112 421.704 489.232 419.64 L 489.232 419.64 L 489.232 419.64 Q 487.792 418.584 486.952 416.712 L 486.952 416.712 L 486.952 416.712 Q 486.112 414.84 486.112 412.392 L 486.112 412.392 L 486.112 396.936 L 486.112 396.936 Q 486.112 391.992 488.824 389.448 L 488.824 389.448 L 488.824 389.448 Q 491.536 386.904 496.288 386.904 L 496.288 386.904 L 496.288 386.904 Q 501.04 386.904 503.656 389.592 L 503.656 389.592 L 503.656 389.592 Q 506.272 392.28 506.272 396.984 L 506.272 396.984 L 506.272 412.392 L 506.272 412.392 Q 506.272 416.568 504.088 418.8 L 504.088 418.8 L 504.088 418.8 Q 501.904 421.032 498.544 421.608 L 498.544 421.608 L 498.544 421.608 Q 499.84 423.192 503.44 423.192 L 503.44 423.192 L 503.44 423.192 Q 503.536 423.192 503.632 423.192 Z  M 503.632 412.296 L 503.632 412.296 L 503.632 396.504 L 503.632 396.504 Q 503.632 393 501.592 391.224 L 501.592 391.224 L 501.592 391.224 Q 499.552 389.448 496.192 389.448 L 496.192 389.448 L 496.192 389.448 Q 492.832 389.448 490.816 391.224 L 490.816 391.224 L 490.816 391.224 Q 488.8 393 488.8 396.504 L 488.8 396.504 L 488.8 412.344 L 488.8 412.344 Q 488.8 415.416 490.504 417.168 L 490.504 417.168 L 490.504 417.168 Q 492.208 418.92 494.992 419.208 L 494.992 419.208 L 494.992 419.208 Q 494.8 418.056 494.8 416.424 L 494.8 416.424 L 494.8 412.92 L 497.488 412.92 L 497.488 416.376 L 497.488 416.376 Q 497.488 418.344 497.632 419.16 L 497.632 419.16 L 497.632 419.16 Q 500.368 418.824 502 417.12 L 502 417.12 L 502 417.12 Q 503.632 415.416 503.632 412.296 Z " fill-rule="evenodd" fill="rgb(187,187,187)"/><path d=" M 644.254 404.376 L 654.766 421.272 L 651.454 421.272 L 642.622 407.16 L 633.742 421.272 L 630.43 421.272 L 641.038 404.376 L 631.342 387.672 L 634.366 387.672 L 642.622 401.784 L 650.974 387.672 L 653.998 387.672 L 644.254 404.376 L 644.254 404.376 Z " fill="rgb(0,0,0)"/><path d=" M 719.696 387.672 L 719.696 421.272 L 717.008 421.272 L 698.768 392.616 L 698.768 421.272 L 696.08 421.272 L 696.08 387.672 L 698.768 387.672 L 717.008 416.328 L 717.008 387.672 L 719.696 387.672 L 719.696 387.672 Z  M 746.384 406.872 L 746.384 421.272 L 744.416 421.272 L 743.744 419.304 L 743.744 419.304 Q 741.248 421.752 736.904 421.752 L 736.904 421.752 L 736.904 421.752 Q 732.56 421.752 729.608 419.352 L 729.608 419.352 L 729.608 419.352 Q 726.656 416.952 726.656 412.2 L 726.656 412.2 L 726.656 397.128 L 726.656 397.128 Q 726.656 390.984 730.832 388.44 L 730.832 388.44 L 730.832 388.44 Q 732.992 387.24 735.968 387.24 L 735.968 387.24 L 735.968 387.24 Q 739.664 387.24 742.784 388.824 L 742.784 388.824 L 742.016 390.648 L 742.016 390.648 Q 739.28 389.64 736.832 389.64 L 736.832 389.64 L 736.832 389.64 Q 729.344 389.64 729.344 396.696 L 729.344 396.696 L 729.344 412.296 L 729.344 412.296 Q 729.344 415.512 731.432 417.336 L 731.432 417.336 L 731.432 417.336 Q 733.52 419.16 736.76 419.16 L 736.76 419.16 L 736.76 419.16 Q 740 419.16 741.92 417.288 L 741.92 417.288 L 741.92 417.288 Q 743.84 415.416 743.84 412.344 L 743.84 412.344 L 743.84 409.512 L 740.672 409.512 L 739.76 406.872 L 746.384 406.872 L 746.384 406.872 Z " fill-rule="evenodd" fill="rgb(0,0,0)"/><path d=" M 272.848 406.872 L 272.848 421.272 L 270.88 421.272 L 270.208 419.304 L 270.208 419.304 Q 267.712 421.752 263.368 421.752 L 263.368 421.752 L 263.368 421.752 Q 259.024 421.752 256.072 419.352 L 256.072 419.352 L 256.072 419.352 Q 253.12 416.952 253.12 412.2 L 253.12 412.2 L 253.12 397.128 L 253.12 397.128 Q 253.12 390.984 257.296 388.44 L 257.296 388.44 L 257.296 388.44 Q 259.456 387.24 262.432 387.24 L 262.432 387.24 L 262.432 387.24 Q 266.128 387.24 269.248 388.824 L 269.248 388.824 L 268.48 390.648 L 268.48 390.648 Q 265.744 389.64 263.296 389.64 L 263.296 389.64 L 263.296 389.64 Q 255.808 389.64 255.808 396.696 L 255.808 396.696 L 255.808 412.296 L 255.808 412.296 Q 255.808 415.512 257.896 417.336 L 257.896 417.336 L 257.896 417.336 Q 259.984 419.16 263.224 419.16 L 263.224 419.16 L 263.224 419.16 Q 266.464 419.16 268.384 417.288 L 268.384 417.288 L 268.384 417.288 Q 270.304 415.416 270.304 412.344 L 270.304 412.344 L 270.304 409.512 L 267.136 409.512 L 266.224 406.872 L 272.848 406.872 L 272.848 406.872 Z  M 300.16 387.672 L 300.16 421.272 L 297.472 421.272 L 297.472 404.088 L 282.208 404.088 L 282.208 421.272 L 279.52 421.272 L 279.52 387.672 L 282.208 387.672 L 282.208 401.448 L 297.472 401.448 L 297.472 387.672 L 300.16 387.672 L 300.16 387.672 Z " fill-rule="evenodd" fill="rgb(0,0,0)"/><path d=" M 428.816 312.802 L 433.088 325.522 L 430.352 325.522 L 426.272 313.618 L 426.272 313.618 Q 425.408 313.762 424.352 313.762 L 424.352 313.762 L 414.896 313.762 L 414.896 325.522 L 412.208 325.522 L 412.208 291.922 L 424.016 291.922 L 424.016 291.922 Q 428.576 291.922 430.808 294.706 L 430.808 294.706 L 430.808 294.706 Q 433.04 297.49 433.04 302.194 L 433.04 302.194 L 433.04 302.194 Q 433.04 304.45 432.872 306.034 L 432.872 306.034 L 432.872 306.034 Q 432.704 307.618 431.696 309.706 L 431.696 309.706 L 431.696 309.706 Q 430.688 311.794 428.816 312.802 L 428.816 312.802 L 428.816 312.802 Z  M 414.896 294.466 L 414.896 311.122 L 424.4 311.122 L 424.4 311.122 Q 426.128 311.122 427.328 310.426 L 427.328 310.426 L 427.328 310.426 Q 428.528 309.73 429.104 308.866 L 429.104 308.866 L 429.104 308.866 Q 429.68 308.002 429.968 306.514 L 429.968 306.514 L 429.968 306.514 Q 430.352 304.834 430.352 302.194 L 430.352 302.194 L 430.352 302.194 Q 430.352 298.306 428.696 296.386 L 428.696 296.386 L 428.696 296.386 Q 427.04 294.466 424.208 294.466 L 424.208 294.466 L 414.896 294.466 L 414.896 294.466 Z " fill-rule="evenodd" fill="rgb(0,0,0)"/><path d=" M 582.173 291.922 L 572.573 325.522 L 568.877 325.522 L 559.229 291.922 L 562.109 291.922 L 570.701 322.21 L 579.293 291.922 L 582.173 291.922 L 582.173 291.922 Z " fill="rgb(0,0,0)"/><path d=" M 660.405 291.922 L 652.581 325.522 L 648.501 325.522 L 643.749 296.77 L 638.997 325.522 L 634.917 325.522 L 626.997 291.922 L 629.877 291.922 L 636.741 322.21 L 641.877 291.922 L 645.621 291.922 L 650.757 322.21 L 657.525 291.922 L 660.405 291.922 L 660.405 291.922 Z " fill="rgb(0,0,0)"/><path d=" M 708.933 316.978 L 708.933 316.978 L 711.669 316.978 L 711.669 316.978 Q 711.909 319.522 714.237 321.49 L 714.237 321.49 L 714.237 321.49 Q 716.565 323.458 720.213 323.458 L 720.213 323.458 L 720.213 323.458 Q 723.861 323.458 726.357 321.802 L 726.357 321.802 L 726.357 321.802 Q 728.853 320.146 728.853 316.546 L 728.853 316.546 L 728.853 316.546 Q 728.853 314.338 727.437 312.778 L 727.437 312.778 L 727.437 312.778 Q 726.021 311.218 723.909 310.402 L 723.909 310.402 L 723.909 310.402 Q 721.797 309.586 719.325 308.65 L 719.325 308.65 L 719.325 308.65 Q 716.853 307.714 714.741 306.802 L 714.741 306.802 L 714.741 306.802 Q 712.629 305.89 711.213 304.066 L 711.213 304.066 L 711.213 304.066 Q 709.797 302.242 709.797 299.698 L 709.797 299.698 L 709.797 299.698 Q 709.797 296.338 712.581 293.89 L 712.581 293.89 L 712.581 293.89 Q 715.365 291.442 720.597 291.442 L 720.597 291.442 L 720.597 291.442 Q 724.581 291.442 727.605 292.882 L 727.605 292.882 L 727.605 292.882 Q 727.605 292.978 726.789 295.426 L 726.789 295.426 L 726.789 295.426 Q 724.053 294.034 720.525 294.034 L 720.525 294.034 L 720.525 294.034 Q 716.997 294.034 714.789 295.57 L 714.789 295.57 L 714.789 295.57 Q 712.581 297.106 712.581 299.842 L 712.581 299.842 L 712.581 299.842 Q 712.581 302.914 716.373 304.642 L 716.373 304.642 L 716.373 304.642 Q 718.053 305.41 720.093 306.082 L 720.093 306.082 L 720.093 306.082 Q 722.133 306.754 724.197 307.57 L 724.197 307.57 L 724.197 307.57 Q 726.261 308.386 727.941 309.418 L 727.941 309.418 L 727.941 309.418 Q 729.621 310.45 730.677 312.226 L 730.677 312.226 L 730.677 312.226 Q 731.733 314.002 731.733 316.306 L 731.733 316.306 L 731.733 316.306 Q 731.733 320.722 728.925 323.386 L 728.925 323.386 L 728.925 323.386 Q 726.117 326.05 720.573 326.05 L 720.573 326.05 L 720.573 326.05 Q 715.029 326.05 712.029 323.29 L 712.029 323.29 L 712.029 323.29 Q 709.029 320.53 708.933 316.978 Z " fill="rgb(0,0,0)"/><path d=" M 325.7 316.978 L 325.7 316.978 L 328.436 316.978 L 328.436 316.978 Q 328.676 319.522 331.004 321.49 L 331.004 321.49 L 331.004 321.49 Q 333.332 323.458 336.98 323.458 L 336.98 323.458 L 336.98 323.458 Q 340.628 323.458 343.124 321.802 L 343.124 321.802 L 343.124 321.802 Q 345.62 320.146 345.62 316.546 L 345.62 316.546 L 345.62 316.546 Q 345.62 314.338 344.204 312.778 L 344.204 312.778 L 344.204 312.778 Q 342.788 311.218 340.676 310.402 L 340.676 310.402 L 340.676 310.402 Q 338.564 309.586 336.092 308.65 L 336.092 308.65 L 336.092 308.65 Q 333.62 307.714 331.508 306.802 L 331.508 306.802 L 331.508 306.802 Q 329.396 305.89 327.98 304.066 L 327.98 304.066 L 327.98 304.066 Q 326.564 302.242 326.564 299.698 L 326.564 299.698 L 326.564 299.698 Q 326.564 296.338 329.348 293.89 L 329.348 293.89 L 329.348 293.89 Q 332.132 291.442 337.364 291.442 L 337.364 291.442 L 337.364 291.442 Q 341.348 291.442 344.372 292.882 L 344.372 292.882 L 344.372 292.882 Q 344.372 292.978 343.556 295.426 L 343.556 295.426 L 343.556 295.426 Q 340.82 294.034 337.292 294.034 L 337.292 294.034 L 337.292 294.034 Q 333.764 294.034 331.556 295.57 L 331.556 295.57 L 331.556 295.57 Q 329.348 297.106 329.348 299.842 L 329.348 299.842 L 329.348 299.842 Q 329.348 302.914 333.14 304.642 L 333.14 304.642 L 333.14 304.642 Q 334.82 305.41 336.86 306.082 L 336.86 306.082 L 336.86 306.082 Q 338.9 306.754 340.964 307.57 L 340.964 307.57 L 340.964 307.57 Q 343.028 308.386 344.708 309.418 L 344.708 309.418 L 344.708 309.418 Q 346.388 310.45 347.444 312.226 L 347.444 312.226 L 347.444 312.226 Q 348.5 314.002 348.5 316.306 L 348.5 316.306 L 348.5 316.306 Q 348.5 320.722 345.692 323.386 L 345.692 323.386 L 345.692 323.386 Q 342.884 326.05 337.34 326.05 L 337.34 326.05 L 337.34 326.05 Q 331.796 326.05 328.796 323.29 L 328.796 323.29 L 328.796 323.29 Q 325.796 320.53 325.7 316.978 Z  M 375.236 291.922 L 375.236 325.522 L 372.548 325.522 L 372.548 308.338 L 357.284 308.338 L 357.284 325.522 L 354.596 325.522 L 354.596 291.922 L 357.284 291.922 L 357.284 305.698 L 372.548 305.698 L 372.548 291.922 L 375.236 291.922 L 375.236 291.922 Z " fill-rule="evenodd" fill="rgb(0,0,0)"/><path d=" M 281.152 291.922 L 273.328 325.522 L 269.248 325.522 L 264.496 296.77 L 259.744 325.522 L 255.664 325.522 L 247.744 291.922 L 250.624 291.922 L 257.488 322.21 L 262.624 291.922 L 266.368 291.922 L 271.504 322.21 L 278.272 291.922 L 281.152 291.922 L 281.152 291.922 Z  M 307.12 291.922 L 307.12 325.522 L 304.432 325.522 L 304.432 308.338 L 289.168 308.338 L 289.168 325.522 L 286.48 325.522 L 286.48 291.922 L 289.168 291.922 L 289.168 305.698 L 304.432 305.698 L 304.432 291.922 L 307.12 291.922 L 307.12 291.922 Z " fill-rule="evenodd" fill="rgb(0,0,0)"/><path d=" M 348.112 215.168 L 360.448 234.272 L 357.232 234.272 L 346.384 217.712 L 344.08 221.36 L 344.08 234.272 L 341.392 234.272 L 341.392 200.624 L 344.08 200.624 L 344.08 216.656 L 354.832 200.624 L 357.952 200.624 L 348.112 215.168 L 348.112 215.168 Z " fill="rgb(0,0,0)"/><path d=" M 432.512 231.872 L 432.512 234.272 L 415.184 234.272 L 415.184 200.672 L 417.872 200.672 L 417.872 231.872 L 432.512 231.872 L 432.512 231.872 Z " fill="rgb(0,0,0)"/><path d=" M 503.772 230.912 L 504.348 233.168 L 504.348 233.168 Q 500.268 234.752 496.572 234.752 L 496.572 234.752 L 496.572 234.752 Q 495.804 234.752 494.244 234.608 L 494.244 234.608 L 494.244 234.608 Q 492.684 234.464 490.932 233.528 L 490.932 233.528 L 490.932 233.528 Q 489.18 232.592 488.1 230.552 L 488.1 230.552 L 488.1 230.552 Q 487.02 228.512 487.02 225.488 L 487.02 225.488 L 487.02 210.08 L 487.02 210.08 Q 487.02 206.432 488.052 204.56 L 488.052 204.56 L 488.052 204.56 Q 489.084 202.688 491.196 201.392 L 491.196 201.392 L 491.196 201.392 Q 493.356 200.192 496.332 200.192 L 496.332 200.192 L 496.332 200.192 Q 500.028 200.192 503.148 201.776 L 503.148 201.776 L 502.38 203.6 L 502.38 203.6 Q 499.644 202.592 497.196 202.592 L 497.196 202.592 L 497.196 202.592 Q 489.708 202.592 489.708 209.648 L 489.708 209.648 L 489.708 225.392 L 489.708 225.392 Q 489.708 231.68 495.804 232.256 L 495.804 232.256 L 495.804 232.256 Q 496.284 232.352 496.812 232.352 L 496.812 232.352 L 496.812 232.352 Q 499.692 232.352 503.772 230.912 L 503.772 230.912 L 503.772 230.912 Z " fill="rgb(187,187,187)"/><path d=" M 581.381 200.672 L 581.381 234.272 L 578.693 234.272 L 560.453 205.616 L 560.453 234.272 L 557.765 234.272 L 557.765 200.672 L 560.453 200.672 L 578.693 229.328 L 578.693 200.672 L 581.381 200.672 L 581.381 200.672 Z " fill="rgb(0,0,0)"/><path d=" M 635.11 203.216 L 635.11 219.872 L 644.614 219.872 L 644.614 219.872 Q 646.342 219.872 647.542 219.176 L 647.542 219.176 L 647.542 219.176 Q 648.742 218.48 649.318 217.616 L 649.318 217.616 L 649.318 217.616 Q 649.894 216.752 650.182 215.264 L 650.182 215.264 L 650.182 215.264 Q 650.566 213.584 650.566 210.944 L 650.566 210.944 L 650.566 210.944 Q 650.566 207.056 648.91 205.136 L 648.91 205.136 L 648.91 205.136 Q 647.254 203.216 644.422 203.216 L 644.422 203.216 L 635.11 203.216 L 635.11 203.216 Z  M 635.11 222.512 L 635.11 234.272 L 632.422 234.272 L 632.422 200.672 L 644.23 200.672 L 644.23 200.672 Q 648.79 200.672 651.022 203.456 L 651.022 203.456 L 651.022 203.456 Q 653.254 206.24 653.254 210.944 L 653.254 210.944 L 653.254 210.944 Q 653.254 212.624 653.182 213.8 L 653.182 213.8 L 653.182 213.8 Q 653.11 214.976 652.63 216.776 L 652.63 216.776 L 652.63 216.776 Q 652.15 218.576 651.286 219.704 L 651.286 219.704 L 651.286 219.704 Q 650.422 220.832 648.694 221.672 L 648.694 221.672 L 648.694 221.672 Q 646.966 222.512 644.566 222.512 L 644.566 222.512 L 635.11 222.512 L 635.11 222.512 Z " fill-rule="evenodd" fill="rgb(0,0,0)"/><path d=" M 733.437 200.672 L 733.437 234.272 L 730.749 234.272 L 730.749 208.592 L 722.013 234.272 L 719.085 234.272 L 710.397 208.592 L 710.397 234.272 L 707.709 234.272 L 707.709 200.672 L 710.397 200.672 L 720.525 230.144 L 730.749 200.672 L 733.437 200.672 L 733.437 200.672 Z " fill="rgb(0,0,0)"/><path d=" M 257.432 200.897 L 257.432 217.553 L 266.936 217.553 L 266.936 217.553 Q 268.664 217.553 269.864 216.857 L 269.864 216.857 L 269.864 216.857 Q 271.064 216.161 271.64 215.297 L 271.64 215.297 L 271.64 215.297 Q 272.216 214.433 272.504 212.945 L 272.504 212.945 L 272.504 212.945 Q 272.888 211.265 272.888 208.625 L 272.888 208.625 L 272.888 208.625 Q 272.888 204.737 271.232 202.817 L 271.232 202.817 L 271.232 202.817 Q 269.576 200.897 266.744 200.897 L 266.744 200.897 L 257.432 200.897 L 257.432 200.897 Z  M 257.432 220.193 L 257.432 231.953 L 254.744 231.953 L 254.744 198.353 L 266.552 198.353 L 266.552 198.353 Q 271.112 198.353 273.344 201.137 L 273.344 201.137 L 273.344 201.137 Q 275.576 203.921 275.576 208.625 L 275.576 208.625 L 275.576 208.625 Q 275.576 210.305 275.504 211.481 L 275.504 211.481 L 275.504 211.481 Q 275.432 212.657 274.952 214.457 L 274.952 214.457 L 274.952 214.457 Q 274.472 216.257 273.608 217.385 L 273.608 217.385 L 273.608 217.385 Q 272.744 218.513 271.016 219.353 L 271.016 219.353 L 271.016 219.353 Q 269.288 220.193 266.888 220.193 L 266.888 220.193 L 257.432 220.193 L 257.432 220.193 Z  M 301.544 198.353 L 301.544 231.953 L 298.856 231.953 L 298.856 214.769 L 283.592 214.769 L 283.592 231.953 L 280.904 231.953 L 280.904 198.353 L 283.592 198.353 L 283.592 212.129 L 298.856 212.129 L 298.856 198.353 L 301.544 198.353 L 301.544 198.353 Z " fill-rule="evenodd" fill="rgb(0,0,0)"/></g></svg>
