<?xml version="1.0" standalone="no"?><!-- Generator: Gravit.io --><svg xmlns="http://www.w3.org/2000/svg" xmlns:xlink="http://www.w3.org/1999/xlink" style="isolation:isolate" viewBox="0 0 1473.56 978.98" width="1473.56" height="978.98"><defs><clipPath id="_clipPath_2GEuwTfwHCUyFBf2j8DGleNs1Bk8ouHS"><rect width="1473.56" height="978.98"/></clipPath></defs><g clip-path="url(#_clipPath_2GEuwTfwHCUyFBf2j8DGleNs1Bk8ouHS)"><path d=" M 45.125 389.976 C 45.125 242.943 164.497 123.571 311.53 123.571 C 458.563 123.571 577.936 242.943 577.936 389.976 C 577.936 537.009 458.563 656.381 311.53 656.381 C 164.497 656.381 45.125 537.009 45.125 389.976 Z " fill="none" stroke-width="5" stroke="rgb(0,0,0)" stroke-linejoin="miter" stroke-linecap="square" stroke-miterlimit="3"/><path d=" M 1038.625 389.976 C 1038.625 294.216 1116.37 216.472 1212.129 216.472 C 1307.888 216.472 1385.633 294.216 1385.633 389.976 C 1385.633 485.735 1307.888 563.48 1212.129 563.48 C 1116.37 563.48 1038.625 485.735 1038.625 389.976 Z " fill="none" stroke-width="5" stroke="rgb(0,0,0)" stroke-linejoin="miter" stroke-linecap="square" stroke-miterlimit="3"/><mask id="_mask_N0hjZC2T2Mu5hkkAy8zPjdJPuddvjQwa"><path d=" M 1300.36 29.98 C 1380.411 128.189 1428.435 253.518 1428.435 389.976 C 1428.435 665.872 1232.12 896.278 971.676 949 C 1061.956 906.332 1124.475 814.412 1124.475 708.005 C 1124.475 560.972 1005.102 441.6 858.069 441.6 C 711.036 441.6 591.664 560.972 591.664 708.005 C 591.664 814.412 654.183 906.332 744.463 949 C 484.019 896.278 287.704 665.872 287.704 389.976 C 287.704 253.518 335.728 128.189 415.779 29.98 C 511.756 171.78 674.106 265.056 858.069 265.056 C 1042.033 265.056 1204.383 171.78 1300.36 29.98 Z " fill="white" stroke="none"/></mask><path d=" M 1300.36 29.98 C 1380.411 128.189 1428.435 253.518 1428.435 389.976 C 1428.435 665.872 1232.12 896.278 971.676 949 C 1061.956 906.332 1124.475 814.412 1124.475 708.005 C 1124.475 560.972 1005.102 441.6 858.069 441.6 C 711.036 441.6 591.664 560.972 591.664 708.005 C 591.664 814.412 654.183 906.332 744.463 949 C 484.019 896.278 287.704 665.872 287.704 389.976 C 287.704 253.518 335.728 128.189 415.779 29.98 C 511.756 171.78 674.106 265.056 858.069 265.056 C 1042.033 265.056 1204.383 171.78 1300.36 29.98 Z " fill="none" mask="url(#_mask_N0hjZC2T2Mu5hkkAy8zPjdJPuddvjQwa)" stroke-width="30" stroke="rgb(0,0,0)" stroke-linejoin="miter" stroke-linecap="square" stroke-miterlimit="3"/></g></svg>
