<?xml version="1.0" standalone="no"?><!-- Generator: Gravit.io --><svg xmlns="http://www.w3.org/2000/svg" xmlns:xlink="http://www.w3.org/1999/xlink" style="isolation:isolate" viewBox="0 0 1744 1744" width="1744" height="1744"><defs><clipPath id="_clipPath_BZ2EG0zHgc3EqjfnjTFH4kXGlQposeO7"><rect width="1744" height="1744"/></clipPath></defs><g clip-path="url(#_clipPath_BZ2EG0zHgc3EqjfnjTFH4kXGlQposeO7)"><path d=" M 1084.5 1270 C 1084.5 1233.574 1114.074 1204 1150.5 1204 C 1186.926 1204 1216.5 1233.574 1216.5 1270 C 1216.5 1306.426 1186.926 1336 1150.5 1336 C 1114.074 1336 1084.5 1306.426 1084.5 1270 Z " fill="none" stroke-width="5" stroke="rgb(0,0,0)" stroke-linejoin="miter" stroke-linecap="square" stroke-miterlimit="3"/><path d=" M 775.886 975.185 C 844.047 911.205 935.731 872 1036.5 872 C 1246.78 872 1417.5 1042.72 1417.5 1253 C 1417.5 1429.032 1297.86 1577.342 1135.528 1620.983 C 1200.698 1585.718 1245 1516.742 1245 1437.5 C 1245 1322.426 1151.574 1229 1036.5 1229 C 921.426 1229 828 1322.426 828 1437.5 C 828 1516.742 872.302 1585.718 937.472 1620.983 C 799.651 1583.931 692.603 1471.433 663.422 1330.576 C 739.266 1266.812 787.5 1171.244 787.5 1064.5 C 787.5 1033.626 783.465 1003.687 775.886 975.185 Z " fill="none" stroke-width="10" stroke="rgb(0,0,0)" stroke-linejoin="miter" stroke-linecap="square" stroke-miterlimit="3"/><path d=" M 903.244 856.746 C 837.197 788.825 796.5 696.128 796.5 594 C 796.5 385.928 965.428 217 1173.5 217 C 1230.473 217 1284.51 229.665 1332.953 252.325 C 1301.524 288.552 1282.5 335.822 1282.5 387.5 C 1282.5 501.47 1375.03 594 1489 594 C 1510.367 594 1530.98 590.748 1550.367 584.702 C 1550.462 587.789 1550.5 590.89 1550.5 594 C 1550.5 751.432 1453.793 886.454 1316.595 942.854 C 1242.462 875.829 1144.212 835 1036.5 835 C 989.914 835 945.097 842.638 903.244 856.746 Z " fill="none" stroke-width="10" stroke="rgb(0,0,0)" stroke-linejoin="miter" stroke-linecap="square" stroke-miterlimit="3"/><path d=" M 1352.5 892 C 1352.5 865.508 1374.008 844 1400.5 844 C 1426.992 844 1448.5 865.508 1448.5 892 C 1448.5 918.492 1426.992 940 1400.5 940 C 1374.008 940 1352.5 918.492 1352.5 892 Z " fill="none" stroke-width="5" stroke="rgb(0,0,0)" stroke-linejoin="miter" stroke-linecap="square" stroke-miterlimit="3"/><path d=" M 1472.5 735 C 1472.5 708.508 1494.008 687 1520.5 687 C 1546.992 687 1568.5 708.508 1568.5 735 C 1568.5 761.492 1546.992 783 1520.5 783 C 1494.008 783 1472.5 761.492 1472.5 735 Z " fill="none" stroke-width="5" stroke="rgb(0,0,0)" stroke-linejoin="miter" stroke-linecap="square" stroke-miterlimit="3"/><path d=" M 1367.55 855.05 C 1297.692 760.858 1313.502 662.616 1381.5 565" fill="none" stroke-width="4" stroke="rgb(0,0,0)" stroke-linejoin="miter" stroke-linecap="square" stroke-miterlimit="3"/><path d=" M 1292.5 459 C 1013.308 520.542 875.938 420.026 889 244" fill="none" stroke-width="4" stroke="rgb(0,0,0)" stroke-linejoin="miter" stroke-linecap="square" stroke-miterlimit="3"/><path d=" M 1285.405 445.204 C 1024.128 502.797 895.573 408.731 907.797 244" fill="none" stroke-width="4" stroke="rgb(0,0,0)" stroke-linejoin="miter" stroke-linecap="square" stroke-miterlimit="3"/><path d=" M 850.286 318.162 C 806.771 252.405 732.145 209 647.461 209 C 513.324 209 404.422 317.902 404.422 452.039 C 404.422 586.176 513.324 695.078 647.461 695.078 C 686.175 695.078 722.788 686.006 755.288 669.878 C 750.822 645.259 748.5 619.899 748.5 594 C 748.5 488.766 786.83 392.414 850.286 318.162 Z " fill="none" stroke-width="10" stroke="rgb(0,0,0)" stroke-linejoin="miter" stroke-linecap="square" stroke-miterlimit="3"/><path d=" M 601.5 742.5 C 601.5 723.459 616.959 708 636 708 C 655.041 708 670.5 723.459 670.5 742.5 C 670.5 761.541 655.041 777 636 777 C 616.959 777 601.5 761.541 601.5 742.5 Z " fill="none" stroke-width="5" stroke="rgb(0,0,0)" stroke-linejoin="miter" stroke-linecap="square" stroke-miterlimit="3"/><path d=" M 437.5 284.5 C 437.5 262.699 455.199 245 477 245 C 498.801 245 516.5 262.699 516.5 284.5 C 516.5 306.301 498.801 324 477 324 C 455.199 324 437.5 306.301 437.5 284.5 Z " fill="none" stroke-width="5" stroke="rgb(0,0,0)" stroke-linejoin="miter" stroke-linecap="square" stroke-miterlimit="3"/><path d=" M 820.5 344 C 820.5 334.617 828.117 327 837.5 327 C 846.883 327 854.5 334.617 854.5 344 C 854.5 353.383 846.883 361 837.5 361 C 828.117 361 820.5 353.383 820.5 344 Z " fill="rgb(0,0,0)"/><path d=" M 775.5 361 C 775.5 353.549 781.549 347.5 789 347.5 C 796.451 347.5 802.5 353.549 802.5 361 C 802.5 368.451 796.451 374.5 789 374.5 C 781.549 374.5 775.5 368.451 775.5 361 Z " fill="rgb(0,0,0)"/><path d=" M 747.5 423.019 C 747.5 411.97 756.47 403 767.519 403 C 778.568 403 787.539 411.97 787.539 423.019 C 787.539 434.068 778.568 443.039 767.519 443.039 C 756.47 443.039 747.5 434.068 747.5 423.019 Z " fill="rgb(0,0,0)"/><path d=" M 143.5 1064.5 C 143.5 900.857 276.357 768 440 768 C 603.643 768 736.5 900.857 736.5 1064.5 C 736.5 1228.143 603.643 1361 440 1361 C 276.357 1361 143.5 1228.143 143.5 1064.5 Z " fill="none" stroke-width="10" stroke="rgb(0,0,0)" stroke-linejoin="miter" stroke-linecap="square" stroke-miterlimit="3"/><path d=" M 352 1188 C 352 1109.628 415.628 1046 494 1046 C 572.372 1046 636 1109.628 636 1188 C 636 1266.372 572.372 1330 494 1330 C 415.628 1330 352 1266.372 352 1188 Z " fill="none" stroke-width="5" stroke="rgb(0,0,0)" stroke-linejoin="miter" stroke-linecap="square" stroke-miterlimit="3"/><path d=" M 544.5 1074.5 C 544.5 1054.907 560.407 1039 580 1039 C 599.593 1039 615.5 1054.907 615.5 1074.5 C 615.5 1094.093 599.593 1110 580 1110 C 560.407 1110 544.5 1094.093 544.5 1074.5 Z " fill="none" stroke-width="5" stroke="rgb(0,0,0)" stroke-linejoin="miter" stroke-linecap="square" stroke-miterlimit="3"/><path d=" M 524 1074.5 C 524 1043.593 549.093 1018.5 580 1018.5 C 610.907 1018.5 636 1043.593 636 1074.5 C 636 1105.407 610.907 1130.5 580 1130.5 C 549.093 1130.5 524 1105.407 524 1074.5 Z " fill="none" stroke-width="5" stroke="rgb(0,0,0)" stroke-linejoin="miter" stroke-linecap="square" stroke-miterlimit="3"/><path d=" M 591.5 1180.5 C 591.5 1172.497 597.997 1166 606 1166 C 614.003 1166 620.5 1172.497 620.5 1180.5 C 620.5 1188.503 614.003 1195 606 1195 C 597.997 1195 591.5 1188.503 591.5 1180.5 Z " fill="rgb(0,0,0)"/><path d=" M 588 1228.5 C 588 1222.705 592.705 1218 598.5 1218 C 604.295 1218 609 1222.705 609 1228.5 C 609 1234.295 604.295 1239 598.5 1239 C 592.705 1239 588 1234.295 588 1228.5 Z " fill="rgb(0,0,0)"/><path d=" M 237.5 947.25 C 237.5 882.538 290.038 830 354.75 830 C 419.462 830 472 882.538 472 947.25 C 472 1011.962 419.462 1064.5 354.75 1064.5 C 290.038 1064.5 237.5 1011.962 237.5 947.25 Z " fill="none" stroke-width="5" stroke="rgb(0,0,0)" stroke-linejoin="miter" stroke-linecap="square" stroke-miterlimit="3"/><path d=" M 384.578 976 C 384.578 962.754 395.332 952 408.578 952 C 421.824 952 432.578 962.754 432.578 976 C 432.578 989.246 421.824 1000 408.578 1000 C 395.332 1000 384.578 989.246 384.578 976 Z " fill="rgb(0,0,0)"/><path d=" M 399.5 901.078 C 399.5 896.068 403.568 892 408.578 892 C 413.588 892 417.655 896.068 417.655 901.078 C 417.655 906.088 413.588 910.155 408.578 910.155 C 403.568 910.155 399.5 906.088 399.5 901.078 Z " fill="rgb(0,0,0)"/><path d=" M 399.5 931.172 C 399.5 922.299 406.704 915.095 415.578 915.095 C 424.451 915.095 431.655 922.299 431.655 931.172 C 431.655 940.046 424.451 947.25 415.578 947.25 C 406.704 947.25 399.5 940.046 399.5 931.172 Z " fill="rgb(0,0,0)"/><path d=" M 786.286 1035.402 C 842.426 978.291 920.545 942.854 1006.875 942.854 C 1177.624 942.854 1316.25 1081.48 1316.25 1252.229 C 1316.25 1422.978 1177.624 1561.604 1006.875 1561.604 C 850.477 1561.604 721.03 1445.301 700.377 1294.538 C 754.583 1233.237 787.5 1152.682 787.5 1064.5 C 787.5 1054.7 787.093 1044.995 786.286 1035.402 Z " fill="none" stroke-width="5" stroke="rgb(0,0,0)" stroke-linejoin="miter" stroke-linecap="square" stroke-miterlimit="3"/><path d=" M 286.296 1453.486 C 138.105 1304.236 46.5 1098.731 46.5 872 C 46.5 864.847 46.591 857.716 46.776 850.608 C 57.955 851.858 69.317 852.5 80.828 852.5 C 248.472 852.5 384.578 716.394 384.578 548.75 C 384.578 451.688 338.953 365.198 267.989 309.585 C 382.084 187.076 532.969 99.289 702.968 63.859 C 718.995 166.426 807.822 245 914.857 245 C 1014.339 245 1098.092 177.125 1122.286 85.195 C 1420.134 179.976 1644.874 439.35 1689.419 756.227 C 1550.206 797.368 1448.5 926.276 1448.5 1078.75 C 1448.5 1177.827 1491.444 1266.954 1559.727 1328.505 C 1411.757 1550.856 1158.869 1697.5 872 1697.5 C 850.982 1697.5 830.147 1696.713 809.524 1695.156 C 769.407 1534.31 623.859 1415 450.664 1415 C 391.639 1415 335.825 1428.857 286.296 1453.486 Z " fill="none" stroke-width="15" stroke="rgb(0,0,0)" stroke-linejoin="miter" stroke-linecap="square" stroke-miterlimit="3"/><mask id="_mask_CQP7VvYP0JRuSWyEjovCecIGBi73HBMy"><path d=" M 0 872 C 0 390.73 390.73 0 872 0 C 1353.27 0 1744 390.73 1744 872 C 1744 1353.27 1353.27 1744 872 1744 C 390.73 1744 0 1353.27 0 872 Z " fill="white" stroke="none"/></mask><path d=" M 0 872 C 0 390.73 390.73 0 872 0 C 1353.27 0 1744 390.73 1744 872 C 1744 1353.27 1353.27 1744 872 1744 C 390.73 1744 0 1353.27 0 872 Z " fill="none" mask="url(#_mask_CQP7VvYP0JRuSWyEjovCecIGBi73HBMy)" stroke-width="30" stroke="rgb(0,0,0)" stroke-linejoin="miter" stroke-linecap="square" stroke-miterlimit="3"/></g></svg>
