<?xml version="1.0" standalone="no"?><!-- Generator: Gravit.io --><svg xmlns="http://www.w3.org/2000/svg" xmlns:xlink="http://www.w3.org/1999/xlink" style="isolation:isolate" viewBox="0 0 1474 1483.86" width="1474" height="1483.86"><defs><clipPath id="_clipPath_7mk4cg70Wa2135X9tHkGmcZCMxcQxFSi"><rect width="1474" height="1483.86"/></clipPath></defs><g clip-path="url(#_clipPath_7mk4cg70Wa2135X9tHkGmcZCMxcQxFSi)"><path d=" M 950 1094 C 950 1057.574 979.574 1028 1016 1028 C 1052.426 1028 1082 1057.574 1082 1094 C 1082 1130.426 1052.426 1160 1016 1160 C 979.574 1160 950 1130.426 950 1094 Z " fill="none" stroke-width="5" stroke="rgb(0,0,0)" stroke-linejoin="miter" stroke-linecap="square" stroke-miterlimit="3"/><path d=" M 641.386 799.185 C 709.547 735.205 801.231 696 902 696 C 1112.28 696 1283 866.72 1283 1077 C 1283 1253.032 1163.36 1401.342 1001.028 1444.983 C 1066.198 1409.718 1110.5 1340.742 1110.5 1261.5 C 1110.5 1146.426 1017.074 1053 902 1053 C 786.926 1053 693.5 1146.426 693.5 1261.5 C 693.5 1340.742 737.802 1409.718 802.972 1444.983 C 665.151 1407.931 558.103 1295.433 528.922 1154.576 C 604.766 1090.812 653 995.244 653 888.5 C 653 857.626 648.965 827.687 641.386 799.185 Z " fill="none" stroke-width="10" stroke="rgb(0,0,0)" stroke-linejoin="miter" stroke-linecap="square" stroke-miterlimit="3"/><line x1="654.5" y1="882" x2="701.5" y2="882" stroke-width="4" stroke="rgb(0,0,0)" stroke-linejoin="miter" stroke-linecap="square" stroke-miterlimit="3"/><line x1="588" y1="1094" x2="626" y2="1132" stroke-width="4" stroke="rgb(0,0,0)" stroke-linejoin="miter" stroke-linecap="square" stroke-miterlimit="3"/><path d=" M 768.744 680.746 C 702.697 612.825 662 520.128 662 418 C 662 209.928 830.928 41 1039 41 C 1095.973 41 1150.01 53.665 1198.453 76.325 C 1167.024 112.552 1148 159.822 1148 211.5 C 1148 325.47 1240.53 418 1354.5 418 C 1375.867 418 1396.48 414.748 1415.867 408.702 C 1415.962 411.789 1416 414.89 1416 418 C 1416 575.432 1319.293 710.454 1182.095 766.854 C 1107.962 699.829 1009.712 659 902 659 C 855.414 659 810.597 666.638 768.744 680.746 Z " fill="none" stroke-width="10" stroke="rgb(0,0,0)" stroke-linejoin="miter" stroke-linecap="square" stroke-miterlimit="3"/><path d=" M 1218 716 C 1218 689.508 1239.508 668 1266 668 C 1292.492 668 1314 689.508 1314 716 C 1314 742.492 1292.492 764 1266 764 C 1239.508 764 1218 742.492 1218 716 Z " fill="none" stroke-width="5" stroke="rgb(0,0,0)" stroke-linejoin="miter" stroke-linecap="square" stroke-miterlimit="3"/><path d=" M 1338 559 C 1338 532.508 1359.508 511 1386 511 C 1412.492 511 1434 532.508 1434 559 C 1434 585.492 1412.492 607 1386 607 C 1359.508 607 1338 585.492 1338 559 Z " fill="none" stroke-width="5" stroke="rgb(0,0,0)" stroke-linejoin="miter" stroke-linecap="square" stroke-miterlimit="3"/><line x1="1233.05" y1="679.05" x2="1059" y2="505" stroke-width="4" stroke="rgb(0,0,0)" stroke-linejoin="miter" stroke-linecap="square" stroke-miterlimit="3"/><line x1="1236" y1="380" x2="1200" y2="420" stroke-width="4" stroke="rgb(0,0,0)" stroke-linejoin="miter" stroke-linecap="square" stroke-miterlimit="3"/><line x1="1158" y1="283" x2="1114" y2="301" stroke-width="4" stroke="rgb(0,0,0)" stroke-linejoin="miter" stroke-linecap="square" stroke-miterlimit="3"/><line x1="1147.5" y1="180" x2="1103.745" y2="180" stroke-width="4" stroke="rgb(0,0,0)" stroke-linejoin="miter" stroke-linecap="square" stroke-miterlimit="3"/><path d=" M 715.786 142.162 C 672.271 76.405 597.645 33 512.961 33 C 378.824 33 269.922 141.902 269.922 276.039 C 269.922 410.176 378.824 519.078 512.961 519.078 C 551.675 519.078 588.288 510.006 620.788 493.878 C 616.322 469.259 614 443.899 614 418 C 614 312.766 652.33 216.414 715.786 142.162 Z " fill="none" stroke-width="10" stroke="rgb(0,0,0)" stroke-linejoin="miter" stroke-linecap="square" stroke-miterlimit="3"/><path d=" M 467 566.5 C 467 547.459 482.459 532 501.5 532 C 520.541 532 536 547.459 536 566.5 C 536 585.541 520.541 601 501.5 601 C 482.459 601 467 585.541 467 566.5 Z " fill="none" stroke-width="5" stroke="rgb(0,0,0)" stroke-linejoin="miter" stroke-linecap="square" stroke-miterlimit="3"/><path d=" M 303 108.5 C 303 86.699 320.699 69 342.5 69 C 364.301 69 382 86.699 382 108.5 C 382 130.301 364.301 148 342.5 148 C 320.699 148 303 130.301 303 108.5 Z " fill="none" stroke-width="5" stroke="rgb(0,0,0)" stroke-linejoin="miter" stroke-linecap="square" stroke-miterlimit="3"/><path d=" M 686 168 C 686 158.617 693.617 151 703 151 C 712.383 151 720 158.617 720 168 C 720 177.383 712.383 185 703 185 C 693.617 185 686 177.383 686 168 Z " fill="rgb(0,0,0)"/><path d=" M 641 185 C 641 177.549 647.049 171.5 654.5 171.5 C 661.951 171.5 668 177.549 668 185 C 668 192.451 661.951 198.5 654.5 198.5 C 647.049 198.5 641 192.451 641 185 Z " fill="rgb(0,0,0)"/><path d=" M 613 247.019 C 613 235.97 621.97 227 633.019 227 C 644.068 227 653.039 235.97 653.039 247.019 C 653.039 258.068 644.068 267.039 633.019 267.039 C 621.97 267.039 613 258.068 613 247.019 Z " fill="rgb(0,0,0)"/><path d=" M 9 888.5 C 9 724.857 141.857 592 305.5 592 C 469.143 592 602 724.857 602 888.5 C 602 1052.143 469.143 1185 305.5 1185 C 141.857 1185 9 1052.143 9 888.5 Z " fill="none" stroke-width="10" stroke="rgb(0,0,0)" stroke-linejoin="miter" stroke-linecap="square" stroke-miterlimit="3"/><path d=" M 217.5 1012 C 217.5 933.628 281.128 870 359.5 870 C 437.872 870 501.5 933.628 501.5 1012 C 501.5 1090.372 437.872 1154 359.5 1154 C 281.128 1154 217.5 1090.372 217.5 1012 Z " fill="none" stroke-width="5" stroke="rgb(0,0,0)" stroke-linejoin="miter" stroke-linecap="square" stroke-miterlimit="3"/><path d=" M 410 898.5 C 410 878.907 425.907 863 445.5 863 C 465.093 863 481 878.907 481 898.5 C 481 918.093 465.093 934 445.5 934 C 425.907 934 410 918.093 410 898.5 Z " fill="none" stroke-width="5" stroke="rgb(0,0,0)" stroke-linejoin="miter" stroke-linecap="square" stroke-miterlimit="3"/><path d=" M 389.5 898.5 C 389.5 867.593 414.593 842.5 445.5 842.5 C 476.407 842.5 501.5 867.593 501.5 898.5 C 501.5 929.407 476.407 954.5 445.5 954.5 C 414.593 954.5 389.5 929.407 389.5 898.5 Z " fill="none" stroke-width="5" stroke="rgb(0,0,0)" stroke-linejoin="miter" stroke-linecap="square" stroke-miterlimit="3"/><path d=" M 457 1004.5 C 457 996.497 463.497 990 471.5 990 C 479.503 990 486 996.497 486 1004.5 C 486 1012.503 479.503 1019 471.5 1019 C 463.497 1019 457 1012.503 457 1004.5 Z " fill="rgb(0,0,0)"/><path d=" M 453.5 1052.5 C 453.5 1046.705 458.205 1042 464 1042 C 469.795 1042 474.5 1046.705 474.5 1052.5 C 474.5 1058.295 469.795 1063 464 1063 C 458.205 1063 453.5 1058.295 453.5 1052.5 Z " fill="rgb(0,0,0)"/><path d=" M 103 771.25 C 103 706.538 155.538 654 220.25 654 C 284.962 654 337.5 706.538 337.5 771.25 C 337.5 835.962 284.962 888.5 220.25 888.5 C 155.538 888.5 103 835.962 103 771.25 Z " fill="none" stroke-width="5" stroke="rgb(0,0,0)" stroke-linejoin="miter" stroke-linecap="square" stroke-miterlimit="3"/><path d=" M 250.078 800 C 250.078 786.754 260.832 776 274.078 776 C 287.324 776 298.078 786.754 298.078 800 C 298.078 813.246 287.324 824 274.078 824 C 260.832 824 250.078 813.246 250.078 800 Z " fill="rgb(0,0,0)"/><path d=" M 265 725.078 C 265 720.068 269.068 716 274.078 716 C 279.088 716 283.155 720.068 283.155 725.078 C 283.155 730.088 279.088 734.155 274.078 734.155 C 269.068 734.155 265 730.088 265 725.078 Z " fill="rgb(0,0,0)"/><path d=" M 265 755.172 C 265 746.299 272.204 739.095 281.078 739.095 C 289.951 739.095 297.155 746.299 297.155 755.172 C 297.155 764.046 289.951 771.25 281.078 771.25 C 272.204 771.25 265 764.046 265 755.172 Z " fill="rgb(0,0,0)"/></g></svg>
