<?xml version="1.0" standalone="no"?><!-- Generator: Gravit.io --><svg xmlns="http://www.w3.org/2000/svg" xmlns:xlink="http://www.w3.org/1999/xlink" style="isolation:isolate" viewBox="0 0 5331.156 2364" width="5331.156" height="2364"><defs><clipPath id="_clipPath_KLQ05IfSZoqS2b2O49AgVqtVLBjQyNuN"><rect width="5331.156" height="2364"/></clipPath></defs><g clip-path="url(#_clipPath_KLQ05IfSZoqS2b2O49AgVqtVLBjQyNuN)"><g id="Group"><g id="Group"><path d=" M 710 820.818 C 710 797.913 728.596 779.318 751.5 779.318 C 774.404 779.318 793 797.913 793 820.818 C 793 843.722 774.404 862.318 751.5 862.318 C 728.596 862.318 710 843.722 710 820.818 Z " fill="none" stroke-width="5" stroke="rgb(0,0,0)" stroke-linejoin="miter" stroke-linecap="square" stroke-miterlimit="3"/><path d=" M 818.469 309.364 C 797.311 302.771 774.817 299.225 751.5 299.225 C 627.043 299.225 526 400.268 526 524.725 C 526 649.181 627.043 750.225 751.5 750.225 C 774.817 750.225 797.311 746.678 818.469 740.085 C 786.427 675.117 768.423 602.007 768.423 524.725 C 768.423 447.442 786.427 374.332 818.469 309.364 Z " fill="none" stroke-width="5" stroke="rgb(0,0,0)" stroke-linejoin="miter" stroke-linecap="square" stroke-miterlimit="3"/><path d=" M 737.969 424.161 C 737.969 401.947 756.005 383.911 778.219 383.911 C 800.434 383.911 818.469 401.947 818.469 424.161 C 818.469 446.376 800.434 464.411 778.219 464.411 C 756.005 464.411 737.969 446.376 737.969 424.161 Z " fill="rgb(0,0,0)"/><path d=" M 725 532.475 C 725 510.26 743.035 492.225 765.25 492.225 C 787.465 492.225 805.5 510.26 805.5 532.475 C 805.5 554.689 787.465 572.725 765.25 572.725 C 743.035 572.725 725 554.689 725 532.475 Z " fill="rgb(0,0,0)"/><path d=" M 737.969 634.475 C 737.969 612.26 756.005 594.225 778.219 594.225 C 800.434 594.225 818.469 612.26 818.469 634.475 C 818.469 656.689 800.434 674.725 778.219 674.725 C 756.005 674.725 737.969 656.689 737.969 634.475 Z " fill="rgb(0,0,0)"/><path d=" M 818.469 532.475 C 818.469 504.327 841.322 481.475 869.469 481.475 C 897.617 481.475 920.469 504.327 920.469 532.475 C 920.469 560.622 897.617 583.475 869.469 583.475 C 841.322 583.475 818.469 560.622 818.469 532.475 Z " fill="none" stroke-width="5" stroke="rgb(0,0,0)" stroke-linejoin="miter" stroke-linecap="square" stroke-miterlimit="3"/></g><g id="Group"><path d=" M 3462.672 1226.336 C 3462.672 1088.543 3574.543 976.672 3712.336 976.672 C 3850.129 976.672 3962 1088.543 3962 1226.336 C 3962 1364.129 3850.129 1476 3712.336 1476 C 3574.543 1476 3462.672 1364.129 3462.672 1226.336 Z " fill="none" stroke-width="5" stroke="rgb(0,0,0)" stroke-linejoin="miter" stroke-linecap="square" stroke-miterlimit="3"/><path d=" M 3560.901 1226.336 C 3560.901 1142.757 3628.757 1074.901 3712.336 1074.901 C 3795.916 1074.901 3863.772 1142.757 3863.772 1226.336 C 3863.772 1309.916 3795.916 1377.772 3712.336 1377.772 C 3628.757 1377.772 3560.901 1309.916 3560.901 1226.336 Z " fill="none" stroke-width="10" stroke="rgb(0,0,0)" stroke-linejoin="miter" stroke-linecap="square" stroke-miterlimit="3"/><line x1="3712.336" y1="1377.772" x2="3712.336" y2="1476" stroke-width="4" stroke="rgb(0,0,0)" stroke-linejoin="miter" stroke-linecap="square" stroke-miterlimit="3"/></g><g id="Group"><path d=" M 2104.231 1774.149 C 2104.231 1724.786 2144.308 1684.709 2193.671 1684.709 C 2243.034 1684.709 2283.111 1724.786 2283.111 1774.149 C 2283.111 1823.512 2243.034 1863.589 2193.671 1863.589 C 2144.308 1863.589 2104.231 1823.512 2104.231 1774.149 Z " fill="none" stroke-width="5" stroke="rgb(0,0,0)" stroke-linejoin="miter" stroke-linecap="square" stroke-miterlimit="3"/><path d=" M 2067.561 1774.149 C 2067.561 1704.547 2124.069 1648.039 2193.671 1648.039 C 2263.273 1648.039 2319.781 1704.547 2319.781 1774.149 C 2319.781 1843.751 2263.273 1900.259 2193.671 1900.259 C 2124.069 1900.259 2067.561 1843.751 2067.561 1774.149 Z " fill="none" stroke-width="5" stroke="rgb(0,0,0)" stroke-linejoin="miter" stroke-linecap="square" stroke-miterlimit="3"/><path d=" M 2029.996 1774.149 C 2029.996 1683.815 2103.336 1610.474 2193.671 1610.474 C 2284.006 1610.474 2357.346 1683.815 2357.346 1774.149 C 2357.346 1864.484 2284.006 1937.824 2193.671 1937.824 C 2103.336 1937.824 2029.996 1864.484 2029.996 1774.149 Z " fill="none" stroke-width="5" stroke="rgb(0,0,0)" stroke-linejoin="miter" stroke-linecap="square" stroke-miterlimit="3"/><path d=" M 1994.82 1774.149 C 1994.82 1664.4 2083.922 1575.298 2193.671 1575.298 C 2303.42 1575.298 2392.522 1664.4 2392.522 1774.149 C 2392.522 1883.898 2303.42 1973 2193.671 1973 C 2083.922 1973 1994.82 1883.898 1994.82 1774.149 Z " fill="none" stroke-width="5" stroke="rgb(0,0,0)" stroke-linejoin="miter" stroke-linecap="square" stroke-miterlimit="3"/><path d=" M 2139.421 1774.149 C 2139.421 1744.208 2163.729 1719.899 2193.671 1719.899 C 2223.613 1719.899 2247.921 1744.208 2247.921 1774.149 C 2247.921 1804.091 2223.613 1828.4 2193.671 1828.4 C 2163.729 1828.4 2139.421 1804.091 2139.421 1774.149 Z " fill="none" stroke-width="10" stroke="rgb(0,0,0)" stroke-linejoin="miter" stroke-linecap="square" stroke-miterlimit="3"/><line x1="2193.671" y1="1937.824" x2="2193.671" y2="1972.855" stroke-width="4" stroke="rgb(0,0,0)" stroke-linejoin="miter" stroke-linecap="square" stroke-miterlimit="3"/></g><g id="Group"><path d=" M 444 1161.007 C 444 1052.184 532.35 963.834 641.172 963.834 C 749.994 963.834 838.344 1052.184 838.344 1161.007 C 838.344 1269.829 749.994 1358.179 641.172 1358.179 C 532.35 1358.179 444 1269.829 444 1161.007 Z " fill="none" stroke-width="5" stroke="rgb(0,0,0)" stroke-linejoin="miter" stroke-linecap="square" stroke-miterlimit="3"/><path d=" M 531.219 1100.694 C 531.219 1040.009 580.487 990.741 641.172 990.741 C 701.857 990.741 751.125 1040.009 751.125 1100.694 C 751.125 1161.379 701.857 1210.648 641.172 1210.648 C 580.487 1210.648 531.219 1161.379 531.219 1100.694 Z " fill="none" stroke-width="5" stroke="rgb(0,0,0)" stroke-linejoin="miter" stroke-linecap="square" stroke-miterlimit="3"/><path d=" M 588.328 1288.585 C 588.328 1259.42 612.007 1235.741 641.172 1235.741 C 670.337 1235.741 694.016 1259.42 694.016 1288.585 C 694.016 1317.75 670.337 1341.429 641.172 1341.429 C 612.007 1341.429 588.328 1317.75 588.328 1288.585 Z " fill="none" stroke-width="5" stroke="rgb(0,0,0)" stroke-linejoin="miter" stroke-linecap="square" stroke-miterlimit="3"/><line x1="641.172" y1="1235.741" x2="641.172" y2="1211.884" stroke-width="4" stroke="rgb(0,0,0)" stroke-linejoin="miter" stroke-linecap="square" stroke-miterlimit="3"/></g><g id="Group"><path d=" M 284.024 1496 C 284.024 1423.699 342.723 1365 415.024 1365 C 487.325 1365 546.024 1423.699 546.024 1496 C 546.024 1568.301 487.325 1627 415.024 1627 C 342.723 1627 284.024 1568.301 284.024 1496 Z " fill="none" stroke-width="5" stroke="rgb(0,0,0)" stroke-linejoin="miter" stroke-linecap="square" stroke-miterlimit="3"/><path d=" M 388.024 1665 C 388.024 1650.098 400.122 1638 415.024 1638 C 429.925 1638 442.024 1650.098 442.024 1665 C 442.024 1679.902 429.925 1692 415.024 1692 C 400.122 1692 388.024 1679.902 388.024 1665 Z " fill="none" stroke-width="5" stroke="rgb(0,0,0)" stroke-linejoin="miter" stroke-linecap="square" stroke-miterlimit="3"/></g><path d=" M 813.976 2192.488 C 813.976 2164.058 837.058 2140.976 865.488 2140.976 C 893.918 2140.976 917 2164.058 917 2192.488 C 917 2220.918 893.918 2244 865.488 2244 C 837.058 2244 813.976 2220.918 813.976 2192.488 Z " fill="none" stroke-width="5" stroke="rgb(0,0,0)" stroke-linejoin="miter" stroke-linecap="square" stroke-miterlimit="3"/><g id="Group"><path d=" M 1184.83 2117.202 C 1184.83 2073.595 1220.233 2038.192 1263.84 2038.192 C 1307.446 2038.192 1342.85 2073.595 1342.85 2117.202 C 1342.85 2160.809 1307.446 2196.212 1263.84 2196.212 C 1220.233 2196.212 1184.83 2160.809 1184.83 2117.202 Z " fill="none" stroke-width="5" stroke="rgb(0,0,0)" stroke-linejoin="miter" stroke-linecap="square" stroke-miterlimit="3"/><path d=" M 1239.328 2153.665 C 1239.328 2146.901 1244.82 2141.409 1251.584 2141.409 C 1258.348 2141.409 1263.84 2146.901 1263.84 2153.665 C 1263.84 2160.429 1258.348 2165.921 1251.584 2165.921 C 1244.82 2165.921 1239.328 2160.429 1239.328 2153.665 Z " fill="rgb(0,0,0)"/><path d=" M 1306 2110.256 C 1306 2103.492 1311.492 2098 1318.256 2098 C 1325.02 2098 1330.512 2103.492 1330.512 2110.256 C 1330.512 2117.02 1325.02 2122.512 1318.256 2122.512 C 1311.492 2122.512 1306 2117.02 1306 2110.256 Z " fill="rgb(0,0,0)"/><path d=" M 1275.455 2046.933 C 1275.455 2037.469 1283.138 2029.786 1292.602 2029.786 C 1302.065 2029.786 1309.749 2037.469 1309.749 2046.933 C 1309.749 2056.397 1302.065 2064.08 1292.602 2064.08 C 1283.138 2064.08 1275.455 2056.397 1275.455 2046.933 Z " fill="none" stroke-width="5" stroke="rgb(0,0,0)" stroke-linejoin="miter" stroke-linecap="square" stroke-miterlimit="3"/><path d=" M 1454.809 1903.706 C 1454.809 1891.274 1464.902 1881.18 1477.335 1881.18 C 1489.768 1881.18 1499.861 1891.274 1499.861 1903.706 C 1499.861 1916.139 1489.768 1926.233 1477.335 1926.233 C 1464.902 1926.233 1454.809 1916.139 1454.809 1903.706 Z " fill="none" stroke-width="5" stroke="rgb(0,0,0)" stroke-linejoin="miter" stroke-linecap="square" stroke-miterlimit="3"/><path d=" M 1067.008 1820.961 C 1056.274 1846.409 1050.344 1874.371 1050.344 1903.706 C 1050.344 2021.538 1146.008 2117.202 1263.84 2117.202 C 1381.671 2117.202 1477.335 2021.538 1477.335 1903.706 C 1477.335 1870.789 1469.869 1839.601 1456.531 1811.751 C 1394.496 1841.595 1324.977 1858.318 1251.584 1858.318 C 1186.122 1858.318 1123.743 1845.014 1067.008 1820.961 Z " fill="none" stroke-width="5" stroke="rgb(0,0,0)" stroke-linejoin="miter" stroke-linecap="square" stroke-miterlimit="3"/><path d=" M 1218.702 1869.877 C 1210.909 1869.877 1204.581 1863.55 1204.581 1855.756 C 1204.581 1847.962 1210.909 1841.635 1218.702 1841.635 C 1226.496 1841.635 1232.823 1847.962 1232.823 1855.756 C 1232.823 1863.55 1226.496 1869.877 1218.702 1869.877 Z " fill="rgb(0,0,0)"/><path d=" M 1251.584 1869.877 C 1243.79 1869.877 1237.463 1863.55 1237.463 1855.756 C 1237.463 1847.962 1243.79 1841.635 1251.584 1841.635 C 1259.377 1841.635 1265.705 1847.962 1265.705 1855.756 C 1265.705 1863.55 1259.377 1869.877 1251.584 1869.877 Z " fill="rgb(0,0,0)"/><path d=" M 1284.465 1869.877 C 1276.672 1869.877 1270.344 1863.55 1270.344 1855.756 C 1270.344 1847.962 1276.672 1841.635 1284.465 1841.635 C 1292.259 1841.635 1298.586 1847.962 1298.586 1855.756 C 1298.586 1863.55 1292.259 1869.877 1284.465 1869.877 Z " fill="rgb(0,0,0)"/><line x1="1499.861" y1="1903.706" x2="1815.78" y2="1903.706" stroke-width="4" stroke="rgb(0,0,0)" stroke-linejoin="miter" stroke-linecap="square" stroke-miterlimit="3"/></g><g id="Group"><path d=" M 1445.543 1491.675 C 1386.379 1491.675 1338.344 1443.641 1338.344 1384.476 C 1338.344 1325.311 1386.379 1277.277 1445.543 1277.277 C 1504.708 1277.277 1552.743 1325.311 1552.743 1384.476 C 1552.743 1443.641 1504.708 1491.675 1445.543 1491.675 Z " fill="none" stroke-width="5" stroke="rgb(0,0,0)" stroke-linejoin="miter" stroke-linecap="butt" stroke-miterlimit="3"/><path d=" M 963.223 1240.8 C 976.118 1214.963 992.395 1191.105 1011.464 1169.797 C 1070.469 1235.747 1156.215 1277.277 1251.584 1277.277 C 1346.953 1277.277 1432.699 1235.747 1491.703 1169.797 C 1542.713 1226.796 1573.743 1302.041 1573.743 1384.476 C 1573.743 1533.856 1471.853 1659.627 1333.834 1696.01 C 1371.736 1669.858 1396.584 1626.125 1396.584 1576.635 C 1396.584 1496.607 1331.612 1431.635 1251.584 1431.635 C 1171.556 1431.635 1106.584 1496.607 1106.584 1576.635 C 1106.584 1626.125 1131.431 1669.858 1169.333 1696.01 C 1079.008 1672.199 1004.156 1610.104 963.22 1528.156 C 999.923 1491.324 1022.62 1440.53 1022.62 1384.476 C 1022.62 1328.424 999.924 1277.632 963.223 1240.8 Z " fill="none" stroke-width="5" stroke="rgb(0,0,0)" stroke-linejoin="miter" stroke-linecap="butt" stroke-miterlimit="3"/><path d=" M 1212.696 1226.023 C 1212.696 1204.56 1230.121 1187.135 1251.584 1187.135 C 1273.046 1187.135 1290.471 1204.56 1290.471 1226.023 C 1290.471 1247.485 1273.046 1264.91 1251.584 1264.91 C 1230.121 1264.91 1212.696 1247.485 1212.696 1226.023 Z " fill="none" stroke-width="5" stroke="rgb(0,0,0)" stroke-linejoin="miter" stroke-linecap="square" stroke-miterlimit="3"/><path d=" M 1159.344 1576.635 C 1159.344 1562.561 1170.77 1551.135 1184.844 1551.135 C 1198.918 1551.135 1210.344 1562.561 1210.344 1576.635 C 1210.344 1590.709 1198.918 1602.135 1184.844 1602.135 C 1170.77 1602.135 1159.344 1590.709 1159.344 1576.635 Z " fill="rgb(0,0,0)"/><path d=" M 1292.823 1576.635 C 1292.823 1562.561 1304.25 1551.135 1318.323 1551.135 C 1332.397 1551.135 1343.823 1562.561 1343.823 1576.635 C 1343.823 1590.709 1332.397 1602.135 1318.323 1602.135 C 1304.25 1602.135 1292.823 1590.709 1292.823 1576.635 Z " fill="rgb(0,0,0)"/><path d=" M 1251.584 1721.635 C 1234.75 1721.635 1221.084 1735.302 1221.084 1752.135 C 1221.084 1768.969 1234.75 1782.635 1251.584 1782.635 C 1268.417 1782.635 1282.084 1768.969 1282.084 1752.135 C 1282.084 1735.302 1268.417 1721.635 1251.584 1721.635 Z " fill="none" stroke-width="5" stroke="rgb(0,0,0)" stroke-linejoin="miter" stroke-linecap="butt" stroke-miterlimit="3"/><line x1="1335.344" y1="1384.476" x2="1024.344" y2="1384.476" stroke-width="4" stroke="rgb(0,0,0)" stroke-linejoin="miter" stroke-linecap="square" stroke-miterlimit="3"/><line x1="1080.344" y1="1231.302" x2="1080.344" y2="1654.111" stroke-width="4" stroke="rgb(0,0,0)" stroke-linejoin="miter" stroke-linecap="square" stroke-miterlimit="3"/><line x1="1043.987" y1="1201.947" x2="983.232" y2="1262.702" stroke-width="4" stroke="rgb(0,0,0)" stroke-linejoin="miter" stroke-linecap="square" stroke-miterlimit="3"/><line x1="1068" y1="1220" x2="999.451" y2="1288.549" stroke-width="4" stroke="rgb(0,0,0)" stroke-linejoin="miter" stroke-linecap="square" stroke-miterlimit="3"/></g><path d=" M 2061.501 459.013 C 1852.217 198.708 1531.173 32 1171.5 32 C 541.489 32 30 543.489 30 1173.5 C 30 1803.511 541.489 2315 1171.5 2315 C 1483.671 2315 1766.743 2189.418 1972.908 1986.063 C 1799.225 1796.065 1693.225 1543.176 1693.225 1265.725 C 1693.225 943.793 1835.937 654.93 2061.501 459.013 Z " fill="none" stroke-width="20" stroke="rgb(0,0,0)" stroke-linejoin="miter" stroke-linecap="square" stroke-miterlimit="3"/><path d=" M 1965.872 456.215 C 1769.917 239.354 1486.507 103 1171.5 103 C 580.675 103 101 582.675 101 1173.5 C 101 1764.325 580.675 2244 1171.5 2244 C 1441.931 2244 1689.075 2143.506 1877.593 1977.857 C 1720.385 1783.053 1626.225 1535.298 1626.225 1265.725 C 1626.225 948.909 1756.279 662.23 1965.872 456.215 Z " fill="none" stroke-width="20" stroke="rgb(0,0,0)" stroke-linejoin="miter" stroke-linecap="square" stroke-miterlimit="3"/><g id="Group"><path d=" M 2617.917 1254 C 2617.917 1238.546 2630.463 1226 2645.917 1226 C 2661.37 1226 2673.917 1238.546 2673.917 1254 C 2673.917 1269.454 2661.37 1282 2645.917 1282 C 2630.463 1282 2617.917 1269.454 2617.917 1254 Z " fill="none" stroke-width="5" stroke="rgb(0,0,0)" stroke-linejoin="miter" stroke-linecap="square" stroke-miterlimit="3"/><path d=" M 2561.417 789.449 C 2561.417 758.266 2586.733 732.949 2617.917 732.949 C 2649.1 732.949 2674.417 758.266 2674.417 789.449 C 2674.417 820.632 2649.1 845.949 2617.917 845.949 C 2586.733 845.949 2561.417 820.632 2561.417 789.449 Z " fill="none" stroke-width="5" stroke="rgb(0,0,0)" stroke-linejoin="miter" stroke-linecap="butt" stroke-miterlimit="3"/><path d=" M 2593.917 373.449 C 2593.917 344.75 2617.217 321.449 2645.917 321.449 C 2674.616 321.449 2697.917 344.75 2697.917 373.449 C 2697.917 402.149 2674.616 425.449 2645.917 425.449 C 2617.217 425.449 2593.917 402.149 2593.917 373.449 Z " fill="none" stroke-width="5" stroke="rgb(0,0,0)" stroke-linejoin="miter" stroke-linecap="square" stroke-miterlimit="3"/><line x1="2645.917" y1="321.449" x2="2645.917" y2="259.449" stroke-width="4" stroke="rgb(0,0,0)" stroke-linejoin="miter" stroke-linecap="square" stroke-miterlimit="3"/><path d=" M 2366 468.446 C 2440.874 403.066 2538.805 363.449 2645.917 363.449 C 2831.463 363.449 2989.463 482.33 3047.846 648.01 C 3004.441 589.296 2934.718 551.199 2856.167 551.199 C 2724.673 551.199 2617.917 657.955 2617.917 789.449 C 2617.917 920.943 2724.673 1027.699 2856.167 1027.699 C 2934.718 1027.699 3004.441 989.602 3047.846 930.889 C 2989.463 1096.568 2831.463 1215.449 2645.917 1215.449 C 2538.805 1215.449 2440.874 1175.833 2366 1110.452 C 2465.842 1038.748 2530.917 921.638 2530.917 789.449 C 2530.917 657.26 2465.842 540.15 2366 468.446 Z " fill="none" stroke-width="5" stroke="rgb(0,0,0)" stroke-linejoin="miter" stroke-linecap="square" stroke-miterlimit="3"/></g><g id="Group"><path d=" M 2807.676 2158.129 C 2776.617 2165.896 2744.118 2170.008 2710.667 2170.008 C 2677.002 2170.008 2644.302 2165.844 2613.058 2157.995" fill="none" stroke-width="5" stroke="rgb(0,0,0)" stroke-linejoin="miter" stroke-linecap="square" stroke-miterlimit="3"/><path d=" M 2387 1504.044 C 2441.798 1437.36 2516.786 1387.887 2602.58 1365 C 2542.398 1401.578 2502.168 1467.768 2502.168 1543.28 C 2502.168 1658.353 2595.593 1751.778 2710.667 1751.778 C 2825.74 1751.778 2919.166 1658.353 2919.166 1543.28 C 2919.166 1467.775 2878.944 1401.591 2818.771 1365.011 C 2941.628 1397.784 3042.32 1485.084 3093.301 1599.359 C 3010.478 1611.843 2946.906 1683.394 2946.906 1769.675 C 2946.906 1855.956 3010.478 1927.506 3093.3 1939.991 C 3034.542 2071.702 2909.743 2167.575 2761.09 2185.439 C 2822.06 2164.491 2865.922 2106.615 2865.922 2038.576 C 2865.922 1952.888 2796.355 1883.32 2710.667 1883.32 C 2624.979 1883.32 2555.412 1952.888 2555.412 2038.576 C 2555.412 2106.615 2599.274 2164.491 2660.244 2185.439 C 2553.025 2172.554 2458.216 2119.087 2391.653 2040.853 C 2473.091 1980.294 2525.882 1883.338 2525.882 1774.149 C 2525.882 1662.894 2471.074 1564.339 2387 1504.044 Z " fill="none" stroke-width="5" stroke="rgb(0,0,0)" stroke-linejoin="miter" stroke-linecap="square" stroke-miterlimit="3"/><path d=" M 2675.321 1883.32 C 2675.321 1863.812 2691.159 1847.974 2710.667 1847.974 C 2730.175 1847.974 2746.013 1863.812 2746.013 1883.32 C 2746.013 1902.828 2730.175 1918.666 2710.667 1918.666 C 2691.159 1918.666 2675.321 1902.828 2675.321 1883.32 Z " fill="none" stroke-width="5" stroke="rgb(0,0,0)" stroke-linejoin="miter" stroke-linecap="square" stroke-miterlimit="3"/><path d=" M 3050 1608.66 C 3050 1600.017 3057.017 1593 3065.66 1593 C 3074.303 1593 3081.32 1600.017 3081.32 1608.66 C 3081.32 1617.303 3074.303 1624.32 3065.66 1624.32 C 3057.017 1624.32 3050 1617.303 3050 1608.66 Z " fill="rgb(0,0,0)"/><path d=" M 2943.326 1701.678 C 2943.326 1693.035 2950.343 1686.018 2958.986 1686.018 C 2967.629 1686.018 2974.646 1693.035 2974.646 1701.678 C 2974.646 1710.32 2967.629 1717.337 2958.986 1717.337 C 2950.343 1717.337 2943.326 1710.32 2943.326 1701.678 Z " fill="rgb(0,0,0)"/><path d=" M 2933.483 1736.118 C 2933.483 1727.476 2940.5 1720.459 2949.143 1720.459 C 2957.786 1720.459 2964.803 1727.476 2964.803 1736.118 C 2964.803 1744.761 2957.786 1751.778 2949.143 1751.778 C 2940.5 1751.778 2933.483 1744.761 2933.483 1736.118 Z " fill="rgb(0,0,0)"/><path d=" M 2675.321 1543.28 C 2675.321 1523.771 2691.159 1507.933 2710.667 1507.933 C 2730.175 1507.933 2746.013 1523.771 2746.013 1543.28 C 2746.013 1562.788 2730.175 1578.626 2710.667 1578.626 C 2691.159 1578.626 2675.321 1562.788 2675.321 1543.28 Z " fill="none" stroke-width="5" stroke="rgb(0,0,0)" stroke-linejoin="miter" stroke-linecap="square" stroke-miterlimit="3"/><line x1="2710.667" y1="1752.673" x2="2710.667" y2="1883.32" stroke-width="4" stroke="rgb(0,0,0)" stroke-linejoin="miter" stroke-linecap="square" stroke-miterlimit="3"/></g><g id="Group"><path d=" M 1842.076 1044.664 C 1842.076 921.332 1942.206 821.202 2065.538 821.202 C 2188.87 821.202 2289 921.332 2289 1044.664 C 2289 1167.997 2188.87 1268.127 2065.538 1268.127 C 1942.206 1268.127 1842.076 1167.997 1842.076 1044.664 Z " fill="none" stroke-width="5" stroke="rgb(0,0,0)" stroke-linejoin="miter" stroke-linecap="butt" stroke-miterlimit="3"/><path d=" M 1920.36 1268.127 C 1920.36 1188.001 1985.412 1122.949 2065.538 1122.949 C 2145.664 1122.949 2210.716 1188.001 2210.716 1268.127 C 2210.716 1348.252 2145.664 1413.304 2065.538 1413.304 C 1985.412 1413.304 1920.36 1348.252 1920.36 1268.127 Z " fill="none" stroke-width="5" stroke="rgb(0,0,0)" stroke-linejoin="miter" stroke-linecap="square" stroke-miterlimit="3"/><path d=" M 2014.121 1268.127 C 2014.121 1239.749 2037.16 1216.709 2065.538 1216.709 C 2093.916 1216.709 2116.955 1239.749 2116.955 1268.127 C 2116.955 1296.504 2093.916 1319.544 2065.538 1319.544 C 2037.16 1319.544 2014.121 1296.504 2014.121 1268.127 Z " fill="none" stroke-width="5" stroke="rgb(0,0,0)" stroke-linejoin="miter" stroke-linecap="square" stroke-miterlimit="3"/></g><path d=" M 3507.948 591.179 C 3323.759 387.499 3057.465 259.449 2761.5 259.449 C 2206.121 259.449 1755.225 710.346 1755.225 1265.725 C 1755.225 1821.103 2206.121 2272 2761.5 2272 C 3032.814 2272 3279.192 2164.393 3460.252 1989.568 C 3313.638 1805.238 3226 1571.945 3226 1318.344 C 3226 1038.338 3332.839 783.089 3507.948 591.179 Z " fill="none" stroke-width="20" stroke="rgb(0,0,0)" stroke-linejoin="miter" stroke-linecap="square" stroke-miterlimit="3"/><g id="Group"><path d=" M 4581 1226.336 C 4581 1071.66 4706.577 946.083 4861.253 946.083 C 5015.929 946.083 5141.507 1071.66 5141.507 1226.336 C 5141.507 1381.012 5015.929 1506.589 4861.253 1506.589 C 4706.577 1506.589 4581 1381.012 4581 1226.336 Z " fill="none" stroke-width="5" stroke="rgb(0,0,0)" stroke-linejoin="miter" stroke-linecap="square" stroke-miterlimit="3"/><path d=" M 4826.938 1433.359 C 4826.938 1414.42 4842.314 1399.043 4861.253 1399.043 C 4880.192 1399.043 4895.569 1414.42 4895.569 1433.359 C 4895.569 1452.298 4880.192 1467.674 4861.253 1467.674 C 4842.314 1467.674 4826.938 1452.298 4826.938 1433.359 Z " fill="none" stroke-width="5" stroke="rgb(0,0,0)" stroke-linejoin="miter" stroke-linecap="square" stroke-miterlimit="3"/><path d=" M 4732.425 1108.264 C 4732.425 1037.161 4790.151 979.435 4861.253 979.435 C 4932.356 979.435 4990.082 1037.161 4990.082 1108.264 C 4990.082 1179.366 4932.356 1237.092 4861.253 1237.092 C 4790.151 1237.092 4732.425 1179.366 4732.425 1108.264 Z " fill="none" stroke-width="5" stroke="rgb(0,0,0)" stroke-linejoin="miter" stroke-linecap="square" stroke-miterlimit="3"/><line x1="4861.253" y1="1237.092" x2="4861.253" y2="1506.589" stroke-width="5" stroke="rgb(0,0,0)" stroke-linejoin="miter" stroke-linecap="square" stroke-miterlimit="3"/></g><g id="Group"><path d=" M 3969.328 766.64 C 3969.328 606.675 4099.199 476.804 4259.164 476.804 C 4419.129 476.804 4549 606.675 4549 766.64 C 4549 926.605 4419.129 1056.476 4259.164 1056.476 C 4099.199 1056.476 3969.328 926.605 3969.328 766.64 Z " fill="none" stroke-width="5" stroke="rgb(0,0,0)" stroke-linejoin="miter" stroke-linecap="square" stroke-miterlimit="3"/><path d=" M 4097.546 1056.476 C 4097.546 967.277 4169.964 894.858 4259.164 894.858 C 4348.363 894.858 4420.782 967.277 4420.782 1056.476 C 4420.782 1145.676 4348.363 1218.094 4259.164 1218.094 C 4169.964 1218.094 4097.546 1145.676 4097.546 1056.476 Z " fill="none" stroke-width="5" stroke="rgb(0,0,0)" stroke-linejoin="miter" stroke-linecap="square" stroke-miterlimit="3"/><path d=" M 4215.377 1056.476 C 4215.377 1032.309 4234.997 1012.689 4259.164 1012.689 C 4283.331 1012.689 4302.951 1032.309 4302.951 1056.476 C 4302.951 1080.643 4283.331 1100.263 4259.164 1100.263 C 4234.997 1100.263 4215.377 1080.643 4215.377 1056.476 Z " fill="none" stroke-width="5" stroke="rgb(0,0,0)" stroke-linejoin="miter" stroke-linecap="square" stroke-miterlimit="3"/></g><path d=" M 2272 2115 C 2272 2105.617 2279.617 2098 2289 2098 C 2298.383 2098 2306 2105.617 2306 2115 C 2306 2124.383 2298.383 2132 2289 2132 C 2279.617 2132 2272 2124.383 2272 2115 Z " fill="rgb(0,0,0)"/><path d=" M 2366 2165 C 2366 2155.617 2373.617 2148 2383 2148 C 2392.383 2148 2400 2155.617 2400 2165 C 2400 2174.383 2392.383 2182 2383 2182 C 2373.617 2182 2366 2174.383 2366 2165 Z " fill="rgb(0,0,0)"/><path d=" M 2321.5 2140.976 C 2321.5 2131.594 2329.117 2123.976 2338.5 2123.976 C 2347.883 2123.976 2355.5 2131.594 2355.5 2140.976 C 2355.5 2150.359 2347.883 2157.976 2338.5 2157.976 C 2329.117 2157.976 2321.5 2150.359 2321.5 2140.976 Z " fill="rgb(0,0,0)"/><path d=" M 3784 2052.679 C 3784 2043.296 3791.617 2035.679 3801 2035.679 C 3810.383 2035.679 3818 2043.296 3818 2052.679 C 3818 2062.061 3810.383 2069.679 3801 2069.679 C 3791.617 2069.679 3784 2062.061 3784 2052.679 Z " fill="rgb(0,0,0)"/><path d=" M 3878 2102.679 C 3878 2093.296 3885.617 2085.679 3895 2085.679 C 3904.383 2085.679 3912 2093.296 3912 2102.679 C 3912 2112.061 3904.383 2119.679 3895 2119.679 C 3885.617 2119.679 3878 2112.061 3878 2102.679 Z " fill="rgb(0,0,0)"/><path d=" M 3833.5 2078.655 C 3833.5 2069.273 3841.117 2061.655 3850.5 2061.655 C 3859.883 2061.655 3867.5 2069.273 3867.5 2078.655 C 3867.5 2088.038 3859.883 2095.655 3850.5 2095.655 C 3841.117 2095.655 3833.5 2088.038 3833.5 2078.655 Z " fill="rgb(0,0,0)"/><path d=" M 3592.774 595.039 C 3396.879 352.597 3097.165 197.449 2761.5 197.449 C 2171.903 197.449 1693.225 676.127 1693.225 1265.725 C 1693.225 1855.322 2171.903 2334 2761.5 2334 C 3071.028 2334 3349.986 2202.073 3545.157 1991.423 C 3386.321 1812.176 3289.844 1576.438 3289.844 1318.344 C 3289.844 1035.378 3405.812 779.284 3592.774 595.039 Z " fill="none" stroke-width="20" stroke="rgb(0,0,0)" stroke-linejoin="miter" stroke-linecap="square" stroke-miterlimit="3"/><path d=" M 3289.844 1318.344 C 3289.844 757.789 3744.944 302.689 4305.5 302.689 C 4866.056 302.689 5321.156 757.789 5321.156 1318.344 C 5321.156 1878.9 4866.056 2334 4305.5 2334 C 3744.944 2334 3289.844 1878.9 3289.844 1318.344 Z " fill="none" stroke-width="20" stroke="rgb(0,0,0)" stroke-linejoin="miter" stroke-linecap="square" stroke-miterlimit="3"/><path d=" M 3379.844 1318.344 C 3379.844 807.461 3794.617 392.689 4305.5 392.689 C 4816.383 392.689 5231.156 807.461 5231.156 1318.344 C 5231.156 1829.228 4816.383 2244 4305.5 2244 C 3794.617 2244 3379.844 1829.228 3379.844 1318.344 Z " fill="none" stroke-width="20" stroke="rgb(0,0,0)" stroke-linejoin="miter" stroke-linecap="square" stroke-miterlimit="3"/><g id="Group"><path d=" M 4170.717 1979.02 C 4170.717 1918.585 4219.782 1869.52 4280.217 1869.52 C 4340.652 1869.52 4389.717 1918.585 4389.717 1979.02 C 4389.717 2039.455 4340.652 2088.52 4280.217 2088.52 C 4219.782 2088.52 4170.717 2039.455 4170.717 1979.02 Z " fill="none" stroke-width="5" stroke="rgb(0,0,0)" stroke-linejoin="miter" stroke-linecap="square" stroke-miterlimit="3"/><path d=" M 4305.717 1979.02 C 4305.717 1967.154 4315.351 1957.52 4327.217 1957.52 C 4339.083 1957.52 4348.717 1967.154 4348.717 1979.02 C 4348.717 1990.886 4339.083 2000.52 4327.217 2000.52 C 4315.351 2000.52 4305.717 1990.886 4305.717 1979.02 Z " fill="rgb(0,0,0)"/><path d=" M 4211.717 1979.02 C 4211.717 1967.154 4221.351 1957.52 4233.217 1957.52 C 4245.083 1957.52 4254.717 1967.154 4254.717 1979.02 C 4254.717 1990.886 4245.083 2000.52 4233.217 2000.52 C 4221.351 2000.52 4211.717 1990.886 4211.717 1979.02 Z " fill="rgb(0,0,0)"/><path d=" M 4254.717 2081.044 C 4254.717 2066.97 4266.143 2055.544 4280.217 2055.544 C 4294.291 2055.544 4305.717 2066.97 4305.717 2081.044 C 4305.717 2095.118 4294.291 2106.544 4280.217 2106.544 C 4266.143 2106.544 4254.717 2095.118 4254.717 2081.044 Z " fill="none" stroke-width="5" stroke="rgb(0,0,0)" stroke-linejoin="miter" stroke-linecap="square" stroke-miterlimit="3"/><path d=" M 4383.717 1819.479 C 4383.717 1749.146 4440.819 1692.044 4511.152 1692.044 C 4581.485 1692.044 4638.587 1749.146 4638.587 1819.479 C 4638.587 1889.812 4581.485 1946.914 4511.152 1946.914 C 4440.819 1946.914 4383.717 1889.812 4383.717 1819.479 Z " fill="none" stroke-width="5" stroke="rgb(0,0,0)" stroke-linejoin="miter" stroke-linecap="square" stroke-miterlimit="3"/><path d=" M 4559.717 1564.193 C 4559.717 1545.346 4575.019 1530.044 4593.866 1530.044 C 4612.714 1530.044 4628.015 1545.346 4628.015 1564.193 C 4628.015 1583.041 4612.714 1598.342 4593.866 1598.342 C 4575.019 1598.342 4559.717 1583.041 4559.717 1564.193 Z " fill="none" stroke-width="5" stroke="rgb(0,0,0)" stroke-linejoin="miter" stroke-linecap="square" stroke-miterlimit="3"/><path d=" M 4275.217 1416.67 C 4275.217 1359.823 4321.37 1313.67 4378.217 1313.67 C 4435.064 1313.67 4481.217 1359.823 4481.217 1416.67 C 4481.217 1473.517 4435.064 1519.67 4378.217 1519.67 C 4321.37 1519.67 4275.217 1473.517 4275.217 1416.67 Z " fill="none" stroke-width="5" stroke="rgb(0,0,0)" stroke-linejoin="miter" stroke-linecap="square" stroke-miterlimit="3"/><line x1="4378.217" y1="1519.67" x2="4376.217" y2="1725.857" stroke-width="4" stroke="rgb(0,0,0)" stroke-linejoin="miter" stroke-linecap="square" stroke-miterlimit="3"/><path d=" M 3766.242 1644.794 C 3766.242 1623.683 3783.382 1606.544 3804.492 1606.544 C 3825.603 1606.544 3842.742 1623.683 3842.742 1644.794 C 3842.742 1665.905 3825.603 1683.044 3804.492 1683.044 C 3783.382 1683.044 3766.242 1665.905 3766.242 1644.794 Z " fill="none" stroke-width="5" stroke="rgb(0,0,0)" stroke-linejoin="miter" stroke-linecap="square" stroke-miterlimit="3"/><path d=" M 4227.896 1261.531 C 4242.111 1291.908 4250.042 1325.801 4250.042 1361.531 C 4250.042 1492.231 4143.93 1598.342 4013.23 1598.342 C 3961.054 1598.342 3912.797 1581.432 3873.659 1552.78" fill="none" stroke-width="10" stroke="rgb(0,0,0)" stroke-linejoin="miter" stroke-linecap="butt" stroke-miterlimit="3"/><path d=" M 4160.717 1552.357 C 4160.717 1542.422 4168.782 1534.357 4178.717 1534.357 C 4188.651 1534.357 4196.717 1542.422 4196.717 1552.357 C 4196.717 1562.291 4188.651 1570.357 4178.717 1570.357 C 4168.782 1570.357 4160.717 1562.291 4160.717 1552.357 Z " fill="rgb(0,0,0)"/><path d=" M 4123 1562.851 C 4123 1555.206 4129.206 1549 4136.851 1549 C 4144.495 1549 4150.702 1555.206 4150.702 1562.851 C 4150.702 1570.495 4144.495 1576.702 4136.851 1576.702 C 4129.206 1576.702 4123 1570.495 4123 1562.851 Z " fill="rgb(0,0,0)"/><path d=" M 4089.717 1596.044 C 4089.717 1586.109 4097.782 1578.044 4107.717 1578.044 C 4117.651 1578.044 4125.717 1586.109 4125.717 1596.044 C 4125.717 1605.978 4117.651 1614.044 4107.717 1614.044 C 4097.782 1614.044 4089.717 1605.978 4089.717 1596.044 Z " fill="rgb(0,0,0)"/><path d=" M 4131.575 2086.676 C 4177.871 2103.897 4227.954 2113.3 4280.217 2113.3 C 4499.302 2113.3 4680.097 1948.055 4704.664 1735.511 C 4595.036 1718.012 4511.152 1622.926 4511.152 1508.402 C 4511.152 1454.025 4530.063 1404.031 4561.661 1364.641 C 4486.472 1298.712 4387.976 1258.735 4280.217 1258.735 C 4255.994 1258.735 4232.238 1260.755 4209.11 1264.634 C 4223.596 1293.843 4231.743 1326.743 4231.743 1361.531 C 4231.743 1482.132 4133.831 1580.044 4013.23 1580.044 C 3963.291 1580.044 3917.242 1563.255 3880.421 1535.022 C 3862.658 1581.979 3852.935 1632.872 3852.935 1686.018 C 3852.935 1693.718 3853.139 1701.37 3853.563 1708.964 C 4013.737 1714.668 4142.023 1846.497 4142.023 2008.052 C 4142.023 2035.256 4138.385 2061.616 4131.575 2086.676 Z " fill="none" stroke-width="5" stroke="rgb(0,0,0)" stroke-linejoin="miter" stroke-linecap="square" stroke-miterlimit="3"/><path d=" M 4010.851 1855.544 C 4010.851 1841.47 4022.277 1830.044 4036.351 1830.044 C 4050.424 1830.044 4061.851 1841.47 4061.851 1855.544 C 4061.851 1869.618 4050.424 1881.044 4036.351 1881.044 C 4022.277 1881.044 4010.851 1869.618 4010.851 1855.544 Z " fill="none" stroke-width="5" stroke="rgb(0,0,0)" stroke-linejoin="miter" stroke-linecap="square" stroke-miterlimit="3"/><line x1="4402" y1="1752.673" x2="4377.012" y2="1727.795" stroke-width="4" stroke="rgb(0,0,0)" stroke-linejoin="miter" stroke-linecap="square" stroke-miterlimit="3"/><line x1="4518" y1="1567" x2="4378.217" y2="1706.783" stroke-width="4" stroke="rgb(0,0,0)" stroke-linejoin="miter" stroke-linecap="square" stroke-miterlimit="3"/><line x1="4515.384" y1="1558.778" x2="4378.217" y2="1695.945" stroke-width="4" stroke="rgb(0,0,0)" stroke-linejoin="miter" stroke-linecap="square" stroke-miterlimit="3"/><line x1="4512.581" y1="1551" x2="4377.655" y2="1685.926" stroke-width="4" stroke="rgb(0,0,0)" stroke-linejoin="miter" stroke-linecap="square" stroke-miterlimit="3"/></g><line x1="0" y1="2" x2="0" y2="2" stroke-width="4" stroke="rgb(0,0,0)" stroke-linejoin="miter" stroke-linecap="square" stroke-miterlimit="3"/><g id="Group"><line x1="1277.844" y1="738.993" x2="1277.844" y2="780.602" stroke-width="4" stroke="rgb(0,0,0)" stroke-linejoin="miter" stroke-linecap="square" stroke-miterlimit="3"/><g id="Group"><path d=" M 1420.665 911.805 C 1401.389 836.409 1332.952 780.602 1251.584 780.602 C 1155.265 780.602 1077.067 858.8 1077.067 955.118 C 1077.067 1051.437 1155.265 1129.635 1251.584 1129.635 C 1332.952 1129.635 1401.389 1073.828 1420.665 998.431 C 1403.36 1042.295 1360.579 1073.371 1310.597 1073.371 C 1245.332 1073.371 1192.344 1020.384 1192.344 955.118 C 1192.344 889.853 1245.332 836.866 1310.597 836.866 C 1360.579 836.866 1403.36 867.942 1420.665 911.805 Z " fill="none" stroke-width="5" stroke="rgb(0,0,0)" stroke-linejoin="miter" stroke-linecap="butt" stroke-miterlimit="3"/><path d=" M 1226.584 1094.635 C 1226.584 1080.837 1237.786 1069.635 1251.584 1069.635 C 1265.382 1069.635 1276.584 1080.837 1276.584 1094.635 C 1276.584 1108.433 1265.382 1119.635 1251.584 1119.635 C 1237.786 1119.635 1226.584 1108.433 1226.584 1094.635 Z " fill="none" stroke-width="5" stroke="rgb(0,0,0)" stroke-linejoin="miter" stroke-linecap="square" stroke-miterlimit="3"/></g><line x1="1352" y1="645" x2="1352" y2="843" stroke-width="4" stroke="rgb(0,0,0)" stroke-linejoin="miter" stroke-linecap="square" stroke-miterlimit="3"/><line x1="1203.689" y1="645" x2="1203.689" y2="902.509" stroke-width="4" stroke="rgb(0,0,0)" stroke-linejoin="miter" stroke-linecap="square" stroke-miterlimit="3"/><line x1="1326" y1="838" x2="1326" y2="622" stroke-width="4" stroke="rgb(0,0,0)" stroke-linejoin="miter" stroke-linecap="square" stroke-miterlimit="3"/><g id="Group"><path d=" M 1514.094 443.5 C 1514.094 435.497 1520.591 429 1528.594 429 C 1536.597 429 1543.094 435.497 1543.094 443.5 C 1543.094 451.503 1536.597 458 1528.594 458 C 1520.591 458 1514.094 451.503 1514.094 443.5 Z " fill="rgb(0,0,0)"/><path d=" M 1411 513.5 C 1411 500.53 1421.53 490 1434.5 490 C 1447.47 490 1458 500.53 1458 513.5 C 1458 526.47 1447.47 537 1434.5 537 C 1421.53 537 1411 526.47 1411 513.5 Z " fill="rgb(0,0,0)"/><path d=" M 1399 547 C 1399 539.273 1405.273 533 1413 533 C 1420.727 533 1427 539.273 1427 547 C 1427 554.727 1420.727 561 1413 561 C 1405.273 561 1399 554.727 1399 547 Z " fill="rgb(0,0,0)"/><path d=" M 1461.844 238.227 C 1461.844 219.806 1476.799 204.852 1495.219 204.852 C 1513.639 204.852 1528.594 219.806 1528.594 238.227 C 1528.594 256.647 1513.639 271.602 1495.219 271.602 C 1476.799 271.602 1461.844 256.647 1461.844 238.227 Z " fill="none" stroke-width="5" stroke="rgb(0,0,0)" stroke-linejoin="miter" stroke-linecap="square" stroke-miterlimit="3"/><path d=" M 1242.344 701.617 C 1242.344 682.024 1258.251 666.117 1277.844 666.117 C 1297.437 666.117 1313.344 682.024 1313.344 701.617 C 1313.344 721.21 1297.437 737.117 1277.844 737.117 C 1258.251 737.117 1242.344 721.21 1242.344 701.617 Z " fill="none" stroke-width="5" stroke="rgb(0,0,0)" stroke-linejoin="miter" stroke-linecap="square" stroke-miterlimit="3"/><line x1="1471.219" y1="262.602" x2="1407.266" y2="326.554" stroke-width="4" stroke="rgb(0,0,0)" stroke-linejoin="miter" stroke-linecap="square" stroke-miterlimit="3"/><path d=" M 1288.083 153.383 C 1323.367 154.67 1356.973 162.582 1387.692 175.913 C 1376.2 194.85 1369.594 217.071 1369.594 240.821 C 1369.594 310.156 1425.885 366.446 1495.219 366.446 C 1512.71 366.446 1529.371 362.864 1544.497 356.372 C 1550.917 379.726 1554.344 404.314 1554.344 429.696 C 1554.344 431.497 1554.327 433.294 1554.284 435.084 C 1458.892 460.775 1388.599 547.947 1388.599 651.407 C 1388.599 661.833 1389.313 672.093 1390.695 682.142 C 1384.303 685.016 1377.779 687.646 1371.137 690.028 C 1365.418 643.608 1325.801 607.617 1277.844 607.617 C 1229.887 607.617 1190.27 643.608 1184.552 690.028 C 1077.791 651.726 1001.344 549.568 1001.344 429.696 C 1001.344 394.579 1007.905 360.982 1019.874 330.068 C 1049.607 361.691 1091.817 381.446 1138.604 381.446 C 1228.567 381.446 1301.604 308.408 1301.604 218.446 C 1301.604 195.323 1296.779 173.318 1288.083 153.383 Z " fill="none" stroke-width="5" stroke="rgb(0,0,0)" stroke-linejoin="miter" stroke-linecap="square" stroke-miterlimit="3"/><path d=" M 920.344 371.102 C 920.344 351.509 936.251 335.602 955.844 335.602 C 975.437 335.602 991.344 351.509 991.344 371.102 C 991.344 390.695 975.437 406.602 955.844 406.602 C 936.251 406.602 920.344 390.695 920.344 371.102 Z " fill="none" stroke-width="5" stroke="rgb(0,0,0)" stroke-linejoin="miter" stroke-linecap="square" stroke-miterlimit="3"/><path d=" M 1028.297 482.852 C 1028.297 444.08 1059.775 412.602 1098.547 412.602 C 1137.319 412.602 1168.797 444.08 1168.797 482.852 C 1168.797 521.624 1137.319 553.102 1098.547 553.102 C 1059.775 553.102 1028.297 521.624 1028.297 482.852 Z " fill="none" stroke-width="5" stroke="rgb(0,0,0)" stroke-linejoin="miter" stroke-linecap="square" stroke-miterlimit="3"/><path d=" M 1017 442 C 1017 427.65 1028.65 416 1043 416 C 1057.35 416 1069 427.65 1069 442 C 1069 456.35 1057.35 468 1043 468 C 1028.65 468 1017 456.35 1017 442 Z " fill="rgb(0,0,0)"/><path d=" M 1129 442 C 1129 427.65 1140.65 416 1155 416 C 1169.35 416 1181 427.65 1181 442 C 1181 456.35 1169.35 468 1155 468 C 1140.65 468 1129 456.35 1129 442 Z " fill="rgb(0,0,0)"/><path d=" M 1066 553.102 C 1066 538.752 1077.65 527.102 1092 527.102 C 1106.35 527.102 1118 538.752 1118 553.102 C 1118 567.451 1106.35 579.102 1092 579.102 C 1077.65 579.102 1066 567.451 1066 553.102 Z " fill="rgb(0,0,0)"/><line x1="1125" y1="383" x2="1125" y2="658" stroke-width="4" stroke="rgb(0,0,0)" stroke-linejoin="miter" stroke-linecap="square" stroke-miterlimit="3"/></g></g><g id="Group"><path d=" M 267.226 821.202 C 267.226 739.631 333.452 673.405 415.024 673.405 C 496.596 673.405 562.821 739.631 562.821 821.202 C 562.821 902.774 496.596 969 415.024 969 C 333.452 969 267.226 902.774 267.226 821.202 Z " fill="none" stroke-width="5" stroke="rgb(0,0,0)" stroke-linejoin="miter" stroke-linecap="square" stroke-miterlimit="3"/><path d=" M 397.024 943 C 397.024 933.066 405.089 925 415.024 925 C 424.958 925 433.024 933.066 433.024 943 C 433.024 952.934 424.958 961 415.024 961 C 405.089 961 397.024 952.934 397.024 943 Z " fill="none" stroke-width="5" stroke="rgb(0,0,0)" stroke-linejoin="miter" stroke-linecap="square" stroke-miterlimit="3"/><path d=" M 423 821.202 C 423 785.328 452.126 756.202 488 756.202 C 523.874 756.202 553 785.328 553 821.202 C 553 857.077 523.874 886.202 488 886.202 C 452.126 886.202 423 857.077 423 821.202 Z " fill="none" stroke-width="5" stroke="rgb(0,0,0)" stroke-linejoin="miter" stroke-linecap="square" stroke-miterlimit="3"/><path d=" M 471.202 821.202 C 471.202 811.931 478.729 804.405 488 804.405 C 497.271 804.405 504.798 811.931 504.798 821.202 C 504.798 830.473 497.271 838 488 838 C 478.729 838 471.202 830.473 471.202 821.202 Z " fill="none" stroke-width="5" stroke="rgb(0,0,0)" stroke-linejoin="miter" stroke-linecap="square" stroke-miterlimit="3"/><line x1="423" y1="821.202" x2="267.226" y2="821.202" stroke-width="4" stroke="rgb(0,0,0)" stroke-linejoin="miter" stroke-linecap="square" stroke-miterlimit="3"/></g><g id="Group"><line x1="912.309" y1="2011.767" x2="912.309" y2="2169.382" stroke-width="4" stroke="rgb(0,0,0)" stroke-linejoin="miter" stroke-linecap="square" stroke-miterlimit="3"/><g id="Group"><path d=" M 664.841 2022 C 664.841 1970.672 706.513 1929 757.841 1929 C 809.17 1929 850.841 1970.672 850.841 2022 C 850.841 2073.328 809.17 2115 757.841 2115 C 706.513 2115 664.841 2073.328 664.841 2022 Z " fill="none" stroke-width="5" stroke="rgb(0,0,0)" stroke-linejoin="miter" stroke-linecap="square" stroke-miterlimit="3"/><path d=" M 719.459 1929 C 719.459 1907.816 736.657 1890.617 757.841 1890.617 C 779.025 1890.617 796.224 1907.816 796.224 1929 C 796.224 1950.184 779.025 1967.383 757.841 1967.383 C 736.657 1967.383 719.459 1950.184 719.459 1929 Z " fill="none" stroke-width="5" stroke="rgb(0,0,0)" stroke-linejoin="miter" stroke-linecap="square" stroke-miterlimit="3"/><path d=" M 885 1984.458 C 885 1969.386 897.237 1957.149 912.309 1957.149 C 927.381 1957.149 939.617 1969.386 939.617 1984.458 C 939.617 1999.53 927.381 2011.767 912.309 2011.767 C 897.237 2011.767 885 1999.53 885 1984.458 Z " fill="none" stroke-width="5" stroke="rgb(0,0,0)" stroke-linejoin="miter" stroke-linecap="square" stroke-miterlimit="3"/><line x1="865.488" y1="1808.611" x2="532.339" y2="1808.611" stroke-width="5" stroke="rgb(0,0,0)" stroke-linejoin="miter" stroke-linecap="square" stroke-miterlimit="3"/><line x1="865.488" y1="1834" x2="534.191" y2="1834" stroke-width="5" stroke="rgb(0,0,0)" stroke-linejoin="miter" stroke-linecap="square" stroke-miterlimit="3"/><path d=" M 920.469 1626.075 C 920.469 1611.303 932.462 1599.31 947.235 1599.31 C 962.007 1599.31 974 1611.303 974 1626.075 C 974 1640.847 962.007 1652.841 947.235 1652.841 C 932.462 1652.841 920.469 1640.847 920.469 1626.075 Z " fill="none" stroke-width="5" stroke="rgb(0,0,0)" stroke-linejoin="miter" stroke-linecap="square" stroke-miterlimit="3"/><path d=" M 692.15 1665.001 C 692.15 1628.745 721.585 1599.31 757.841 1599.31 C 794.097 1599.31 823.533 1628.745 823.533 1665.001 C 823.533 1701.257 794.097 1730.693 757.841 1730.693 C 721.585 1730.693 692.15 1701.257 692.15 1665.001 Z " fill="none" stroke-width="5" stroke="rgb(0,0,0)" stroke-linejoin="miter" stroke-linecap="square" stroke-miterlimit="3"/><line x1="806" y1="1710" x2="869.112" y2="1773.112" stroke-width="4" stroke="rgb(0,0,0)" stroke-linejoin="miter" stroke-linecap="square" stroke-miterlimit="3"/><path d=" M 603.016 1642.568 C 643.591 1604.718 698.031 1581.544 757.841 1581.544 C 830.646 1581.544 895.494 1615.882 937.052 1669.238 C 893.623 1701.654 865.488 1753.443 865.488 1811.751 C 865.488 1868.656 892.285 1919.351 933.943 1951.89 C 892.298 2003.01 828.855 2035.679 757.841 2035.679 C 632.519 2035.679 530.774 1933.933 530.774 1808.611 C 530.774 1787.461 533.672 1766.982 539.1 1747.553 C 550.173 1777.32 578.859 1798.541 612.462 1798.541 C 655.66 1798.541 690.732 1763.469 690.732 1720.271 C 690.732 1677.072 655.66 1642 612.462 1642 C 609.265 1642 606.112 1642.192 603.016 1642.568 Z " fill="none" stroke-width="5" stroke="rgb(0,0,0)" stroke-linejoin="miter" stroke-linecap="square" stroke-miterlimit="3"/><path d=" M 541 1686.018 C 541 1671.668 552.65 1660.018 567 1660.018 C 581.35 1660.018 593 1671.668 593 1686.018 C 593 1700.368 581.35 1712.018 567 1712.018 C 552.65 1712.018 541 1700.368 541 1686.018 Z " fill="rgb(0,0,0)"/><path d=" M 664.841 1741.556 C 664.841 1730.286 673.991 1721.136 685.261 1721.136 C 696.531 1721.136 705.681 1730.286 705.681 1741.556 C 705.681 1752.826 696.531 1761.976 685.261 1761.976 C 673.991 1761.976 664.841 1752.826 664.841 1741.556 Z " fill="rgb(0,0,0)"/><path d=" M 641.172 1782.635 C 641.172 1771.365 650.322 1762.215 661.592 1762.215 C 672.862 1762.215 682.012 1771.365 682.012 1782.635 C 682.012 1793.905 672.862 1803.055 661.592 1803.055 C 650.322 1803.055 641.172 1793.905 641.172 1782.635 Z " fill="rgb(0,0,0)"/></g></g></g></g></svg>
