<?xml version="1.0" standalone="no"?><!-- Generator: Gravit.io --><svg xmlns="http://www.w3.org/2000/svg" xmlns:xlink="http://www.w3.org/1999/xlink" style="isolation:isolate" viewBox="0 0 1050 1050" width="1050" height="1050"><defs><clipPath id="_clipPath_3x0qN9m46L8SUXH8ic3TZ0oV6NqzkCPd"><rect width="1050" height="1050"/></clipPath></defs><g clip-path="url(#_clipPath_3x0qN9m46L8SUXH8ic3TZ0oV6NqzkCPd)"><mask id="_mask_ZnYtyYDZy3G56xseTuY59gRcAtkxcwby"><path d=" M 5 525 C 5 238.004 238.004 5 525 5 C 811.996 5 1045 238.004 1045 525 C 1045 811.996 811.996 1045 525 1045 C 238.004 1045 5 811.996 5 525 Z " fill="white" stroke="none"/></mask><path d=" M 5 525 C 5 238.004 238.004 5 525 5 C 811.996 5 1045 238.004 1045 525 C 1045 811.996 811.996 1045 525 1045 C 238.004 1045 5 811.996 5 525 Z " fill="none" mask="url(#_mask_ZnYtyYDZy3G56xseTuY59gRcAtkxcwby)" stroke-width="20" stroke="rgb(0,0,0)" stroke-linejoin="miter" stroke-linecap="square" stroke-miterlimit="3"/><g id="Group"><path d=" M 356.5 848.5 C 356.5 755.502 432.002 680 525 680 C 617.998 680 693.5 755.502 693.5 848.5 C 693.5 941.498 617.998 1017 525 1017 C 432.002 1017 356.5 941.498 356.5 848.5 Z " fill="none" stroke-width="5" stroke="rgb(0,0,0)" stroke-linejoin="miter" stroke-linecap="square" stroke-miterlimit="3"/><path d=" M 389.5 736 C 389.5 712.544 408.544 693.5 432 693.5 C 455.456 693.5 474.5 712.544 474.5 736 C 474.5 759.456 455.456 778.5 432 778.5 C 408.544 778.5 389.5 759.456 389.5 736 Z " fill="rgb(0,0,0)"/><path d=" M 525 895.839 C 525 876.798 540.459 861.339 559.5 861.339 C 578.541 861.339 594 876.798 594 895.839 C 594 914.88 578.541 930.339 559.5 930.339 C 540.459 930.339 525 914.88 525 895.839 Z " fill="rgb(0,0,0)"/></g></g></svg>
