<?xml version="1.0" standalone="no"?><!-- Generator: Gravit.io --><svg xmlns="http://www.w3.org/2000/svg" xmlns:xlink="http://www.w3.org/1999/xlink" style="isolation:isolate" viewBox="0 0 512 512" width="512" height="512"><defs><clipPath id="_clipPath_j3a09R9NnOgQidaw2c42HDq6rCLtuTKg"><rect width="512" height="512"/></clipPath></defs><g clip-path="url(#_clipPath_j3a09R9NnOgQidaw2c42HDq6rCLtuTKg)"><g><path d=" M 421.211 256 C 421.211 301.227 403.796 344.661 372.845 376.661 C 341.894 408.661 299.884 426.667 256.14 426.667 C 212.396 426.667 170.385 408.661 139.435 376.661 C 108.484 344.661 91.069 301.227 91.069 256 L 8.533 256 C 8.533 397.29 119.482 512 256.14 512 C 392.785 512 503.726 397.311 503.746 256.039 L 512 256.043 L 421.211 256 Z " fill="rgb(0,0,0)"/><path d=" M 264.533 426.664 C 219.333 426.628 175.932 408.627 143.949 376.661 C 111.93 344.661 93.915 301.227 93.915 256 L 8.533 256 C 8.533 397.242 123.229 511.921 264.533 511.998 L 264.533 426.664 L 264.533 426.664 Z " fill="rgb(0,0,0)"/><path d=" M 382.823 133.012 C 351.066 102.467 308.652 85.333 264.533 85.333 C 219.307 85.333 175.872 103.339 143.872 135.339 C 111.872 167.339 93.867 210.773 93.867 256 L 8.533 256 C 8.533 114.71 123.243 0 264.533 0 C 333.388 0 395.93 27.242 441.96 71.527 L 382.823 133.012 Z " fill="rgb(0,0,0)"/><path d=" M 8.533 251.776 L 93.867 251.776 L 93.867 260.309 L 8.533 260.309 L 8.533 251.776 Z " fill="rgb(0,0,0)"/><path d=" M 298.667 217.621 L 465.367 217.621 L 465.367 294.379 L 298.667 294.379 L 298.667 217.621 Z " fill="rgb(0,0,0)"/><path d=" M 260.288 256 C 260.288 234.818 277.485 217.621 298.667 217.621 C 319.848 217.621 337.045 234.818 337.045 256 C 337.045 277.182 319.848 294.379 298.667 294.379 C 277.485 294.379 260.288 277.182 260.288 256 Z " fill="rgb(0,0,0)"/><path d=" M 426.988 256 C 426.988 234.818 444.185 217.621 465.367 217.621 C 486.549 217.621 503.746 234.818 503.746 256 C 503.746 277.182 486.549 294.379 465.367 294.379 C 444.185 294.379 426.988 277.182 426.988 256 Z " fill="rgb(0,0,0)"/></g><circle cx="165.5" cy="417.49999999999994" r="37.5" fill="rgb(255,255,255)" stroke-width="5" stroke="rgb(0,0,0)" stroke-linejoin="miter" stroke-linecap="square" stroke-miterlimit="3"/><circle cx="203" cy="77" r="27" fill="rgb(255,255,255)"/><path d=" M 182.008 47.214 C 224.286 94.207 250 156.374 250 224.5 C 250 287.587 227.949 345.564 191.114 391.114" fill="none" stroke-width="10" stroke="rgb(0,0,0)" stroke-linejoin="miter" stroke-linecap="butt" stroke-miterlimit="3"/><path d=" M 242.765 287.176 C 285.521 310.746 314.5 356.266 314.5 408.5 C 314.5 414.504 314.117 420.419 313.387 426.226" fill="none" stroke-width="7" stroke="rgb(0,0,0)" stroke-linejoin="miter" stroke-linecap="butt" stroke-miterlimit="3"/><circle cx="330" cy="385" r="19" fill="rgb(0,0,0)"/><circle cx="367" cy="113" r="28" fill="rgb(0,0,0)" stroke-width="6" stroke="rgb(255,255,255)" stroke-linejoin="miter" stroke-linecap="square" stroke-miterlimit="3"/><path d=" M 246.918 184.05 C 234.318 187.293 221.107 189 207.5 189 C 172.347 189 139.835 177.603 113.474 158.29" fill="none" stroke-width="5" stroke="rgb(0,0,0)" stroke-linejoin="miter" stroke-linecap="butt" stroke-miterlimit="3"/><circle cx="350.5" cy="242.50000000000006" r="41.5" fill="none" stroke-width="10" stroke="rgb(0,0,0)" stroke-linejoin="miter" stroke-linecap="square" stroke-miterlimit="3"/></g></svg>
