<?xml version="1.0" standalone="no"?><!-- Generator: Gravit.io --><svg xmlns="http://www.w3.org/2000/svg" xmlns:xlink="http://www.w3.org/1999/xlink" style="isolation:isolate" viewBox="0 0 2512.148 2512.148" width="2512.148" height="2512.148"><defs><clipPath id="_clipPath_qeAP3JDWE0jYEnzjAwQqeyZrHKtkOuEV"><rect width="2512.148" height="2512.148"/></clipPath></defs><g clip-path="url(#_clipPath_qeAP3JDWE0jYEnzjAwQqeyZrHKtkOuEV)"><g><path d=" M 1093.059 2087.294 C 1122.803 2008.976 1210.535 1969.54 1288.853 1999.284 C 1367.171 2029.028 1406.607 2116.76 1376.863 2195.078 C 1347.12 2273.396 1259.387 2312.832 1181.069 2283.088 C 1102.751 2253.344 1063.315 2165.612 1093.059 2087.294 Z " fill="none" stroke-width="10" stroke="rgb(0,0,0)" stroke-linejoin="miter" stroke-linecap="square" stroke-miterlimit="3"/><path d=" M 1347.432 2130.105 C 1354.78 2110.756 1376.454 2101.014 1395.803 2108.362 C 1415.151 2115.71 1424.894 2137.384 1417.546 2156.733 C 1410.197 2176.081 1388.523 2185.824 1369.175 2178.476 C 1349.826 2171.127 1340.084 2149.453 1347.432 2130.105 Z " fill="none" stroke-width="5" stroke="rgb(0,0,0)" stroke-linejoin="miter" stroke-linecap="square" stroke-miterlimit="3"/><path d=" M 1511.322 1954.877 C 1554.824 1840.334 1683.135 1782.657 1797.678 1826.159 C 1912.221 1869.66 1969.897 1997.972 1926.396 2112.514 C 1882.895 2227.057 1754.583 2284.734 1640.04 2241.232 C 1525.497 2197.731 1467.821 2069.419 1511.322 1954.877 Z " fill="none" stroke-width="10" stroke="rgb(0,0,0)" stroke-linejoin="miter" stroke-linecap="square" stroke-miterlimit="3"/><path d=" M 1485.273 2165.267 C 1489.584 2153.916 1502.299 2148.2 1513.65 2152.511 C 1525.001 2156.822 1530.717 2169.538 1526.406 2180.889 C 1522.095 2192.24 1509.38 2197.956 1498.028 2193.645 C 1486.677 2189.334 1480.962 2176.618 1485.273 2165.267 Z " fill="none" stroke-width="5" stroke="rgb(0,0,0)" stroke-linejoin="miter" stroke-linecap="square" stroke-miterlimit="3"/><path d=" M 1582.385 1908.591 C 1601.196 1859.059 1656.683 1834.118 1706.215 1852.929 C 1755.747 1871.741 1780.688 1927.227 1761.876 1976.759 C 1743.065 2026.291 1687.579 2051.232 1638.047 2032.421 C 1588.515 2013.609 1563.574 1958.123 1582.385 1908.591 Z " fill="none" stroke-width="5" stroke="rgb(0,0,0)" stroke-linejoin="miter" stroke-linecap="square" stroke-miterlimit="3"/></g><g><circle cx="1939.4475113565832" cy="1556.3546669824532" r="155.28048098773354" fill="none" stroke-width="10" stroke="rgb(0,0,0)" stroke-linejoin="miter" stroke-linecap="square" stroke-miterlimit="3"/><g><circle cx="2063.6666130586436" cy="1647.5054277997774" r="112.5687581949428" fill="none" stroke-width="5" stroke="rgb(0,0,0)" stroke-linejoin="miter" stroke-linecap="square" stroke-miterlimit="3"/><circle cx="2063.6666130586436" cy="1647.5054277997772" r="35.46686902032434" fill="none" stroke-width="5" stroke="rgb(0,0,0)" stroke-linejoin="miter" stroke-linecap="square" stroke-miterlimit="3"/></g></g><g><circle cx="1309.202892208181" cy="1668.4416265437462" r="112.63255945097353" fill="none" stroke-width="5" stroke="rgb(0,0,0)" stroke-linejoin="miter" stroke-linecap="square" stroke-miterlimit="3"/><circle cx="1550.3480078761602" cy="1638.586742211725" r="117.48744378299443" fill="none" stroke-width="5" stroke="rgb(0,0,0)" stroke-linejoin="miter" stroke-linecap="square" stroke-miterlimit="3"/><circle cx="1205.674641077814" cy="1153.0596197382101" r="32.9854337434906" fill="none" stroke-width="5" stroke="rgb(0,0,0)" stroke-linejoin="miter" stroke-linecap="square" stroke-miterlimit="3"/><circle cx="1133.7738079740259" cy="1348.6241337584531" r="119.45005223626623" fill="none" stroke-width="5" stroke="rgb(0,0,0)" stroke-linejoin="miter" stroke-linecap="square" stroke-miterlimit="3"/><mask id="_mask_hb3H84iDLW1kPeuhzv2noZE3zCO5el8q"><path d=" M 951.079 1571.776 C 942.378 1542.054 937.714 1510.615 937.714 1478.096 C 937.714 1298.039 1080.689 1151.112 1259.205 1144.75 C 1254.971 1164.521 1252.744 1185.032 1252.744 1206.059 C 1252.744 1367.246 1383.607 1498.109 1544.795 1498.109 C 1565.273 1498.109 1585.261 1495.997 1604.55 1491.966 C 1597.269 1669.642 1450.726 1811.656 1271.275 1811.656 C 1177.344 1811.656 1092.429 1772.747 1031.786 1710.176 C 1042.935 1713.656 1054.791 1715.529 1067.08 1715.529 C 1132.571 1715.529 1185.742 1662.358 1185.742 1596.866 C 1185.742 1531.374 1132.571 1478.203 1067.08 1478.203 C 1010.195 1478.203 962.605 1518.317 951.079 1571.776 Z " fill-rule="evenodd" fill="white" stroke="none"/></mask><path d=" M 951.079 1571.776 C 942.378 1542.054 937.714 1510.615 937.714 1478.096 C 937.714 1298.039 1080.689 1151.112 1259.205 1144.75 C 1254.971 1164.521 1252.744 1185.032 1252.744 1206.059 C 1252.744 1367.246 1383.607 1498.109 1544.795 1498.109 C 1565.273 1498.109 1585.261 1495.997 1604.55 1491.966 C 1597.269 1669.642 1450.726 1811.656 1271.275 1811.656 C 1177.344 1811.656 1092.429 1772.747 1031.786 1710.176 C 1042.935 1713.656 1054.791 1715.529 1067.08 1715.529 C 1132.571 1715.529 1185.742 1662.358 1185.742 1596.866 C 1185.742 1531.374 1132.571 1478.203 1067.08 1478.203 C 1010.195 1478.203 962.605 1518.317 951.079 1571.776 Z " fill-rule="evenodd" fill="none" mask="url(#_mask_hb3H84iDLW1kPeuhzv2noZE3zCO5el8q)" stroke-width="20" stroke="rgb(0,0,0)" stroke-linejoin="miter" stroke-linecap="square" stroke-miterlimit="3"/></g><g><g><circle cx="804.6902503827473" cy="1021.3653060247971" r="161.2911200300773" fill="none" stroke-width="10" stroke="rgb(0,0,0)" stroke-linejoin="miter" stroke-linecap="square" stroke-miterlimit="3"/><circle cx="655.2822200312028" cy="1071.8910598772013" r="38.52038533086659" fill="none" stroke-width="5" stroke="rgb(0,0,0)" stroke-linejoin="miter" stroke-linecap="square" stroke-miterlimit="3"/></g><path d=" M 930.131 803.224 L 935.981 802.924 C 944.203 941.377 828.754 1079.721 690.981 1087.074 L 693.571 1076.074 L 693.301 1066.144 C 828.44 1058.914 938.058 938.969 930.131 803.224 L 930.131 803.224 Z " fill="rgb(0,0,0)"/><g><g><circle cx="1267.3180177723743" cy="674.0637849894358" r="40" fill="none" stroke-width="5" stroke="rgb(0,0,0)" stroke-linejoin="miter" stroke-linecap="square" stroke-miterlimit="3"/><g><circle cx="1177.8180177723746" cy="368.5637849894358" r="208.5" fill="none" stroke-width="10" stroke="rgb(0,0,0)" stroke-linejoin="miter" stroke-linecap="square" stroke-miterlimit="3"/><circle cx="1048.9813704128246" cy="442.07418599471947" r="49" fill="rgb(0,0,0)"/><circle cx="1196.4813704128246" cy="409.5741859947193" r="32.5" fill="rgb(0,0,0)"/><circle cx="1345.4252479638449" cy="428.5180635457398" r="21.55612244897975" fill="rgb(0,0,0)"/></g><mask id="_mask_wa4hTKiLczveWMxGQcuMUR8jdqMqINkE"><path d=" M 772.891 609.079 C 768.781 585.931 766.646 562.104 766.646 537.783 C 766.646 312.762 949.335 130.074 1174.355 130.074 C 1334.587 130.074 1473.354 222.707 1539.981 357.294 C 1356.188 467.409 1233.064 668.535 1233.064 898.191 C 1233.064 912.598 1233.549 926.894 1234.506 941.06 C 1214.879 943.985 1194.792 945.492 1174.355 945.492 C 1041.882 945.492 924.081 882.175 849.596 784.175 C 869.087 793.72 890.998 799.064 914.146 799.064 C 995.554 799.064 1061.646 732.971 1061.646 651.564 C 1061.646 570.156 995.554 504.064 914.146 504.064 C 847.509 504.064 791.133 548.349 772.891 609.079 Z " fill-rule="evenodd" fill="white" stroke="none"/></mask><path d=" M 772.891 609.079 C 768.781 585.931 766.646 562.104 766.646 537.783 C 766.646 312.762 949.335 130.074 1174.355 130.074 C 1334.587 130.074 1473.354 222.707 1539.981 357.294 C 1356.188 467.409 1233.064 668.535 1233.064 898.191 C 1233.064 912.598 1233.549 926.894 1234.506 941.06 C 1214.879 943.985 1194.792 945.492 1174.355 945.492 C 1041.882 945.492 924.081 882.175 849.596 784.175 C 869.087 793.72 890.998 799.064 914.146 799.064 C 995.554 799.064 1061.646 732.971 1061.646 651.564 C 1061.646 570.156 995.554 504.064 914.146 504.064 C 847.509 504.064 791.133 548.349 772.891 609.079 Z " fill-rule="evenodd" fill="none" mask="url(#_mask_wa4hTKiLczveWMxGQcuMUR8jdqMqINkE)" stroke-width="20" stroke="rgb(0,0,0)" stroke-linejoin="miter" stroke-linecap="square" stroke-miterlimit="3"/><path d=" M 1239.866 774.074 L 1237.906 789.814 C 1164.477 804.377 1087.054 795.149 1019.236 763.394 L 1019.236 763.394 L 1021.356 758.864 C 1088.207 790.166 1167.484 788.447 1239.866 774.074 L 1239.866 774.074 Z " fill="rgb(0,0,0)"/><path d=" M 1246.286 741.744 L 1247.536 745.074 C 1180.203 762.497 1107.678 758.444 1043.926 730.604 L 1043.926 730.604 L 1051.866 715.074 C 1114.601 742.455 1180.029 758.904 1246.286 741.744 L 1246.286 741.744 Z " fill="rgb(0,0,0)"/></g><g><circle cx="2256.4813704128246" cy="935.6906891627845" r="37.5" fill="none" stroke-width="5" stroke="rgb(0,0,0)" stroke-linejoin="miter" stroke-linecap="square" stroke-miterlimit="3"/><circle cx="1654.4813704128248" cy="689.5741859947195" r="21.5" fill="rgb(0,0,0)"/><circle cx="1692.6921917679938" cy="993.5741859947195" r="9.5" fill="rgb(0,0,0)"/><circle cx="1698.4813704128237" cy="834.574185994719" r="13.500000000000455" fill="rgb(0,0,0)"/><mask id="_mask_lPLKD6nj5Aq3p70JOCqBKC93ScCx7dlO"><path d=" M 1544.02 762.239 C 1596.93 638.275 1719.984 551.307 1863.191 551.307 C 2054.641 551.307 2210.075 706.74 2210.075 898.191 C 2210.075 937.059 2203.668 974.442 2191.839 1009.334 C 2191.933 1006.955 2191.981 1004.564 2191.981 1002.161 C 2191.981 904.748 2112.894 825.661 2015.481 825.661 C 1918.068 825.661 1838.981 904.748 1838.981 1002.161 C 1838.981 1099.574 1918.068 1178.661 2015.481 1178.661 C 2040.529 1178.661 2064.365 1173.432 2085.957 1164.01 C 2025.678 1214.598 1947.965 1245.074 1863.191 1245.074 C 1671.741 1245.074 1516.308 1089.641 1516.308 898.191 C 1516.308 889.094 1516.659 880.079 1517.366 871.163 C 1526.598 951.465 1594.886 1013.911 1677.644 1013.911 C 1766.689 1013.911 1838.981 941.618 1838.981 852.574 C 1838.981 763.53 1766.689 691.237 1677.644 691.237 C 1622.067 691.237 1573.016 719.4 1544.02 762.239 Z " fill-rule="evenodd" fill="white" stroke="none"/></mask><path d=" M 1544.02 762.239 C 1596.93 638.275 1719.984 551.307 1863.191 551.307 C 2054.641 551.307 2210.075 706.74 2210.075 898.191 C 2210.075 937.059 2203.668 974.442 2191.839 1009.334 C 2191.933 1006.955 2191.981 1004.564 2191.981 1002.161 C 2191.981 904.748 2112.894 825.661 2015.481 825.661 C 1918.068 825.661 1838.981 904.748 1838.981 1002.161 C 1838.981 1099.574 1918.068 1178.661 2015.481 1178.661 C 2040.529 1178.661 2064.365 1173.432 2085.957 1164.01 C 2025.678 1214.598 1947.965 1245.074 1863.191 1245.074 C 1671.741 1245.074 1516.308 1089.641 1516.308 898.191 C 1516.308 889.094 1516.659 880.079 1517.366 871.163 C 1526.598 951.465 1594.886 1013.911 1677.644 1013.911 C 1766.689 1013.911 1838.981 941.618 1838.981 852.574 C 1838.981 763.53 1766.689 691.237 1677.644 691.237 C 1622.067 691.237 1573.016 719.4 1544.02 762.239 Z " fill-rule="evenodd" fill="none" mask="url(#_mask_lPLKD6nj5Aq3p70JOCqBKC93ScCx7dlO)" stroke-width="20" stroke="rgb(0,0,0)" stroke-linejoin="miter" stroke-linecap="square" stroke-miterlimit="3"/></g></g></g><circle cx="1548.8354516591544" cy="1551.0741859947195" r="20.000000000000227" fill="rgb(0,0,0)"/><circle cx="1521.8354516591546" cy="1688.0741859947195" r="17" fill="rgb(0,0,0)"/><path d=" M 1346.135 2150.614 L 1346.875 2155.554 C 1133.709 2187.721 934.91 2017.47 935.215 1801.574 C 935.401 1670.53 1009.012 1547.696 1124.555 1485.784 L 1124.555 1485.784 L 1147.835 1502.074 C 1033.901 1563.119 946.019 1672.357 945.835 1801.574 C 945.534 2014.487 1135.945 2182.287 1346.135 2150.614 L 1346.135 2150.614 Z " fill="rgb(0,0,0)"/><path d=" M 1421.568 1038.475 C 1374.426 1022.319 1323.865 1013.561 1271.275 1013.561 C 1014.891 1013.561 806.74 1221.712 806.74 1478.096 C 806.74 1734.479 1014.891 1942.63 1271.275 1942.63 C 1527.658 1942.63 1735.809 1734.479 1735.809 1478.096 C 1735.809 1426.391 1727.344 1376.648 1711.704 1330.187 C 1673.773 1381.104 1613.107 1414.1 1544.795 1414.1 C 1429.974 1414.1 1336.754 1320.88 1336.754 1206.059 C 1336.754 1137.343 1370.141 1076.363 1421.568 1038.475 Z " fill-rule="evenodd" fill="none" stroke-width="20" stroke="rgb(0,0,0)" stroke-linejoin="miter" stroke-linecap="square" stroke-miterlimit="3"/><path d=" M 1370.223 1574.238 C 1371.813 1536.232 1378.904 1497.804 1391.835 1460.074 L 1377.785 1451.344 L 1366.835 1445.074 C 1353.709 1483.314 1347.377 1522.834 1347.132 1562.265 L 1370.223 1574.238 L 1370.223 1574.238 Z " fill="rgb(0,0,0)"/><path d=" M 1390.081 1746.217 C 1429.529 1826.802 1494.183 1895.642 1575.695 1936.864 L 1577.955 1932.404 L 1577.955 1932.404 C 1492.659 1889.262 1430.963 1818.761 1397.851 1736.327 L 1390.081 1746.217 L 1390.081 1746.217 Z " fill="rgb(0,0,0)"/><circle cx="1026.8354516591548" cy="1401.0741859947195" r="14.99999999999983" fill="rgb(0,0,0)"/><circle cx="1181.8354516591546" cy="1240.0741859947195" r="16" fill="rgb(0,0,0)"/><circle cx="1250.8003776162027" cy="1371.0391119517678" r="13.035074042951692" fill="rgb(0,0,0)"/><path d=" M 1589.835 1991.074 L 1602.615 2009.234 C 1436.289 2091.838 1232.257 1951.413 1251.835 1765.074 L 1253.815 1767.344 L 1257.795 1767.764 C 1238.431 1951.039 1426.33 2072.268 1589.835 1991.074 L 1589.835 1991.074 Z " fill="rgb(0,0,0)"/><path d=" M 1925.835 1955.074 L 1928.675 1957.264 C 1884.759 2015.8 1805.738 2039.412 1737.015 2014.384 L 1737.015 2014.384 L 1747.835 2003.074 C 1814.506 2027.355 1883.244 2011.882 1925.835 1955.074 L 1925.835 1955.074 Z " fill="rgb(0,0,0)"/><path d=" M 1332.255 1415.594 L 1332.175 1413.094 L 1337.175 1412.944 L 1337.255 1415.434 C 1339.705 1499.221 1263.449 1566.475 1180.405 1551.424 L 1180.405 1551.424 L 1177.945 1550.984 L 1178.835 1546.064 L 1174.835 1534.074 C 1254.733 1548.582 1334.684 1496.233 1332.255 1415.594 L 1332.255 1415.594 Z " fill="rgb(0,0,0)"/><path d=" M 1087.815 1473.574 L 1088.845 1475.854 L 1084.295 1477.924 L 1069.835 1474.074 C 1018.665 1361.733 1155.667 1245.588 1265.385 1302.404 L 1265.385 1302.404 L 1267.605 1303.554 L 1265.305 1307.994 L 1263.085 1306.844 C 1157.505 1252.156 1038.573 1365.475 1087.815 1473.574 L 1087.815 1473.574 Z " fill="rgb(0,0,0)"/><g><path d=" M 506.276 1989.043 C 491.008 1966.235 497.13 1935.322 519.938 1920.054 C 542.747 1904.786 573.659 1910.908 588.927 1933.716 C 604.195 1956.524 598.073 1987.437 575.265 2002.705 C 552.457 2017.973 521.544 2011.851 506.276 1989.043 Z " fill="rgb(0,0,0)"/><path d=" M 674.525 1779.949 C 662.674 1762.245 667.426 1738.25 685.129 1726.399 C 702.833 1714.549 726.828 1719.3 738.678 1737.004 C 750.529 1754.708 745.778 1778.702 728.074 1790.553 C 710.37 1802.404 686.375 1797.652 674.525 1779.949 Z " fill="rgb(0,0,0)"/><path d=" M 695.744 1655.754 C 686.527 1641.985 690.223 1623.322 703.992 1614.105 C 717.762 1604.888 736.424 1608.583 745.641 1622.353 C 754.859 1636.123 751.163 1654.785 737.393 1664.002 C 723.624 1673.22 704.961 1669.524 695.744 1655.754 Z " fill="rgb(0,0,0)"/><path d=" M 691.665 1582.016 C 684.705 1571.619 687.496 1557.527 697.893 1550.567 C 708.291 1543.607 722.383 1546.398 729.343 1556.795 C 736.303 1567.192 733.512 1581.284 723.115 1588.244 C 712.717 1595.204 698.625 1592.414 691.665 1582.016 Z " fill="rgb(0,0,0)"/><path d=" M 679.162 1526.714 C 673.906 1518.863 676.013 1508.222 683.865 1502.966 C 691.716 1497.71 702.357 1499.818 707.612 1507.669 C 712.868 1515.52 710.76 1526.161 702.909 1531.416 C 695.058 1536.672 684.417 1534.565 679.162 1526.714 Z " fill="rgb(0,0,0)"/><circle cx="663.1123988015946" cy="1889.82299175273" r="143.62802299355997" fill="none" stroke-width="5" stroke="rgb(0,0,0)" stroke-linejoin="miter" stroke-linecap="square" stroke-miterlimit="3"/><circle cx="750.7132894185099" cy="1499.0536696877898" r="33.18836366299581" fill="none" stroke-width="5" stroke="rgb(0,0,0)" stroke-linejoin="miter" stroke-linecap="square" stroke-miterlimit="3"/><circle cx="557.8529886806303" cy="1176.970940251745" r="27.982462978524268" fill="none" stroke-width="5" stroke="rgb(0,0,0)" stroke-linejoin="miter" stroke-linecap="square" stroke-miterlimit="3"/><path d=" M 507.037 1235.501 C 555.901 1215.796 609.273 1204.953 665.157 1204.953 C 699.998 1204.953 733.862 1209.168 766.27 1217.109 C 725.732 1295.275 702.835 1384.033 702.835 1478.096 C 702.835 1671.327 799.459 1842.168 946.984 1944.899 C 872.08 2011.708 773.325 2052.33 665.157 2052.33 C 513.118 2052.33 379.676 1972.074 304.923 1851.65 C 457.63 1783.171 564.097 1629.767 564.097 1451.692 C 564.097 1373.092 543.355 1299.299 507.037 1235.501 Z " fill-rule="evenodd" fill="none" stroke-width="10" stroke="rgb(0,0,0)" stroke-linejoin="miter" stroke-linecap="square" stroke-miterlimit="3"/><circle cx="352.3354516591545" cy="1914.5741859947198" r="40.49999999999983" fill="none" stroke-width="5" stroke="rgb(0,0,0)" stroke-linejoin="miter" stroke-linecap="square" stroke-miterlimit="3"/></g><path d=" M 2290.741 1835.672 C 2311.634 1798.498 2330.574 1760.083 2347.43 1720.569 C 2203.77 1653.337 2104.148 1507.448 2104.148 1338.474 C 2104.148 1150.178 2227.856 990.548 2398.368 936.508 C 2345.408 747.065 2246.537 576.709 2114.528 438.212 C 2054.438 493.428 1974.294 527.148 1886.335 527.148 C 1700.064 527.148 1548.835 375.92 1548.835 189.648 C 1548.835 161.902 1552.191 134.934 1558.513 109.125 C 1461.946 83.695 1360.58 70.148 1256.074 70.148 C 1055.005 70.148 865.556 120.296 699.565 208.76 C 687.379 761.884 478.18 1266.795 139.416 1656.037 C 220.179 1881.271 367.214 2075.051 556.961 2213.841 C 609.006 2129.445 702.305 2073.148 808.648 2073.148 C 971.739 2073.148 1104.148 2205.557 1104.148 2368.648 C 1104.148 2390.202 1101.836 2411.22 1097.449 2431.469 C 1149.343 2438.412 1202.293 2442 1256.074 2442 C 1565.145 2442 1846.759 2323.512 2057.927 2129.517 C 1998.783 2097.24 1958.627 2034.477 1958.627 1962.409 C 1958.627 1857.401 2043.88 1772.148 2148.888 1772.148 C 2205.234 1772.148 2255.892 1796.695 2290.741 1835.672 Z " fill-rule="evenodd" fill="none" stroke-width="20" stroke="rgb(0,0,0)" stroke-linejoin="miter" stroke-linecap="square" stroke-miterlimit="3"/><circle cx="1256.0741859947195" cy="1256.0741859947195" r="1246.0741859947195" fill="none" stroke-width="20" stroke="rgb(0,0,0)" stroke-linejoin="miter" stroke-linecap="square" stroke-miterlimit="3"/></g></svg>
