<?xml version="1.0" standalone="no"?><!-- Generator: Gravit.io --><svg xmlns="http://www.w3.org/2000/svg" xmlns:xlink="http://www.w3.org/1999/xlink" style="isolation:isolate" viewBox="0 0 3838.249 2031.164" width="3838.249" height="2031.164"><defs><clipPath id="_clipPath_P7xtUlR2qtJ5khGoHh7Y4Fb1M6LSwoDK"><rect width="3838.249" height="2031.164"/></clipPath></defs><g clip-path="url(#_clipPath_P7xtUlR2qtJ5khGoHh7Y4Fb1M6LSwoDK)"><g><circle cx="220.49713066753088" cy="1593.1162075152163" r="37.5" fill="none" stroke-width="5" stroke="rgb(0,0,0)" stroke-linejoin="miter" stroke-linecap="square" stroke-miterlimit="3"/><line x1="220.497" y1="1555.616" x2="220.497" y2="1162.092" stroke-width="4" stroke="rgb(0,0,0)" stroke-linejoin="miter" stroke-linecap="square" stroke-miterlimit="3"/><circle cx="654.6564831855167" cy="1528.5496607526286" r="27.683453237410276" fill="none" stroke-width="5" stroke="rgb(0,0,0)" stroke-linejoin="miter" stroke-linecap="square" stroke-miterlimit="3"/><circle cx="654.6564831855167" cy="1223.7755600332023" r="170.3597122302159" fill="none" stroke-width="5" stroke="rgb(0,0,0)" stroke-linejoin="miter" stroke-linecap="square" stroke-miterlimit="3"/><line x1="391.604" y1="1223.776" x2="825.016" y2="1223.776" stroke-width="4" stroke="rgb(0,0,0)" stroke-linejoin="miter" stroke-linecap="square" stroke-miterlimit="3"/><line x1="654.656" y1="1053.416" x2="654.656" y2="1487.009" stroke-width="4" stroke="rgb(0,0,0)" stroke-linejoin="miter" stroke-linecap="square" stroke-miterlimit="3"/><line x1="775.197" y1="1102.206" x2="470.176" y2="1407.228" stroke-width="4" stroke="rgb(0,0,0)" stroke-linejoin="miter" stroke-linecap="square" stroke-miterlimit="3"/><path d=" M 907.677 1757.781 C 881.961 1713.24 897.245 1656.2 941.786 1630.484 C 986.327 1604.768 1043.367 1620.052 1069.083 1664.593 C 1094.799 1709.135 1079.515 1766.174 1034.974 1791.89 C 990.433 1817.606 933.393 1802.322 907.677 1757.781 Z " fill="none" stroke-width="5" stroke="rgb(0,0,0)" stroke-linejoin="miter" stroke-linecap="square" stroke-miterlimit="3"/><path d=" M 953.972 1731.053 C 943.008 1712.062 949.524 1687.743 968.514 1676.779 C 987.505 1665.815 1011.824 1672.331 1022.788 1691.322 C 1033.752 1710.312 1027.236 1734.631 1008.246 1745.595 C 989.255 1756.56 964.936 1750.043 953.972 1731.053 Z " fill="none" stroke-width="5" stroke="rgb(0,0,0)" stroke-linejoin="miter" stroke-linecap="square" stroke-miterlimit="3"/><path d=" M 1501.422 1410.957 C 1488.446 1397.98 1488.446 1376.91 1501.422 1363.934 C 1514.399 1350.958 1535.469 1350.958 1548.445 1363.934 C 1561.421 1376.91 1561.421 1397.98 1548.445 1410.957 C 1535.469 1423.933 1514.399 1423.933 1501.422 1410.957 Z " fill="none" stroke-width="5" stroke="rgb(0,0,0)" stroke-linejoin="miter" stroke-linecap="square" stroke-miterlimit="3"/><mask id="_mask_tU0b8JPIPJwoQeUM9Sk2FI5fhbWsexof"><path d=" M 1571.096 1227.874 C 1562.664 1258.67 1549.139 1288.357 1530.53 1315.603 C 1542.034 1277.244 1532.637 1233.942 1502.359 1203.663 C 1458.454 1159.759 1387.164 1159.759 1343.26 1203.663 C 1299.355 1247.568 1299.355 1318.858 1343.26 1362.762 C 1373.96 1393.463 1418.05 1402.696 1456.804 1390.458 C 1371.646 1450.577 1261.63 1460.181 1168.529 1419.269 C 1216.105 1513.909 1182.052 1630.547 1089.153 1684.182 C 992.82 1739.8 869.454 1706.745 813.836 1610.411 C 784.122 1558.945 779.718 1499.763 796.758 1447.321 C 755.69 1473.511 706.931 1488.685 654.656 1488.685 C 567.158 1488.685 489.51 1446.172 441.265 1380.689 C 438.618 1500.179 340.786 1596.366 220.666 1596.366 C 98.877 1596.366 0 1497.489 0 1375.7 C 0 1253.912 98.877 1155.035 220.666 1155.035 C 288.629 1155.035 349.457 1185.826 389.945 1234.21 C 389.815 1230.748 389.747 1227.27 389.747 1223.776 C 389.747 1077.568 508.449 958.866 654.656 958.866 C 800.864 958.866 919.566 1077.568 919.566 1223.776 C 919.566 1261.447 911.685 1297.293 897.49 1329.756 C 944.359 1306.024 996.672 1302.358 1044.076 1315.986 C 981.225 1224.288 976.073 1104.814 1028.625 1008.564 C 1017.988 1057.862 1031.807 1111.4 1070.087 1149.681 C 1129.993 1209.586 1227.264 1209.586 1287.169 1149.681 C 1347.074 1089.775 1347.074 992.504 1287.169 932.599 C 1248.884 894.314 1195.338 880.497 1146.035 891.14 C 1257.792 830.12 1400.861 846.887 1495.412 941.438 C 1496.272 942.297 1497.125 943.161 1497.974 944.027 C 1503.105 903.421 1514.509 863.46 1532.191 825.72 C 1529.282 869.538 1544.56 914.341 1578.021 947.802 C 1639.595 1009.376 1739.576 1009.376 1801.151 947.802 C 1862.725 886.227 1862.725 786.246 1801.151 724.672 C 1758.082 681.604 1696.225 668.66 1641.863 685.843 C 1797.411 559.792 2026.517 569.114 2171.194 713.791 C 2325.836 868.433 2325.836 1119.532 2171.194 1274.174 C 2114.103 1331.265 2043.865 1367.279 1970.187 1382.213 C 1958.862 1360.106 1943.951 1339.37 1925.452 1320.871 C 1843.518 1238.937 1717.692 1227.373 1623.374 1286.19 C 1619.117 1282.301 1614.931 1278.292 1610.812 1274.174 C 1596.188 1259.55 1582.947 1244.063 1571.096 1227.874 Z " fill-rule="evenodd" fill="white" stroke="none"/></mask><path d=" M 1571.096 1227.874 C 1562.664 1258.67 1549.139 1288.357 1530.53 1315.603 C 1542.034 1277.244 1532.637 1233.942 1502.359 1203.663 C 1458.454 1159.759 1387.164 1159.759 1343.26 1203.663 C 1299.355 1247.568 1299.355 1318.858 1343.26 1362.762 C 1373.96 1393.463 1418.05 1402.696 1456.804 1390.458 C 1371.646 1450.577 1261.63 1460.181 1168.529 1419.269 C 1216.105 1513.909 1182.052 1630.547 1089.153 1684.182 C 992.82 1739.8 869.454 1706.745 813.836 1610.411 C 784.122 1558.945 779.718 1499.763 796.758 1447.321 C 755.69 1473.511 706.931 1488.685 654.656 1488.685 C 567.158 1488.685 489.51 1446.172 441.265 1380.689 C 438.618 1500.179 340.786 1596.366 220.666 1596.366 C 98.877 1596.366 0 1497.489 0 1375.7 C 0 1253.912 98.877 1155.035 220.666 1155.035 C 288.629 1155.035 349.457 1185.826 389.945 1234.21 C 389.815 1230.748 389.747 1227.27 389.747 1223.776 C 389.747 1077.568 508.449 958.866 654.656 958.866 C 800.864 958.866 919.566 1077.568 919.566 1223.776 C 919.566 1261.447 911.685 1297.293 897.49 1329.756 C 944.359 1306.024 996.672 1302.358 1044.076 1315.986 C 981.225 1224.288 976.073 1104.814 1028.625 1008.564 C 1017.988 1057.862 1031.807 1111.4 1070.087 1149.681 C 1129.993 1209.586 1227.264 1209.586 1287.169 1149.681 C 1347.074 1089.775 1347.074 992.504 1287.169 932.599 C 1248.884 894.314 1195.338 880.497 1146.035 891.14 C 1257.792 830.12 1400.861 846.887 1495.412 941.438 C 1496.272 942.297 1497.125 943.161 1497.974 944.027 C 1503.105 903.421 1514.509 863.46 1532.191 825.72 C 1529.282 869.538 1544.56 914.341 1578.021 947.802 C 1639.595 1009.376 1739.576 1009.376 1801.151 947.802 C 1862.725 886.227 1862.725 786.246 1801.151 724.672 C 1758.082 681.604 1696.225 668.66 1641.863 685.843 C 1797.411 559.792 2026.517 569.114 2171.194 713.791 C 2325.836 868.433 2325.836 1119.532 2171.194 1274.174 C 2114.103 1331.265 2043.865 1367.279 1970.187 1382.213 C 1958.862 1360.106 1943.951 1339.37 1925.452 1320.871 C 1843.518 1238.937 1717.692 1227.373 1623.374 1286.19 C 1619.117 1282.301 1614.931 1278.292 1610.812 1274.174 C 1596.188 1259.55 1582.947 1244.063 1571.096 1227.874 Z " fill-rule="evenodd" fill="none" mask="url(#_mask_tU0b8JPIPJwoQeUM9Sk2FI5fhbWsexof)" stroke-width="20" stroke="rgb(0,0,0)" stroke-linejoin="round" stroke-linecap="round" stroke-miterlimit="3"/><g><path d=" M 1311.759 1029.119 C 1319.465 1042.239 1336.373 1046.634 1349.492 1038.929 C 1362.612 1031.223 1367.008 1014.315 1359.302 1001.195 C 1351.596 988.075 1334.688 983.68 1321.568 991.385 C 1308.448 999.091 1304.053 1015.999 1311.759 1029.119 Z " fill="rgb(0,0,0)"/><path d=" M 1243.735 912.442 C 1248.602 920.728 1259.281 923.504 1267.567 918.637 C 1275.853 913.77 1278.629 903.091 1273.762 894.805 C 1268.896 886.519 1258.217 883.743 1249.931 888.61 C 1241.644 893.477 1238.868 904.155 1243.735 912.442 Z " fill="rgb(0,0,0)"/><path d=" M 1285.895 959.219 C 1292.587 970.612 1307.27 974.429 1318.664 967.737 C 1330.057 961.045 1333.874 946.362 1327.182 934.968 C 1320.49 923.575 1305.807 919.758 1294.414 926.45 C 1283.02 933.142 1279.203 947.825 1285.895 959.219 Z " fill="rgb(0,0,0)"/></g><path d=" M 1804.965 1281.811 C 1791.696 1268.542 1791.696 1246.996 1804.965 1233.727 C 1818.234 1220.458 1839.779 1220.458 1853.048 1233.727 C 1866.317 1246.996 1866.317 1268.542 1853.048 1281.811 C 1839.779 1295.079 1818.234 1295.079 1804.965 1281.811 Z " fill="none" stroke-width="5" stroke="rgb(0,0,0)" stroke-linejoin="miter" stroke-linecap="square" stroke-miterlimit="3"/><path d=" M 1947.471 937.514 C 1895.849 885.892 1895.849 802.07 1947.471 750.447 C 1999.094 698.824 2082.916 698.824 2134.539 750.447 C 2186.161 802.07 2186.161 885.892 2134.539 937.514 C 2082.916 989.137 1999.094 989.137 1947.471 937.514 Z " fill="none" stroke-width="5" stroke="rgb(0,0,0)" stroke-linejoin="miter" stroke-linecap="square" stroke-miterlimit="3"/><g><path d=" M 1952.23 939.624 C 1956.515 936.452 1962.57 937.355 1965.743 941.64 C 1968.916 945.926 1968.013 951.981 1963.728 955.154 C 1959.442 958.327 1953.387 957.423 1950.214 953.138 C 1947.041 948.853 1947.945 942.797 1952.23 939.624 Z " fill="rgb(0,0,0)"/><path d=" M 2033.603 961.606 C 2041.365 955.859 2052.334 957.495 2058.081 965.257 C 2063.828 973.02 2062.192 983.988 2054.43 989.735 C 2046.667 995.482 2035.699 993.846 2029.952 986.084 C 2024.204 978.321 2025.841 967.353 2033.603 961.606 Z " fill="rgb(0,0,0)"/><path d=" M 1985.564 957.48 C 1991.108 953.375 1998.943 954.544 2003.048 960.088 C 2007.153 965.633 2005.985 973.467 2000.44 977.573 C 1994.895 981.678 1987.061 980.509 1982.956 974.965 C 1978.851 969.42 1980.019 961.586 1985.564 957.48 Z " fill="rgb(0,0,0)"/></g><line x1="1643.331" y1="1267.098" x2="1643.331" y2="995.464" stroke-width="4" stroke="rgb(0,0,0)" stroke-linejoin="miter" stroke-linecap="square" stroke-miterlimit="3"/><line x1="1661.331" y1="1259.973" x2="1661.331" y2="1000.366" stroke-width="4" stroke="rgb(0,0,0)" stroke-linejoin="miter" stroke-linecap="square" stroke-miterlimit="3"/><line x1="1852.332" y1="838.366" x2="2250.331" y2="838.366" stroke-width="4" stroke="rgb(0,0,0)" stroke-linejoin="miter" stroke-linecap="square" stroke-miterlimit="3"/></g><g><circle cx="2367.3342897774965" cy="1555.6162075152163" r="37.5" fill="none" stroke-width="5" stroke="rgb(0,0,0)" stroke-linejoin="miter" stroke-linecap="square" stroke-miterlimit="3"/><line x1="2367.334" y1="1518.116" x2="2367.334" y2="1117.695" stroke-width="4" stroke="rgb(0,0,0)" stroke-linejoin="miter" stroke-linecap="square" stroke-miterlimit="3"/><circle cx="2967.4232726050896" cy="1837.5679349101256" r="155" fill="none" stroke-width="10" stroke="rgb(0,0,0)" stroke-linejoin="miter" stroke-linecap="square" stroke-miterlimit="3"/><circle cx="2967.42327260509" cy="1936.0679349101263" r="28.5" fill="rgb(0,0,0)"/><circle cx="2967.42327260509" cy="1837.567934910126" r="28.5" fill="rgb(0,0,0)"/><circle cx="3307.64737597173" cy="1557.741207515216" r="53.15345478981999" fill="none" stroke-width="5" stroke="rgb(0,0,0)" stroke-linejoin="miter" stroke-linecap="square" stroke-miterlimit="3"/><circle cx="2641.25" cy="1163.2053865931443" r="51.25" fill="none" stroke-width="5" stroke="rgb(0,0,0)" stroke-linejoin="miter" stroke-linecap="square" stroke-miterlimit="3"/><mask id="_mask_eCPYbbbPbMeJqnCQMNajG8PSPIX23dQv"><path d=" M 3184.496 1153.951 C 3230.934 1178.987 3272.567 1211.805 3307.647 1250.653 C 3184.389 1298.174 3096.847 1417.815 3096.847 1557.741 C 3096.847 1697.667 3184.389 1817.308 3307.647 1864.829 C 3223.743 1957.746 3102.351 2016.164 2967.423 2016.164 C 2902.025 2016.164 2839.806 2002.44 2783.49 1977.722 C 2783.684 1973.362 2783.778 1968.976 2783.778 1964.568 C 2783.778 1811.119 2669.493 1684.152 2521.466 1664.223 C 2513.311 1630.051 2509 1594.396 2509 1557.741 C 2509 1538.557 2510.181 1519.647 2512.494 1501.086 C 2473.689 1535.037 2422.896 1555.616 2367.334 1555.616 C 2245.546 1555.616 2146.669 1456.739 2146.669 1334.95 C 2146.669 1213.162 2245.546 1114.285 2367.334 1114.285 C 2478.549 1114.285 2570.658 1196.738 2585.816 1303.796 C 2659.444 1193.413 2779.675 1116.722 2918.295 1101.928 C 2744.286 1021.883 2616.814 857.784 2588 661.784 C 2624.977 749.976 2712.161 811.985 2813.715 811.985 C 2948.743 811.985 3058.368 702.36 3058.368 567.332 C 3058.368 432.304 2948.743 322.678 2813.715 322.678 C 2717.101 322.678 2633.493 378.801 2593.748 460.199 C 2647.905 197.644 2880.601 0 3159.095 0 C 3384.092 0 3579.196 129.005 3674.412 317.019 C 3573.483 360.278 3502.712 460.564 3502.712 577.25 C 3502.712 693.936 3573.483 794.222 3674.412 837.481 C 3582.798 1018.383 3398.709 1144.656 3184.496 1153.951 Z " fill-rule="evenodd" fill="white" stroke="none"/></mask><path d=" M 3184.496 1153.951 C 3230.934 1178.987 3272.567 1211.805 3307.647 1250.653 C 3184.389 1298.174 3096.847 1417.815 3096.847 1557.741 C 3096.847 1697.667 3184.389 1817.308 3307.647 1864.829 C 3223.743 1957.746 3102.351 2016.164 2967.423 2016.164 C 2902.025 2016.164 2839.806 2002.44 2783.49 1977.722 C 2783.684 1973.362 2783.778 1968.976 2783.778 1964.568 C 2783.778 1811.119 2669.493 1684.152 2521.466 1664.223 C 2513.311 1630.051 2509 1594.396 2509 1557.741 C 2509 1538.557 2510.181 1519.647 2512.494 1501.086 C 2473.689 1535.037 2422.896 1555.616 2367.334 1555.616 C 2245.546 1555.616 2146.669 1456.739 2146.669 1334.95 C 2146.669 1213.162 2245.546 1114.285 2367.334 1114.285 C 2478.549 1114.285 2570.658 1196.738 2585.816 1303.796 C 2659.444 1193.413 2779.675 1116.722 2918.295 1101.928 C 2744.286 1021.883 2616.814 857.784 2588 661.784 C 2624.977 749.976 2712.161 811.985 2813.715 811.985 C 2948.743 811.985 3058.368 702.36 3058.368 567.332 C 3058.368 432.304 2948.743 322.678 2813.715 322.678 C 2717.101 322.678 2633.493 378.801 2593.748 460.199 C 2647.905 197.644 2880.601 0 3159.095 0 C 3384.092 0 3579.196 129.005 3674.412 317.019 C 3573.483 360.278 3502.712 460.564 3502.712 577.25 C 3502.712 693.936 3573.483 794.222 3674.412 837.481 C 3582.798 1018.383 3398.709 1144.656 3184.496 1153.951 Z " fill-rule="evenodd" fill="none" mask="url(#_mask_eCPYbbbPbMeJqnCQMNajG8PSPIX23dQv)" stroke-width="20" stroke="rgb(0,0,0)" stroke-linejoin="round" stroke-linecap="round" stroke-miterlimit="3"/><circle cx="2624.92327260509" cy="1842.032113988054" r="58.923272605090006" fill="none" stroke-width="5" stroke="rgb(0,0,0)" stroke-linejoin="miter" stroke-linecap="square" stroke-miterlimit="3"/><circle cx="3096.5" cy="1560.741207515216" r="22.5" fill="rgb(0,0,0)"/><circle cx="3307.64737597173" cy="1250.067934910126" r="22.5" fill="rgb(0,0,0)"/><circle cx="3307.64737597173" cy="1869.0679349101254" r="22.5" fill="rgb(0,0,0)"/><circle cx="3218.2702066652446" cy="929.9358082681483" r="172.2702066652446" fill="none" stroke-width="5" stroke="rgb(0,0,0)" stroke-linejoin="miter" stroke-linecap="square" stroke-miterlimit="3"/><circle cx="3547.6751522752584" cy="977.7323405880106" r="139.7390225276822" fill="none" stroke-width="5" stroke="rgb(0,0,0)" stroke-linejoin="miter" stroke-linecap="square" stroke-miterlimit="3"/><circle cx="3533.4816723940435" cy="962.4737141991009" r="22.48167239404347" fill="rgb(0,0,0)"/><circle cx="3583.481672394044" cy="1010.4370589871878" r="22.48167239404347" fill="rgb(0,0,0)"/><circle cx="3785.716389388661" cy="577.2500000000009" r="50.03274150439074" fill="none" stroke-width="5" stroke="rgb(0,0,0)" stroke-linejoin="miter" stroke-linecap="square" stroke-miterlimit="3"/><circle cx="3218.164365715505" cy="241.5677739595257" r="201.45341733486066" fill="none" stroke-width="5" stroke="rgb(0,0,0)" stroke-linejoin="miter" stroke-linecap="square" stroke-miterlimit="3"/><circle cx="3157.0018990260023" cy="212.69425353188217" r="28.873520427644053" fill="rgb(0,0,0)"/><circle cx="3226.760299277932" cy="173.02071401298144" r="28.873520427644053" fill="rgb(0,0,0)"/><circle cx="3277.0134493352048" cy="241.56777395952668" r="28.873520427644053" fill="rgb(0,0,0)"/><g><line x1="3218.27" y1="756.955" x2="3218.27" y2="577.339" stroke-width="4" stroke="rgb(0,0,0)" stroke-linejoin="miter" stroke-linecap="round" stroke-miterlimit="3"/><line x1="3186.54" y1="759.384" x2="3186.54" y2="545.592" stroke-width="4" stroke="rgb(0,0,0)" stroke-linejoin="miter" stroke-linecap="round" stroke-miterlimit="3"/><line x1="3250" y1="759.634" x2="3250" y2="609.228" stroke-width="4" stroke="rgb(0,0,0)" stroke-linejoin="miter" stroke-linecap="round" stroke-miterlimit="3"/></g><g><line x1="3066.364" y1="577.25" x2="3185.625" y2="577.25" stroke-width="4" stroke="rgb(0,0,0)" stroke-linejoin="miter" stroke-linecap="round" stroke-miterlimit="3"/><line x1="3063.935" y1="545.52" x2="3185.906" y2="545.52" stroke-width="4" stroke="rgb(0,0,0)" stroke-linejoin="miter" stroke-linecap="round" stroke-miterlimit="3"/><line x1="3063.685" y1="608.98" x2="3185.804" y2="608.98" stroke-width="4" stroke="rgb(0,0,0)" stroke-linejoin="miter" stroke-linecap="round" stroke-miterlimit="3"/></g><g><line x1="3494.017" y1="577.25" x2="3218.371" y2="577.25" stroke-width="4" stroke="rgb(0,0,0)" stroke-linejoin="miter" stroke-linecap="round" stroke-miterlimit="3"/><line x1="3496.445" y1="608.98" x2="3250.095" y2="608.98" stroke-width="4" stroke="rgb(0,0,0)" stroke-linejoin="miter" stroke-linecap="round" stroke-miterlimit="3"/><line x1="3496.695" y1="545.52" x2="3186.563" y2="545.52" stroke-width="4" stroke="rgb(0,0,0)" stroke-linejoin="miter" stroke-linecap="round" stroke-miterlimit="3"/></g></g></g></svg>
