<?xml version="1.0" standalone="no"?><!-- Generator: Gravit.io --><svg xmlns="http://www.w3.org/2000/svg" xmlns:xlink="http://www.w3.org/1999/xlink" style="isolation:isolate" viewBox="0 0 785.994 820.974" width="785.994" height="820.974"><defs><clipPath id="_clipPath_V1b8PI8ztHAPbffyO2phOYOvIUFu7M5V"><rect width="785.994" height="820.974"/></clipPath></defs><g clip-path="url(#_clipPath_V1b8PI8ztHAPbffyO2phOYOvIUFu7M5V)"><mask id="_mask_9WlBMwTbxexhfGx3L7NHo0GVpbrKVY7G"><path d=" M 439.885 320.842 C 346.889 341.362 277.23 424.347 277.23 523.474 C 277.23 579.435 299.431 630.252 335.502 667.585 C 323.994 651.294 317.23 631.418 317.23 609.974 C 317.23 554.783 362.038 509.974 417.23 509.974 C 472.421 509.974 517.23 554.783 517.23 609.974 C 517.23 665.166 472.421 709.974 417.23 709.974 C 404.49 709.974 392.304 707.587 381.095 703.233 C 411.593 720.878 446.992 730.974 484.73 730.974 C 587.061 730.974 672.19 656.739 689.147 559.227 C 676.449 582.601 651.678 598.474 623.23 598.474 C 581.836 598.474 548.23 564.868 548.23 523.474 C 548.23 482.08 581.836 448.474 623.23 448.474 C 651.678 448.474 676.449 464.348 689.147 487.721 C 682.478 449.371 665.264 414.621 640.602 386.576 C 620.252 397.054 597.177 402.974 572.73 402.974 C 514.621 402.974 464.262 369.525 439.885 320.842 Z " fill-rule="evenodd" fill="white" stroke="none"/></mask><path d=" M 439.885 320.842 C 346.889 341.362 277.23 424.347 277.23 523.474 C 277.23 579.435 299.431 630.252 335.502 667.585 C 323.994 651.294 317.23 631.418 317.23 609.974 C 317.23 554.783 362.038 509.974 417.23 509.974 C 472.421 509.974 517.23 554.783 517.23 609.974 C 517.23 665.166 472.421 709.974 417.23 709.974 C 404.49 709.974 392.304 707.587 381.095 703.233 C 411.593 720.878 446.992 730.974 484.73 730.974 C 587.061 730.974 672.19 656.739 689.147 559.227 C 676.449 582.601 651.678 598.474 623.23 598.474 C 581.836 598.474 548.23 564.868 548.23 523.474 C 548.23 482.08 581.836 448.474 623.23 448.474 C 651.678 448.474 676.449 464.348 689.147 487.721 C 682.478 449.371 665.264 414.621 640.602 386.576 C 620.252 397.054 597.177 402.974 572.73 402.974 C 514.621 402.974 464.262 369.525 439.885 320.842 Z " fill-rule="evenodd" fill="none" mask="url(#_mask_9WlBMwTbxexhfGx3L7NHo0GVpbrKVY7G)" stroke-width="20" stroke="rgb(0,0,0)" stroke-linejoin="miter" stroke-linecap="square" stroke-miterlimit="3"/><mask id="_mask_YfEacZuRsye5Sg5qdxwKHUdktUFf9gpE"><circle cx="572.72990991958" cy="254.47408683874997" r="122.5" fill="white" stroke="none"/></mask><circle cx="572.72990991958" cy="254.47408683874997" r="122.5" fill="none" mask="url(#_mask_YfEacZuRsye5Sg5qdxwKHUdktUFf9gpE)" stroke-width="20" stroke="rgb(0,0,0)" stroke-linejoin="miter" stroke-linecap="square" stroke-miterlimit="3"/><mask id="_mask_NoWGk4IfrgjX3FLiiWcabPA5KObBJaGZ"><circle cx="588.22990991958" cy="346.97408683875" r="12" fill="white" stroke="none"/></mask><circle cx="588.22990991958" cy="346.97408683875" r="12" fill="none" mask="url(#_mask_NoWGk4IfrgjX3FLiiWcabPA5KObBJaGZ)" stroke-width="10" stroke="rgb(0,0,0)" stroke-linejoin="miter" stroke-linecap="square" stroke-miterlimit="3"/><mask id="_mask_IfBH2EFdnlenE3W8nNAQ50qORxheTq62"><circle cx="559.22990991958" cy="224.97408683875" r="66" fill="white" stroke="none"/></mask><circle cx="559.22990991958" cy="224.97408683875" r="66" fill="none" mask="url(#_mask_IfBH2EFdnlenE3W8nNAQ50qORxheTq62)" stroke-width="10" stroke="rgb(0,0,0)" stroke-linejoin="miter" stroke-linecap="square" stroke-miterlimit="3"/><path d=" M 662.862 620.169 C 650.643 625.204 637.257 627.974 623.23 627.974 C 565.555 627.974 518.73 581.149 518.73 523.474 C 518.73 465.799 565.555 418.974 623.23 418.974 C 637.534 418.974 651.171 421.854 663.582 427.084 L 669.722 441.207 C 666.58 439.424 663.33 437.82 659.99 436.404 C 648.36 431.484 635.86 428.964 623.23 428.974 C 610.6 428.964 598.1 431.484 586.47 436.404 C 575.24 441.164 565.04 448.044 556.42 456.664 C 547.8 465.284 540.92 475.484 536.16 486.704 C 531.25 498.344 528.72 510.844 528.73 523.474 C 528.72 536.104 531.24 548.604 536.16 560.234 C 540.92 571.464 547.8 581.664 556.42 590.284 C 565.04 598.904 575.24 605.784 586.47 610.544 C 598.1 615.464 610.6 617.984 623.23 617.974 C 635.86 617.984 648.36 615.464 659.99 610.544 C 662.489 609.485 664.936 608.321 667.32 607.045 L 662.862 620.169 L 662.862 620.169 Z " fill="rgb(0,0,0)"/><path d=" M 612.163 190.218 C 606.602 191.864 601.133 193.838 595.77 196.104 C 576.32 204.344 558.64 216.264 543.71 231.204 C 528.77 246.134 516.85 263.814 508.61 283.264 C 500.09 303.424 495.71 325.084 495.73 346.974 C 495.71 368.854 500.09 390.524 508.61 410.684 C 516.85 430.134 528.77 447.814 543.71 462.744 C 543.999 463.034 544.29 463.322 544.585 463.606 L 541.04 467.121 C 540.75 466.843 540.464 466.559 540.18 466.274 C 524.78 450.894 512.5 432.674 504 412.634 C 495.23 391.854 490.71 369.524 490.73 346.974 C 490.71 324.424 495.23 302.094 504 281.314 C 512.5 261.274 524.78 243.054 540.18 227.674 C 555.56 212.274 573.78 199.994 593.82 191.494 C 598.787 189.398 603.842 187.545 608.977 185.97 L 612.163 190.218 L 612.163 190.218 Z " fill="rgb(0,0,0)"/><mask id="_mask_dspErQZxJVUMdednccQAroFPvcRMtODs"><circle cx="417.22990991958" cy="609.97408683875" r="18.000000000000057" fill="white" stroke="none"/></mask><circle cx="417.22990991958" cy="609.97408683875" r="18.000000000000057" fill="none" mask="url(#_mask_dspErQZxJVUMdednccQAroFPvcRMtODs)" stroke-width="10" stroke="rgb(0,0,0)" stroke-linejoin="miter" stroke-linecap="square" stroke-miterlimit="3"/><mask id="_mask_zCrrUJf8QarWjo3UtBcc3iS8s1dW0sw4"><circle cx="623.2299099195801" cy="523.4740868387499" r="17.500000000000114" fill="white" stroke="none"/></mask><circle cx="623.2299099195801" cy="523.4740868387499" r="17.500000000000114" fill="none" mask="url(#_mask_zCrrUJf8QarWjo3UtBcc3iS8s1dW0sw4)" stroke-width="10" stroke="rgb(0,0,0)" stroke-linejoin="miter" stroke-linecap="square" stroke-miterlimit="3"/><mask id="_mask_7CmsM8aycXuJUH7tcELr3c4LXPXScUCk"><circle cx="353.72990991957994" cy="196.10408409216797" r="17.5" fill="white" stroke="none"/></mask><circle cx="353.72990991957994" cy="196.10408409216797" r="17.5" fill="none" mask="url(#_mask_7CmsM8aycXuJUH7tcELr3c4LXPXScUCk)" stroke-width="10" stroke="rgb(0,0,0)" stroke-linejoin="miter" stroke-linecap="square" stroke-miterlimit="3"/><mask id="_mask_Djx8xxSiJVtU5Or30TSSrVey4kPyDjAa"><path d=" M 383.795 110.989 C 399.771 98.659 419.793 91.325 441.515 91.325 C 462.462 91.325 481.829 98.145 497.505 109.695 C 445.276 136.906 409.581 191.554 409.581 254.474 C 409.581 261.621 410.041 268.662 410.943 275.565 C 373.69 262.836 346.87 227.511 346.87 185.97 C 346.87 165.784 353.203 147.065 363.992 131.697 C 363.516 133.705 363.272 135.8 363.272 137.953 C 363.272 153.395 375.809 165.932 391.251 165.932 C 406.693 165.932 419.23 153.395 419.23 137.953 C 419.23 122.511 406.693 109.974 391.251 109.974 C 388.668 109.974 386.167 110.325 383.795 110.989 Z " fill-rule="evenodd" fill="white" stroke="none"/></mask><path d=" M 383.795 110.989 C 399.771 98.659 419.793 91.325 441.515 91.325 C 462.462 91.325 481.829 98.145 497.505 109.695 C 445.276 136.906 409.581 191.554 409.581 254.474 C 409.581 261.621 410.041 268.662 410.943 275.565 C 373.69 262.836 346.87 227.511 346.87 185.97 C 346.87 165.784 353.203 147.065 363.992 131.697 C 363.516 133.705 363.272 135.8 363.272 137.953 C 363.272 153.395 375.809 165.932 391.251 165.932 C 406.693 165.932 419.23 153.395 419.23 137.953 C 419.23 122.511 406.693 109.974 391.251 109.974 C 388.668 109.974 386.167 110.325 383.795 110.989 Z " fill-rule="evenodd" fill="none" mask="url(#_mask_Djx8xxSiJVtU5Or30TSSrVey4kPyDjAa)" stroke-width="20" stroke="rgb(0,0,0)" stroke-linejoin="miter" stroke-linecap="square" stroke-miterlimit="3"/><circle cx="457.22990991958" cy="355.54569087779123" r="29" fill="rgb(0,0,0)"/><circle cx="500.4598903883301" cy="391.4041100321093" r="21.229980468750085" fill="rgb(0,0,0)"/><circle cx="542.6881143780796" cy="404.51588238025033" r="15.541795541500392" fill="rgb(0,0,0)"/><path d=" M 367.493 161.397 C 367.896 160.259 368.341 159.134 368.812 158.019 C 372.781 148.647 378.532 140.137 385.725 132.944 C 392.845 125.824 401.242 120.123 410.487 116.161 L 406.942 112.435 C 397.775 116.603 389.435 122.39 382.308 129.517 C 374.669 137.155 368.57 146.188 364.348 156.141 C 364.255 156.363 364.162 156.586 364.073 156.811 L 367.493 161.397 L 367.493 161.397 Z " fill="rgb(0,0,0)"/><mask id="_mask_MOwTZXIvilAaCMo6apk0izK0Znik2FsL"><circle cx="200.15223833633087" cy="493.6231711939534" r="17" fill="white" stroke="none"/></mask><circle cx="200.15223833633087" cy="493.6231711939534" r="17" fill="none" mask="url(#_mask_MOwTZXIvilAaCMo6apk0izK0Znik2FsL)" stroke-width="10" stroke="rgb(0,0,0)" stroke-linejoin="miter" stroke-linecap="square" stroke-miterlimit="3"/><mask id="_mask_RwArBJeuSkTzSVw1Vq36WZb6nxsFB3V2"><ellipse cx="231.72921803651622" cy="433.47408683874994" rx="39.50069188306371" ry="39.5" fill="white" stroke="none"/></mask><ellipse cx="231.72921803651622" cy="433.47408683874994" rx="39.50069188306371" ry="39.5" fill="none" mask="url(#_mask_RwArBJeuSkTzSVw1Vq36WZb6nxsFB3V2)" stroke-width="10" stroke="rgb(0,0,0)" stroke-linejoin="miter" stroke-linecap="square" stroke-miterlimit="3"/><mask id="_mask_QFZ8ssUa3RsLHuUSo773mTUlxYESLddG"><circle cx="361.307581502829" cy="296.56453904308" r="21" fill="white" stroke="none"/></mask><circle cx="361.307581502829" cy="296.56453904308" r="21" fill="none" mask="url(#_mask_QFZ8ssUa3RsLHuUSo773mTUlxYESLddG)" stroke-width="10" stroke="rgb(0,0,0)" stroke-linejoin="miter" stroke-linecap="square" stroke-miterlimit="3"/><mask id="_mask_t46tbjudbn13tWKY1oBliKVZm6SQtef8"><path d=" M 180.588 207.762 C 195.165 203.02 210.724 200.468 226.875 200.468 C 305.221 200.468 369.652 260.521 376.608 337.067 C 320.345 369.786 280.218 427.248 271.17 494.505 C 257.173 498.852 242.294 501.178 226.875 501.178 C 143.892 501.178 76.52 433.806 76.52 350.823 C 76.52 318.187 86.94 287.966 104.632 263.308 C 101.262 272.425 99.43 282.282 99.43 292.565 C 99.43 339.422 137.472 377.465 184.33 377.465 C 231.187 377.465 269.23 339.422 269.23 292.565 C 269.23 245.707 231.187 207.665 184.33 207.665 C 183.075 207.665 181.826 207.692 180.588 207.762 Z " fill-rule="evenodd" fill="white" stroke="none"/></mask><path d=" M 180.588 207.762 C 195.165 203.02 210.724 200.468 226.875 200.468 C 305.221 200.468 369.652 260.521 376.608 337.067 C 320.345 369.786 280.218 427.248 271.17 494.505 C 257.173 498.852 242.294 501.178 226.875 501.178 C 143.892 501.178 76.52 433.806 76.52 350.823 C 76.52 318.187 86.94 287.966 104.632 263.308 C 101.262 272.425 99.43 282.282 99.43 292.565 C 99.43 339.422 137.472 377.465 184.33 377.465 C 231.187 377.465 269.23 339.422 269.23 292.565 C 269.23 245.707 231.187 207.665 184.33 207.665 C 183.075 207.665 181.826 207.692 180.588 207.762 Z " fill-rule="evenodd" fill="none" mask="url(#_mask_t46tbjudbn13tWKY1oBliKVZm6SQtef8)" stroke-width="20" stroke="rgb(0,0,0)" stroke-linejoin="miter" stroke-linecap="square" stroke-miterlimit="3"/><path d=" M 357.098 343.523 C 273.766 263.313 134.013 377.176 204.23 479.974 C 196.196 478.288 189.882 480.641 187.23 488.974 C 120.373 374.26 268.287 249.102 361.284 340.628 L 361.284 340.628 L 357.098 343.523 L 357.098 343.523 Z " fill="rgb(0,0,0)"/><path d=" M 261.158 453.3 C 258.348 451.535 255.733 449.437 253.35 447.054 C 244.63 438.334 239.73 426.504 239.73 414.174 C 239.73 401.844 244.63 390.014 253.35 381.294 C 262.07 372.574 273.9 367.674 286.23 367.674 C 297.515 367.674 308.381 371.779 316.819 379.172 L 313.901 383.246 C 306.317 376.462 296.46 372.674 286.23 372.674 C 275.23 372.674 264.66 377.054 256.89 384.834 C 249.11 392.604 244.73 403.174 244.73 414.174 C 244.73 425.174 249.11 435.744 256.89 443.514 C 259.148 445.775 261.643 447.75 264.323 449.402 L 261.158 453.3 L 261.158 453.3 Z " fill="rgb(0,0,0)"/><path d=" M 334.1 360.465 C 325.272 341.168 328.799 309.536 343.23 293.974 C 341.575 306.007 351.939 314.037 358.23 313.974 C 341.337 325.867 333.837 339.367 338.248 357.426 L 338.248 357.426 L 334.1 360.465 L 334.1 360.465 Z " fill="rgb(0,0,0)"/><circle cx="231.72921803651622" cy="213.60408409216797" r="22.25" fill="rgb(0,0,0)"/><circle cx="148.00821811975453" cy="374.75239503892453" r="12.221691799825493" fill="rgb(0,0,0)"/><circle cx="125.00821811975447" cy="360.4650691619019" r="12.221691799825493" fill="rgb(0,0,0)"/><mask id="_mask_9BiqqU6OcryKt9LlwZe7EMuJlgOtX1Cp"><circle cx="184.32989694960924" cy="292.5645390430799" r="16.46616419601918" fill="white" stroke="none"/></mask><circle cx="184.32989694960924" cy="292.5645390430799" r="16.46616419601918" fill="none" mask="url(#_mask_9BiqqU6OcryKt9LlwZe7EMuJlgOtX1Cp)" stroke-width="10" stroke="rgb(0,0,0)" stroke-linejoin="miter" stroke-linecap="square" stroke-miterlimit="3"/><mask id="_mask_2acfHLgJEcC3NuoJhtIANngt2hzcH0O0"><path d=" M 161.472 129.505 C 83.901 198.323 34.981 298.737 34.981 410.487 C 34.981 439.062 38.179 466.896 44.253 493.645 C 45.41 493.631 46.569 493.623 47.73 493.623 C 182.673 493.623 292.23 603.18 292.23 738.123 C 292.23 747.687 291.68 757.122 290.613 766.402 C 328.258 779.112 368.575 785.994 410.487 785.994 C 617.735 785.994 785.994 617.735 785.994 410.487 C 785.994 271.798 710.644 150.569 598.675 85.552 C 588.44 99.416 571.986 108.409 553.447 108.409 C 522.42 108.409 497.23 83.219 497.23 52.191 C 497.23 49.818 497.377 47.478 497.661 45.181 C 469.685 38.508 440.495 34.981 410.487 34.981 C 390.587 34.981 371.046 36.532 351.985 39.537 C 352.812 44.895 353.23 50.386 353.23 55.974 C 353.23 116.685 303.941 165.974 243.23 165.974 C 210.783 165.974 181.598 151.895 161.472 129.505 Z " fill-rule="evenodd" fill="white" stroke="none"/></mask><path d=" M 161.472 129.505 C 83.901 198.323 34.981 298.737 34.981 410.487 C 34.981 439.062 38.179 466.896 44.253 493.645 C 45.41 493.631 46.569 493.623 47.73 493.623 C 182.673 493.623 292.23 603.18 292.23 738.123 C 292.23 747.687 291.68 757.122 290.613 766.402 C 328.258 779.112 368.575 785.994 410.487 785.994 C 617.735 785.994 785.994 617.735 785.994 410.487 C 785.994 271.798 710.644 150.569 598.675 85.552 C 588.44 99.416 571.986 108.409 553.447 108.409 C 522.42 108.409 497.23 83.219 497.23 52.191 C 497.23 49.818 497.377 47.478 497.661 45.181 C 469.685 38.508 440.495 34.981 410.487 34.981 C 390.587 34.981 371.046 36.532 351.985 39.537 C 352.812 44.895 353.23 50.386 353.23 55.974 C 353.23 116.685 303.941 165.974 243.23 165.974 C 210.783 165.974 181.598 151.895 161.472 129.505 Z " fill-rule="evenodd" fill="none" mask="url(#_mask_2acfHLgJEcC3NuoJhtIANngt2hzcH0O0)" stroke-width="40" stroke="rgb(0,0,0)" stroke-linejoin="miter" stroke-linecap="square" stroke-miterlimit="3"/><mask id="_mask_JuqePaoyPaJR6JFe8ZTXUCeNXWXe9ecO"><path d=" M 341.165 5.848 C 363.7 2 386.862 0 410.487 0 C 569.202 0 706.998 90.271 775.277 222.236 C 731.369 266.437 704.23 327.311 704.23 394.474 C 704.23 466.875 735.767 531.968 785.844 576.75 C 721.991 720.571 577.872 820.974 410.487 820.974 C 183.933 820.974 0 637.041 0 410.487 C 0 286.394 55.183 175.089 142.341 99.807 C 159.278 138.735 198.098 165.974 243.23 165.974 C 303.941 165.974 353.23 116.685 353.23 55.974 C 353.23 37.926 348.874 20.887 341.165 5.848 Z " fill-rule="evenodd" fill="white" stroke="none"/></mask><path d=" M 341.165 5.848 C 363.7 2 386.862 0 410.487 0 C 569.202 0 706.998 90.271 775.277 222.236 C 731.369 266.437 704.23 327.311 704.23 394.474 C 704.23 466.875 735.767 531.968 785.844 576.75 C 721.991 720.571 577.872 820.974 410.487 820.974 C 183.933 820.974 0 637.041 0 410.487 C 0 286.394 55.183 175.089 142.341 99.807 C 159.278 138.735 198.098 165.974 243.23 165.974 C 303.941 165.974 353.23 116.685 353.23 55.974 C 353.23 37.926 348.874 20.887 341.165 5.848 Z " fill-rule="evenodd" fill="none" mask="url(#_mask_JuqePaoyPaJR6JFe8ZTXUCeNXWXe9ecO)" stroke-width="40" stroke="rgb(0,0,0)" stroke-linejoin="miter" stroke-linecap="square" stroke-miterlimit="3"/></g></svg>
