<?xml version="1.0" standalone="no"?><!-- Generator: Gravit.io --><svg xmlns="http://www.w3.org/2000/svg" xmlns:xlink="http://www.w3.org/1999/xlink" style="isolation:isolate" viewBox="0 0 851.335 894.5" width="851.335" height="894.5"><defs><clipPath id="_clipPath_k1KyJYwbi4RW5YM2DWqC1GLuOT1LiXAl"><rect width="851.335" height="894.5"/></clipPath></defs><g clip-path="url(#_clipPath_k1KyJYwbi4RW5YM2DWqC1GLuOT1LiXAl)"><circle cx="462.8943384686263" cy="763.2269322393115" r="37.22693223931128" fill="none" stroke-width="5" stroke="rgb(0,0,0)" stroke-linejoin="miter" stroke-linecap="square" stroke-miterlimit="3"/><circle cx="633.8660536664715" cy="856.1339463335287" r="35.86605366647143" fill="none" stroke-width="5" stroke="rgb(0,0,0)" stroke-linejoin="miter" stroke-linecap="square" stroke-miterlimit="3"/><g><circle cx="347.9890663504777" cy="660.8284046220775" r="51.86421300166262" fill="rgb(0,0,0)"/><circle cx="711.880344351879" cy="449.24450899693625" r="13.244508996936247" fill="rgb(0,0,0)"/><circle cx="697.2113639056904" cy="499.65640932783083" r="17.888874179023105" fill="rgb(0,0,0)"/><circle cx="665.0113903834484" cy="556.7065547092012" r="27.906643719276076" fill="rgb(0,0,0)"/><circle cx="595.6025585688382" cy="628.4563034167976" r="32.372101205279705" fill="rgb(0,0,0)"/><circle cx="494.7886344758082" cy="672.709891678863" r="46.51107286546036" fill="rgb(0,0,0)"/></g><mask id="_mask_qmhm7JRZMuogmmNf49aAJoq2BXFDqboj"><path d=" M 851.335 464.295 C 835.892 639.931 713.79 785.153 550.269 834.723 C 589.012 804.99 614 758.216 614 705.651 C 614 615.882 541.118 543 451.349 543 C 361.579 543 288.697 615.882 288.697 705.651 C 288.697 768.469 324.385 823.016 376.577 850.104 C 164.672 825.352 0 645.005 0 426.5 C 0 191.108 191.108 0 426.5 0 C 587.88 0 728.446 89.825 800.869 222.172 C 764.64 190.321 717.134 171 665.151 171 C 551.607 171 459.424 263.183 459.424 376.728 C 459.424 490.272 551.607 582.455 665.151 582.455 C 747.387 582.455 818.418 534.1 851.335 464.295 Z " fill-rule="evenodd" fill="white" stroke="none"/></mask><path d=" M 851.335 464.295 C 835.892 639.931 713.79 785.153 550.269 834.723 C 589.012 804.99 614 758.216 614 705.651 C 614 615.882 541.118 543 451.349 543 C 361.579 543 288.697 615.882 288.697 705.651 C 288.697 768.469 324.385 823.016 376.577 850.104 C 164.672 825.352 0 645.005 0 426.5 C 0 191.108 191.108 0 426.5 0 C 587.88 0 728.446 89.825 800.869 222.172 C 764.64 190.321 717.134 171 665.151 171 C 551.607 171 459.424 263.183 459.424 376.728 C 459.424 490.272 551.607 582.455 665.151 582.455 C 747.387 582.455 818.418 534.1 851.335 464.295 Z " fill-rule="evenodd" fill="none" mask="url(#_mask_qmhm7JRZMuogmmNf49aAJoq2BXFDqboj)" stroke-width="20" stroke="rgb(0,0,0)" stroke-linejoin="miter" stroke-linecap="square" stroke-miterlimit="3"/><circle cx="308.94143657508107" cy="205.8659516482558" r="135.18743305054596" fill="none" stroke-width="5" stroke="rgb(0,0,0)" stroke-linejoin="miter" stroke-linecap="square" stroke-miterlimit="3"/><circle cx="189.22511356881554" cy="486.8211498430892" r="146.92156309041326" fill="none" stroke-width="5" stroke="rgb(0,0,0)" stroke-linejoin="miter" stroke-linecap="square" stroke-miterlimit="3"/><path d=" M 384.829 94.589 C 402.071 70.071 413.571 45.571 414 8" fill="none" stroke-width="4" stroke="rgb(0,0,0)" stroke-linejoin="miter" stroke-linecap="square" stroke-miterlimit="3"/><path d=" M 161 753 C 243.619 636.048 150.558 344.866 201.683 288.25" fill="none" stroke-width="4" stroke="rgb(0,0,0)" stroke-linejoin="miter" stroke-linecap="square" stroke-miterlimit="3"/><circle cx="380.7841544991688" cy="318.1729352473368" r="35.976664257616335" fill="none" stroke-width="5" stroke="rgb(0,0,0)" stroke-linejoin="miter" stroke-linecap="square" stroke-miterlimit="3"/><circle cx="380.78415449916884" cy="318.17293524733674" r="23.160091865261165" fill="none" stroke-width="5" stroke="rgb(0,0,0)" stroke-linejoin="miter" stroke-linecap="square" stroke-miterlimit="3"/><path d=" M 228.289 525.583 C 233.252 531.61 239.413 536.004 246.509 538.167 C 271.293 545.72 298.162 523.208 306.474 487.926 C 310.028 472.837 309.617 457.84 306.049 445.022 L 228.289 525.583 L 228.289 525.583 Z " fill="rgb(0,0,0)"/><path d=" M 150.161 525.583 C 145.198 531.61 139.037 536.004 131.941 538.167 C 107.158 545.72 80.288 523.208 71.977 487.926 C 68.422 472.837 68.833 457.84 72.401 445.022 L 150.161 525.583 L 150.161 525.583 Z " fill="rgb(0,0,0)"/><circle cx="194.82607890375448" cy="587.1739210962454" r="26.173921096245607" fill="rgb(0,0,0)"/></g></svg>
