<?xml version="1.0" standalone="no"?><!-- Generator: Gravit.io --><svg xmlns="http://www.w3.org/2000/svg" xmlns:xlink="http://www.w3.org/1999/xlink" style="isolation:isolate" viewBox="0 0 1707.313 465.142" width="1707.313" height="465.142"><defs><clipPath id="_clipPath_0hF5qmgRqPa2Ivc6zkLiJS3UbeUU4AZ1"><rect width="1707.313" height="465.142"/></clipPath></defs><g clip-path="url(#_clipPath_0hF5qmgRqPa2Ivc6zkLiJS3UbeUU4AZ1)"><g><mask id="_mask_DhedgSGgWkf5AsSpSisuOSaLwJ03ed0t"><path d=" M 614.993 231.281 C 614.998 230.993 615 230.705 615 230.417 C 615 190.482 582.578 158.06 542.643 158.06 C 502.708 158.06 470.286 190.482 470.286 230.417 C 470.286 261.789 490.294 288.524 518.241 298.536 C 533.923 260.034 571.199 232.595 614.993 231.281 Z " fill-rule="evenodd" fill="white" stroke="none"/></mask><path d=" M 614.993 231.281 C 614.998 230.993 615 230.705 615 230.417 C 615 190.482 582.578 158.06 542.643 158.06 C 502.708 158.06 470.286 190.482 470.286 230.417 C 470.286 261.789 490.294 288.524 518.241 298.536 C 533.923 260.034 571.199 232.595 614.993 231.281 Z " fill-rule="evenodd" fill="none" mask="url(#_mask_DhedgSGgWkf5AsSpSisuOSaLwJ03ed0t)" stroke-width="40" stroke="rgb(0,0,0)" stroke-linejoin="miter" stroke-linecap="square" stroke-miterlimit="3"/><mask id="_mask_KW5WV9UGjfSha7aYmkOCx0XnzoPRXneV"><circle cx="526.5067917574997" cy="207.85226469628537" r="22.506791757499855" fill="white" stroke="none"/></mask><circle cx="526.5067917574997" cy="207.85226469628537" r="22.506791757499855" fill="none" mask="url(#_mask_KW5WV9UGjfSha7aYmkOCx0XnzoPRXneV)" stroke-width="20" stroke="rgb(0,0,0)" stroke-linejoin="miter" stroke-linecap="square" stroke-miterlimit="3"/><mask id="_mask_r1Hl8U6tRor092066WbHFrHjxTGLrEQQ"><circle cx="629.75" cy="427.5670440143995" r="18.25" fill="white" stroke="none"/></mask><circle cx="629.75" cy="427.5670440143995" r="18.25" fill="none" mask="url(#_mask_r1Hl8U6tRor092066WbHFrHjxTGLrEQQ)" stroke-width="20" stroke="rgb(0,0,0)" stroke-linejoin="miter" stroke-linecap="square" stroke-miterlimit="3"/><mask id="_mask_mKLf9RaDQgA5zEK5MjudR0iZVIs3C7M4"><circle cx="638.3571428571452" cy="223.7741929750601" r="25.642857142855064" fill="white" stroke="none"/></mask><circle cx="638.3571428571452" cy="223.7741929750601" r="25.642857142855064" fill="none" mask="url(#_mask_mKLf9RaDQgA5zEK5MjudR0iZVIs3C7M4)" stroke-width="20" stroke="rgb(0,0,0)" stroke-linejoin="miter" stroke-linecap="square" stroke-miterlimit="3"/><mask id="_mask_68YCzMPYbEiIZJ7L56JVaKHBb79LIitV"><path d=" M 491.888 366.776 C 502.593 416.43 542.192 455.384 592.189 465.142 C 582.557 455.528 576.6 442.238 576.6 427.567 C 576.6 398.233 600.416 374.417 629.75 374.417 C 659.084 374.417 682.9 398.233 682.9 427.567 C 682.9 436.656 680.614 445.214 676.577 452.694 C 715.363 432.136 742.312 392.183 744.482 345.797 C 737.414 348.776 729.647 350.417 721.5 350.417 C 688.661 350.417 662 323.756 662 290.917 C 662 267.916 675.079 247.946 694.2 238.045 C 672.724 221.644 645.897 211.91 616.814 211.91 C 555.557 211.91 504.307 255.097 491.895 312.665 C 499.598 303.529 511.126 297.725 524 297.725 C 547.18 297.725 566 316.544 566 339.725 C 566 362.905 547.18 381.725 524 381.725 C 511.123 381.725 499.591 375.917 491.888 366.776 Z " fill-rule="evenodd" fill="white" stroke="none"/></mask><path d=" M 491.888 366.776 C 502.593 416.43 542.192 455.384 592.189 465.142 C 582.557 455.528 576.6 442.238 576.6 427.567 C 576.6 398.233 600.416 374.417 629.75 374.417 C 659.084 374.417 682.9 398.233 682.9 427.567 C 682.9 436.656 680.614 445.214 676.577 452.694 C 715.363 432.136 742.312 392.183 744.482 345.797 C 737.414 348.776 729.647 350.417 721.5 350.417 C 688.661 350.417 662 323.756 662 290.917 C 662 267.916 675.079 247.946 694.2 238.045 C 672.724 221.644 645.897 211.91 616.814 211.91 C 555.557 211.91 504.307 255.097 491.895 312.665 C 499.598 303.529 511.126 297.725 524 297.725 C 547.18 297.725 566 316.544 566 339.725 C 566 362.905 547.18 381.725 524 381.725 C 511.123 381.725 499.591 375.917 491.888 366.776 Z " fill-rule="evenodd" fill="none" mask="url(#_mask_68YCzMPYbEiIZJ7L56JVaKHBb79LIitV)" stroke-width="40" stroke="rgb(0,0,0)" stroke-linejoin="miter" stroke-linecap="square" stroke-miterlimit="3"/><mask id="_mask_uEsyIYJiLY68cHvQzexQCvxcGaXurual"><circle cx="524.0000000000001" cy="339.7245339122136" r="16.35714285714502" fill="white" stroke="none"/></mask><circle cx="524.0000000000001" cy="339.7245339122136" r="16.35714285714502" fill="none" mask="url(#_mask_uEsyIYJiLY68cHvQzexQCvxcGaXurual)" stroke-width="20" stroke="rgb(0,0,0)" stroke-linejoin="miter" stroke-linecap="square" stroke-miterlimit="3"/><mask id="_mask_isfrBwjMUv5XhnTIz37QdmaCHpeOyRuf"><circle cx="763.4999999999999" cy="345.9170501179152" r="23.499999999999886" fill="white" stroke="none"/></mask><circle cx="763.4999999999999" cy="345.9170501179152" r="23.499999999999886" fill="none" mask="url(#_mask_isfrBwjMUv5XhnTIz37QdmaCHpeOyRuf)" stroke-width="20" stroke="rgb(0,0,0)" stroke-linejoin="miter" stroke-linecap="square" stroke-miterlimit="3"/><mask id="_mask_02AnbBl8DOTFAfD8kOQRh0ZJuIEkZEVN"><path d=" M 723.536 211.434 C 722.858 211.426 722.18 211.417 721.5 211.417 C 677.623 211.417 642 247.04 642 290.917 C 642 334.794 677.623 370.417 721.5 370.417 C 760.242 370.417 792.548 342.645 799.57 305.937 C 756.569 301.482 723 265.089 723 220.917 C 723 217.711 723.177 214.545 723.536 211.434 Z " fill-rule="evenodd" fill="white" stroke="none"/></mask><path d=" M 723.536 211.434 C 722.858 211.426 722.18 211.417 721.5 211.417 C 677.623 211.417 642 247.04 642 290.917 C 642 334.794 677.623 370.417 721.5 370.417 C 760.242 370.417 792.548 342.645 799.57 305.937 C 756.569 301.482 723 265.089 723 220.917 C 723 217.711 723.177 214.545 723.536 211.434 Z " fill-rule="evenodd" fill="none" mask="url(#_mask_02AnbBl8DOTFAfD8kOQRh0ZJuIEkZEVN)" stroke-width="40" stroke="rgb(0,0,0)" stroke-linejoin="miter" stroke-linecap="square" stroke-miterlimit="3"/><mask id="_mask_lKhiO2R1l25QNKNZ9od0CviLoie84qOr"><circle cx="925.6435677664604" cy="176.70347502723575" r="18.643567766460592" fill="white" stroke="none"/></mask><circle cx="925.6435677664604" cy="176.70347502723575" r="18.643567766460592" fill="none" mask="url(#_mask_lKhiO2R1l25QNKNZ9od0CviLoie84qOr)" stroke-width="20" stroke="rgb(0,0,0)" stroke-linejoin="miter" stroke-linecap="square" stroke-miterlimit="3"/><mask id="_mask_AYkfewERymjkU9qroqEl9e7hjar7Aqp0"><path d=" M 820.771 116.136 C 873.228 122.214 914 166.842 914 220.917 C 914 222.744 913.953 224.56 913.839 226.358 C 903.838 220.597 892.241 217.297 879.88 217.297 C 842.284 217.297 811.76 247.821 811.76 285.417 C 811.76 300.251 816.512 313.985 824.577 325.175 C 819.34 326 813.968 326.417 808.5 326.417 C 750.273 326.417 703 279.144 703 220.917 C 703 209.904 704.691 199.282 707.847 189.307 C 720.279 201.441 737.273 208.917 756 208.917 C 794.082 208.917 825 177.999 825 139.917 C 825 131.559 823.511 123.547 820.771 116.136 Z " fill-rule="evenodd" fill="white" stroke="none"/></mask><path d=" M 820.771 116.136 C 873.228 122.214 914 166.842 914 220.917 C 914 222.744 913.953 224.56 913.839 226.358 C 903.838 220.597 892.241 217.297 879.88 217.297 C 842.284 217.297 811.76 247.821 811.76 285.417 C 811.76 300.251 816.512 313.985 824.577 325.175 C 819.34 326 813.968 326.417 808.5 326.417 C 750.273 326.417 703 279.144 703 220.917 C 703 209.904 704.691 199.282 707.847 189.307 C 720.279 201.441 737.273 208.917 756 208.917 C 794.082 208.917 825 177.999 825 139.917 C 825 131.559 823.511 123.547 820.771 116.136 Z " fill-rule="evenodd" fill="none" mask="url(#_mask_AYkfewERymjkU9qroqEl9e7hjar7Aqp0)" stroke-width="40" stroke="rgb(0,0,0)" stroke-linejoin="miter" stroke-linecap="square" stroke-miterlimit="3"/><mask id="_mask_SP2153ah7DS6vJLz5A5MvZXf4iCmaT8m"><path d=" M 960.587 320.185 C 965.207 309.525 967.76 297.767 967.76 285.417 C 967.76 236.915 928.382 197.537 879.88 197.537 C 831.378 197.537 792 236.915 792 285.417 C 792 324.836 818.009 358.228 853.795 369.336 C 853.269 366.147 853 362.873 853 359.536 C 853 325.869 880.333 298.536 914 298.536 C 932.674 298.536 949.399 306.945 960.587 320.185 Z " fill-rule="evenodd" fill="white" stroke="none"/></mask><path d=" M 960.587 320.185 C 965.207 309.525 967.76 297.767 967.76 285.417 C 967.76 236.915 928.382 197.537 879.88 197.537 C 831.378 197.537 792 236.915 792 285.417 C 792 324.836 818.009 358.228 853.795 369.336 C 853.269 366.147 853 362.873 853 359.536 C 853 325.869 880.333 298.536 914 298.536 C 932.674 298.536 949.399 306.945 960.587 320.185 Z " fill-rule="evenodd" fill="none" mask="url(#_mask_SP2153ah7DS6vJLz5A5MvZXf4iCmaT8m)" stroke-width="40" stroke="rgb(0,0,0)" stroke-linejoin="miter" stroke-linecap="square" stroke-miterlimit="3"/><mask id="_mask_NeBCFZgUi7ZUs4qSRln2nJRUOjHxKmS2"><circle cx="907" cy="253.64463775482284" r="23.227587636907515" fill="white" stroke="none"/></mask><circle cx="907" cy="253.64463775482284" r="23.227587636907515" fill="none" mask="url(#_mask_NeBCFZgUi7ZUs4qSRln2nJRUOjHxKmS2)" stroke-width="20" stroke="rgb(0,0,0)" stroke-linejoin="miter" stroke-linecap="square" stroke-miterlimit="3"/><mask id="_mask_6ZbSrrW0pNhtFspk5BM4vasujl09KPaM"><path d=" M 927.185 439.455 C 965.565 433.161 994.881 399.806 994.881 359.657 C 994.881 315.017 958.64 278.776 914 278.776 C 869.36 278.776 833.119 315.017 833.119 359.657 C 833.119 395.5 856.485 425.929 888.805 436.523 C 875.189 428.756 866 414.101 866 397.317 C 866 372.426 886.209 352.217 911.1 352.217 C 935.991 352.217 956.2 372.426 956.2 397.317 C 956.2 416.542 944.144 432.974 927.185 439.455 Z " fill-rule="evenodd" fill="white" stroke="none"/></mask><path d=" M 927.185 439.455 C 965.565 433.161 994.881 399.806 994.881 359.657 C 994.881 315.017 958.64 278.776 914 278.776 C 869.36 278.776 833.119 315.017 833.119 359.657 C 833.119 395.5 856.485 425.929 888.805 436.523 C 875.189 428.756 866 414.101 866 397.317 C 866 372.426 886.209 352.217 911.1 352.217 C 935.991 352.217 956.2 372.426 956.2 397.317 C 956.2 416.542 944.144 432.974 927.185 439.455 Z " fill-rule="evenodd" fill="none" mask="url(#_mask_6ZbSrrW0pNhtFspk5BM4vasujl09KPaM)" stroke-width="40" stroke="rgb(0,0,0)" stroke-linejoin="miter" stroke-linecap="square" stroke-miterlimit="3"/><mask id="_mask_JR7bkdvcpIVdHxot3Q5WCwALaEWMMxLL"><circle cx="920.7499999999995" cy="345.91705011791504" r="38.75" fill="white" stroke="none"/></mask><circle cx="920.7499999999995" cy="345.91705011791504" r="38.75" fill="none" mask="url(#_mask_JR7bkdvcpIVdHxot3Q5WCwALaEWMMxLL)" stroke-width="20" stroke="rgb(0,0,0)" stroke-linejoin="miter" stroke-linecap="square" stroke-miterlimit="3"/><circle cx="679.5" cy="390.9170501179151" r="21.5" fill="rgb(0,0,0)"/><circle cx="639.5" cy="367.5595581286752" r="18.499999999999886" fill="rgb(0,0,0)"/><circle cx="600.0813953488373" cy="372.41705011791527" r="15.918604651162696" fill="rgb(0,0,0)"/><line x1="647" y1="245.831" x2="647" y2="292.581" stroke-width="10" stroke="rgb(0,0,0)" stroke-linejoin="miter" stroke-linecap="round" stroke-miterlimit="3"/><circle cx="546.8206827056933" cy="297.0327624628803" r="23.820682705693343" fill="rgb(0,0,0)"/><circle cx="574.3842876550347" cy="335.80133777295" r="21.384287655034882" fill="rgb(0,0,0)"/><circle cx="532.1970886881415" cy="390.1199553262578" r="19.197088688141548" fill="rgb(0,0,0)"/><line x1="748" y1="335.801" x2="731" y2="335.801" stroke-width="10" stroke="rgb(0,0,0)" stroke-linejoin="miter" stroke-linecap="round" stroke-miterlimit="3"/><line x1="731" y1="335.801" x2="731" y2="284.148" stroke-width="10" stroke="rgb(0,0,0)" stroke-linejoin="miter" stroke-linecap="round" stroke-miterlimit="3"/><line x1="715" y1="252.417" x2="715" y2="356.082" stroke-width="10" stroke="rgb(0,0,0)" stroke-linejoin="miter" stroke-linecap="round" stroke-miterlimit="3"/><circle cx="804.0593643066949" cy="269.47641442461014" r="29.059364306694988" fill="rgb(0,0,0)"/><circle cx="947" cy="342.41705011791527" r="20" fill="rgb(0,0,0)"/><circle cx="885" cy="338.3533863218231" r="14.000000000000227" fill="rgb(0,0,0)"/><circle cx="864.1999999999998" cy="355.71705011791533" r="9.800000000000296" fill="rgb(0,0,0)"/><line x1="715" y1="249.417" x2="697" y2="249.417" stroke-width="10" stroke="rgb(0,0,0)" stroke-linejoin="miter" stroke-linecap="round" stroke-miterlimit="3"/><line x1="697" y1="249.417" x2="697" y2="314.417" stroke-width="10" stroke="rgb(0,0,0)" stroke-linejoin="miter" stroke-linecap="round" stroke-miterlimit="3"/><line x1="697" y1="314.417" x2="658" y2="314.417" stroke-width="10" stroke="rgb(0,0,0)" stroke-linejoin="miter" stroke-linecap="round" stroke-miterlimit="3"/></g><g><mask id="_mask_C4xgrVbSlJdOLde217OJbqYmzxm2vit0"><path d=" M 1110.993 118.837 C 1110.57 73.944 1073.992 37.629 1029 37.629 C 983.743 37.629 947 74.372 947 119.629 C 947 156.471 971.349 187.671 1004.825 197.985 C 1006.559 152.535 1044.004 116.174 1089.875 116.174 C 1097.166 116.174 1104.244 117.093 1110.993 118.837 Z " fill-rule="evenodd" fill="white" stroke="none"/></mask><path d=" M 1110.993 118.837 C 1110.57 73.944 1073.992 37.629 1029 37.629 C 983.743 37.629 947 74.372 947 119.629 C 947 156.471 971.349 187.671 1004.825 197.985 C 1006.559 152.535 1044.004 116.174 1089.875 116.174 C 1097.166 116.174 1104.244 117.093 1110.993 118.837 Z " fill-rule="evenodd" fill="none" mask="url(#_mask_C4xgrVbSlJdOLde217OJbqYmzxm2vit0)" stroke-width="40" stroke="rgb(0,0,0)" stroke-linejoin="miter" stroke-linecap="square" stroke-miterlimit="3"/><mask id="_mask_9Umi3wzjKnnPNl0v2vr5HwkTsBjglDBQ"><circle cx="1071.5" cy="62.365007564667394" r="28.5" fill="white" stroke="none"/></mask><circle cx="1071.5" cy="62.365007564667394" r="28.5" fill="none" mask="url(#_mask_9Umi3wzjKnnPNl0v2vr5HwkTsBjglDBQ)" stroke-width="20" stroke="rgb(0,0,0)" stroke-linejoin="miter" stroke-linecap="square" stroke-miterlimit="3"/><mask id="_mask_mZA1DJ1kUGoUQSqrqfgkF6nTN3Wo5CoH"><circle cx="971.9940298806666" cy="78.87094515199468" r="46.99402988066697" fill="white" stroke="none"/></mask><circle cx="971.9940298806666" cy="78.87094515199468" r="46.99402988066697" fill="none" mask="url(#_mask_mZA1DJ1kUGoUQSqrqfgkF6nTN3Wo5CoH)" stroke-width="20" stroke="rgb(0,0,0)" stroke-linejoin="miter" stroke-linecap="square" stroke-miterlimit="3"/><mask id="_mask_daGNKDIxPHqvlmEim3wyjOqugki2syF0"><path d=" M 1187.747 162.856 C 1192.426 174.768 1195 187.736 1195 201.299 C 1195 235.389 1178.738 265.711 1153.546 284.912 C 1143.66 262.686 1121.377 247.174 1095.5 247.174 C 1067.316 247.174 1043.397 265.575 1035.116 291.011 C 1004.913 272.547 984.75 239.259 984.75 201.299 C 984.75 143.279 1031.855 96.174 1089.875 96.174 C 1111.535 96.174 1131.675 102.739 1148.398 114.003 C 1146.206 113.674 1143.962 113.508 1141.679 113.508 C 1116.192 113.508 1095.5 134.2 1095.5 159.686 C 1095.5 185.173 1116.192 205.865 1141.679 205.865 C 1166.099 205.865 1186.118 186.867 1187.747 162.856 Z " fill-rule="evenodd" fill="white" stroke="none"/></mask><path d=" M 1187.747 162.856 C 1192.426 174.768 1195 187.736 1195 201.299 C 1195 235.389 1178.738 265.711 1153.546 284.912 C 1143.66 262.686 1121.377 247.174 1095.5 247.174 C 1067.316 247.174 1043.397 265.575 1035.116 291.011 C 1004.913 272.547 984.75 239.259 984.75 201.299 C 984.75 143.279 1031.855 96.174 1089.875 96.174 C 1111.535 96.174 1131.675 102.739 1148.398 114.003 C 1146.206 113.674 1143.962 113.508 1141.679 113.508 C 1116.192 113.508 1095.5 134.2 1095.5 159.686 C 1095.5 185.173 1116.192 205.865 1141.679 205.865 C 1166.099 205.865 1186.118 186.867 1187.747 162.856 Z " fill-rule="evenodd" fill="none" mask="url(#_mask_daGNKDIxPHqvlmEim3wyjOqugki2syF0)" stroke-width="40" stroke="rgb(0,0,0)" stroke-linejoin="miter" stroke-linecap="square" stroke-miterlimit="3"/><mask id="_mask_PorEUTfZlQOrTytsY5pvbie1mB6JofuV"><circle cx="1141.6785714285718" cy="159.6864361360947" r="18.678571428572468" fill="white" stroke="none"/></mask><circle cx="1141.6785714285718" cy="159.6864361360947" r="18.678571428572468" fill="none" mask="url(#_mask_PorEUTfZlQOrTytsY5pvbie1mB6JofuV)" stroke-width="20" stroke="rgb(0,0,0)" stroke-linejoin="miter" stroke-linecap="square" stroke-miterlimit="3"/><line x1="1051" y1="75.865" x2="1033.563" y2="75.865" stroke-width="10" stroke="rgb(0,0,0)" stroke-linejoin="miter" stroke-linecap="round" stroke-miterlimit="3"/><line x1="1087" y1="135.45" x2="1071.5" y2="135.45" stroke-width="10" stroke="rgb(0,0,0)" stroke-linejoin="miter" stroke-linecap="round" stroke-miterlimit="3"/><line x1="1071.5" y1="135.45" x2="1071.5" y2="107.299" stroke-width="10" stroke="rgb(0,0,0)" stroke-linejoin="miter" stroke-linecap="round" stroke-miterlimit="3"/><line x1="1033.563" y1="75.865" x2="1033.563" y2="120.865" stroke-width="10" stroke="rgb(0,0,0)" stroke-linejoin="miter" stroke-linecap="round" stroke-miterlimit="3"/><line x1="1051" y1="181.303" x2="1051" y2="220.865" stroke-width="10" stroke="rgb(0,0,0)" stroke-linejoin="miter" stroke-linecap="round" stroke-miterlimit="3"/><line x1="1051" y1="181.303" x2="1091" y2="181.303" stroke-width="10" stroke="rgb(0,0,0)" stroke-linejoin="miter" stroke-linecap="round" stroke-miterlimit="3"/><line x1="1051" y1="220.865" x2="998" y2="220.865" stroke-width="10" stroke="rgb(0,0,0)" stroke-linejoin="miter" stroke-linecap="round" stroke-miterlimit="3"/></g><g><mask id="_mask_yxPWyhwlkxSshtETJnY3DAWe7wbASj58"><path d=" M 1309.775 175.52 C 1339.541 160.008 1359.881 128.861 1359.881 93 C 1359.881 41.672 1318.209 0 1266.881 0 C 1215.553 0 1173.881 41.672 1173.881 93 C 1173.881 125.774 1190.872 154.612 1216.516 171.179 C 1227.863 159.553 1243.702 152.335 1261.214 152.335 C 1280.814 152.335 1298.319 161.377 1309.775 175.52 Z " fill-rule="evenodd" fill="white" stroke="none"/></mask><path d=" M 1309.775 175.52 C 1339.541 160.008 1359.881 128.861 1359.881 93 C 1359.881 41.672 1318.209 0 1266.881 0 C 1215.553 0 1173.881 41.672 1173.881 93 C 1173.881 125.774 1190.872 154.612 1216.516 171.179 C 1227.863 159.553 1243.702 152.335 1261.214 152.335 C 1280.814 152.335 1298.319 161.377 1309.775 175.52 Z " fill-rule="evenodd" fill="none" mask="url(#_mask_yxPWyhwlkxSshtETJnY3DAWe7wbASj58)" stroke-width="40" stroke="rgb(0,0,0)" stroke-linejoin="miter" stroke-linecap="square" stroke-miterlimit="3"/><mask id="_mask_tmiiOfO4teyk0ka8pj6P4BdE4jPq1RO2"><circle cx="1344.1750030517578" cy="119.82499694824557" r="26.824996948242188" fill="white" stroke="none"/></mask><circle cx="1344.1750030517578" cy="119.82499694824557" r="26.824996948242188" fill="none" mask="url(#_mask_tmiiOfO4teyk0ka8pj6P4BdE4jPq1RO2)" stroke-width="20" stroke="rgb(0,0,0)" stroke-linejoin="miter" stroke-linecap="square" stroke-miterlimit="3"/><mask id="_mask_goRZSrOihdqcAD34P0BYCx41PmFE5pK1"><circle cx="1263.5597872064272" cy="77.60944626927744" r="49.5597872064277" fill="white" stroke="none"/></mask><circle cx="1263.5597872064272" cy="77.60944626927744" r="49.5597872064277" fill="none" mask="url(#_mask_goRZSrOihdqcAD34P0BYCx41PmFE5pK1)" stroke-width="20" stroke="rgb(0,0,0)" stroke-linejoin="miter" stroke-linecap="square" stroke-miterlimit="3"/><mask id="_mask_cLxOqB4GAdPAGeOCR4dqBgrqMvveet3A"><circle cx="1263.5597872064275" cy="77.60944626927738" r="13.175939286313906" fill="white" stroke="none"/></mask><circle cx="1263.5597872064275" cy="77.60944626927738" r="13.175939286313906" fill="none" mask="url(#_mask_cLxOqB4GAdPAGeOCR4dqBgrqMvveet3A)" stroke-width="20" stroke="rgb(0,0,0)" stroke-linejoin="miter" stroke-linecap="square" stroke-miterlimit="3"/><line x1="1290.81" y1="113.065" x2="1322.81" y2="113.065" stroke-width="10" stroke="rgb(0,0,0)" stroke-linejoin="miter" stroke-linecap="round" stroke-miterlimit="3"/><line x1="1308.591" y1="79.065" x2="1328.079" y2="79.065" stroke-width="10" stroke="rgb(0,0,0)" stroke-linejoin="miter" stroke-linecap="round" stroke-miterlimit="3"/><line x1="1328.079" y1="79.065" x2="1328.079" y2="40.315" stroke-width="10" stroke="rgb(0,0,0)" stroke-linejoin="miter" stroke-linecap="round" stroke-miterlimit="3"/><line x1="1326.81" y1="40.315" x2="1289.81" y2="40.315" stroke-width="10" stroke="rgb(0,0,0)" stroke-linejoin="miter" stroke-linecap="round" stroke-miterlimit="3"/></g><g><mask id="_mask_QvxQRj4dB7Q4iOJykuzEz8p68Xpj2Uau"><circle cx="1403.237413809029" cy="367.525829939133" r="49.99402988066686" fill="white" stroke="none"/></mask><circle cx="1403.237413809029" cy="367.525829939133" r="49.99402988066686" fill="none" mask="url(#_mask_QvxQRj4dB7Q4iOJykuzEz8p68Xpj2Uau)" stroke-width="20" stroke="rgb(0,0,0)" stroke-linejoin="miter" stroke-linecap="square" stroke-miterlimit="3"/><mask id="_mask_KPSVBZTOTBIesUCVmMVTztV0AX6DFj9X"><circle cx="1491.3506100864124" cy="358.77685241465497" r="14.81003549983302" fill="white" stroke="none"/></mask><circle cx="1491.3506100864124" cy="358.77685241465497" r="14.81003549983302" fill="none" mask="url(#_mask_KPSVBZTOTBIesUCVmMVTztV0AX6DFj9X)" stroke-width="20" stroke="rgb(0,0,0)" stroke-linejoin="miter" stroke-linecap="square" stroke-miterlimit="3"/><mask id="_mask_GogtsKYWuGIjWk2p97uBF46ltH3qKpop"><circle cx="1520.2994037229687" cy="296.46216614304086" r="27.320623858942554" fill="white" stroke="none"/></mask><circle cx="1520.2994037229687" cy="296.46216614304086" r="27.320623858942554" fill="none" mask="url(#_mask_GogtsKYWuGIjWk2p97uBF46ltH3qKpop)" stroke-width="20" stroke="rgb(0,0,0)" stroke-linejoin="miter" stroke-linecap="square" stroke-miterlimit="3"/><mask id="_mask_pEYvaIu7pXrznaqK0OoGGwqFmW2BS6qg"><path d=" M 1424.185 191.96 C 1411.207 205.623 1403.237 224.088 1403.237 244.401 C 1403.237 286.43 1437.36 320.552 1479.389 320.552 C 1521.418 320.552 1555.541 286.43 1555.541 244.401 C 1555.541 241.572 1555.386 238.779 1555.071 236.034 C 1542.017 242.511 1527.309 246.146 1511.759 246.146 C 1473.441 246.146 1440.237 224.076 1424.185 191.96 Z " fill-rule="evenodd" fill="white" stroke="none"/></mask><path d=" M 1424.185 191.96 C 1411.207 205.623 1403.237 224.088 1403.237 244.401 C 1403.237 286.43 1437.36 320.552 1479.389 320.552 C 1521.418 320.552 1555.541 286.43 1555.541 244.401 C 1555.541 241.572 1555.386 238.779 1555.071 236.034 C 1542.017 242.511 1527.309 246.146 1511.759 246.146 C 1473.441 246.146 1440.237 224.076 1424.185 191.96 Z " fill-rule="evenodd" fill="none" mask="url(#_mask_pEYvaIu7pXrznaqK0OoGGwqFmW2BS6qg)" stroke-width="40" stroke="rgb(0,0,0)" stroke-linejoin="miter" stroke-linecap="square" stroke-miterlimit="3"/><mask id="_mask_No0lswbhC5I2MBEyMTdNCeoNYS2AXcgP"><path d=" M 1424.885 230.572 C 1420.281 229.725 1415.536 229.283 1410.688 229.283 C 1367.572 229.283 1332.567 264.288 1332.567 307.404 C 1332.567 350.521 1367.572 385.526 1410.688 385.526 C 1453.805 385.526 1488.81 350.521 1488.81 307.404 C 1488.81 304.87 1488.689 302.364 1488.438 299.896 C 1485.494 300.383 1482.47 300.632 1479.389 300.632 C 1448.354 300.632 1423.158 275.436 1423.158 244.401 C 1423.158 239.628 1423.754 234.994 1424.885 230.572 Z " fill-rule="evenodd" fill="white" stroke="none"/></mask><path d=" M 1424.885 230.572 C 1420.281 229.725 1415.536 229.283 1410.688 229.283 C 1367.572 229.283 1332.567 264.288 1332.567 307.404 C 1332.567 350.521 1367.572 385.526 1410.688 385.526 C 1453.805 385.526 1488.81 350.521 1488.81 307.404 C 1488.81 304.87 1488.689 302.364 1488.438 299.896 C 1485.494 300.383 1482.47 300.632 1479.389 300.632 C 1448.354 300.632 1423.158 275.436 1423.158 244.401 C 1423.158 239.628 1423.754 234.994 1424.885 230.572 Z " fill-rule="evenodd" fill="none" mask="url(#_mask_No0lswbhC5I2MBEyMTdNCeoNYS2AXcgP)" stroke-width="40" stroke="rgb(0,0,0)" stroke-linejoin="miter" stroke-linecap="square" stroke-miterlimit="3"/><mask id="_mask_jJ8Z1YOb1javEOAQTc9D0jK0jZOtr4PD"><circle cx="1574.4058029806597" cy="197.39105833321327" r="13.134739073914034" fill="white" stroke="none"/></mask><circle cx="1574.4058029806597" cy="197.39105833321327" r="13.134739073914034" fill="none" mask="url(#_mask_jJ8Z1YOb1javEOAQTc9D0jK0jZOtr4PD)" stroke-width="20" stroke="rgb(0,0,0)" stroke-linejoin="miter" stroke-linecap="square" stroke-miterlimit="3"/><mask id="_mask_CgB6CeURhegalNmNVo1n20a6V9IKhNhC"><path d=" M 1602.149 73.683 C 1618.925 93.946 1629 119.948 1629 148.285 C 1629 167.612 1624.313 185.853 1616.019 201.935 C 1616.188 200.444 1616.271 198.927 1616.271 197.391 C 1616.271 174.285 1597.512 155.526 1574.406 155.526 C 1551.3 155.526 1532.541 174.285 1532.541 197.391 C 1532.541 220.497 1551.3 239.256 1574.406 239.256 C 1579.416 239.256 1584.222 238.374 1588.673 236.75 C 1568.076 254.668 1541.176 265.526 1511.759 265.526 C 1447.052 265.526 1394.518 212.992 1394.518 148.285 C 1394.518 88.015 1440.094 38.306 1498.637 31.791 C 1498.241 34.478 1498.041 37.229 1498.041 40.026 C 1498.041 71.761 1523.805 97.526 1555.541 97.526 C 1574.71 97.526 1591.702 88.125 1602.149 73.683 Z " fill-rule="evenodd" fill="white" stroke="none"/></mask><path d=" M 1602.149 73.683 C 1618.925 93.946 1629 119.948 1629 148.285 C 1629 167.612 1624.313 185.853 1616.019 201.935 C 1616.188 200.444 1616.271 198.927 1616.271 197.391 C 1616.271 174.285 1597.512 155.526 1574.406 155.526 C 1551.3 155.526 1532.541 174.285 1532.541 197.391 C 1532.541 220.497 1551.3 239.256 1574.406 239.256 C 1579.416 239.256 1584.222 238.374 1588.673 236.75 C 1568.076 254.668 1541.176 265.526 1511.759 265.526 C 1447.052 265.526 1394.518 212.992 1394.518 148.285 C 1394.518 88.015 1440.094 38.306 1498.637 31.791 C 1498.241 34.478 1498.041 37.229 1498.041 40.026 C 1498.041 71.761 1523.805 97.526 1555.541 97.526 C 1574.71 97.526 1591.702 88.125 1602.149 73.683 Z " fill-rule="evenodd" fill="none" mask="url(#_mask_CgB6CeURhegalNmNVo1n20a6V9IKhNhC)" stroke-width="40" stroke="rgb(0,0,0)" stroke-linejoin="miter" stroke-linecap="square" stroke-miterlimit="3"/><mask id="_mask_XnBFTLBm2MkddQlp5mOunTn0b9DKvFNR"><circle cx="1466.6437766540948" cy="130.16868708199306" r="45.11514230618036" fill="white" stroke="none"/></mask><circle cx="1466.6437766540948" cy="130.16868708199306" r="45.11514230618036" fill="none" mask="url(#_mask_XnBFTLBm2MkddQlp5mOunTn0b9DKvFNR)" stroke-width="20" stroke="rgb(0,0,0)" stroke-linejoin="miter" stroke-linecap="square" stroke-miterlimit="3"/><mask id="_mask_rBWDSIxcrf9SlVC2gR9PqzQTp1AZF2Py"><circle cx="1555.5405745865812" cy="40.025829939133246" r="17.5" fill="white" stroke="none"/></mask><circle cx="1555.5405745865812" cy="40.025829939133246" r="17.5" fill="none" mask="url(#_mask_rBWDSIxcrf9SlVC2gR9PqzQTp1AZF2Py)" stroke-width="20" stroke="rgb(0,0,0)" stroke-linejoin="miter" stroke-linecap="square" stroke-miterlimit="3"/><line x1="1498.541" y1="284.656" x2="1476.541" y2="284.656" stroke-width="10" stroke="rgb(0,0,0)" stroke-linejoin="miter" stroke-linecap="round" stroke-miterlimit="3"/><line x1="1476.541" y1="284.656" x2="1476.541" y2="255.545" stroke-width="10" stroke="rgb(0,0,0)" stroke-linejoin="miter" stroke-linecap="round" stroke-miterlimit="3"/><line x1="1521.541" y1="197.391" x2="1453.231" y2="197.391" stroke-width="10" stroke="rgb(0,0,0)" stroke-linejoin="miter" stroke-linecap="round" stroke-miterlimit="3"/><line x1="1453.231" y1="197.391" x2="1453.231" y2="238.526" stroke-width="10" stroke="rgb(0,0,0)" stroke-linejoin="miter" stroke-linecap="round" stroke-miterlimit="3"/><line x1="1573.041" y1="190.176" x2="1573.041" y2="103.526" stroke-width="10" stroke="rgb(0,0,0)" stroke-linejoin="miter" stroke-linecap="round" stroke-miterlimit="3"/><line x1="1503.541" y1="147.026" x2="1503.541" y2="255.545" stroke-width="10" stroke="rgb(0,0,0)" stroke-linejoin="miter" stroke-linecap="round" stroke-miterlimit="3"/></g><g><mask id="_mask_yRTfNVjPorKhlB1ULf1mqfw12ERmDwiL"><circle cx="1663.4330478550698" cy="349.295901773635" r="23" fill="white" stroke="none"/></mask><circle cx="1663.4330478550698" cy="349.295901773635" r="23" fill="none" mask="url(#_mask_yRTfNVjPorKhlB1ULf1mqfw12ERmDwiL)" stroke-width="20" stroke="rgb(0,0,0)" stroke-linejoin="miter" stroke-linecap="square" stroke-miterlimit="3"/><mask id="_mask_x1ZI948yL4Dx5ksomy2avicPY0h2bQHW"><path d=" M 1623.355 270.52 C 1612.39 279.864 1605.433 293.773 1605.433 309.295 C 1605.433 337.409 1628.259 360.235 1656.373 360.235 C 1684.488 360.235 1707.313 337.409 1707.313 309.295 C 1707.313 303.93 1706.482 298.758 1704.933 293.904 C 1696.252 298.927 1686.176 301.805 1675.433 301.805 C 1652.887 301.805 1633.277 289.131 1623.355 270.52 Z " fill-rule="evenodd" fill="white" stroke="none"/></mask><path d=" M 1623.355 270.52 C 1612.39 279.864 1605.433 293.773 1605.433 309.295 C 1605.433 337.409 1628.259 360.235 1656.373 360.235 C 1684.488 360.235 1707.313 337.409 1707.313 309.295 C 1707.313 303.93 1706.482 298.758 1704.933 293.904 C 1696.252 298.927 1686.176 301.805 1675.433 301.805 C 1652.887 301.805 1633.277 289.131 1623.355 270.52 Z " fill-rule="evenodd" fill="none" mask="url(#_mask_x1ZI948yL4Dx5ksomy2avicPY0h2bQHW)" stroke-width="40" stroke="rgb(0,0,0)" stroke-linejoin="miter" stroke-linecap="square" stroke-miterlimit="3"/><line x1="1665.433" y1="368.235" x2="1665.433" y2="382.235" stroke-width="10" stroke="rgb(0,0,0)" stroke-linejoin="miter" stroke-linecap="round" stroke-miterlimit="3"/><line x1="1665.433" y1="382.235" x2="1639.433" y2="382.235" stroke-width="10" stroke="rgb(0,0,0)" stroke-linejoin="miter" stroke-linecap="round" stroke-miterlimit="3"/><line x1="1639.433" y1="382.235" x2="1639.433" y2="303.899" stroke-width="10" stroke="rgb(0,0,0)" stroke-linejoin="miter" stroke-linecap="round" stroke-miterlimit="3"/><path d=" M 1628.783 295.893 C 1630.261 292.848 1632.246 290.041 1634.683 287.605 C 1640.433 281.855 1648.243 278.615 1656.373 278.615 C 1664.503 278.615 1672.313 281.855 1678.063 287.605 C 1683.813 293.355 1687.053 301.165 1687.053 309.295 C 1687.053 310.167 1687.016 311.035 1686.921 311.893 L 1676.925 311.439 C 1677.015 310.732 1677.053 310.015 1677.053 309.295 C 1677.053 303.815 1674.873 298.555 1670.993 294.675 C 1667.113 290.795 1661.853 288.615 1656.373 288.615 C 1650.893 288.615 1645.633 290.795 1641.753 294.675 C 1639.876 296.552 1638.397 298.752 1637.384 301.149 L 1628.783 295.893 L 1628.783 295.893 Z " fill="rgb(0,0,0)"/></g><g><mask id="_mask_EKQiCR0KS2CQkW2tt0igbH4pKoKSBhnp"><circle cx="94" cy="249.78279000198307" r="94" fill="white" stroke="none"/></mask><circle cx="94" cy="249.78279000198307" r="94" fill="none" mask="url(#_mask_EKQiCR0KS2CQkW2tt0igbH4pKoKSBhnp)" stroke-width="40" stroke="rgb(0,0,0)" stroke-linejoin="miter" stroke-linecap="square" stroke-miterlimit="3"/><mask id="_mask_QdRLKAztANXoYSKc9IiptS3asP45HgH2"><path d=" M 167.779 255.603 C 169.504 255.72 171.246 255.771 173 255.771 C 222.12 255.771 262 215.891 262 166.771 C 262 117.65 222.12 77.771 173 77.771 C 123.88 77.771 84 117.65 84 166.771 C 84 170.018 84.174 173.225 84.531 176.377 C 87.633 175.987 90.793 175.783 94 175.783 C 134.842 175.783 168 208.941 168 249.783 C 168 251.741 167.924 253.682 167.779 255.603 Z " fill-rule="evenodd" fill="white" stroke="none"/></mask><path d=" M 167.779 255.603 C 169.504 255.72 171.246 255.771 173 255.771 C 222.12 255.771 262 215.891 262 166.771 C 262 117.65 222.12 77.771 173 77.771 C 123.88 77.771 84 117.65 84 166.771 C 84 170.018 84.174 173.225 84.531 176.377 C 87.633 175.987 90.793 175.783 94 175.783 C 134.842 175.783 168 208.941 168 249.783 C 168 251.741 167.924 253.682 167.779 255.603 Z " fill-rule="evenodd" fill="none" mask="url(#_mask_QdRLKAztANXoYSKc9IiptS3asP45HgH2)" stroke-width="40" stroke="rgb(0,0,0)" stroke-linejoin="miter" stroke-linecap="square" stroke-miterlimit="3"/><mask id="_mask_mhBScNtXKOmtTuzC5REjTeiij7kCvBDC"><circle cx="71.99999999999994" cy="371.2827900019831" r="25.5" fill="white" stroke="none"/></mask><circle cx="71.99999999999994" cy="371.2827900019831" r="25.5" fill="none" mask="url(#_mask_mhBScNtXKOmtTuzC5REjTeiij7kCvBDC)" stroke-width="20" stroke="rgb(0,0,0)" stroke-linejoin="miter" stroke-linecap="square" stroke-miterlimit="3"/><mask id="_mask_t2PMocvPiQL4LQgthHnV2COCQyTDDUPo"><circle cx="92.49999999999989" cy="239.7827900019829" r="60" fill="white" stroke="none"/></mask><circle cx="92.49999999999989" cy="239.7827900019829" r="60" fill="none" mask="url(#_mask_t2PMocvPiQL4LQgthHnV2COCQyTDDUPo)" stroke-width="20" stroke="rgb(0,0,0)" stroke-linejoin="miter" stroke-linecap="square" stroke-miterlimit="3"/><mask id="_mask_yaRSTklAxUSMbLw0GxlgcbHeVKgvStPp"><circle cx="92.49999999999989" cy="239.78279000198285" r="46.00000000000006" fill="white" stroke="none"/></mask><circle cx="92.49999999999989" cy="239.78279000198285" r="46.00000000000006" fill="none" mask="url(#_mask_yaRSTklAxUSMbLw0GxlgcbHeVKgvStPp)" stroke-width="20" stroke="rgb(0,0,0)" stroke-linejoin="miter" stroke-linecap="square" stroke-miterlimit="3"/><circle cx="60.99999999999994" cy="271.282790001983" r="31.500000000000004" fill="rgb(0,0,0)"/><circle cx="124.99999999999994" cy="273.782790001983" r="24.000000000000007" fill="rgb(0,0,0)"/><circle cx="133" cy="213.49707571626868" r="18.285714285714327" fill="rgb(0,0,0)"/><mask id="_mask_c2CNVFOCoDfa0JRKW7FGMoUeKdSd0gCx"><circle cx="123.49999999999994" cy="106.78279000198302" r="26.999999999999993" fill="white" stroke="none"/></mask><circle cx="123.49999999999994" cy="106.78279000198302" r="26.999999999999993" fill="none" mask="url(#_mask_c2CNVFOCoDfa0JRKW7FGMoUeKdSd0gCx)" stroke-width="20" stroke="rgb(0,0,0)" stroke-linejoin="miter" stroke-linecap="square" stroke-miterlimit="3"/><path d=" M 123.229 171.196 C 123.062 169.734 122.998 168.26 123 166.783 C 122.99 160.103 124.33 153.483 126.93 147.333 C 129.45 141.393 133.09 135.993 137.65 131.433 C 142.21 126.873 147.61 123.233 153.55 120.713 C 159.7 118.113 166.32 116.773 173 116.783 C 179.68 116.773 186.3 118.113 192.45 120.713 C 198.39 123.233 203.79 126.873 208.35 131.433 C 212.91 135.993 216.55 141.393 219.07 147.333 C 221.67 153.483 223.01 160.103 223 166.783 C 223.01 173.463 221.67 180.083 219.07 186.233 C 216.55 192.173 212.91 197.573 208.35 202.133 C 203.79 206.693 198.39 210.333 192.45 212.853 C 186.3 215.453 179.68 216.793 173 216.783 C 172.459 216.784 171.919 216.776 171.379 216.758 L 174.529 226.759 C 182.027 226.582 189.43 224.984 196.35 222.063 C 203.47 219.043 209.95 214.673 215.42 209.203 C 220.89 203.733 225.26 197.253 228.28 190.133 C 231.4 182.743 233.01 174.803 233 166.783 C 233.01 158.763 231.4 150.823 228.28 143.433 C 225.26 136.313 220.89 129.833 215.42 124.363 C 209.95 118.893 203.47 114.523 196.35 111.503 C 188.96 108.383 181.02 106.773 173 106.783 C 164.98 106.773 157.04 108.383 149.65 111.503 C 142.53 114.523 136.05 118.893 130.58 124.363 C 125.11 129.833 120.74 136.313 117.72 143.433 C 114.6 150.823 112.99 158.763 113 166.783 C 113 167.056 113.001 167.329 113.013 167.602 L 123.229 171.196 L 123.229 171.196 Z " fill="rgb(0,0,0)"/><mask id="_mask_OpxJeN9g5TwBg06m6PtI064Zovt5lVtt"><circle cx="434.9999999999999" cy="326.032790001983" r="19.749999999999943" fill="white" stroke="none"/></mask><circle cx="434.9999999999999" cy="326.032790001983" r="19.749999999999943" fill="none" mask="url(#_mask_OpxJeN9g5TwBg06m6PtI064Zovt5lVtt)" stroke-width="20" stroke="rgb(0,0,0)" stroke-linejoin="miter" stroke-linecap="square" stroke-miterlimit="3"/><mask id="_mask_zgUWe5dy4SFyFYKQeGx2XjFkVmgWDmCt"><circle cx="223.99999999999994" cy="294.7827900019829" r="26" fill="white" stroke="none"/></mask><circle cx="223.99999999999994" cy="294.7827900019829" r="26" fill="none" mask="url(#_mask_zgUWe5dy4SFyFYKQeGx2XjFkVmgWDmCt)" stroke-width="20" stroke="rgb(0,0,0)" stroke-linejoin="miter" stroke-linecap="square" stroke-miterlimit="3"/><linearGradient id="_lgradient_1" x1="0.3468342325082369" y1="0.17030891232473042" x2="0.9158935202091811" y2="0.7638600004502313" gradientTransform="matrix(139.704,0,0,148.26,265.796,163.783)" gradientUnits="userSpaceOnUse"><stop offset="0%" stop-opacity="0" style="stop-color:rgb(0,0,0)"/><stop offset="100%" stop-opacity="1" style="stop-color:rgb(0,0,0)"/></linearGradient><path d=" M 265.796 196.028 C 272.72 189.099 280.911 183.578 289.93 179.753 C 299.29 175.803 309.34 173.773 319.5 173.783 C 329.66 173.773 339.71 175.803 349.07 179.753 C 358.1 183.583 366.3 189.113 373.23 196.053 C 380.17 202.983 385.7 211.183 389.53 220.213 C 393.48 229.573 395.51 239.623 395.5 249.783 C 395.51 259.943 393.48 269.993 389.53 279.353 C 386.096 287.448 381.297 294.876 375.349 301.328 L 378.818 312.043 C 379.314 311.558 379.81 311.074 380.3 310.583 C 388.15 302.743 394.41 293.463 398.74 283.243 C 403.21 272.663 405.51 261.273 405.5 249.783 C 405.51 238.293 403.21 226.903 398.74 216.323 C 394.41 206.103 388.15 196.823 380.3 188.983 C 372.46 181.133 363.18 174.873 352.96 170.543 C 342.38 166.073 330.99 163.773 319.5 163.783 C 308.01 163.773 296.62 166.073 286.04 170.543 C 279.167 173.455 272.718 177.24 266.849 181.796 L 265.796 196.028 L 265.796 196.028 Z " fill="url(#_lgradient_1)"/><line x1="240" y1="206.783" x2="319.5" y2="206.783" stroke-width="10" stroke="rgb(0,0,0)" stroke-linejoin="miter" stroke-linecap="round" stroke-miterlimit="3"/><line x1="319.5" y1="206.783" x2="319.5" y2="268.783" stroke-width="10" stroke="rgb(0,0,0)" stroke-linejoin="miter" stroke-linecap="round" stroke-miterlimit="3"/><mask id="_mask_sOmDxmEP3sVr2fpb8DnaDoAu58NohQFv"><path d=" M 241.947 164.25 C 262.439 145.627 289.655 134.283 319.5 134.283 C 383.246 134.283 435 186.037 435 249.783 C 435 301.602 400.8 345.497 353.75 360.087 C 363.695 351.556 370 338.9 370 324.783 C 370 299.119 349.164 278.283 323.5 278.283 C 297.836 278.283 277 299.119 277 324.783 C 277 340.678 284.993 354.722 297.18 363.103 C 244.096 352.71 204 305.892 204 249.783 C 204 242.064 204.759 234.522 206.226 227.233 C 227.547 215.496 242 192.808 242 166.771 C 242 165.926 241.985 165.086 241.947 164.25 Z " fill-rule="evenodd" fill="white" stroke="none"/></mask><path d=" M 241.947 164.25 C 262.439 145.627 289.655 134.283 319.5 134.283 C 383.246 134.283 435 186.037 435 249.783 C 435 301.602 400.8 345.497 353.75 360.087 C 363.695 351.556 370 338.9 370 324.783 C 370 299.119 349.164 278.283 323.5 278.283 C 297.836 278.283 277 299.119 277 324.783 C 277 340.678 284.993 354.722 297.18 363.103 C 244.096 352.71 204 305.892 204 249.783 C 204 242.064 204.759 234.522 206.226 227.233 C 227.547 215.496 242 192.808 242 166.771 C 242 165.926 241.985 165.086 241.947 164.25 Z " fill-rule="evenodd" fill="none" mask="url(#_mask_sOmDxmEP3sVr2fpb8DnaDoAu58NohQFv)" stroke-width="40" stroke="rgb(0,0,0)" stroke-linejoin="miter" stroke-linecap="square" stroke-miterlimit="3"/></g></g></svg>
