<?xml version="1.0" standalone="no"?><!-- Generator: Gravit.io --><svg xmlns="http://www.w3.org/2000/svg" xmlns:xlink="http://www.w3.org/1999/xlink" style="isolation:isolate" viewBox="0 0 279.518 246.72" width="279.518" height="246.72"><defs><clipPath id="_clipPath_wCjeXlffiWuBeac4FCnFOByQkMyNZ7aB"><rect width="279.518" height="246.72"/></clipPath></defs><g clip-path="url(#_clipPath_wCjeXlffiWuBeac4FCnFOByQkMyNZ7aB)"><mask id="_mask_vEm8hwGxs62809PA20eV2HFBq2dxIgiM"><circle cx="171.75400610351562" cy="229.1235549804391" r="17.596000000000004" fill="white" stroke="none"/></mask><circle cx="171.75400610351562" cy="229.1235549804391" r="17.596000000000004" fill="none" mask="url(#_mask_vEm8hwGxs62809PA20eV2HFBq2dxIgiM)" stroke-width="10" stroke="rgb(0,0,0)" stroke-linejoin="miter" stroke-linecap="square" stroke-miterlimit="3"/><mask id="_mask_pHHxnyK57ilf4FKwVV6T5LnYmDQYsrpn"><circle cx="228.52600610351567" cy="207.54355498043907" r="39.17600000000003" fill="white" stroke="none"/></mask><circle cx="228.52600610351567" cy="207.54355498043907" r="39.17600000000003" fill="none" mask="url(#_mask_pHHxnyK57ilf4FKwVV6T5LnYmDQYsrpn)" stroke-width="10" stroke="rgb(0,0,0)" stroke-linejoin="miter" stroke-linecap="square" stroke-miterlimit="3"/><mask id="_mask_XgCmyGXgFPNxHL8I7ikmdIAHcYjmo9NL"><circle cx="228.52600610351567" cy="207.54355498043907" r="14.176000000000158" fill="white" stroke="none"/></mask><circle cx="228.52600610351567" cy="207.54355498043907" r="14.176000000000158" fill="none" mask="url(#_mask_XgCmyGXgFPNxHL8I7ikmdIAHcYjmo9NL)" stroke-width="10" stroke="rgb(0,0,0)" stroke-linejoin="miter" stroke-linecap="square" stroke-miterlimit="3"/><mask id="_mask_Yme5PMbjBvNnVlWDFeBdPGafUetJCQgs"><circle cx="230.38200610351578" cy="127.87155498043916" r="37.847999999999956" fill="white" stroke="none"/></mask><circle cx="230.38200610351578" cy="127.87155498043916" r="37.847999999999956" fill="none" mask="url(#_mask_Yme5PMbjBvNnVlWDFeBdPGafUetJCQgs)" stroke-width="10" stroke="rgb(0,0,0)" stroke-linejoin="miter" stroke-linecap="square" stroke-miterlimit="3"/><mask id="_mask_GApkJeiAbpicxUR6aYvulWXTLBtMXEAY"><circle cx="230.38200610351555" cy="127.87155498043916" r="10.263864406779817" fill="white" stroke="none"/></mask><circle cx="230.38200610351555" cy="127.87155498043916" r="10.263864406779817" fill="none" mask="url(#_mask_GApkJeiAbpicxUR6aYvulWXTLBtMXEAY)" stroke-width="10" stroke="rgb(0,0,0)" stroke-linejoin="miter" stroke-linecap="square" stroke-miterlimit="3"/><mask id="_mask_HoBwDLhxqZXphMobauQMEfrvlXhtBZpF"><path d=" M 77.839 35.233 C 97.423 15.146 124.128 2.035 153.857 0 C 135.819 7.276 123.078 24.954 123.078 45.584 C 123.078 72.702 145.095 94.72 172.214 94.72 C 199.333 94.72 221.35 72.702 221.35 45.584 C 221.35 29.896 213.983 15.916 202.525 6.914 C 247.444 23.436 279.518 66.626 279.518 117.248 C 279.518 182.113 226.855 234.776 161.99 234.776 C 102.68 234.776 53.572 190.748 45.593 133.621 C 47.187 133.774 48.804 133.848 50.438 133.848 C 79.756 133.848 103.558 110.045 103.558 80.728 C 103.558 61.434 93.25 44.529 77.839 35.233 Z " fill-rule="evenodd" fill="white" stroke="none"/></mask><path d=" M 77.839 35.233 C 97.423 15.146 124.128 2.035 153.857 0 C 135.819 7.276 123.078 24.954 123.078 45.584 C 123.078 72.702 145.095 94.72 172.214 94.72 C 199.333 94.72 221.35 72.702 221.35 45.584 C 221.35 29.896 213.983 15.916 202.525 6.914 C 247.444 23.436 279.518 66.626 279.518 117.248 C 279.518 182.113 226.855 234.776 161.99 234.776 C 102.68 234.776 53.572 190.748 45.593 133.621 C 47.187 133.774 48.804 133.848 50.438 133.848 C 79.756 133.848 103.558 110.045 103.558 80.728 C 103.558 61.434 93.25 44.529 77.839 35.233 Z " fill-rule="evenodd" fill="none" mask="url(#_mask_HoBwDLhxqZXphMobauQMEfrvlXhtBZpF)" stroke-width="20" stroke="rgb(0,0,0)" stroke-linejoin="miter" stroke-linecap="square" stroke-miterlimit="3"/><mask id="_mask_LlDdFOIlZjfrQpew2fDuFkfneZf2SDHd"><circle cx="125.1780061035156" cy="166.71555498043898" r="42.827999999999946" fill="white" stroke="none"/></mask><circle cx="125.1780061035156" cy="166.71555498043898" r="42.827999999999946" fill="none" mask="url(#_mask_LlDdFOIlZjfrQpew2fDuFkfneZf2SDHd)" stroke-width="10" stroke="rgb(0,0,0)" stroke-linejoin="miter" stroke-linecap="square" stroke-miterlimit="3"/><mask id="_mask_RDX4mBp89GkNAPV3U6jVqdApcApR6TVG"><circle cx="50.43800610351559" cy="80.72755498043892" r="9.00799999999981" fill="white" stroke="none"/></mask><circle cx="50.43800610351559" cy="80.72755498043892" r="9.00799999999981" fill="none" mask="url(#_mask_RDX4mBp89GkNAPV3U6jVqdApcApR6TVG)" stroke-width="10" stroke="rgb(0,0,0)" stroke-linejoin="miter" stroke-linecap="square" stroke-miterlimit="3"/><mask id="_mask_ZNDzz6o7LKy94SWDsIYMmFFE3kIPztEZ"><circle cx="50.43800610351565" cy="80.72755498043892" r="19.2560000000002" fill="white" stroke="none"/></mask><circle cx="50.43800610351565" cy="80.72755498043892" r="19.2560000000002" fill="none" mask="url(#_mask_ZNDzz6o7LKy94SWDsIYMmFFE3kIPztEZ)" stroke-width="16" stroke="rgb(0,0,0)" stroke-linejoin="miter" stroke-linecap="square" stroke-miterlimit="3"/><circle cx="228.52600610351567" cy="149.75541938721904" r="10.616000000000042" fill="rgb(0,0,0)"/><circle cx="248.7418705102956" cy="139.13941938721894" r="9.599864406779886" fill="rgb(0,0,0)"/><circle cx="251.28093524538826" cy="119.94062583856658" r="7.930929141872596" fill="rgb(0,0,0)"/><circle cx="50.43800610351559" cy="117.24755498043913" r="13.047301612836954" fill="rgb(0,0,0)"/><circle cx="75.69941677342678" cy="106.75099218649632" r="9.650589330088849" fill="rgb(0,0,0)"/><circle cx="85.35000610351562" cy="87.92566403751329" r="5.793890942925813" fill="rgb(0,0,0)"/><path d=" M 204.066 180.861 C 199.989 177.231 195.339 174.287 190.3 172.15 C 184.15 169.55 177.53 168.21 170.85 168.22 C 169.291 168.217 167.736 168.288 166.194 168.472 L 166.194 168.472 L 165.574 163.514 C 167.321 163.301 169.084 163.217 170.85 163.22 C 178.2 163.21 185.48 164.69 192.25 167.55 C 197.74 169.87 202.813 173.074 207.261 177.026 L 204.066 180.861 L 204.066 180.861 Z " fill="rgb(0,0,0)"/><path d=" M 164.972 160.364 C 167.891 159.807 170.865 159.54 173.85 159.54 C 180.53 159.54 187.15 160.88 193.3 163.47 C 199.24 165.99 204.64 169.63 209.2 174.2 C 213.76 178.75 217.4 184.15 219.92 190.09 C 221.032 192.723 221.913 195.439 222.536 198.211 L 227.224 196.202 C 226.527 193.457 225.627 190.76 224.52 188.14 C 221.76 181.61 217.75 175.67 212.73 170.66 C 207.72 165.64 201.78 161.64 195.25 158.87 C 188.48 156.01 181.2 154.54 173.85 154.54 C 170.41 154.54 166.985 154.862 163.628 155.538 L 164.972 160.364 L 164.972 160.364 Z " fill="rgb(0,0,0)"/><path d=" M 57.01 81.53 C 60.255 80.915 63.559 80.62 66.88 80.62 C 74.34 80.62 81.72 82.11 88.59 85.01 C 95.22 87.82 101.24 91.88 106.33 96.97 C 111.42 102.06 115.48 108.09 118.29 114.71 C 119.921 118.574 121.106 122.602 121.803 126.72 L 126.901 126.72 C 126.134 121.935 124.793 117.247 122.9 112.76 C 119.84 105.54 115.41 98.98 109.86 93.44 C 104.32 87.89 97.76 83.47 90.54 80.41 C 83.05 77.24 75.01 75.62 66.88 75.62 C 63.093 75.62 59.326 75.971 55.633 76.711 L 57.01 81.53 L 57.01 81.53 Z " fill="rgb(0,0,0)"/><path d=" M 35.35 81.789 C 27.968 83.065 21.108 86.599 15.74 91.96 C 8.86 98.84 5 108.17 5 117.9 C 5 127.62 8.86 136.96 15.74 143.83 C 22.62 150.71 31.95 154.58 41.68 154.58 C 46.176 154.58 50.589 153.751 54.709 152.168 L 56.541 156.816 C 51.842 158.63 46.807 159.58 41.68 159.58 C 30.63 159.58 20.02 155.18 12.2 147.37 C 4.39 139.56 0 128.95 0 117.9 C 0 106.85 4.39 96.24 12.2 88.43 C 18.512 82.118 26.641 78.041 35.35 76.694 L 35.35 81.789 L 35.35 81.789 Z " fill="rgb(0,0,0)"/><path d=" M 180.019 228.953 C 179.897 227.047 179.849 225.134 179.85 223.22 C 179.84 208.52 182.78 193.96 188.5 180.42 C 194.04 167.36 202.05 155.48 212.08 145.45 C 216.325 141.204 220.902 137.321 225.761 133.835 L 222.982 129.667 C 217.855 133.34 213.025 137.436 208.55 141.92 C 198.05 152.4 189.68 164.82 183.89 178.47 C 177.91 192.63 174.84 207.85 174.85 223.22 C 174.849 225.301 174.904 227.379 175.038 229.451 L 180.019 228.953 L 180.019 228.953 Z " fill="rgb(0,0,0)"/></g></svg>
