<?xml version="1.0" standalone="no"?><!-- Generator: Gravit.io --><svg xmlns="http://www.w3.org/2000/svg" xmlns:xlink="http://www.w3.org/1999/xlink" style="isolation:isolate" viewBox="0 0 530 530" width="530" height="530"><defs><clipPath id="_clipPath_Z1DCvhKErboaaWi3Qlx9wYO04HGO6nmk"><rect width="530" height="530"/></clipPath></defs><g clip-path="url(#_clipPath_Z1DCvhKErboaaWi3Qlx9wYO04HGO6nmk)"><mask id="_mask_VhFGodfprqS7e6mefibYgd8D7dyCW9Qx"><circle cx="238.02941176470608" cy="426.47058823529414" r="55.470588235294144" fill="white" stroke="none"/></mask><circle cx="238.02941176470608" cy="426.47058823529414" r="55.470588235294144" fill="none" mask="url(#_mask_VhFGodfprqS7e6mefibYgd8D7dyCW9Qx)" stroke-width="20" stroke="rgb(0,0,0)" stroke-linejoin="miter" stroke-linecap="square" stroke-miterlimit="3"/><mask id="_mask_kIx0FCUbfoMCP7ez2tdhobLBXLgRpXCA"><circle cx="280.2647058823529" cy="452.2352941176466" r="16.235294117647072" fill="white" stroke="none"/></mask><circle cx="280.2647058823529" cy="452.2352941176466" r="16.235294117647072" fill="none" mask="url(#_mask_kIx0FCUbfoMCP7ez2tdhobLBXLgRpXCA)" stroke-width="10" stroke="rgb(0,0,0)" stroke-linejoin="miter" stroke-linecap="square" stroke-miterlimit="3"/><mask id="_mask_cSuVPqkzOGIuqcP2KgEaxKvgtHqiuqWF"><circle cx="231.0000000000009" cy="416.7352941176473" r="30.499999999999943" fill="white" stroke="none"/></mask><circle cx="231.0000000000009" cy="416.7352941176473" r="30.499999999999943" fill="none" mask="url(#_mask_cSuVPqkzOGIuqcP2KgEaxKvgtHqiuqWF)" stroke-width="10" stroke="rgb(0,0,0)" stroke-linejoin="miter" stroke-linecap="square" stroke-miterlimit="3"/><mask id="_mask_TgtcUPEUIHM5ZopDuRmoitdcMlOc9pgk"><circle cx="357.8737342658328" cy="386.7647058823529" r="15.764705882352814" fill="white" stroke="none"/></mask><circle cx="357.8737342658328" cy="386.7647058823529" r="15.764705882352814" fill="none" mask="url(#_mask_TgtcUPEUIHM5ZopDuRmoitdcMlOc9pgk)" stroke-width="10" stroke="rgb(0,0,0)" stroke-linejoin="miter" stroke-linecap="square" stroke-miterlimit="3"/><mask id="_mask_W8EKuiz4HD7zourYMlNjPg4nHMkcONIu"><circle cx="293.9861165639161" cy="354.36849108903516" r="33.48611656391654" fill="white" stroke="none"/></mask><circle cx="293.9861165639161" cy="354.36849108903516" r="33.48611656391654" fill="none" mask="url(#_mask_W8EKuiz4HD7zourYMlNjPg4nHMkcONIu)" stroke-width="10" stroke="rgb(0,0,0)" stroke-linejoin="miter" stroke-linecap="square" stroke-miterlimit="3"/><mask id="_mask_pD16NFLnTJh5ueyA4cAhHNVT21YBoohY"><circle cx="444.4344681778498" cy="294.93446817784957" r="16.934468177849908" fill="white" stroke="none"/></mask><circle cx="444.4344681778498" cy="294.93446817784957" r="16.934468177849908" fill="none" mask="url(#_mask_pD16NFLnTJh5ueyA4cAhHNVT21YBoohY)" stroke-width="10" stroke="rgb(0,0,0)" stroke-linejoin="miter" stroke-linecap="square" stroke-miterlimit="3"/><mask id="_mask_rzwM3b7uulHnnTEwcuyXDm2N0Ngf1PWk"><circle cx="323.1453923470465" cy="213.35460765295352" r="41.64539234704648" fill="white" stroke="none"/></mask><circle cx="323.1453923470465" cy="213.35460765295352" r="41.64539234704648" fill="none" mask="url(#_mask_rzwM3b7uulHnnTEwcuyXDm2N0Ngf1PWk)" stroke-width="10" stroke="rgb(0,0,0)" stroke-linejoin="miter" stroke-linecap="square" stroke-miterlimit="3"/><mask id="_mask_hxziSPdtmsXMjbiMUHA8c7xCfq3y7GdJ"><circle cx="323.14539234704466" cy="213.35460765295238" r="15.254420730528466" fill="white" stroke="none"/></mask><circle cx="323.14539234704466" cy="213.35460765295238" r="15.254420730528466" fill="none" mask="url(#_mask_hxziSPdtmsXMjbiMUHA8c7xCfq3y7GdJ)" stroke-width="10" stroke="rgb(0,0,0)" stroke-linejoin="miter" stroke-linecap="square" stroke-miterlimit="3"/><mask id="_mask_Ag3qmxtCEYnBf7pDQFtPHcyrqW0NgoRx"><path d=" M 247.952 332.494 C 268.896 368.164 307.662 392.126 351.98 392.126 C 372.256 392.126 391.37 387.11 408.14 378.24 C 397.224 366.911 390.508 351.508 390.508 334.549 C 390.508 299.78 418.735 271.553 453.504 271.553 C 460.135 271.553 466.529 272.579 472.529 274.494 C 472.542 273.514 472.554 272.535 472.554 271.553 C 472.554 259.506 470.783 247.87 467.472 236.898 C 459.465 240.423 450.615 242.375 441.312 242.375 C 405.334 242.375 376.125 213.166 376.125 177.188 C 376.125 169.145 377.584 161.441 380.263 154.331 C 371.193 152.137 361.721 150.979 351.98 150.979 C 309.492 150.979 272.107 173.003 250.627 206.247 C 269.976 220.144 282.588 242.839 282.588 268.456 C 282.588 295.235 268.807 318.82 247.952 332.494 Z " fill-rule="evenodd" fill="white" stroke="none"/></mask><path d=" M 247.952 332.494 C 268.896 368.164 307.662 392.126 351.98 392.126 C 372.256 392.126 391.37 387.11 408.14 378.24 C 397.224 366.911 390.508 351.508 390.508 334.549 C 390.508 299.78 418.735 271.553 453.504 271.553 C 460.135 271.553 466.529 272.579 472.529 274.494 C 472.542 273.514 472.554 272.535 472.554 271.553 C 472.554 259.506 470.783 247.87 467.472 236.898 C 459.465 240.423 450.615 242.375 441.312 242.375 C 405.334 242.375 376.125 213.166 376.125 177.188 C 376.125 169.145 377.584 161.441 380.263 154.331 C 371.193 152.137 361.721 150.979 351.98 150.979 C 309.492 150.979 272.107 173.003 250.627 206.247 C 269.976 220.144 282.588 242.839 282.588 268.456 C 282.588 295.235 268.807 318.82 247.952 332.494 Z " fill-rule="evenodd" fill="none" mask="url(#_mask_Ag3qmxtCEYnBf7pDQFtPHcyrqW0NgoRx)" stroke-width="20" stroke="rgb(0,0,0)" stroke-linejoin="miter" stroke-linecap="square" stroke-miterlimit="3"/><mask id="_mask_MPDm9fXFB8BV4e61MzW7Nhu4pdLGYHIy"><circle cx="254.00000000000045" cy="132.50000000000023" r="10.029411764705685" fill="white" stroke="none"/></mask><circle cx="254.00000000000045" cy="132.50000000000023" r="10.029411764705685" fill="none" mask="url(#_mask_MPDm9fXFB8BV4e61MzW7Nhu4pdLGYHIy)" stroke-width="10" stroke="rgb(0,0,0)" stroke-linejoin="miter" stroke-linecap="square" stroke-miterlimit="3"/><mask id="_mask_wnYCnGrWEOKbUmKKUJUr5RFMAXy44Gfa"><path d=" M 131.887 144.127 C 134.416 168.618 148.657 189.658 168.913 201.531 C 179.908 195.4 192.572 191.912 206.044 191.912 C 219.934 191.912 232.965 195.62 244.203 202.094 C 264.993 190.317 279.659 168.967 282.207 144.055 C 277.667 155.171 266.741 163 254 163 C 237.167 163 223.5 149.333 223.5 132.5 C 223.5 115.667 237.167 102 254 102 C 264.945 102 274.552 107.778 279.933 116.448 C 271.206 84.382 241.859 60.779 207.044 60.779 C 195.734 60.779 185.002 63.27 175.368 67.737 C 189.682 75.001 199.5 89.863 199.5 107 C 199.5 131.284 179.784 151 155.5 151 C 146.814 151 138.712 148.478 131.887 144.127 Z " fill-rule="evenodd" fill="white" stroke="none"/></mask><path d=" M 131.887 144.127 C 134.416 168.618 148.657 189.658 168.913 201.531 C 179.908 195.4 192.572 191.912 206.044 191.912 C 219.934 191.912 232.965 195.62 244.203 202.094 C 264.993 190.317 279.659 168.967 282.207 144.055 C 277.667 155.171 266.741 163 254 163 C 237.167 163 223.5 149.333 223.5 132.5 C 223.5 115.667 237.167 102 254 102 C 264.945 102 274.552 107.778 279.933 116.448 C 271.206 84.382 241.859 60.779 207.044 60.779 C 195.734 60.779 185.002 63.27 175.368 67.737 C 189.682 75.001 199.5 89.863 199.5 107 C 199.5 131.284 179.784 151 155.5 151 C 146.814 151 138.712 148.478 131.887 144.127 Z " fill-rule="evenodd" fill="none" mask="url(#_mask_wnYCnGrWEOKbUmKKUJUr5RFMAXy44Gfa)" stroke-width="20" stroke="rgb(0,0,0)" stroke-linejoin="miter" stroke-linecap="square" stroke-miterlimit="3"/><mask id="_mask_pufzWUODwAlt357gPTIUgB7CT7MCCAOu"><circle cx="155.50000000000023" cy="107.00000000000068" r="13.999999999999346" fill="white" stroke="none"/></mask><circle cx="155.50000000000023" cy="107.00000000000068" r="13.999999999999346" fill="none" mask="url(#_mask_pufzWUODwAlt357gPTIUgB7CT7MCCAOu)" stroke-width="10" stroke="rgb(0,0,0)" stroke-linejoin="miter" stroke-linecap="square" stroke-miterlimit="3"/><mask id="_mask_tsdgqlUZXAqZDZXhPmvDjUGGVsNExAXP"><circle cx="213.24733109666226" cy="292.51356715360794" r="29.224329352403117" fill="white" stroke="none"/></mask><circle cx="213.24733109666226" cy="292.51356715360794" r="29.224329352403117" fill="none" mask="url(#_mask_tsdgqlUZXAqZDZXhPmvDjUGGVsNExAXP)" stroke-width="10" stroke="rgb(0,0,0)" stroke-linejoin="miter" stroke-linecap="square" stroke-miterlimit="3"/><mask id="_mask_048djHZ72IMeLD0ueatGJNGteLcvOtff"><circle cx="235.14727522653516" cy="278.6419625746705" r="15.352724773464985" fill="white" stroke="none"/></mask><circle cx="235.14727522653516" cy="278.6419625746705" r="15.352724773464985" fill="none" mask="url(#_mask_048djHZ72IMeLD0ueatGJNGteLcvOtff)" stroke-width="10" stroke="rgb(0,0,0)" stroke-linejoin="miter" stroke-linecap="square" stroke-miterlimit="3"/><mask id="_mask_yIYI4bxYFLjhIdDJVdPxJIx9Kr7EIAWp"><path d=" M 163.072 217.51 C 174.58 207.884 189.4 202.094 205.562 202.094 C 242.188 202.094 271.923 231.83 271.923 268.456 C 271.923 305.082 242.188 334.818 205.562 334.818 C 185.473 334.818 167.457 325.873 155.282 311.753 C 167.843 297.989 175.5 279.679 175.5 259.594 C 175.5 244.084 170.934 229.631 163.072 217.51 Z " fill-rule="evenodd" fill="white" stroke="none"/></mask><path d=" M 163.072 217.51 C 174.58 207.884 189.4 202.094 205.562 202.094 C 242.188 202.094 271.923 231.83 271.923 268.456 C 271.923 305.082 242.188 334.818 205.562 334.818 C 185.473 334.818 167.457 325.873 155.282 311.753 C 167.843 297.989 175.5 279.679 175.5 259.594 C 175.5 244.084 170.934 229.631 163.072 217.51 Z " fill-rule="evenodd" fill="none" mask="url(#_mask_yIYI4bxYFLjhIdDJVdPxJIx9Kr7EIAWp)" stroke-width="20" stroke="rgb(0,0,0)" stroke-linejoin="miter" stroke-linecap="square" stroke-miterlimit="3"/><mask id="_mask_T7AiW8bB9D0UbWILRep7n6XczgXM0kWh"><circle cx="163" cy="271.11804879452393" r="11.5" fill="white" stroke="none"/></mask><circle cx="163" cy="271.11804879452393" r="11.5" fill="none" mask="url(#_mask_T7AiW8bB9D0UbWILRep7n6XczgXM0kWh)" stroke-width="10" stroke="rgb(0,0,0)" stroke-linejoin="miter" stroke-linecap="square" stroke-miterlimit="3"/><mask id="_mask_BGfIpnWpwVabcSvvnNxcoxUWxfjEh51O"><circle cx="103.5" cy="303" r="16" fill="white" stroke="none"/></mask><circle cx="103.5" cy="303" r="16" fill="none" mask="url(#_mask_BGfIpnWpwVabcSvvnNxcoxUWxfjEh51O)" stroke-width="10" stroke="rgb(0,0,0)" stroke-linejoin="miter" stroke-linecap="square" stroke-miterlimit="3"/><mask id="_mask_wypZGnY1GbdAfutevbslExgKOgYPBy8v"><path d=" M 54.766 235.695 C 50.832 242.776 48.594 250.926 48.594 259.594 C 48.594 286.862 70.732 309 98 309 C 125.268 309 147.406 286.862 147.406 259.594 C 147.406 250.926 145.168 242.776 141.234 235.695 C 132.988 251.134 116.712 261.645 98 261.645 C 79.288 261.645 63.012 251.134 54.766 235.695 Z " fill-rule="evenodd" fill="white" stroke="none"/></mask><path d=" M 54.766 235.695 C 50.832 242.776 48.594 250.926 48.594 259.594 C 48.594 286.862 70.732 309 98 309 C 125.268 309 147.406 286.862 147.406 259.594 C 147.406 250.926 145.168 242.776 141.234 235.695 C 132.988 251.134 116.712 261.645 98 261.645 C 79.288 261.645 63.012 251.134 54.766 235.695 Z " fill-rule="evenodd" fill="none" mask="url(#_mask_wypZGnY1GbdAfutevbslExgKOgYPBy8v)" stroke-width="20" stroke="rgb(0,0,0)" stroke-linejoin="miter" stroke-linecap="square" stroke-miterlimit="3"/><path d=" M 244.253 441.353 C 250.888 446.082 258.704 448.93 266.874 449.565 L 268.815 444.712 C 261.601 444.404 254.638 442.174 248.636 438.299 L 244.253 441.353 L 244.253 441.353 Z " fill="rgb(0,0,0)"/><circle cx="445.949906538787" cy="247.06795533331115" r="12.550093461212896" fill="rgb(0,0,0)"/><circle cx="414.8047450522399" cy="241.30474505223992" r="16.304745052239866" fill="rgb(0,0,0)"/><circle cx="384.80474505223924" cy="219.3905098955197" r="18.609490104480017" fill="rgb(0,0,0)"/><circle cx="295" cy="323.5" r="7.5" fill="rgb(0,0,0)"/><circle cx="314" cy="331" r="10.000000000000057" fill="rgb(0,0,0)"/><path d=" M 333.267 220.658 C 339.814 221.273 345.967 224.158 350.65 228.85 C 352.392 230.589 353.886 232.531 355.106 234.621 L 358.144 230.118 C 357 228.398 355.672 226.792 354.19 225.31 C 349.211 220.331 342.817 217.08 335.954 215.955 L 333.267 220.658 L 333.267 220.658 Z " fill="rgb(0,0,0)"/><path d=" M 260.198 97.281 C 263.239 101.424 265.797 105.911 267.81 110.66 C 271.24 118.78 273.01 127.51 273 136.32 C 273.01 145.14 271.24 153.87 267.81 161.99 C 267.084 163.703 266.286 165.382 265.381 167 L 259.7 167 C 261.024 164.767 262.193 162.44 263.21 160.04 C 266.38 152.53 268.01 144.47 268 136.32 C 268.01 128.18 266.38 120.11 263.21 112.61 C 260.945 107.269 257.935 102.287 254.243 97.837 L 260.198 97.281 L 260.198 97.281 Z " fill="rgb(0,0,0)"/><circle cx="198.1406257781532" cy="83.64062577815321" r="9.640625778153094" fill="rgb(0,0,0)"/><circle cx="200.5000000000009" cy="121" r="13.679320510908866" fill="rgb(0,0,0)"/><circle cx="166.8155434674395" cy="150.84656364465422" r="19.409923582369373" fill="rgb(0,0,0)"/><path d=" M 66.553 254.763 C 66.315 256.352 66.19 257.965 66.19 259.59 C 66.19 268.03 69.55 276.12 75.51 282.09 C 80.896 287.476 88.03 290.731 95.578 291.29 L 92.251 295.949 C 84.618 294.741 77.5 291.151 71.97 285.62 C 65.07 278.72 61.19 269.35 61.19 259.59 C 61.19 257.553 61.359 255.532 61.7 253.55 L 66.553 254.763 L 66.553 254.763 Z " fill="rgb(0,0,0)"/><path d=" M 115.198 263.289 C 115.182 263.859 115.17 264.429 115.17 265 C 115.17 275.69 119.42 285.96 126.98 293.52 C 134.54 301.08 144.81 305.33 155.5 305.33 C 159.66 305.33 163.756 304.687 167.644 303.427 L 164.007 309.489 C 161.228 310.056 158.378 310.33 155.5 310.33 C 143.48 310.33 131.94 305.55 123.44 297.06 C 114.95 288.56 110.17 277.02 110.17 265 C 110.17 264.801 110.171 264.602 110.18 264.404 L 115.198 263.289 L 115.198 263.289 Z " fill="rgb(0,0,0)"/><path d=" M 178.152 241.703 C 172.098 235.81 163.968 232.5 155.5 232.5 C 146.88 232.5 138.61 235.93 132.52 242.02 C 127.446 247.094 124.218 253.682 123.291 260.726 L 118.101 262.434 C 118.706 253.427 122.558 244.902 128.98 238.48 C 136.01 231.45 145.56 227.5 155.5 227.5 C 163.285 227.5 170.831 229.923 177.106 234.366 L 178.152 241.703 L 178.152 241.703 Z " fill="rgb(0,0,0)"/><circle cx="202.50000000000023" cy="316.3299560546875" r="6" fill="rgb(0,0,0)"/><circle cx="186.82067948909184" cy="297.9031982421873" r="7.426757812500341" fill="rgb(0,0,0)"/><circle cx="195.41825565073145" cy="271.62650442123504" r="9.192788600922484" fill="rgb(0,0,0)"/><mask id="_mask_OZQt4uNXb1l70TOodTSTUlJ7DC72RmZ5"><path d=" M 27.912 218.847 C 25.017 233.788 23.5 249.218 23.5 265 C 23.5 289.407 27.128 312.973 33.881 335.185 C 40.172 334.08 46.644 333.5 53.25 333.5 C 114.375 333.5 164 383.125 164 444.25 C 164 457.258 161.752 469.746 157.609 481.338 C 189.965 497.44 226.433 506.5 265 506.5 C 398.287 506.5 506.5 398.287 506.5 265 C 506.5 251.495 505.389 238.247 503.259 225.342 C 502.567 225.353 501.874 225.359 501.18 225.359 C 438.99 225.359 388.5 174.869 388.5 112.68 C 388.5 95.394 392.401 79.012 399.387 64.378 C 360.964 38.562 314.727 23.5 265 23.5 C 196.896 23.5 135.338 51.752 91.421 97.169 C 103.08 110.14 110.17 127.294 110.17 146.09 C 110.17 186.546 77.325 219.391 36.87 219.391 C 33.838 219.391 30.848 219.206 27.912 218.847 Z " fill-rule="evenodd" fill="white" stroke="none"/></mask><path d=" M 27.912 218.847 C 25.017 233.788 23.5 249.218 23.5 265 C 23.5 289.407 27.128 312.973 33.881 335.185 C 40.172 334.08 46.644 333.5 53.25 333.5 C 114.375 333.5 164 383.125 164 444.25 C 164 457.258 161.752 469.746 157.609 481.338 C 189.965 497.44 226.433 506.5 265 506.5 C 398.287 506.5 506.5 398.287 506.5 265 C 506.5 251.495 505.389 238.247 503.259 225.342 C 502.567 225.353 501.874 225.359 501.18 225.359 C 438.99 225.359 388.5 174.869 388.5 112.68 C 388.5 95.394 392.401 79.012 399.387 64.378 C 360.964 38.562 314.727 23.5 265 23.5 C 196.896 23.5 135.338 51.752 91.421 97.169 C 103.08 110.14 110.17 127.294 110.17 146.09 C 110.17 186.546 77.325 219.391 36.87 219.391 C 33.838 219.391 30.848 219.206 27.912 218.847 Z " fill-rule="evenodd" fill="none" mask="url(#_mask_OZQt4uNXb1l70TOodTSTUlJ7DC72RmZ5)" stroke-width="30" stroke="rgb(0,0,0)" stroke-linejoin="miter" stroke-linecap="square" stroke-miterlimit="3"/><mask id="_mask_8uCVBidqV8SuWWiTHaOQSDp2e7O46Vtj"><path d=" M 451.54 76.865 C 499.984 124.887 530 191.466 530 265 C 530 333.825 503.705 396.558 460.614 443.683 C 444.401 425.035 420.509 413.235 393.882 413.235 C 345.103 413.235 305.5 452.838 305.5 501.618 C 305.5 510.204 306.727 518.506 309.018 526.356 C 294.7 528.752 279.995 530 265 530 C 118.743 530 0 411.257 0 265 C 0 118.743 118.743 0 265 0 C 271.348 0 277.644 0.224 283.879 0.673 C 278.499 12.361 275.5 25.367 275.5 39.068 C 275.5 89.882 316.754 131.136 367.568 131.136 C 404.916 131.136 437.099 108.85 451.54 76.865 Z " fill-rule="evenodd" fill="white" stroke="none"/></mask><path d=" M 451.54 76.865 C 499.984 124.887 530 191.466 530 265 C 530 333.825 503.705 396.558 460.614 443.683 C 444.401 425.035 420.509 413.235 393.882 413.235 C 345.103 413.235 305.5 452.838 305.5 501.618 C 305.5 510.204 306.727 518.506 309.018 526.356 C 294.7 528.752 279.995 530 265 530 C 118.743 530 0 411.257 0 265 C 0 118.743 118.743 0 265 0 C 271.348 0 277.644 0.224 283.879 0.673 C 278.499 12.361 275.5 25.367 275.5 39.068 C 275.5 89.882 316.754 131.136 367.568 131.136 C 404.916 131.136 437.099 108.85 451.54 76.865 Z " fill-rule="evenodd" fill="none" mask="url(#_mask_8uCVBidqV8SuWWiTHaOQSDp2e7O46Vtj)" stroke-width="30" stroke="rgb(0,0,0)" stroke-linejoin="miter" stroke-linecap="square" stroke-miterlimit="3"/></g></svg>
