<?xml version="1.0" standalone="no"?><!-- Generator: Gravit.io --><svg xmlns="http://www.w3.org/2000/svg" xmlns:xlink="http://www.w3.org/1999/xlink" style="isolation:isolate" viewBox="0 0 1590 1590" width="1590" height="1590"><defs><clipPath id="_clipPath_3eAmrYa9JlRSKqV3xUB6wMJyh1DFaMsY"><rect width="1590" height="1590"/></clipPath></defs><g clip-path="url(#_clipPath_3eAmrYa9JlRSKqV3xUB6wMJyh1DFaMsY)"><g><mask id="_mask_Lb0XwEUMPWLUiGfNPFA2Aakwtt4NbJwm"><path d=" M 1351.098 1006.954 C 1351.793 1015.089 1352.152 1023.323 1352.152 1031.644 C 1352.152 1145.79 1284.69 1243.816 1188.669 1285.585 C 1224.097 1258.854 1247 1216.402 1247 1168.644 C 1247 1087.788 1181.356 1022.144 1100.5 1022.144 C 1019.644 1022.144 954 1087.788 954 1168.644 C 954 1229.61 991.322 1281.929 1044.357 1303.955 C 916.17 1283.754 817.848 1169.446 817.848 1031.644 C 817.848 924.916 876.825 832.282 962.981 786.55 C 1019.6 918.014 1150.376 1010.144 1302.5 1010.144 C 1318.974 1010.144 1335.197 1009.063 1351.098 1006.954 Z " fill-rule="evenodd" fill="white" stroke="none"/></mask><path d=" M 1351.098 1006.954 C 1351.793 1015.089 1352.152 1023.323 1352.152 1031.644 C 1352.152 1145.79 1284.69 1243.816 1188.669 1285.585 C 1224.097 1258.854 1247 1216.402 1247 1168.644 C 1247 1087.788 1181.356 1022.144 1100.5 1022.144 C 1019.644 1022.144 954 1087.788 954 1168.644 C 954 1229.61 991.322 1281.929 1044.357 1303.955 C 916.17 1283.754 817.848 1169.446 817.848 1031.644 C 817.848 924.916 876.825 832.282 962.981 786.55 C 1019.6 918.014 1150.376 1010.144 1302.5 1010.144 C 1318.974 1010.144 1335.197 1009.063 1351.098 1006.954 Z " fill-rule="evenodd" fill="none" mask="url(#_mask_Lb0XwEUMPWLUiGfNPFA2Aakwtt4NbJwm)" stroke-width="20" stroke="rgb(0,0,0)" stroke-linejoin="miter" stroke-linecap="square" stroke-miterlimit="3"/><mask id="_mask_gupTfrtLxsMobfAWvKnSBGNJAae6mIeh"><circle cx="1372.5" cy="1132.5" r="30.5" fill="white" stroke="none"/></mask><circle cx="1372.5" cy="1132.5" r="30.5" fill="none" mask="url(#_mask_gupTfrtLxsMobfAWvKnSBGNJAae6mIeh)" stroke-width="10" stroke="rgb(0,0,0)" stroke-linejoin="miter" stroke-linecap="square" stroke-miterlimit="3"/><path d=" M 1282.171 958.422 C 1309.887 955.482 1334.776 975.598 1337.715 1003.315 C 1340.654 1031.031 1320.538 1055.919 1292.822 1058.858 C 1265.106 1061.798 1240.217 1041.682 1237.278 1013.965 C 1234.339 986.249 1254.455 961.361 1282.171 958.422 Z " fill="rgb(0,0,0)"/><path d=" M 1087.883 911.351 C 1108.056 909.212 1126.171 923.853 1128.31 944.026 C 1130.45 964.2 1115.808 982.315 1095.635 984.454 C 1075.462 986.593 1057.347 971.952 1055.208 951.779 C 1053.068 931.605 1067.71 913.49 1087.883 911.351 Z " fill="rgb(0,0,0)"/><path d=" M 975.424 799.295 C 990.107 797.738 1003.292 808.394 1004.849 823.077 C 1006.406 837.76 995.749 850.945 981.066 852.502 C 966.383 854.06 953.198 843.403 951.641 828.72 C 950.084 814.037 960.741 800.852 975.424 799.295 Z " fill="rgb(0,0,0)"/><mask id="_mask_huyyz4cFWykg6vMSSAf9lVS5TB6AeRqy"><circle cx="1100.5" cy="1168.6435762816172" r="28.500000000000227" fill="white" stroke="none"/></mask><circle cx="1100.5" cy="1168.6435762816172" r="28.500000000000227" fill="none" mask="url(#_mask_huyyz4cFWykg6vMSSAf9lVS5TB6AeRqy)" stroke-width="10" stroke="rgb(0,0,0)" stroke-linejoin="miter" stroke-linecap="square" stroke-miterlimit="3"/></g><mask id="_mask_gCGyVp6joteEGhBSWfLJkqyMvTqfzflT"><circle cx="1186.2450046600807" cy="786.5502973084472" r="37.754995339919105" fill="white" stroke="none"/></mask><circle cx="1186.2450046600807" cy="786.5502973084472" r="37.754995339919105" fill="none" mask="url(#_mask_gCGyVp6joteEGhBSWfLJkqyMvTqfzflT)" stroke-width="10" stroke="rgb(0,0,0)" stroke-linejoin="miter" stroke-linecap="square" stroke-miterlimit="3"/><mask id="_mask_INkzXgfdSSdenj2GXffYBdVgIb7l5W3p"><path d=" M 1341.379 452.089 C 1429.014 470.083 1495 547.718 1495 640.644 C 1495 746.887 1408.744 833.144 1302.5 833.144 C 1228.475 833.144 1164.152 791.269 1131.948 729.936 C 1251.604 710.68 1343.12 606.834 1343.12 481.782 C 1343.12 471.736 1342.53 461.827 1341.379 452.089 Z " fill-rule="evenodd" fill="white" stroke="none"/></mask><path d=" M 1341.379 452.089 C 1429.014 470.083 1495 547.718 1495 640.644 C 1495 746.887 1408.744 833.144 1302.5 833.144 C 1228.475 833.144 1164.152 791.269 1131.948 729.936 C 1251.604 710.68 1343.12 606.834 1343.12 481.782 C 1343.12 471.736 1342.53 461.827 1341.379 452.089 Z " fill-rule="evenodd" fill="none" mask="url(#_mask_INkzXgfdSSdenj2GXffYBdVgIb7l5W3p)" stroke-width="20" stroke="rgb(0,0,0)" stroke-linejoin="miter" stroke-linecap="square" stroke-miterlimit="3"/><g><mask id="_mask_EtgDRiQANyrYFOawvNsII6TBcyIddBCE"><circle cx="1091.758987799035" cy="481.78238495408914" r="195.73742710059605" fill="white" stroke="none"/></mask><circle cx="1091.758987799035" cy="481.78238495408914" r="195.73742710059605" fill="none" mask="url(#_mask_EtgDRiQANyrYFOawvNsII6TBcyIddBCE)" stroke-width="20" stroke="rgb(0,0,0)" stroke-linejoin="miter" stroke-linecap="square" stroke-miterlimit="3"/><g><mask id="_mask_NeE3y8z4ktQ4TFlo2msM91K4ynZ4hrY2"><circle cx="927.5" cy="579.6435762816172" r="95.5" fill="white" stroke="none"/></mask><circle cx="927.5" cy="579.6435762816172" r="95.5" fill="none" mask="url(#_mask_NeE3y8z4ktQ4TFlo2msM91K4ynZ4hrY2)" stroke-width="10" stroke="rgb(0,0,0)" stroke-linejoin="miter" stroke-linecap="square" stroke-miterlimit="3"/><mask id="_mask_zULCP6zpEmYGQC9gUIj5PR2GXX8Tv9pO"><circle cx="927.5" cy="579.6435762816172" r="23.861191327528218" fill="white" stroke="none"/></mask><circle cx="927.5" cy="579.6435762816172" r="23.861191327528218" fill="none" mask="url(#_mask_zULCP6zpEmYGQC9gUIj5PR2GXX8Tv9pO)" stroke-width="10" stroke="rgb(0,0,0)" stroke-linejoin="miter" stroke-linecap="square" stroke-miterlimit="3"/></g></g><mask id="_mask_A4VxPuyxMVqsJFdVrZj9of7w0OTEMBOA"><circle cx="509.1016802567078" cy="628.2452565383246" r="105.10168025670757" fill="white" stroke="none"/></mask><circle cx="509.1016802567078" cy="628.2452565383246" r="105.10168025670757" fill="none" mask="url(#_mask_A4VxPuyxMVqsJFdVrZj9of7w0OTEMBOA)" stroke-width="10" stroke="rgb(0,0,0)" stroke-linejoin="miter" stroke-linecap="square" stroke-miterlimit="3"/><mask id="_mask_9tcsKh50lUe5obfXYPcTzspZAfT1yYSG"><circle cx="509.1016802567078" cy="628.2452565383246" r="22.370965985562435" fill="white" stroke="none"/></mask><circle cx="509.1016802567078" cy="628.2452565383246" r="22.370965985562435" fill="none" mask="url(#_mask_9tcsKh50lUe5obfXYPcTzspZAfT1yYSG)" stroke-width="10" stroke="rgb(0,0,0)" stroke-linejoin="miter" stroke-linecap="square" stroke-miterlimit="3"/><mask id="_mask_YJvlNzMRJYDiYqiE6frwGzwqQSVYCgd0"><circle cx="685.5" cy="473.64357628161724" r="109.5" fill="white" stroke="none"/></mask><circle cx="685.5" cy="473.64357628161724" r="109.5" fill="none" mask="url(#_mask_YJvlNzMRJYDiYqiE6frwGzwqQSVYCgd0)" stroke-width="10" stroke="rgb(0,0,0)" stroke-linejoin="miter" stroke-linecap="square" stroke-miterlimit="3"/><mask id="_mask_xF0pXqVJN4MkWimtxtHllghx7dATrnZD"><path d=" M 323.103 330.913 C 293.135 374.529 275.593 427.334 275.593 484.203 C 275.593 633.885 397.115 755.407 546.797 755.407 C 696.478 755.407 818 633.885 818 484.203 C 818 334.522 696.478 213 546.797 213 C 493.817 213 444.366 228.224 402.584 254.535 C 415.14 250.385 428.56 248.144 442.5 248.144 C 512.869 248.144 570 305.274 570 375.644 C 570 446.013 512.869 503.144 442.5 503.144 C 372.131 503.144 315 446.013 315 375.644 C 315 359.904 317.858 344.827 323.103 330.913 Z " fill-rule="evenodd" fill="white" stroke="none"/></mask><path d=" M 323.103 330.913 C 293.135 374.529 275.593 427.334 275.593 484.203 C 275.593 633.885 397.115 755.407 546.797 755.407 C 696.478 755.407 818 633.885 818 484.203 C 818 334.522 696.478 213 546.797 213 C 493.817 213 444.366 228.224 402.584 254.535 C 415.14 250.385 428.56 248.144 442.5 248.144 C 512.869 248.144 570 305.274 570 375.644 C 570 446.013 512.869 503.144 442.5 503.144 C 372.131 503.144 315 446.013 315 375.644 C 315 359.904 317.858 344.827 323.103 330.913 Z " fill-rule="evenodd" fill="none" mask="url(#_mask_xF0pXqVJN4MkWimtxtHllghx7dATrnZD)" stroke-width="20" stroke="rgb(0,0,0)" stroke-linejoin="miter" stroke-linecap="square" stroke-miterlimit="3"/><path d=" M 579.605 488.618 C 571.811 490.234 563.829 492.896 555.718 496.721 L 555.718 496.721 L 555.718 496.721 C 504.208 520.548 506.221 566.415 516 610 C 508.61 608.079 500.24 609.375 495.101 615 C 484.692 569.303 499.576 517.419 553.602 492.191 L 553.602 492.191 L 553.602 492.191 L 553.602 492.191 C 561.963 488.286 570.966 485.521 579 483.774 L 579.605 488.618 L 579.605 488.618 Z " fill="rgb(0,0,0)"/><circle cx="356.5" cy="475.64357628161724" r="21.5" fill="rgb(0,0,0)"/><circle cx="397.5" cy="500.64357628161724" r="17.5" fill="rgb(0,0,0)"/><circle cx="324.5" cy="432.64357628161724" r="25.5" fill="rgb(0,0,0)"/><circle cx="366.5" cy="876.6435762816172" r="16.5" fill="rgb(0,0,0)"/><g><mask id="_mask_C4H0zqvuRqWoOrAUNuVGTAaiZG3GhDI7"><circle cx="404" cy="1199.0493092140623" r="113.90573293244506" fill="white" stroke="none"/></mask><circle cx="404" cy="1199.0493092140623" r="113.90573293244506" fill="none" mask="url(#_mask_C4H0zqvuRqWoOrAUNuVGTAaiZG3GhDI7)" stroke-width="10" stroke="rgb(0,0,0)" stroke-linejoin="miter" stroke-linecap="square" stroke-miterlimit="3"/><mask id="_mask_RM0BJ79AvqanfTwWC0nTXdyekmgMJVHO"><circle cx="404" cy="1199.0493092140623" r="23.09426706755488" fill="white" stroke="none"/></mask><circle cx="404" cy="1199.0493092140623" r="23.09426706755488" fill="none" mask="url(#_mask_RM0BJ79AvqanfTwWC0nTXdyekmgMJVHO)" stroke-width="10" stroke="rgb(0,0,0)" stroke-linejoin="miter" stroke-linecap="square" stroke-miterlimit="3"/><mask id="_mask_ZqVvO4PkPN07717mhSv41c9I3Yct5Sa7"><path d=" M 301.108 833.419 C 228.972 885.567 182 970.413 182 1066.144 C 182 1224.543 310.6 1353.144 469 1353.144 C 627.4 1353.144 756 1224.543 756 1066.144 C 756 997.79 732.053 934.985 692.096 885.67 C 646.697 902.16 597.712 911.144 546.645 911.144 C 455.277 911.144 370.572 882.384 301.108 833.419 Z " fill-rule="evenodd" fill="white" stroke="none"/></mask><path d=" M 301.108 833.419 C 228.972 885.567 182 970.413 182 1066.144 C 182 1224.543 310.6 1353.144 469 1353.144 C 627.4 1353.144 756 1224.543 756 1066.144 C 756 997.79 732.053 934.985 692.096 885.67 C 646.697 902.16 597.712 911.144 546.645 911.144 C 455.277 911.144 370.572 882.384 301.108 833.419 Z " fill-rule="evenodd" fill="none" mask="url(#_mask_ZqVvO4PkPN07717mhSv41c9I3Yct5Sa7)" stroke-width="20" stroke="rgb(0,0,0)" stroke-linejoin="miter" stroke-linecap="square" stroke-miterlimit="3"/><mask id="_mask_gbVIv4lxPJbH4zlsqjTuuNdgF84de3M7"><circle cx="612.8114658648901" cy="1081.0493092140623" r="94.90573293244506" fill="white" stroke="none"/></mask><circle cx="612.8114658648901" cy="1081.0493092140623" r="94.90573293244506" fill="none" mask="url(#_mask_gbVIv4lxPJbH4zlsqjTuuNdgF84de3M7)" stroke-width="10" stroke="rgb(0,0,0)" stroke-linejoin="miter" stroke-linecap="square" stroke-miterlimit="3"/><mask id="_mask_9rPjnOiNeMMuFNvTNzTnIxiZsuKuuMSR"><circle cx="612.8114658648901" cy="1081.0493092140623" r="20.188534135109876" fill="white" stroke="none"/></mask><circle cx="612.8114658648901" cy="1081.0493092140623" r="20.188534135109876" fill="none" mask="url(#_mask_9rPjnOiNeMMuFNvTNzTnIxiZsuKuuMSR)" stroke-width="10" stroke="rgb(0,0,0)" stroke-linejoin="miter" stroke-linecap="square" stroke-miterlimit="3"/><mask id="_mask_L69VlMbx3fkAl4Zo8QZPvz1i3luDAcPg"><circle cx="612.8114658648901" cy="1081.0493092140623" r="109.18853413510979" fill="white" stroke="none"/></mask><circle cx="612.8114658648901" cy="1081.0493092140623" r="109.18853413510979" fill="none" mask="url(#_mask_L69VlMbx3fkAl4Zo8QZPvz1i3luDAcPg)" stroke-width="10" stroke="rgb(0,0,0)" stroke-linejoin="miter" stroke-linecap="square" stroke-miterlimit="3"/><circle cx="421.1414006013324" cy="1090.0021756802848" r="29.14140060133235" fill="rgb(0,0,0)"/><circle cx="475.2828012026648" cy="1115.0021756802848" r="25" fill="rgb(0,0,0)"/><circle cx="538" cy="1143.6964259352667" r="21.44715034635044" fill="rgb(0,0,0)"/><circle cx="576" cy="1171.8386330300136" r="18.39921031915833" fill="rgb(0,0,0)"/><circle cx="620.7844251987644" cy="1180.9280014803817" r="15.784425198764438" fill="rgb(0,0,0)"/><circle cx="408.5" cy="893.1435762816172" r="22" fill="rgb(0,0,0)"/><circle cx="470.94946786933133" cy="909.8102429482838" r="29.33333333333337" fill="rgb(0,0,0)"/></g><mask id="_mask_qCkCv7WXp3fMDwGlSNixDtmESpknzn9q"><path d=" M 1541.66 886.016 C 1545.282 856.181 1547.138 825.806 1547.138 795 C 1547.138 519.9 1399.125 279.098 1178.455 147.959 C 1111.973 227.51 1012.026 278.144 900.347 278.144 C 757.697 278.144 634.191 195.534 575.101 75.584 C 433.244 118.937 309.152 203.143 216.555 314.458 C 235.798 392.537 246 474.158 246 558.144 C 246 750.128 192.688 929.758 100.066 1083.021 C 171.615 1255.27 305.371 1395.273 473.228 1474.933 C 559.797 1369.517 691.127 1302.238 838.047 1302.238 C 970.04 1302.238 1089.45 1356.54 1175.138 1444.003 C 1349.651 1341.499 1479.254 1170.624 1527.029 968.286 C 1510.982 988.392 1486.269 1001.281 1458.569 1001.281 C 1410.238 1001.281 1371 962.043 1371 913.712 C 1371 865.382 1410.238 826.144 1458.569 826.144 C 1497.222 826.144 1530.059 851.241 1541.66 886.016 Z " fill-rule="evenodd" fill="white" stroke="none"/></mask><path d=" M 1541.66 886.016 C 1545.282 856.181 1547.138 825.806 1547.138 795 C 1547.138 519.9 1399.125 279.098 1178.455 147.959 C 1111.973 227.51 1012.026 278.144 900.347 278.144 C 757.697 278.144 634.191 195.534 575.101 75.584 C 433.244 118.937 309.152 203.143 216.555 314.458 C 235.798 392.537 246 474.158 246 558.144 C 246 750.128 192.688 929.758 100.066 1083.021 C 171.615 1255.27 305.371 1395.273 473.228 1474.933 C 559.797 1369.517 691.127 1302.238 838.047 1302.238 C 970.04 1302.238 1089.45 1356.54 1175.138 1444.003 C 1349.651 1341.499 1479.254 1170.624 1527.029 968.286 C 1510.982 988.392 1486.269 1001.281 1458.569 1001.281 C 1410.238 1001.281 1371 962.043 1371 913.712 C 1371 865.382 1410.238 826.144 1458.569 826.144 C 1497.222 826.144 1530.059 851.241 1541.66 886.016 Z " fill-rule="evenodd" fill="none" mask="url(#_mask_qCkCv7WXp3fMDwGlSNixDtmESpknzn9q)" stroke-width="40" stroke="rgb(0,0,0)" stroke-linejoin="miter" stroke-linecap="square" stroke-miterlimit="3"/><mask id="_mask_ro0V2jTgokWG9r64L3p0isKzbex83T4K"><circle cx="794.9999999999999" cy="794.9999999999999" r="795" fill="white" stroke="none"/></mask><circle cx="794.9999999999999" cy="794.9999999999999" r="795" fill="none" mask="url(#_mask_ro0V2jTgokWG9r64L3p0isKzbex83T4K)" stroke-width="40" stroke="rgb(0,0,0)" stroke-linejoin="miter" stroke-linecap="square" stroke-miterlimit="3"/><path d=" M 1017.009 1043.393 C 955.023 989.847 870.738 958 764.158 958 C 582.363 958 474.089 1063.3 422 1190 C 416.925 1181.348 408.945 1177.83 398 1179.385 C 450.652 1051.431 580.541 950 764.158 950 C 871.987 950 957.117 986.648 1019.535 1041.372 L 1017.009 1043.393 L 1017.009 1043.393 Z " fill="rgb(0,0,0)"/><path d=" M 1221.546 702.673 C 1221.845 706.563 1222 710.552 1222 714.64 C 1222 732.99 1216.967 747.054 1209 760 L 1215.808 767.182 C 1222.311 751.994 1226 734.483 1226 714.64 C 1226 709.747 1225.784 704.993 1225.341 700.396 L 1221.546 702.673 L 1221.546 702.673 Z " fill="rgb(0,0,0)"/><path d=" M 1261.273 672.545 C 1269.527 703.827 1272 738.068 1272 775.256 C 1272 888.826 1222.262 970.397 1159 1029 C 1170.852 1033.967 1182.529 1040.977 1194 1050 C 1257.711 990.748 1281 889.821 1281 775.256 C 1280.964 741.429 1273.337 701.966 1264.752 669.936 L 1261.273 672.545 L 1261.273 672.545 Z " fill="rgb(0,0,0)"/><path d=" M 472.819 724.065 C 498.921 671.368 553.055 655.243 609 654 C 611.041 645.79 612.051 638.467 612 632 C 554.329 633.08 495.934 668.086 469.105 722.474 C 470.359 723.261 471.607 723.802 472.819 724.065 L 472.819 724.065 Z " fill="rgb(0,0,0)"/><path d=" M 1307.855 620.435 C 1359.454 658.842 1446.05 669.757 1490 622 L 1485.614 601.377 C 1443.339 650.309 1359.902 655.374 1309.151 616.546 L 1307.855 620.435 L 1307.855 620.435 Z " fill="rgb(0,0,0)"/><path d=" M 830.217 1096 C 872.189 1073.465 925.107 1075.276 967 1098 L 974 1084 C 931.06 1060.865 871.715 1066.656 828.658 1089.535 L 830.217 1093.172 L 830.217 1096 Z " fill="rgb(0,0,0)"/><path d=" M 318.097 622.669 C 344.619 599.571 376.911 593.829 411 599 L 419 580 C 383.391 574.344 341.602 593.711 316.038 619.067 L 316.038 619.067 L 318.097 622.669 L 318.097 622.669 Z " fill="rgb(0,0,0)"/></g></svg>
