<?xml version="1.0" standalone="no"?><!-- Generator: Gravit.io --><svg xmlns="http://www.w3.org/2000/svg" xmlns:xlink="http://www.w3.org/1999/xlink" style="isolation:isolate" viewBox="0 0 1430 1430" width="1430" height="1430"><defs><clipPath id="_clipPath_vQ36l1JuZc3FKkfZyThYnfl6chWjDo9a"><rect width="1430" height="1430"/></clipPath></defs><g clip-path="url(#_clipPath_vQ36l1JuZc3FKkfZyThYnfl6chWjDo9a)"><mask id="_mask_pDbnjn7ZuNgzuPLH6Cg9yV230yhVlPXd"><circle cx="753.5" cy="1046.5" r="89.5" fill="white" stroke="none"/></mask><circle cx="753.5" cy="1046.5" r="89.5" fill="none" mask="url(#_mask_pDbnjn7ZuNgzuPLH6Cg9yV230yhVlPXd)" stroke-width="10" stroke="rgb(0,0,0)" stroke-linejoin="miter" stroke-linecap="square" stroke-miterlimit="3"/><mask id="_mask_pgIBknieaAT0WtGulgeEWabXVX6Fkc6b"><circle cx="827" cy="1000" r="20" fill="white" stroke="none"/></mask><circle cx="827" cy="1000" r="20" fill="none" mask="url(#_mask_pgIBknieaAT0WtGulgeEWabXVX6Fkc6b)" stroke-width="10" stroke="rgb(0,0,0)" stroke-linejoin="miter" stroke-linecap="square" stroke-miterlimit="3"/><mask id="_mask_vNsRudR8hBeo3vIEn7rrxMi3D8vTmBa5"><path d=" M 819.678 833.799 C 814.19 833.268 808.626 833 803 833 C 707.243 833 629.5 910.743 629.5 1006.5 C 629.5 1102.257 707.243 1180 803 1180 C 891.651 1180 964.863 1113.367 975.235 1027.494 C 887.138 1016.08 819 940.684 819 849.5 C 819 844.21 819.229 838.973 819.678 833.799 Z " fill-rule="evenodd" fill="white" stroke="none"/></mask><path d=" M 819.678 833.799 C 814.19 833.268 808.626 833 803 833 C 707.243 833 629.5 910.743 629.5 1006.5 C 629.5 1102.257 707.243 1180 803 1180 C 891.651 1180 964.863 1113.367 975.235 1027.494 C 887.138 1016.08 819 940.684 819 849.5 C 819 844.21 819.229 838.973 819.678 833.799 Z " fill-rule="evenodd" fill="none" mask="url(#_mask_vNsRudR8hBeo3vIEn7rrxMi3D8vTmBa5)" stroke-width="20" stroke="rgb(0,0,0)" stroke-linejoin="miter" stroke-linecap="square" stroke-miterlimit="3"/><mask id="_mask_3Zn0BFdMXkid4WzZz3Q5lscGEv6XnXd1"><circle cx="998.5" cy="849.4999999999998" r="161.5" fill="white" stroke="none"/></mask><circle cx="998.5" cy="849.4999999999998" r="161.5" fill="none" mask="url(#_mask_3Zn0BFdMXkid4WzZz3Q5lscGEv6XnXd1)" stroke-width="20" stroke="rgb(0,0,0)" stroke-linejoin="miter" stroke-linecap="square" stroke-miterlimit="3"/><mask id="_mask_NTWdq8kV6a31SnU7NGNfiV9MGIoyf7P8"><circle cx="998.5" cy="849.4999999999999" r="98.45321637426923" fill="white" stroke="none"/></mask><circle cx="998.5" cy="849.4999999999999" r="98.45321637426923" fill="none" mask="url(#_mask_NTWdq8kV6a31SnU7NGNfiV9MGIoyf7P8)" stroke-width="10" stroke="rgb(0,0,0)" stroke-linejoin="miter" stroke-linecap="square" stroke-miterlimit="3"/><mask id="_mask_btnl1gMmQg82EA4T605OD8kZ11XUCFAj"><circle cx="1047" cy="1026.4999999999998" r="20" fill="white" stroke="none"/></mask><circle cx="1047" cy="1026.4999999999998" r="20" fill="none" mask="url(#_mask_btnl1gMmQg82EA4T605OD8kZ11XUCFAj)" stroke-width="10" stroke="rgb(0,0,0)" stroke-linejoin="miter" stroke-linecap="square" stroke-miterlimit="3"/><mask id="_mask_VFg6rGrO0w7mw4af7aEjIVg6WEnWO6WU"><circle cx="1009.5000000000002" cy="839.5000000000001" r="124.49999999999983" fill="white" stroke="none"/></mask><circle cx="1009.5000000000002" cy="839.5000000000001" r="124.49999999999983" fill="none" mask="url(#_mask_VFg6rGrO0w7mw4af7aEjIVg6WEnWO6WU)" stroke-width="10" stroke="rgb(0,0,0)" stroke-linejoin="miter" stroke-linecap="square" stroke-miterlimit="3"/><mask id="_mask_VWEDJKZmXj9PVf6YXEV4cDh9rtyAvKzL"><circle cx="1227" cy="507" r="17" fill="white" stroke="none"/></mask><circle cx="1227" cy="507" r="17" fill="none" mask="url(#_mask_VWEDJKZmXj9PVf6YXEV4cDh9rtyAvKzL)" stroke-width="10" stroke="rgb(0,0,0)" stroke-linejoin="miter" stroke-linecap="square" stroke-miterlimit="3"/><mask id="_mask_fsS3YuzygBDzjMCekbvQP6oXBzx0jV42"><circle cx="898" cy="609" r="23" fill="white" stroke="none"/></mask><circle cx="898" cy="609" r="23" fill="none" mask="url(#_mask_fsS3YuzygBDzjMCekbvQP6oXBzx0jV42)" stroke-width="10" stroke="rgb(0,0,0)" stroke-linejoin="miter" stroke-linecap="square" stroke-miterlimit="3"/><mask id="_mask_GCHxUshxYVDqpyX7I2mEOx5nbsvDOSgY"><path d=" M 885.175 560.154 C 886.633 600.179 898.975 637.442 919.32 669.082 C 943.556 658.42 970.342 652.5 998.5 652.5 C 1073.901 652.5 1139.464 694.952 1172.572 757.239 C 1218.653 741.382 1257.736 710.43 1283.894 670.295 C 1269.175 681.413 1250.85 688 1231 688 C 1182.431 688 1143 648.569 1143 600 C 1143 551.431 1182.431 512 1231 512 C 1273.188 512 1308.482 541.751 1317.014 581.404 C 1318.326 571.789 1319 561.973 1319 552 C 1319 432.234 1221.766 335 1102 335 C 1068.446 335 1036.661 342.632 1008.292 356.263 C 1002.065 442.271 954.391 516.863 885.175 560.154 Z " fill-rule="evenodd" fill="white" stroke="none"/></mask><path d=" M 885.175 560.154 C 886.633 600.179 898.975 637.442 919.32 669.082 C 943.556 658.42 970.342 652.5 998.5 652.5 C 1073.901 652.5 1139.464 694.952 1172.572 757.239 C 1218.653 741.382 1257.736 710.43 1283.894 670.295 C 1269.175 681.413 1250.85 688 1231 688 C 1182.431 688 1143 648.569 1143 600 C 1143 551.431 1182.431 512 1231 512 C 1273.188 512 1308.482 541.751 1317.014 581.404 C 1318.326 571.789 1319 561.973 1319 552 C 1319 432.234 1221.766 335 1102 335 C 1068.446 335 1036.661 342.632 1008.292 356.263 C 1002.065 442.271 954.391 516.863 885.175 560.154 Z " fill-rule="evenodd" fill="none" mask="url(#_mask_GCHxUshxYVDqpyX7I2mEOx5nbsvDOSgY)" stroke-width="20" stroke="rgb(0,0,0)" stroke-linejoin="miter" stroke-linecap="square" stroke-miterlimit="3"/><mask id="_mask_4w8OYnDklXHGyJSaI4EdcDS2tga5Au7V"><path d=" M 595.602 155.194 C 636.444 121.348 688.864 101 746 101 C 876.252 101 982 206.748 982 337 C 982 467.252 876.252 573 746 573 C 731.08 573 716.481 571.612 702.328 568.955 C 734.563 523.294 753.5 467.591 753.5 407.5 C 753.5 296.642 689.05 200.717 595.602 155.194 Z " fill-rule="evenodd" fill="white" stroke="none"/></mask><path d=" M 595.602 155.194 C 636.444 121.348 688.864 101 746 101 C 876.252 101 982 206.748 982 337 C 982 467.252 876.252 573 746 573 C 731.08 573 716.481 571.612 702.328 568.955 C 734.563 523.294 753.5 467.591 753.5 407.5 C 753.5 296.642 689.05 200.717 595.602 155.194 Z " fill-rule="evenodd" fill="none" mask="url(#_mask_4w8OYnDklXHGyJSaI4EdcDS2tga5Au7V)" stroke-width="20" stroke="rgb(0,0,0)" stroke-linejoin="miter" stroke-linecap="square" stroke-miterlimit="3"/><mask id="_mask_8jdt99jTP9PmVdrwnYnKI4KFFstOAKY1"><circle cx="669" cy="598" r="29" fill="white" stroke="none"/></mask><circle cx="669" cy="598" r="29" fill="none" mask="url(#_mask_8jdt99jTP9PmVdrwnYnKI4KFFstOAKY1)" stroke-width="10" stroke="rgb(0,0,0)" stroke-linejoin="miter" stroke-linecap="square" stroke-miterlimit="3"/><mask id="_mask_01e4DTPB7pyYSR4iHZhMpcsj3Uc82rJs"><circle cx="580" cy="423.5" r="107.5" fill="white" stroke="none"/></mask><circle cx="580" cy="423.5" r="107.5" fill="none" mask="url(#_mask_01e4DTPB7pyYSR4iHZhMpcsj3Uc82rJs)" stroke-width="10" stroke="rgb(0,0,0)" stroke-linejoin="miter" stroke-linecap="square" stroke-miterlimit="3"/><mask id="_mask_ZnILyNFMwAtxBkV9eERZ3YMVyIEgqODR"><path d=" M 233.71 443.645 C 235.639 456.654 238.626 469.318 242.563 481.558 C 267.869 465.076 298.075 455.5 330.5 455.5 C 419.634 455.5 492 527.866 492 617 C 492 627.953 490.907 638.653 488.818 648.993 C 615.02 640.832 715 535.75 715 407.5 C 715 291.102 632.645 193.787 523.071 170.705 C 540.363 188.684 551 213.11 551 240 C 551 295.192 506.192 340 451 340 C 395.808 340 351 295.192 351 240 C 351 222.487 355.511 206.02 363.449 191.707 C 346.193 200.49 330.128 211.282 315.579 223.792 C 318.482 238.078 320 252.863 320 268 C 320 339.432 286.19 403.029 233.71 443.645 Z " fill-rule="evenodd" fill="white" stroke="none"/></mask><path d=" M 233.71 443.645 C 235.639 456.654 238.626 469.318 242.563 481.558 C 267.869 465.076 298.075 455.5 330.5 455.5 C 419.634 455.5 492 527.866 492 617 C 492 627.953 490.907 638.653 488.818 648.993 C 615.02 640.832 715 535.75 715 407.5 C 715 291.102 632.645 193.787 523.071 170.705 C 540.363 188.684 551 213.11 551 240 C 551 295.192 506.192 340 451 340 C 395.808 340 351 295.192 351 240 C 351 222.487 355.511 206.02 363.449 191.707 C 346.193 200.49 330.128 211.282 315.579 223.792 C 318.482 238.078 320 252.863 320 268 C 320 339.432 286.19 403.029 233.71 443.645 Z " fill-rule="evenodd" fill="none" mask="url(#_mask_ZnILyNFMwAtxBkV9eERZ3YMVyIEgqODR)" stroke-width="20" stroke="rgb(0,0,0)" stroke-linejoin="miter" stroke-linecap="square" stroke-miterlimit="3"/><mask id="_mask_7101YEFh6l59FctXSOeN4mnFufj3ZPnF"><circle cx="358.0949366730456" cy="775.73867499745" r="18.5" fill="white" stroke="none"/></mask><circle cx="358.0949366730456" cy="775.73867499745" r="18.5" fill="none" mask="url(#_mask_7101YEFh6l59FctXSOeN4mnFufj3ZPnF)" stroke-width="10" stroke="rgb(0,0,0)" stroke-linejoin="miter" stroke-linecap="square" stroke-miterlimit="3"/><mask id="_mask_VKNZFYWe9Dc0opRlIJNoZWQaZIX0v1lU"><path d=" M 242.132 508.164 C 266.244 488.527 297.009 476.761 330.5 476.761 C 407.9 476.761 470.739 539.6 470.739 617 C 470.739 694.4 407.9 757.239 330.5 757.239 C 299.89 757.239 271.557 747.41 248.492 730.734 C 300.103 720.312 339 674.663 339 620 C 339 563.112 296.871 515.986 242.132 508.164 Z " fill-rule="evenodd" fill="white" stroke="none"/></mask><path d=" M 242.132 508.164 C 266.244 488.527 297.009 476.761 330.5 476.761 C 407.9 476.761 470.739 539.6 470.739 617 C 470.739 694.4 407.9 757.239 330.5 757.239 C 299.89 757.239 271.557 747.41 248.492 730.734 C 300.103 720.312 339 674.663 339 620 C 339 563.112 296.871 515.986 242.132 508.164 Z " fill-rule="evenodd" fill="none" mask="url(#_mask_VKNZFYWe9Dc0opRlIJNoZWQaZIX0v1lU)" stroke-width="20" stroke="rgb(0,0,0)" stroke-linejoin="miter" stroke-linecap="square" stroke-miterlimit="3"/><mask id="_mask_OYzcxH8YYkEJ9d2nQxx8gHDvqOgQDqAn"><circle cx="226.00000000000003" cy="620.0000000000003" r="19.668941979522145" fill="white" stroke="none"/></mask><circle cx="226.00000000000003" cy="620.0000000000003" r="19.668941979522145" fill="none" mask="url(#_mask_OYzcxH8YYkEJ9d2nQxx8gHDvqOgQDqAn)" stroke-width="10" stroke="rgb(0,0,0)" stroke-linejoin="miter" stroke-linecap="square" stroke-miterlimit="3"/><mask id="_mask_TnsyI0EiB2mvzIgPYQy6vK5JiMr3Mp1X"><path d=" M 130.649 715.993 C 111.084 753.031 100 795.232 100 840 C 100 986.809 219.191 1106 366 1106 C 512.809 1106 632 986.809 632 840 C 632 765.153 601.02 697.485 551.194 649.132 C 535.601 757.008 442.666 840 330.5 840 C 242.968 840 167.147 789.458 130.649 715.993 Z " fill-rule="evenodd" fill="white" stroke="none"/></mask><path d=" M 130.649 715.993 C 111.084 753.031 100 795.232 100 840 C 100 986.809 219.191 1106 366 1106 C 512.809 1106 632 986.809 632 840 C 632 765.153 601.02 697.485 551.194 649.132 C 535.601 757.008 442.666 840 330.5 840 C 242.968 840 167.147 789.458 130.649 715.993 Z " fill-rule="evenodd" fill="none" mask="url(#_mask_TnsyI0EiB2mvzIgPYQy6vK5JiMr3Mp1X)" stroke-width="20" stroke="rgb(0,0,0)" stroke-linejoin="miter" stroke-linecap="square" stroke-miterlimit="3"/><mask id="_mask_KwQ68kOakMkFfm80gwqAyCsgZnMkqmKx"><path d=" M 298.835 946.05 C 312.303 895.787 364.045 865.914 414.308 879.382 C 464.571 892.85 494.444 944.592 480.976 994.855 C 467.508 1045.118 415.767 1074.992 365.503 1061.524 C 315.24 1048.056 285.367 996.314 298.835 946.05 Z " fill="white" stroke="none"/></mask><path d=" M 298.835 946.05 C 312.303 895.787 364.045 865.914 414.308 879.382 C 464.571 892.85 494.444 944.592 480.976 994.855 C 467.508 1045.118 415.767 1074.992 365.503 1061.524 C 315.24 1048.056 285.367 996.314 298.835 946.05 Z " fill="none" mask="url(#_mask_KwQ68kOakMkFfm80gwqAyCsgZnMkqmKx)" stroke-width="10" stroke="rgb(0,0,0)" stroke-linejoin="miter" stroke-linecap="square" stroke-miterlimit="3"/><mask id="_mask_N4dCoCv93YJk8lWVGCJABewkRaAEK9Us"><path d=" M 460.088 929.37 C 462.029 922.128 469.483 917.825 476.724 919.765 C 483.966 921.705 488.269 929.16 486.329 936.401 C 484.389 943.642 476.934 947.946 469.693 946.006 C 462.452 944.065 458.148 936.611 460.088 929.37 Z " fill="white" stroke="none"/></mask><path d=" M 460.088 929.37 C 462.029 922.128 469.483 917.825 476.724 919.765 C 483.966 921.705 488.269 929.16 486.329 936.401 C 484.389 943.642 476.934 947.946 469.693 946.006 C 462.452 944.065 458.148 936.611 460.088 929.37 Z " fill="none" mask="url(#_mask_N4dCoCv93YJk8lWVGCJABewkRaAEK9Us)" stroke-width="10" stroke="rgb(0,0,0)" stroke-linejoin="miter" stroke-linecap="square" stroke-miterlimit="3"/><path d=" M 120.108 751.119 C 164.456 820.474 242.145 866.5 330.5 866.5 C 447.034 866.5 545.015 786.434 572.34 678.34 L 568.235 674.235 C 565.142 687.189 560.968 699.862 555.78 712.13 C 543.47 741.17 525.67 767.56 503.35 789.85 C 481.06 812.17 454.67 829.97 425.63 842.28 C 410.85 848.53 395.48 853.31 379.75 856.53 C 363.55 859.84 347.05 861.51 330.5 861.5 C 330.5 861.5 330.5 861.5 330.5 861.5 L 330.5 861.5 L 330.5 861.5 C 313.95 861.51 297.45 859.84 281.25 856.53 C 265.52 853.31 250.15 848.53 235.37 842.28 C 206.33 829.97 179.94 812.17 157.65 789.85 C 144.157 776.375 132.315 761.401 122.374 745.229 L 120.108 751.119 L 120.108 751.119 Z " fill="rgb(0,0,0)"/><mask id="_mask_KnBz5g7rfq4538SSEeM0XsJNqNVKVZTQ"><path d=" M 95.743 458.49 C 62.937 537.519 44.825 624.161 44.825 715 C 44.825 904.662 123.782 1076.029 250.592 1197.994 C 302.446 1164.527 364.197 1145.105 430.447 1145.105 C 581.556 1145.105 709.253 1246.14 749.603 1384.286 C 911.092 1376.06 1057.566 1310.556 1169.077 1207.693 C 1163.104 1174.696 1160 1140.708 1160 1106 C 1160 922.07 1247.167 758.338 1382.414 653.901 C 1351.516 312.608 1064.283 44.825 715 44.825 C 548.289 44.825 395.714 105.829 278.401 206.714 C 284.951 225.947 288.5 246.562 288.5 268 C 288.5 373.14 203.14 458.5 98 458.5 C 97.247 458.5 96.495 458.496 95.743 458.49 Z " fill-rule="evenodd" fill="white" stroke="none"/></mask><path d=" M 95.743 458.49 C 62.937 537.519 44.825 624.161 44.825 715 C 44.825 904.662 123.782 1076.029 250.592 1197.994 C 302.446 1164.527 364.197 1145.105 430.447 1145.105 C 581.556 1145.105 709.253 1246.14 749.603 1384.286 C 911.092 1376.06 1057.566 1310.556 1169.077 1207.693 C 1163.104 1174.696 1160 1140.708 1160 1106 C 1160 922.07 1247.167 758.338 1382.414 653.901 C 1351.516 312.608 1064.283 44.825 715 44.825 C 548.289 44.825 395.714 105.829 278.401 206.714 C 284.951 225.947 288.5 246.562 288.5 268 C 288.5 373.14 203.14 458.5 98 458.5 C 97.247 458.5 96.495 458.496 95.743 458.49 Z " fill-rule="evenodd" fill="none" mask="url(#_mask_KnBz5g7rfq4538SSEeM0XsJNqNVKVZTQ)" stroke-width="40" stroke="rgb(0,0,0)" stroke-linejoin="miter" stroke-linecap="square" stroke-miterlimit="3"/><mask id="_mask_DWVWUitFo7W7BlVyY5z5dbuUA6mC7baw"><path d=" M 1304.306 310.211 C 1383.578 425.331 1430 564.787 1430 715 C 1430 838.68 1398.529 955.067 1343.159 1056.58 C 1305.411 1045.775 1265.551 1040 1224.353 1040 C 1001.534 1040 817.862 1208.938 794.56 1425.61 C 768.438 1428.512 741.891 1430 715 1430 C 320.381 1430 0 1109.619 0 715 C 0 320.381 320.381 0 715 0 C 790.34 0 862.973 11.678 931.189 33.319 C 947.105 191.973 1081.183 316 1244 316 C 1264.624 316 1284.787 314.01 1304.306 310.211 Z " fill-rule="evenodd" fill="white" stroke="none"/></mask><path d=" M 1304.306 310.211 C 1383.578 425.331 1430 564.787 1430 715 C 1430 838.68 1398.529 955.067 1343.159 1056.58 C 1305.411 1045.775 1265.551 1040 1224.353 1040 C 1001.534 1040 817.862 1208.938 794.56 1425.61 C 768.438 1428.512 741.891 1430 715 1430 C 320.381 1430 0 1109.619 0 715 C 0 320.381 320.381 0 715 0 C 790.34 0 862.973 11.678 931.189 33.319 C 947.105 191.973 1081.183 316 1244 316 C 1264.624 316 1284.787 314.01 1304.306 310.211 Z " fill-rule="evenodd" fill="none" mask="url(#_mask_DWVWUitFo7W7BlVyY5z5dbuUA6mC7baw)" stroke-width="40" stroke="rgb(0,0,0)" stroke-linejoin="miter" stroke-linecap="square" stroke-miterlimit="3"/><path d=" M 1142.64 582.009 C 905.238 522.095 693.948 722.271 741 962 C 732.201 962.415 719.888 965.435 706 975 C 657.332 732.344 905.307 508.308 1143.153 577.999 L 1143.153 577.999 L 1142.64 582.009 L 1142.64 582.009 Z " fill="rgb(0,0,0)"/><circle cx="1027" cy="951.5" r="23.5" fill="rgb(0,0,0)"/><circle cx="998.5" cy="849.4999999999999" r="29.24999999999983" fill="rgb(0,0,0)"/><circle cx="967.0930851063833" cy="743.8069038483217" r="36.40691489361666" fill="rgb(0,0,0)"/><path d=" M 1291 552 M 1295 552" fill-rule="evenodd" fill="rgb(0,0,0)"/><path d=" M 1010.716 380.273 C 1015.785 377.534 1020.997 375.046 1026.32 372.79 C 1038.08 367.82 1050.31 364.02 1062.82 361.45 C 1075.71 358.82 1088.84 357.49 1102 357.5 C 1115.16 357.49 1128.29 358.82 1141.18 361.45 C 1153.69 364.02 1165.92 367.82 1177.68 372.79 C 1200.78 382.58 1221.77 396.74 1239.5 414.5 C 1257.26 432.23 1271.42 453.22 1281.21 476.32 C 1286.18 488.08 1289.98 500.31 1292.55 512.82 C 1293.956 519.712 1294.991 526.673 1295.611 533.673 L 1301.034 538.41 C 1300.443 529.479 1299.239 520.597 1297.44 511.82 C 1294.81 498.98 1290.92 486.44 1285.81 474.37 C 1275.77 450.68 1261.25 429.15 1243.04 410.96 C 1224.85 392.75 1203.32 378.23 1179.63 368.19 C 1167.56 363.08 1155.02 359.19 1142.18 356.56 C 1128.96 353.85 1115.5 352.49 1102 352.5 C 1088.5 352.49 1075.04 353.85 1061.82 356.56 C 1048.98 359.19 1036.44 363.08 1024.37 368.19 C 1019.998 370.043 1015.7 372.048 1011.476 374.189 L 1010.716 380.273 L 1010.716 380.273 Z " fill="rgb(0,0,0)"/><circle cx="747.4999999999999" cy="337.00000000000006" r="26.499999999999886" fill="rgb(0,0,0)"/><mask id="_mask_9QTtnpxJNpnRocbmZggrtyjYfpUr3F99"><circle cx="747.5" cy="337" r="35.79000854492176" fill="white" stroke="none"/></mask><circle cx="747.5" cy="337" r="35.79000854492176" fill="none" mask="url(#_mask_9QTtnpxJNpnRocbmZggrtyjYfpUr3F99)" stroke-width="10" stroke="rgb(0,0,0)" stroke-linejoin="miter" stroke-linecap="square" stroke-miterlimit="3"/><path d=" M 462.557 514.473 C 491.495 490.843 523.696 471.402 558.22 456.77 C 582.07 446.67 606.87 438.97 632.24 433.77 C 658.39 428.43 685.02 425.74 711.71 425.75 C 738.4 425.74 765.03 428.43 791.18 433.77 C 816.55 438.97 841.35 446.67 865.2 456.77 C 896.21 469.912 925.345 486.935 951.931 507.379 L 954.896 503.355 C 927.996 482.68 898.519 465.465 867.15 452.17 C 842.99 441.94 817.88 434.14 792.18 428.87 C 765.7 423.46 738.74 420.74 711.71 420.75 C 684.68 420.74 657.72 423.46 631.24 428.87 C 605.54 434.14 580.43 441.94 556.27 452.17 C 521.199 467.034 488.493 486.798 459.119 510.832 L 462.557 514.473 L 462.557 514.473 Z " fill="rgb(0,0,0)"/><path d=" M 1106.21 820.25 C 1106.21 820.25 1106.21 820.25 1106.21 820.25 L 1106.21 820.25 L 1106.21 820.25 Z  M 711.71 1214.75 C 711.71 1214.75 711.71 1214.75 711.71 1214.75 L 711.71 1214.75 L 711.71 1214.75 Z " fill-rule="evenodd" fill="rgb(0,0,0)"/><path d=" M 1106.21 820.25 M 1111.21 820.25 M 711.71 1214.75 M 711.71 1219.75" fill-rule="evenodd" fill="rgb(0,0,0)"/><path d=" M 453.339 504.712 C 483.453 479.994 517.009 459.681 553 444.42 C 577.67 433.98 603.31 426.02 629.54 420.64 C 656.58 415.12 684.11 412.34 711.71 412.35 C 739.31 412.34 766.84 415.12 793.88 420.64 C 820.11 426.02 845.75 433.98 870.42 444.42 C 902.394 457.978 932.447 475.523 959.882 496.589 L 962.851 492.559 C 935.102 471.263 904.71 453.524 872.37 439.82 C 847.4 429.25 821.44 421.19 794.88 415.74 C 767.51 410.15 739.64 407.34 711.71 407.35 C 683.78 407.34 655.91 410.15 628.54 415.74 C 601.98 421.19 576.02 429.25 551.05 439.82 C 514.505 455.306 480.447 475.945 449.895 501.066 L 453.339 504.712 L 453.339 504.712 Z " fill="rgb(0,0,0)"/><path d=" M 1119.61 820.25 C 1119.61 820.25 1119.61 820.25 1119.61 820.25 L 1119.61 820.25 L 1119.61 820.25 Z  M 711.71 1228.15 C 711.71 1228.15 711.71 1228.15 711.71 1228.15 L 711.71 1228.15 L 711.71 1228.15 Z " fill-rule="evenodd" fill="rgb(0,0,0)"/><path d=" M 1119.61 820.25 M 711.71 1228.15 M 711.71 1233.15" fill-rule="evenodd" fill="rgb(0,0,0)"/><path d=" M 709.72 397.508 C 681.787 397.625 653.93 400.503 626.55 406.1 C 599.36 411.67 572.79 419.92 547.22 430.74 C 524.981 440.165 503.641 451.454 483.428 464.475 L 483.428 464.475 L 481.634 459.69 C 501.816 446.76 523.102 435.535 545.27 426.14 C 571.14 415.19 598.03 406.83 625.55 401.2 C 653.127 395.558 681.195 392.651 709.342 392.509 L 709.72 397.508 L 709.72 397.508 Z " fill="rgb(0,0,0)"/><path d=" M 1139.46 820.25 C 1139.46 820.25 1139.46 820.25 1139.46 820.25 L 1139.46 820.25 L 1139.46 820.25 Z  M 711.71 1248 C 711.71 1248 711.71 1248 711.71 1248 L 711.71 1248 L 711.71 1248 Z  M 1134.46 820.25 C 1134.46 820.25 1134.46 820.25 1134.46 820.25 L 1134.46 820.25 L 1134.46 820.25 Z  M 711.71 1243 C 711.71 1243 711.71 1243 711.71 1243 L 711.71 1243 L 711.71 1243 Z " fill-rule="evenodd" fill="rgb(0,0,0)"/><path d=" M 1134.46 820.25 M 1139.46 820.25 M 711.71 1243 M 711.71 1248" fill-rule="evenodd" fill="rgb(0,0,0)"/><mask id="_mask_8m9PouPFBpdtc5J0y1TvSdcqfRXhtsuy"><circle cx="451" cy="240" r="23.35511429080998" fill="white" stroke="none"/></mask><circle cx="451" cy="240" r="23.35511429080998" fill="none" mask="url(#_mask_8m9PouPFBpdtc5J0y1TvSdcqfRXhtsuy)" stroke-width="10" stroke="rgb(0,0,0)" stroke-linejoin="miter" stroke-linecap="square" stroke-miterlimit="3"/><path d=" M 133.012 765.847 C 130.364 774.013 128.194 782.33 126.47 790.75 C 123.16 806.96 121.49 823.46 121.5 840 C 121.49 856.54 123.16 873.04 126.47 889.25 C 129.69 904.98 134.47 920.35 140.73 935.13 C 153.03 964.17 170.83 990.56 193.15 1012.85 C 215.44 1035.17 241.83 1052.97 270.87 1065.27 C 285.65 1071.53 301.02 1076.31 316.75 1079.53 C 332.96 1082.84 349.46 1084.51 366 1084.5 C 382.54 1084.51 399.04 1082.84 415.25 1079.53 C 430.98 1076.31 446.35 1071.53 461.13 1065.27 C 490.17 1052.97 516.56 1035.17 538.85 1012.85 C 561.17 990.56 578.97 964.17 591.27 935.13 C 597.53 920.35 602.31 904.98 605.53 889.25 C 608.84 873.04 610.51 856.54 610.5 840 C 610.51 823.46 608.84 806.96 605.53 790.75 C 602.31 775.02 597.53 759.65 591.27 744.87 C 584.08 727.894 575.01 711.824 564.243 696.96 L 566.064 691.043 C 578.045 707.028 588.05 724.449 595.88 742.92 C 602.27 758.01 607.14 773.69 610.43 789.75 C 613.81 806.28 615.51 823.12 615.5 840 C 615.51 856.88 613.81 873.72 610.43 890.25 C 607.14 906.31 602.27 921.99 595.88 937.08 C 583.32 966.71 565.16 993.64 542.39 1016.39 C 519.64 1039.16 492.71 1057.32 463.08 1069.88 C 447.99 1076.27 432.31 1081.14 416.25 1084.43 C 399.72 1087.81 382.88 1089.51 366 1089.5 C 349.12 1089.51 332.28 1087.81 315.75 1084.43 C 299.69 1081.14 284.01 1076.27 268.92 1069.88 C 239.29 1057.32 212.36 1039.16 189.61 1016.39 C 166.84 993.64 148.68 966.71 136.12 937.08 C 129.73 921.99 124.86 906.31 121.57 890.25 C 118.19 873.72 116.49 856.88 116.5 840 C 116.49 823.12 118.19 806.28 121.57 789.75 C 123.54 780.136 126.075 770.658 129.168 761.362 L 133.012 765.847 L 133.012 765.847 Z  M 366 1089.5 C 366 1089.5 366 1089.5 366 1089.5 L 366 1089.5 L 366 1089.5 Z  M 366 1084.5 C 366 1084.5 366 1084.5 366 1084.5 L 366 1084.5 L 366 1084.5 Z " fill-rule="evenodd" fill="rgb(0,0,0)"/><path d=" M 366 1084.5 M 366 1089.5" fill-rule="evenodd" fill="rgb(0,0,0)"/><path d=" M 471.456 955.163 C 472.879 949.852 478.345 946.696 483.656 948.119 C 488.966 949.542 492.122 955.009 490.699 960.319 C 489.276 965.629 483.81 968.785 478.499 967.362 C 473.189 965.939 470.033 960.473 471.456 955.163 Z " fill="rgb(0,0,0)"/><path d=" M 397.346 873.496 C 400.506 861.7 412.649 854.69 424.444 857.85 C 436.24 861.011 443.251 873.154 440.09 884.949 C 436.929 896.745 424.787 903.755 412.991 900.595 C 401.196 897.434 394.185 885.292 397.346 873.496 Z " fill="rgb(0,0,0)"/><path d=" M 437.707 899.858 C 440.12 890.853 449.39 885.501 458.394 887.914 C 467.399 890.327 472.751 899.596 470.338 908.601 C 467.926 917.606 458.656 922.958 449.651 920.545 C 440.646 918.132 435.294 908.863 437.707 899.858 Z " fill="rgb(0,0,0)"/><circle cx="347.1477502796627" cy="223.9925537109375" r="12.007446289062557" fill="rgb(0,0,0)"/><circle cx="346.22383898544246" cy="252.77999877929685" r="14.220001220703125" fill="rgb(0,0,0)"/><circle cx="356.4351897834" cy="286.1597468896456" r="16.84025311035441" fill="rgb(0,0,0)"/><circle cx="316.7252862708324" cy="326.9433263344529" r="19.943326334452877" fill="rgb(0,0,0)"/><circle cx="300.61818808043506" cy="372.79000854492176" r="23.61818808043506" fill="rgb(0,0,0)"/><circle cx="267.0298009044182" cy="418.97019909558173" r="27.970199095581734" fill="rgb(0,0,0)"/><circle cx="303.54447815508365" cy="531.971123995037" r="33.124134450201666" fill="rgb(0,0,0)"/><circle cx="342.7722390775418" cy="604.3230193676968" r="39.227760922458174" fill="rgb(0,0,0)"/><circle cx="319.43397977227505" cy="691.0426635742188" r="46.45607357085726" fill="rgb(0,0,0)"/><path d=" M 465 628.535 C 462.319 627.24 459.597 626.024 456.85 624.86 C 442.73 618.88 428.06 614.32 413.04 611.25 C 397.56 608.08 381.8 606.49 366 606.5 C 350.2 606.49 334.44 608.08 318.96 611.25 C 303.94 614.32 289.27 618.88 275.15 624.86 C 247.42 636.61 222.21 653.61 200.92 674.92 C 179.61 696.21 162.61 721.42 150.86 749.15 C 144.88 763.27 140.32 777.94 137.25 792.96 C 134.08 808.44 132.49 824.2 132.5 840 C 132.49 855.8 134.08 871.56 137.25 887.04 C 140.32 902.06 144.88 916.73 150.86 930.85 C 162.61 958.58 179.61 983.79 200.92 1005.08 C 222.21 1026.39 247.42 1043.39 275.15 1055.14 C 289.27 1061.12 303.94 1065.68 318.96 1068.75 C 334.44 1071.92 350.2 1073.51 366 1073.5 C 381.8 1073.51 397.56 1071.92 413.04 1068.75 C 428.06 1065.68 442.73 1061.12 456.85 1055.14 C 484.58 1043.39 509.79 1026.39 531.08 1005.08 C 552.39 983.79 569.39 958.58 581.14 930.85 C 587.12 916.73 591.68 902.06 594.75 887.04 C 597.92 871.56 599.51 855.8 599.5 840 C 599.51 824.2 597.92 808.44 594.75 792.96 C 591.68 777.94 587.12 763.27 581.14 749.15 C 575.188 735.104 567.889 721.704 559.329 709.158 L 561.476 703.403 C 571.061 717.076 579.197 731.753 585.74 747.2 C 591.85 761.62 596.51 776.62 599.65 791.96 C 602.88 807.77 604.51 823.86 604.5 840 C 604.51 856.14 602.88 872.23 599.65 888.04 C 596.51 903.38 591.85 918.38 585.74 932.8 C 573.74 961.13 556.38 986.87 534.61 1008.61 C 512.87 1030.38 487.13 1047.74 458.8 1059.74 C 444.38 1065.85 429.38 1070.51 414.04 1073.65 C 398.23 1076.88 382.14 1078.51 366 1078.5 C 349.86 1078.51 333.77 1076.88 317.96 1073.65 C 302.62 1070.51 287.62 1065.85 273.2 1059.74 C 244.87 1047.74 219.13 1030.38 197.39 1008.61 C 175.62 986.87 158.26 961.13 146.26 932.8 C 140.15 918.38 135.49 903.38 132.35 888.04 C 129.12 872.23 127.49 856.14 127.5 840 C 127.49 823.86 129.12 807.77 132.35 791.96 C 135.49 776.62 140.15 761.62 146.26 747.2 C 158.26 718.87 175.62 693.13 197.39 671.39 C 219.13 649.62 244.87 632.26 273.2 620.26 C 287.62 614.15 302.62 609.49 317.96 606.35 C 333.77 603.12 349.86 601.49 366 601.5 C 382.14 601.49 398.23 603.12 414.04 606.35 C 429.38 609.49 444.38 614.15 458.8 620.26 C 460.881 621.141 462.948 622.052 465 622.99 L 465 628.535 L 465 628.535 Z " fill="rgb(0,0,0)"/><path d=" M 604.5 840 C 604.5 840 604.5 840 604.5 840 L 604.5 840 L 604.5 840 Z  M 599.5 840 C 599.5 840 599.5 840 599.5 840 L 599.5 840 L 599.5 840 Z " fill-rule="evenodd" fill="rgb(0,0,0)"/><path d=" M 599.5 840 M 604.5 840" fill-rule="evenodd" fill="rgb(0,0,0)"/></g></svg>
