<?xml version="1.0" standalone="no"?><!-- Generator: Gravit.io --><svg xmlns="http://www.w3.org/2000/svg" xmlns:xlink="http://www.w3.org/1999/xlink" style="isolation:isolate" viewBox="0 0 1455 800.31" width="1455" height="800.31"><defs><clipPath id="_clipPath_rLLOxTwWZNgMV6T3zNk7d8flT5VHkFzz"><rect width="1455" height="800.31"/></clipPath></defs><g clip-path="url(#_clipPath_rLLOxTwWZNgMV6T3zNk7d8flT5VHkFzz)"><g><mask id="_mask_CkLWCFbW3KRSOoHd52iTyUxAT0ic0mDs"><circle cx="258.8867344534941" cy="613.7131744970995" r="186.59724490277983" fill="white" stroke="none"/></mask><circle cx="258.8867344534941" cy="613.7131744970995" r="186.59724490277983" fill="none" mask="url(#_mask_CkLWCFbW3KRSOoHd52iTyUxAT0ic0mDs)" stroke-width="20" stroke="rgb(0,0,0)" stroke-linejoin="miter" stroke-linecap="square" stroke-miterlimit="3"/><mask id="_mask_YVMkSxY7pEr1cOFLEPLS8Qr1Dfe6ZVah"><circle cx="281.02539062839935" cy="696.1683735158824" r="82.45519901878288" fill="white" stroke="none"/></mask><circle cx="281.02539062839935" cy="696.1683735158824" r="82.45519901878288" fill="none" mask="url(#_mask_YVMkSxY7pEr1cOFLEPLS8Qr1Dfe6ZVah)" stroke-width="10" stroke="rgb(0,0,0)" stroke-linejoin="miter" stroke-linecap="square" stroke-miterlimit="3"/><mask id="_mask_vzoVZDc5NhC5OYqg85bc8E8NFetIPbMr"><circle cx="109.33785294545456" cy="522.8995032490152" r="109.33785294545456" fill="white" stroke="none"/></mask><circle cx="109.33785294545456" cy="522.8995032490152" r="109.33785294545456" fill="none" mask="url(#_mask_vzoVZDc5NhC5OYqg85bc8E8NFetIPbMr)" stroke-width="10" stroke="rgb(0,0,0)" stroke-linejoin="miter" stroke-linecap="square" stroke-miterlimit="3"/><circle cx="178.69058198317006" cy="484.9475212348905" r="19.879609626446296" fill="rgb(0,0,0)"/><circle cx="55.1207357824193" cy="587.9600438446575" r="14.457897910142744" fill="rgb(0,0,0)"/></g><g><mask id="_mask_5r2AFYv6sqFBRyRaE2tJiPnkZAjnrEtb"><circle cx="628.4443235795349" cy="390.1863132576719" r="201.1863132576719" fill="white" stroke="none"/></mask><circle cx="628.4443235795349" cy="390.1863132576719" r="201.1863132576719" fill="none" mask="url(#_mask_5r2AFYv6sqFBRyRaE2tJiPnkZAjnrEtb)" stroke-width="20" stroke="rgb(0,0,0)" stroke-linejoin="miter" stroke-linecap="square" stroke-miterlimit="3"/><mask id="_mask_vJCQJcSNcm3atHX7c359qM3nkom7Ye5c"><circle cx="576.5873309402078" cy="466.911086281095" r="82.95669410300113" fill="white" stroke="none"/></mask><circle cx="576.5873309402078" cy="466.911086281095" r="82.95669410300113" fill="none" mask="url(#_mask_vJCQJcSNcm3atHX7c359qM3nkom7Ye5c)" stroke-width="10" stroke="rgb(0,0,0)" stroke-linejoin="miter" stroke-linecap="square" stroke-miterlimit="3"/><g><mask id="_mask_xBttUpkClglq6sRM2YiSFgyo2PBNDNwz"><circle cx="696.3773644197877" cy="330.1419195764893" r="90.14191957648939" fill="white" stroke="none"/></mask><circle cx="696.3773644197877" cy="330.1419195764893" r="90.14191957648939" fill="none" mask="url(#_mask_xBttUpkClglq6sRM2YiSFgyo2PBNDNwz)" stroke-width="10" stroke="rgb(0,0,0)" stroke-linejoin="miter" stroke-linecap="square" stroke-miterlimit="3"/><mask id="_mask_VD2zlkCg5IxwCOUp0qIBbBY33AAMAKqQ"><circle cx="696.3773644197877" cy="330.1419195764893" r="13.77024679069973" fill="white" stroke="none"/></mask><circle cx="696.3773644197877" cy="330.1419195764893" r="13.77024679069973" fill="none" mask="url(#_mask_VD2zlkCg5IxwCOUp0qIBbBY33AAMAKqQ)" stroke-width="10" stroke="rgb(0,0,0)" stroke-linejoin="miter" stroke-linecap="square" stroke-miterlimit="3"/></g><mask id="_mask_167X7Buht2Tek9OexDYMw2RasHdPAFtq"><circle cx="803.8026462844791" cy="549.8677803840961" r="17.283362288201715" fill="white" stroke="none"/></mask><circle cx="803.8026462844791" cy="549.8677803840961" r="17.283362288201715" fill="none" mask="url(#_mask_167X7Buht2Tek9OexDYMw2RasHdPAFtq)" stroke-width="10" stroke="rgb(0,0,0)" stroke-linejoin="miter" stroke-linecap="square" stroke-miterlimit="3"/></g><mask id="_mask_2Ey5ld6gW4pKR8gLaEAoPHmN3PuEXXAe"><circle cx="911.5960694731506" cy="745.5705911502716" r="27.5" fill="white" stroke="none"/></mask><circle cx="911.5960694731506" cy="745.5705911502716" r="27.5" fill="none" mask="url(#_mask_2Ey5ld6gW4pKR8gLaEAoPHmN3PuEXXAe)" stroke-width="10" stroke="rgb(0,0,0)" stroke-linejoin="miter" stroke-linecap="square" stroke-miterlimit="3"/><line x1="992" y1="608" x2="992" y2="745.571" stroke-width="4" stroke="rgb(0,0,0)" stroke-linejoin="miter" stroke-linecap="round" stroke-miterlimit="3"/><line x1="992" y1="745.571" x2="937" y2="745.571" stroke-width="4" stroke="rgb(0,0,0)" stroke-linejoin="miter" stroke-linecap="round" stroke-miterlimit="3"/><mask id="_mask_PT2IGFjp6n5JquoviaPfk6yKcqcYElF0"><path d=" M 1253.319 589.419 C 1370.808 547.545 1455 435.263 1455 303.472 C 1455 135.981 1319.019 0 1151.528 0 C 984.038 0 848.057 135.981 848.057 303.472 C 848.057 346.997 857.24 388.394 873.775 425.829 C 910.405 407.016 951.925 396.404 995.904 396.404 C 1117.811 396.404 1220.823 477.946 1253.319 589.419 Z " fill-rule="evenodd" fill="white" stroke="none"/></mask><path d=" M 1253.319 589.419 C 1370.808 547.545 1455 435.263 1455 303.472 C 1455 135.981 1319.019 0 1151.528 0 C 984.038 0 848.057 135.981 848.057 303.472 C 848.057 346.997 857.24 388.394 873.775 425.829 C 910.405 407.016 951.925 396.404 995.904 396.404 C 1117.811 396.404 1220.823 477.946 1253.319 589.419 Z " fill-rule="evenodd" fill="none" mask="url(#_mask_PT2IGFjp6n5JquoviaPfk6yKcqcYElF0)" stroke-width="20" stroke="rgb(0,0,0)" stroke-linejoin="miter" stroke-linecap="square" stroke-miterlimit="3"/><mask id="_mask_oPfLPAqcLJRey5TliYMzmTdcQEoqQSOg"><path d=" M 1014.113 542.36 C 1073.658 551.154 1119.404 602.527 1119.404 664.5 C 1119.404 732.662 1064.065 788 995.904 788 C 946.344 788 903.563 758.744 883.916 716.569 C 941.483 671.455 986.822 611.445 1014.113 542.36 Z " fill-rule="evenodd" fill="white" stroke="none"/></mask><path d=" M 1014.113 542.36 C 1073.658 551.154 1119.404 602.527 1119.404 664.5 C 1119.404 732.662 1064.065 788 995.904 788 C 946.344 788 903.563 758.744 883.916 716.569 C 941.483 671.455 986.822 611.445 1014.113 542.36 Z " fill-rule="evenodd" fill="none" mask="url(#_mask_oPfLPAqcLJRey5TliYMzmTdcQEoqQSOg)" stroke-width="20" stroke="rgb(0,0,0)" stroke-linejoin="miter" stroke-linecap="square" stroke-miterlimit="3"/><mask id="_mask_POWo7lQQJa8hJS4bpmjWV1JIBlTAsGmX"><circle cx="1305.5319825741399" cy="606.93603485172" r="27.531982574139874" fill="white" stroke="none"/></mask><circle cx="1305.5319825741399" cy="606.93603485172" r="27.531982574139874" fill="none" mask="url(#_mask_POWo7lQQJa8hJS4bpmjWV1JIBlTAsGmX)" stroke-width="10" stroke="rgb(0,0,0)" stroke-linejoin="miter" stroke-linecap="square" stroke-miterlimit="3"/><mask id="_mask_fWGpI1VnrjqGJfVeiQ8o39YoyQwjfGfO"><circle cx="1282.2191748482196" cy="273.2191748482197" r="123.78082515178039" fill="white" stroke="none"/></mask><circle cx="1282.2191748482196" cy="273.2191748482197" r="123.78082515178039" fill="none" mask="url(#_mask_fWGpI1VnrjqGJfVeiQ8o39YoyQwjfGfO)" stroke-width="10" stroke="rgb(0,0,0)" stroke-linejoin="miter" stroke-linecap="square" stroke-miterlimit="3"/><mask id="_mask_n79t2vmtGojocgoNGZmZP1SFITFCEIz4"><circle cx="1282.2191748482196" cy="273.2191748482197" r="110.78082515178039" fill="white" stroke="none"/></mask><circle cx="1282.2191748482196" cy="273.2191748482197" r="110.78082515178039" fill="none" mask="url(#_mask_n79t2vmtGojocgoNGZmZP1SFITFCEIz4)" stroke-width="10" stroke="rgb(0,0,0)" stroke-linejoin="miter" stroke-linecap="square" stroke-miterlimit="3"/><mask id="_mask_jzVfLDI7nucDQGpzsRak8fQTTGbS87b0"><circle cx="1266.4999999999998" cy="160.50000000000003" r="24.5" fill="white" stroke="none"/></mask><circle cx="1266.4999999999998" cy="160.50000000000003" r="24.5" fill="none" mask="url(#_mask_jzVfLDI7nucDQGpzsRak8fQTTGbS87b0)" stroke-width="10" stroke="rgb(0,0,0)" stroke-linejoin="miter" stroke-linecap="square" stroke-miterlimit="3"/><mask id="_mask_U9WZCSbhOQgHNOf9X2JgxYRiJrCmXeEG"><circle cx="1011.1892261019866" cy="245.0931566288359" r="127.09315662883591" fill="white" stroke="none"/></mask><circle cx="1011.1892261019866" cy="245.0931566288359" r="127.09315662883591" fill="none" mask="url(#_mask_U9WZCSbhOQgHNOf9X2JgxYRiJrCmXeEG)" stroke-width="10" stroke="rgb(0,0,0)" stroke-linejoin="miter" stroke-linecap="square" stroke-miterlimit="3"/><line x1="1087" y1="345" x2="1184" y2="345" stroke-width="4" stroke="rgb(0,0,0)" stroke-linejoin="miter" stroke-linecap="round" stroke-miterlimit="3"/><circle cx="1132.5" cy="425.5" r="23.5" fill="rgb(0,0,0)"/><circle cx="1254.5" cy="583.43603485172" r="23.5" fill="rgb(0,0,0)"/><line x1="362.282" y1="707" x2="520" y2="707" stroke-width="4" stroke="rgb(0,0,0)" stroke-linejoin="miter" stroke-linecap="round" stroke-miterlimit="3"/><line x1="520" y1="707" x2="520" y2="525.429" stroke-width="4" stroke="rgb(0,0,0)" stroke-linejoin="miter" stroke-linecap="round" stroke-miterlimit="3"/><line x1="332" y1="634.468" x2="332" y2="355" stroke-width="4" stroke="rgb(0,0,0)" stroke-linejoin="miter" stroke-linecap="round" stroke-miterlimit="3"/><line x1="332" y1="355" x2="611" y2="355" stroke-width="4" stroke="rgb(0,0,0)" stroke-linejoin="miter" stroke-linecap="round" stroke-miterlimit="3"/><line x1="205.51" y1="667" x2="87" y2="667" stroke-width="4" stroke="rgb(0,0,0)" stroke-linejoin="miter" stroke-linecap="round" stroke-miterlimit="3"/><line x1="942.5" y1="665.18" x2="743" y2="665.18" stroke-width="4" stroke="rgb(0,0,0)" stroke-linejoin="miter" stroke-linecap="round" stroke-miterlimit="3"/><line x1="743" y1="665.18" x2="743" y2="404.714" stroke-width="4" stroke="rgb(0,0,0)" stroke-linejoin="miter" stroke-linecap="round" stroke-miterlimit="3"/><line x1="965" y1="634.468" x2="965" y2="262" stroke-width="4" stroke="rgb(0,0,0)" stroke-linejoin="miter" stroke-linecap="round" stroke-miterlimit="3"/><line x1="965" y1="262" x2="752.089" y2="262" stroke-width="4" stroke="rgb(0,0,0)" stroke-linejoin="miter" stroke-linecap="round" stroke-miterlimit="3"/></g></svg>
