<?xml version="1.0" standalone="no"?><!-- Generator: Gravit.io --><svg xmlns="http://www.w3.org/2000/svg" xmlns:xlink="http://www.w3.org/1999/xlink" style="isolation:isolate" viewBox="0 0 1191 1191" width="1191" height="1191"><defs><clipPath id="_clipPath_z05R3u8RHw1lfnQHP8g9v56wM9dDZ21g"><rect width="1191" height="1191"/></clipPath></defs><g clip-path="url(#_clipPath_z05R3u8RHw1lfnQHP8g9v56wM9dDZ21g)"><mask id="_mask_EPvti9sv4tsJXo1vaWxNar6B9LvG1zUx"><path d=" M 985.551 990.872 C 918.485 1057.049 834.685 1106.308 741.108 1131.7 C 659.076 998.425 511.841 909.5 344 909.5 C 280.303 909.5 219.574 922.308 164.259 945.504 C 86.577 849.953 40 728.123 40 595.5 C 40 470.644 81.281 355.354 150.947 262.562 C 202.598 289.97 261.5 305.5 324 305.5 C 489.726 305.5 630.15 196.307 677.173 45.995 C 785.122 61.922 883.002 108.951 961.392 177.684 C 927.236 190.962 903 224.173 903 263 C 903 313.5 944 354.5 994.5 354.5 C 1027.472 354.5 1056.394 337.022 1072.485 310.825 C 1122.344 394.088 1151 491.474 1151 595.5 C 1151 702.195 1120.855 801.904 1068.62 886.567 C 1056.156 866.14 1033.659 852.5 1008 852.5 C 968.814 852.5 937 884.314 937 923.5 C 937 954.842 957.352 981.468 985.551 990.872 Z " fill-rule="evenodd" fill="white" stroke="none"/></mask><path d=" M 985.551 990.872 C 918.485 1057.049 834.685 1106.308 741.108 1131.7 C 659.076 998.425 511.841 909.5 344 909.5 C 280.303 909.5 219.574 922.308 164.259 945.504 C 86.577 849.953 40 728.123 40 595.5 C 40 470.644 81.281 355.354 150.947 262.562 C 202.598 289.97 261.5 305.5 324 305.5 C 489.726 305.5 630.15 196.307 677.173 45.995 C 785.122 61.922 883.002 108.951 961.392 177.684 C 927.236 190.962 903 224.173 903 263 C 903 313.5 944 354.5 994.5 354.5 C 1027.472 354.5 1056.394 337.022 1072.485 310.825 C 1122.344 394.088 1151 491.474 1151 595.5 C 1151 702.195 1120.855 801.904 1068.62 886.567 C 1056.156 866.14 1033.659 852.5 1008 852.5 C 968.814 852.5 937 884.314 937 923.5 C 937 954.842 957.352 981.468 985.551 990.872 Z " fill-rule="evenodd" fill="none" mask="url(#_mask_EPvti9sv4tsJXo1vaWxNar6B9LvG1zUx)" stroke-width="40" stroke="rgb(0,0,0)" stroke-linejoin="miter" stroke-linecap="square" stroke-miterlimit="3"/><g><g><mask id="_mask_SRCyy0SF47Ne26cAQKLC4l0WTaGvmLXh"><circle cx="718.5" cy="860.9999999999999" r="137.5" fill="white" stroke="none"/></mask><circle cx="718.5" cy="860.9999999999999" r="137.5" fill="none" mask="url(#_mask_SRCyy0SF47Ne26cAQKLC4l0WTaGvmLXh)" stroke-width="20" stroke="rgb(0,0,0)" stroke-linejoin="miter" stroke-linecap="square" stroke-miterlimit="3"/><g><mask id="_mask_Iw7Sc8ueJriJjrpt4m0XFGDJvXFkTds9"><circle cx="812" cy="954.4999999999998" r="91" fill="white" stroke="none"/></mask><circle cx="812" cy="954.4999999999998" r="91" fill="none" mask="url(#_mask_Iw7Sc8ueJriJjrpt4m0XFGDJvXFkTds9)" stroke-width="10" stroke="rgb(0,0,0)" stroke-linejoin="miter" stroke-linecap="square" stroke-miterlimit="3"/><mask id="_mask_DstzlRGhEWtIQHCksKyqamTM91hrFksV"><circle cx="812" cy="954.4999999999999" r="21" fill="white" stroke="none"/></mask><circle cx="812" cy="954.4999999999999" r="21" fill="none" mask="url(#_mask_DstzlRGhEWtIQHCksKyqamTM91hrFksV)" stroke-width="10" stroke="rgb(0,0,0)" stroke-linejoin="miter" stroke-linecap="square" stroke-miterlimit="3"/></g></g><g><path d=" M 617.827 681.86 C 624.523 678.071 631.447 674.665 638.56 671.65 C 650.97 666.4 663.88 662.39 677.09 659.68 C 690.72 656.89 704.59 655.49 718.5 655.5 C 732.41 655.49 746.28 656.89 759.91 659.68 C 773.12 662.39 786.03 666.4 798.44 671.65 C 822.86 682 845.04 696.96 863.78 715.72 C 882.54 734.46 897.5 756.64 907.85 781.06 C 913.1 793.47 917.11 806.38 919.82 819.59 C 920.696 823.869 921.435 828.173 922.01 832.497 L 936.448 827.684 C 920.406 721.764 828.868 640.5 718.5 640.5 C 679.764 640.5 643.347 650.51 611.716 668.112 L 617.827 681.86 L 617.827 681.86 Z " fill="rgb(0,0,0)"/><mask id="_mask_ad7laAmkJuQczhUTr5Vuu2TmbEMuNU5C"><circle cx="1050" cy="781.0599975585936" r="18" fill="white" stroke="none"/></mask><circle cx="1050" cy="781.0599975585936" r="18" fill="none" mask="url(#_mask_ad7laAmkJuQczhUTr5Vuu2TmbEMuNU5C)" stroke-width="10" stroke="rgb(0,0,0)" stroke-linejoin="miter" stroke-linecap="square" stroke-miterlimit="3"/><mask id="_mask_5o8hxeGghLqnkOozeagUt8oVgz6Gqmex"><path d=" M 954.651 372.366 C 1039.35 412.414 1098 498.662 1098 598.5 C 1098 717.91 1014.101 817.879 902.085 842.622 C 892.857 749.407 814.126 676.5 718.5 676.5 C 682.874 676.5 649.593 686.619 621.377 704.139 C 606.381 672.04 598 636.241 598 598.5 C 598 579.044 600.227 560.104 604.453 541.926 C 640.668 567.485 684.844 582.5 732.5 582.5 C 851.151 582.5 948.235 489.426 954.651 372.366 Z " fill-rule="evenodd" fill="white" stroke="none"/></mask><path d=" M 954.651 372.366 C 1039.35 412.414 1098 498.662 1098 598.5 C 1098 717.91 1014.101 817.879 902.085 842.622 C 892.857 749.407 814.126 676.5 718.5 676.5 C 682.874 676.5 649.593 686.619 621.377 704.139 C 606.381 672.04 598 636.241 598 598.5 C 598 579.044 600.227 560.104 604.453 541.926 C 640.668 567.485 684.844 582.5 732.5 582.5 C 851.151 582.5 948.235 489.426 954.651 372.366 Z " fill-rule="evenodd" fill="none" mask="url(#_mask_5o8hxeGghLqnkOozeagUt8oVgz6Gqmex)" stroke-width="20" stroke="rgb(0,0,0)" stroke-linejoin="miter" stroke-linecap="square" stroke-miterlimit="3"/><path d=" M 602.519 591.49 C 640.939 613.151 685.289 625.5 732.5 625.5 C 864.73 625.5 974.512 528.625 994.636 402.021 L 980.995 391.97 C 980.184 398.167 979.161 404.338 977.91 410.47 C 974.61 426.58 969.72 442.31 963.31 457.45 C 950.7 487.21 932.46 514.25 909.59 537.09 C 886.75 559.96 859.71 578.2 829.95 590.81 C 814.81 597.22 799.08 602.11 782.97 605.41 C 766.36 608.8 749.45 610.51 732.5 610.5 C 715.55 610.51 698.64 608.8 682.03 605.41 C 665.92 602.11 650.19 597.22 635.05 590.81 C 624.226 586.224 613.762 580.893 603.754 574.826 L 602.519 591.49 L 602.519 591.49 Z " fill="rgb(0,0,0)"/><path d=" M 935.16 518.954 C 949.366 548.471 957 583.617 957 625.5 C 956.893 685.714 927.444 738.851 885 772.5 L 896 797.5 C 939.713 763.243 970 697.835 970 625.5 C 970 582.1 955.098 545.404 937.794 515.442 L 935.16 518.954 L 935.16 518.954 Z " fill="rgb(0,0,0)"/><path d=" M 669.868 678.136 C 701.256 714.177 753.845 713.483 792 685.5 L 813 697.5 C 772.594 727.626 697.555 718.34 665.145 678.862 L 669.868 678.136 L 669.868 678.136 Z " fill="rgb(0,0,0)"/><circle cx="953.2349395751953" cy="402.0209045410155" r="22.765060424804688" fill="rgb(0,0,0)"/><circle cx="942.2349395751953" cy="447.2650604248046" r="18.234939575195312" fill="rgb(0,0,0)"/><circle cx="925.3937123334529" cy="480.106287666547" r="14.606287666547132" fill="rgb(0,0,0)"/></g><g><mask id="_mask_BqlLojr83HbE3rYAfOI4ceTgIso5kcb0"><circle cx="732.5" cy="359.9999999999999" r="148.7349395751953" fill="white" stroke="none"/></mask><circle cx="732.5" cy="359.9999999999999" r="148.7349395751953" fill="none" mask="url(#_mask_BqlLojr83HbE3rYAfOI4ceTgIso5kcb0)" stroke-width="20" stroke="rgb(0,0,0)" stroke-linejoin="miter" stroke-linecap="square" stroke-miterlimit="3"/><mask id="_mask_irnC9Y7OThiB5JrpSmjhfmAezx4UwAij"><circle cx="707.8156686163364" cy="413.6420166313941" r="66.46427103515282" fill="white" stroke="none"/></mask><circle cx="707.8156686163364" cy="413.6420166313941" r="66.46427103515282" fill="none" mask="url(#_mask_irnC9Y7OThiB5JrpSmjhfmAezx4UwAij)" stroke-width="10" stroke="rgb(0,0,0)" stroke-linejoin="miter" stroke-linecap="square" stroke-miterlimit="3"/><mask id="_mask_vBMvSEJFND0k81sNzQnVjcw9QBGIKrs9"><circle cx="774.2799396514893" cy="234.54500007629383" r="106.95499992370605" fill="white" stroke="none"/></mask><circle cx="774.2799396514893" cy="234.54500007629383" r="106.95499992370605" fill="none" mask="url(#_mask_vBMvSEJFND0k81sNzQnVjcw9QBGIKrs9)" stroke-width="10" stroke="rgb(0,0,0)" stroke-linejoin="miter" stroke-linecap="square" stroke-miterlimit="3"/><circle cx="843.7799987792969" cy="267.4999999999999" r="20" fill="rgb(0,0,0)"/><circle cx="690.0900001525879" cy="247.54500007629383" r="13" fill="rgb(0,0,0)"/></g><path d=" M 460.353 529.324 C 532.875 552.589 634.662 528.455 687 474.5 C 675.12 468.549 666.463 463.226 661 458.5 C 609.385 510.751 531.75 542.839 460.796 525.34 L 460.353 529.324 L 460.353 529.324 Z " fill="rgb(0,0,0)"/><g><mask id="_mask_LDq2Sv5OiyTajZXVPDLGg16E8nea9G7M"><circle cx="330" cy="786.5599975585936" r="20.921087091615618" fill="white" stroke="none"/></mask><circle cx="330" cy="786.5599975585936" r="20.921087091615618" fill="none" mask="url(#_mask_LDq2Sv5OiyTajZXVPDLGg16E8nea9G7M)" stroke-width="10" stroke="rgb(0,0,0)" stroke-linejoin="miter" stroke-linecap="square" stroke-miterlimit="3"/><path d=" M 492.794 434.809 C 491.025 438.622 489.322 442.469 487.679 446.345 C 477.671 469.987 470.027 494.565 464.875 519.724 C 459.575 545.641 456.916 572.041 456.925 598.5 C 456.916 624.959 459.575 651.349 464.875 677.276 C 470.027 702.435 477.671 727.013 487.679 750.655 C 494.408 766.537 502.164 781.924 510.88 796.725 L 507.286 800.319 C 472.171 741.203 452 672.188 452 598.5 C 452 538.97 465.164 482.491 488.735 431.816 L 492.794 434.809 L 492.794 434.809 Z " fill="rgb(0,0,0)"/><mask id="_mask_MbDDkEQ0dHWs4vtbnK5ntuytJVjvxwmV"><circle cx="460.35284547076293" cy="415.71784896638746" r="25.782151033612422" fill="white" stroke="none"/></mask><circle cx="460.35284547076293" cy="415.71784896638746" r="25.782151033612422" fill="none" mask="url(#_mask_MbDDkEQ0dHWs4vtbnK5ntuytJVjvxwmV)" stroke-width="10" stroke="rgb(0,0,0)" stroke-linejoin="miter" stroke-linecap="square" stroke-miterlimit="3"/><path d=" M 442.346 430.515 C 428.951 442.519 423.98 459.745 424 477.5 L 424 477.5 C 425.062 502.473 436.952 519.119 459.34 531.5 L 458 544.5 C 432.58 534.477 418.711 504.699 418.74 477.5 L 418.74 477.5 L 418.74 477.5 L 418.74 477.5 C 418.72 458.593 425.39 440.206 439.791 427.449 L 439.791 427.449 L 442.346 430.515 L 442.346 430.515 Z " fill="rgb(0,0,0)"/><mask id="_mask_LPxY0GStIA831JtvzYaUZZArClcKvBGb"><circle cx="332.7650604248001" cy="474.99694739150243" r="69.50305260849746" fill="white" stroke="none"/></mask><circle cx="332.7650604248001" cy="474.99694739150243" r="69.50305260849746" fill="none" mask="url(#_mask_LPxY0GStIA831JtvzYaUZZArClcKvBGb)" stroke-width="10" stroke="rgb(0,0,0)" stroke-linejoin="miter" stroke-linecap="square" stroke-miterlimit="3"/><path d=" M 339.867 541.5 C 347.805 597.353 411.778 599.646 455 579.5 L 454.697 598.683 C 409.166 618.917 343.755 599.859 335.834 541.5 L 339.867 541.5 L 339.867 541.5 Z " fill="rgb(0,0,0)"/><mask id="_mask_9WAP9GEokB1A3CaxrCS0QJMeHQVQKlT5"><circle cx="245.5441588499151" cy="363.33401038996163" r="17.717848966387578" fill="white" stroke="none"/></mask><circle cx="245.5441588499151" cy="363.33401038996163" r="17.717848966387578" fill="none" mask="url(#_mask_9WAP9GEokB1A3CaxrCS0QJMeHQVQKlT5)" stroke-width="10" stroke="rgb(0,0,0)" stroke-linejoin="miter" stroke-linecap="square" stroke-miterlimit="3"/><mask id="_mask_rxRdsTuqsm7yKmyaDyU4GaeAaJz5I5I1"><path d=" M 91.651 555.608 C 85.212 577.795 81.765 601.248 81.765 625.5 C 81.765 754.39 179.125 860.72 304.25 874.898 C 265.989 863.752 238 828.399 238 786.56 C 238 735.784 279.224 694.56 330 694.56 C 380.776 694.56 422 735.784 422 786.56 C 422 829.484 392.541 865.581 352.748 875.702 C 424.358 870.057 487.553 834.3 529.667 781.106 C 498.705 727.322 481 664.962 481 598.5 C 481 545.71 492.17 495.508 512.28 450.134 C 466.689 403.48 403.085 374.5 332.765 374.5 C 291.16 374.5 251.907 384.644 217.348 402.6 C 234.797 420.545 245.544 445.037 245.544 472.019 C 245.544 527.019 200.891 571.673 145.891 571.673 C 125.892 571.673 107.262 565.769 91.651 555.608 Z " fill-rule="evenodd" fill="white" stroke="none"/></mask><path d=" M 91.651 555.608 C 85.212 577.795 81.765 601.248 81.765 625.5 C 81.765 754.39 179.125 860.72 304.25 874.898 C 265.989 863.752 238 828.399 238 786.56 C 238 735.784 279.224 694.56 330 694.56 C 380.776 694.56 422 735.784 422 786.56 C 422 829.484 392.541 865.581 352.748 875.702 C 424.358 870.057 487.553 834.3 529.667 781.106 C 498.705 727.322 481 664.962 481 598.5 C 481 545.71 492.17 495.508 512.28 450.134 C 466.689 403.48 403.085 374.5 332.765 374.5 C 291.16 374.5 251.907 384.644 217.348 402.6 C 234.797 420.545 245.544 445.037 245.544 472.019 C 245.544 527.019 200.891 571.673 145.891 571.673 C 125.892 571.673 107.262 565.769 91.651 555.608 Z " fill-rule="evenodd" fill="none" mask="url(#_mask_rxRdsTuqsm7yKmyaDyU4GaeAaJz5I5I1)" stroke-width="20" stroke="rgb(0,0,0)" stroke-linejoin="miter" stroke-linecap="square" stroke-miterlimit="3"/><mask id="_mask_uS2Iuro0icwPQrbRykEdTKDJTtkI4DTp"><circle cx="145.890626286493" cy="472.01907439995205" r="21.01200334856449" fill="white" stroke="none"/></mask><circle cx="145.890626286493" cy="472.01907439995205" r="21.01200334856449" fill="none" mask="url(#_mask_uS2Iuro0icwPQrbRykEdTKDJTtkI4DTp)" stroke-width="10" stroke="rgb(0,0,0)" stroke-linejoin="miter" stroke-linecap="square" stroke-miterlimit="3"/><mask id="_mask_ALw33XHoNT9CV9e12LbxIWba8asKxWSw"><circle cx="185.90308333310884" cy="676.5944903975255" r="70.09691666689113" fill="white" stroke="none"/></mask><circle cx="185.90308333310884" cy="676.5944903975255" r="70.09691666689113" fill="none" mask="url(#_mask_ALw33XHoNT9CV9e12LbxIWba8asKxWSw)" stroke-width="10" stroke="rgb(0,0,0)" stroke-linejoin="miter" stroke-linecap="square" stroke-miterlimit="3"/><path d=" M 148 490.5 C 185.136 510.571 227 537.297 227 592.48 C 227 602.72 226.025 612.344 224.167 621.333 L 227.726 623.875 C 229.87 614.138 232 603.666 232 592.48 C 232.667 531.214 202.651 487.071 164 466.5 L 161 483.5 L 148 490.5 Z " fill="rgb(0,0,0)"/><mask id="_mask_ICx8bed1XhYIzM8q7VIuUWgZ5qtIrT3c"><circle cx="115.80616666621768" cy="612.4999999999999" r="17" fill="white" stroke="none"/></mask><circle cx="115.80616666621768" cy="612.4999999999999" r="17" fill="none" mask="url(#_mask_ICx8bed1XhYIzM8q7VIuUWgZ5qtIrT3c)" stroke-width="10" stroke="rgb(0,0,0)" stroke-linejoin="miter" stroke-linecap="square" stroke-miterlimit="3"/><circle cx="330" cy="691.4999999999999" r="28" fill="rgb(0,0,0)"/><circle cx="395.41681563648757" cy="713.4999999999999" r="23.323128879090916" fill="rgb(0,0,0)"/><circle cx="424" cy="765.6389104669779" r="19.427440739667304" fill="rgb(0,0,0)"/></g><path d=" M 728.973 352.921 C 717.851 367.171 710.981 385.867 711 409 L 711 409 L 711 409 C 710.979 435.66 720.562 456.278 735.393 470.864 L 720 476.5 C 707.381 458.405 702.381 431.738 703 409 L 703 409 C 702.696 386.545 713.766 366.432 724.827 351.736 L 728.973 352.921 L 728.973 352.921 Z " fill="rgb(0,0,0)"/><path d=" M 841.75 590.905 C 887.671 667.076 1033.081 649.495 1033 538.17 L 1033 538.17 L 1033 538.17 C 1033.033 492.962 1008.124 463.522 975.658 449.849 L 973.686 453.3 C 1004.988 466.388 1023.033 494.677 1023 538.17 L 1023 538.17 C 1022.143 621.429 911.639 649.818 867 577.5 L 841.75 590.905 L 841.75 590.905 Z " fill="rgb(0,0,0)"/><path d=" M 1033 538.17 C 1033 538.17 1033 538.17 1033 538.17 L 1033 538.17 L 1033 538.17 Z  M 1029 538.17 C 1029 538.17 1029 538.17 1029 538.17 L 1029 538.17 L 1029 538.17 Z " fill-rule="evenodd" fill="rgb(0,0,0)"/></g><mask id="_mask_2Ybs0t1B4V31Uqs64MCIXgbGLDG7lDeq"><circle cx="595.5" cy="595.5" r="595.5" fill="white" stroke="none"/></mask><circle cx="595.5" cy="595.5" r="595.5" fill="none" mask="url(#_mask_2Ybs0t1B4V31Uqs64MCIXgbGLDG7lDeq)" stroke-width="40" stroke="rgb(0,0,0)" stroke-linejoin="miter" stroke-linecap="square" stroke-miterlimit="3"/></g></svg>
