<?xml version="1.0" standalone="no"?><!-- Generator: Gravit.io --><svg xmlns="http://www.w3.org/2000/svg" xmlns:xlink="http://www.w3.org/1999/xlink" style="isolation:isolate" viewBox="0 0 273.5 293.027" width="273.5" height="293.027"><defs><clipPath id="_clipPath_zsQZBoM08KAU86tRpQobq66C1QGHYlHJ"><rect width="273.5" height="293.027"/></clipPath></defs><g clip-path="url(#_clipPath_zsQZBoM08KAU86tRpQobq66C1QGHYlHJ)"><mask id="_mask_9LCWhUG6lEHcruSOK3n2Za2VEILiY76a"><circle cx="156" cy="265.466688977355" r="17" fill="white" stroke="none"/></mask><circle cx="156" cy="265.466688977355" r="17" fill="none" mask="url(#_mask_9LCWhUG6lEHcruSOK3n2Za2VEILiY76a)" stroke-width="10" stroke="rgb(0,0,0)" stroke-linejoin="miter" stroke-linecap="square" stroke-miterlimit="3"/><mask id="_mask_NwlY0c27rS53XLNXlDX8WIm0H7RpiZki"><circle cx="211" cy="134" r="46" fill="white" stroke="none"/></mask><circle cx="211" cy="134" r="46" fill="none" mask="url(#_mask_NwlY0c27rS53XLNXlDX8WIm0H7RpiZki)" stroke-width="10" stroke="rgb(0,0,0)" stroke-linejoin="miter" stroke-linecap="square" stroke-miterlimit="3"/><mask id="_mask_sXgcTstUn9Q04faDp3AY6hAIZZsDt4SO"><path d=" M 228.686 35.628 C 254.739 60.331 271 95.265 271 133.967 C 271 171.484 255.719 205.461 231.03 229.989 C 217.729 201.903 189.116 182.467 156 182.467 C 113.881 182.467 79.047 213.908 73.708 254.579 C 29.961 232.092 0 186.5 0 133.967 C 0 77.742 34.319 29.469 83.146 8.996 C 83.045 10.474 83 11.968 83 13.472 C 83 54.605 116.395 88 157.528 88 C 190.945 88 219.255 65.959 228.686 35.628 Z " fill-rule="evenodd" fill="white" stroke="none"/></mask><path d=" M 228.686 35.628 C 254.739 60.331 271 95.265 271 133.967 C 271 171.484 255.719 205.461 231.03 229.989 C 217.729 201.903 189.116 182.467 156 182.467 C 113.881 182.467 79.047 213.908 73.708 254.579 C 29.961 232.092 0 186.5 0 133.967 C 0 77.742 34.319 29.469 83.146 8.996 C 83.045 10.474 83 11.968 83 13.472 C 83 54.605 116.395 88 157.528 88 C 190.945 88 219.255 65.959 228.686 35.628 Z " fill-rule="evenodd" fill="none" mask="url(#_mask_sXgcTstUn9Q04faDp3AY6hAIZZsDt4SO)" stroke-width="20" stroke="rgb(0,0,0)" stroke-linejoin="miter" stroke-linecap="square" stroke-miterlimit="3"/><circle cx="121.5" cy="37.966688977355034" r="17.5" fill="rgb(0,0,0)"/><circle cx="150.25" cy="62.216688977355034" r="14.749999999999972" fill="rgb(0,0,0)"/><mask id="_mask_o3DlmpeT8RAAg7IkbD7jJhRp0jTO6fTC"><circle cx="157.5281925305751" cy="13.471807469425016" r="13.471807469425016" fill="white" stroke="none"/></mask><circle cx="157.5281925305751" cy="13.471807469425016" r="13.471807469425016" fill="none" mask="url(#_mask_o3DlmpeT8RAAg7IkbD7jJhRp0jTO6fTC)" stroke-width="10" stroke="rgb(0,0,0)" stroke-linejoin="miter" stroke-linecap="square" stroke-miterlimit="3"/><mask id="_mask_G1nPXVt3ICj9yqkyeHs2KbIbpW2zvf5H"><circle cx="72.57082775566118" cy="130.53751673301628" r="58.92917224433881" fill="white" stroke="none"/></mask><circle cx="72.57082775566118" cy="130.53751673301628" r="58.92917224433881" fill="none" mask="url(#_mask_G1nPXVt3ICj9yqkyeHs2KbIbpW2zvf5H)" stroke-width="10" stroke="rgb(0,0,0)" stroke-linejoin="miter" stroke-linecap="square" stroke-miterlimit="3"/><mask id="_mask_9v8jTZa3yoY3FFSVotMkHXNzhRaUTChy"><circle cx="72.57082775566118" cy="130.53751673301633" r="15.429172244338758" fill="white" stroke="none"/></mask><circle cx="72.57082775566118" cy="130.53751673301633" r="15.429172244338758" fill="none" mask="url(#_mask_9v8jTZa3yoY3FFSVotMkHXNzhRaUTChy)" stroke-width="10" stroke="rgb(0,0,0)" stroke-linejoin="miter" stroke-linecap="square" stroke-miterlimit="3"/><path d=" M 120.463 160.656 C 128.062 164.879 136.681 167.137 145.53 167.137 C 156.102 167.137 166.351 163.91 174.937 157.979 L 172.034 153.915 C 164.294 159.241 155.058 162.137 145.53 162.137 C 137.561 162.137 129.796 160.111 122.942 156.318 L 120.463 160.656 L 120.463 160.656 Z " fill="rgb(0,0,0)"/><path d=" M 163.763 22.501 C 169.379 23.898 174.886 25.744 180.24 28.007 C 193.9 33.797 206.32 42.167 216.8 52.667 C 227.3 63.147 235.67 75.567 241.46 89.227 C 247.44 103.377 250.51 118.597 250.5 133.967 C 250.51 149.337 247.44 164.557 241.46 178.707 C 236.753 189.81 230.342 200.095 222.476 209.191 L 225.856 212.909 C 234.25 203.313 241.072 192.425 246.06 180.657 C 252.3 165.887 255.51 150.007 255.5 133.967 C 255.51 117.927 252.3 102.047 246.06 87.277 C 240.02 73.027 231.29 60.067 220.34 49.127 C 209.4 38.177 196.44 29.447 182.19 23.407 C 177.347 21.361 172.385 19.64 167.336 18.256 L 163.763 22.501 L 163.763 22.501 Z " fill="rgb(0,0,0)"/><path d=" M 254.587 186.293 C 258.285 190.796 261.305 195.825 263.59 201.207 C 266.84 208.907 268.51 217.177 268.5 225.527 C 268.51 233.877 266.84 242.147 263.59 249.847 C 260.44 257.267 255.89 264.017 250.19 269.707 C 244.49 275.417 237.74 279.967 230.32 283.117 C 222.62 286.357 214.35 288.037 206 288.027 C 197.65 288.037 189.38 286.357 181.68 283.117 C 176.388 280.87 171.436 277.911 166.99 274.294 L 163.511 277.9 C 168.403 281.938 173.876 285.231 179.74 287.717 C 188.05 291.227 196.98 293.037 206 293.027 C 215.02 293.037 223.95 291.227 232.26 287.717 C 240.28 284.317 247.57 279.407 253.72 273.247 C 259.88 267.097 264.79 259.807 268.19 251.787 C 271.7 243.477 273.51 234.547 273.5 225.527 C 273.51 216.507 271.7 207.577 268.19 199.257 C 265.428 192.75 261.67 186.719 257.029 181.408 L 254.587 186.293 L 254.587 186.293 Z " fill="rgb(0,0,0)"/><path d=" M 76.616 225.042 C 81.898 228.465 87.479 231.429 93.3 233.897 C 106.65 239.537 121 242.437 135.5 242.427 C 150 242.437 164.35 239.537 177.7 233.897 C 190.58 228.437 202.29 220.547 212.18 210.647 C 214.599 208.23 216.898 205.705 219.055 203.067 L 215.175 199.907 C 213.124 202.412 210.938 204.811 208.64 207.107 C 199.21 216.547 188.04 224.087 175.75 229.297 C 163.02 234.667 149.33 237.437 135.5 237.427 C 121.67 237.437 107.98 234.667 95.25 229.297 C 89.717 226.951 84.411 224.133 79.39 220.882 L 76.616 225.042 L 76.616 225.042 Z " fill="rgb(0,0,0)"/></g></svg>
