<?xml version="1.0" standalone="no"?><!-- Generator: Gravit.io --><svg xmlns="http://www.w3.org/2000/svg" xmlns:xlink="http://www.w3.org/1999/xlink" style="isolation:isolate" viewBox="0 0 2518 2524.206" width="2518" height="2524.206"><defs><clipPath id="_clipPath_mT1JXobuXTlQtnShsWDhnHyLdDe41xLz"><rect width="2518" height="2524.206"/></clipPath></defs><g clip-path="url(#_clipPath_mT1JXobuXTlQtnShsWDhnHyLdDe41xLz)"><g><path d=" M 1302.758 1913.645 C 1209.198 1934.19 1133.412 2010.467 1118.323 2110.776 C 1098.785 2240.671 1188.379 2361.992 1318.274 2381.531 C 1392.238 2392.656 1463.422 2368.397 1514.619 2321.463 C 1503.653 2321.223 1492.58 2320.277 1481.45 2318.602 C 1338.457 2297.093 1239.827 2163.538 1261.336 2020.545 C 1267.287 1980.979 1281.818 1944.809 1302.758 1913.645 Z " fill-rule="evenodd" fill="none" stroke-width="10" stroke="rgb(0,0,0)" stroke-linejoin="miter" stroke-linecap="square" stroke-miterlimit="3"/><path d=" M 1266.923 2020.375 C 1247.003 2017.378 1233.262 1998.772 1236.259 1978.851 C 1239.255 1958.931 1257.861 1945.19 1277.782 1948.187 C 1297.703 1951.183 1311.443 1969.789 1308.447 1989.71 C 1305.45 2009.631 1286.844 2023.371 1266.923 2020.375 Z " fill="rgb(0,0,0)"/><path d=" M 1425.369 2338.482 C 1406.539 2335.649 1393.552 2318.063 1396.384 2299.234 C 1399.217 2280.404 1416.803 2267.417 1435.632 2270.249 C 1454.461 2273.081 1467.449 2290.668 1464.617 2309.497 C 1461.784 2328.326 1444.198 2341.314 1425.369 2338.482 Z " fill="none" stroke-width="5" stroke="rgb(0,0,0)" stroke-linejoin="miter" stroke-linecap="square" stroke-miterlimit="3"/></g><path d=" M 1606.293 1947.321 C 1584.189 1943.996 1568.943 1923.351 1572.267 1901.247 C 1575.592 1879.144 1596.237 1863.897 1618.341 1867.222 C 1640.445 1870.547 1655.691 1891.192 1652.366 1913.296 C 1649.041 1935.4 1628.397 1950.646 1606.293 1947.321 Z " fill="none" stroke-width="5" stroke="rgb(0,0,0)" stroke-linejoin="miter" stroke-linecap="square" stroke-miterlimit="3"/><path d=" M 1493.666 2237.388 C 1395.496 2222.621 1327.783 2130.931 1342.55 2032.762 C 1357.317 1934.592 1449.007 1866.879 1547.177 1881.646 C 1645.346 1896.412 1713.059 1988.103 1698.292 2086.272 C 1683.526 2184.442 1591.836 2252.155 1493.666 2237.388 Z " fill="none" stroke-width="10" stroke="rgb(0,0,0)" stroke-linejoin="miter" stroke-linecap="square" stroke-miterlimit="3"/><circle cx="1909.2399127895699" cy="1919.1853546997263" r="169.41832161449724" fill="none" stroke-width="10" stroke="rgb(0,0,0)" stroke-linejoin="miter" stroke-linecap="square" stroke-miterlimit="3"/><circle cx="1885.8215911750724" cy="2125.4863687063644" r="27" fill="none" stroke-width="5" stroke="rgb(0,0,0)" stroke-linejoin="miter" stroke-linecap="square" stroke-miterlimit="3"/><circle cx="1944.8215911750722" cy="1888.6036763142238" r="106.99999999999989" fill="none" stroke-width="5" stroke="rgb(0,0,0)" stroke-linejoin="miter" stroke-linecap="square" stroke-miterlimit="3"/><circle cx="1163.2514532145888" cy="484.1330049972955" r="25.251453214588537" fill="rgb(0,0,0)"/><circle cx="1305.0000000000005" cy="54" r="54" fill="rgb(0,0,0)"/><line x1="445.386" y1="1354.206" x2="1014.143" y2="1354.206" stroke-width="4" stroke="rgb(0,0,0)" stroke-linejoin="miter" stroke-linecap="round" stroke-miterlimit="3"/><circle cx="1860.9183216144975" cy="1679.2873827130027" r="41.918321614497245" fill="none" stroke-width="5" stroke="rgb(0,0,0)" stroke-linejoin="miter" stroke-linecap="square" stroke-miterlimit="3"/><path d=" M 1754.046 1463.69 C 1751.934 1475.377 1750.837 1487.414 1750.837 1499.706 C 1750.837 1611.468 1841.574 1702.206 1953.337 1702.206 C 2065.099 1702.206 2155.837 1611.468 2155.837 1499.706 C 2155.837 1446.331 2135.142 1397.753 2101.347 1361.561 C 2068.869 1447.235 1985.999 1508.206 1889 1508.206 C 1838.471 1508.206 1791.776 1491.661 1754.046 1463.69 Z " fill-rule="evenodd" fill="none" stroke-width="10" stroke="rgb(0,0,0)" stroke-linejoin="miter" stroke-linecap="square" stroke-miterlimit="3"/><circle cx="1958.500000000001" cy="1137.7057043275" r="22.5" fill="rgb(0,0,0)"/><circle cx="1787.5" cy="1251.7057043274997" r="46.5" fill="none" stroke-width="5" stroke="rgb(0,0,0)" stroke-linejoin="miter" stroke-linecap="square" stroke-miterlimit="3"/><circle cx="1539.0000000000005" cy="964.2057043274997" r="68.99999999999977" fill="rgb(0,0,0)"/><circle cx="1648.5000000000002" cy="1068.7057043275004" r="47.499999999999545" fill="rgb(0,0,0)"/><circle cx="1750.8366432290002" cy="1120.9049796898184" r="32.6992753623183" fill="rgb(0,0,0)"/><path d=" M 1972.07 1061.364 C 1972.692 1069.229 1973 1077.182 1973 1085.206 C 1973 1102.636 1971.544 1119.728 1968.749 1136.369 C 1963.639 1136.15 1958.5 1136.042 1953.337 1136.042 C 1792.085 1136.042 1655.206 1241.22 1607.616 1386.655 C 1466.06 1359.352 1359 1234.683 1359 1085.206 C 1359 1009.407 1386.529 939.988 1432.129 886.411 C 1506.254 1012.626 1643.429 1097.431 1800.255 1097.431 C 1861.367 1097.431 1919.495 1084.553 1972.07 1061.364 Z " fill-rule="evenodd" fill="none" stroke-width="10" stroke="rgb(0,0,0)" stroke-linejoin="miter" stroke-linecap="square" stroke-miterlimit="3"/><circle cx="1691.0000000000005" cy="964.2057043274997" r="42.5" fill="none" stroke-width="5" stroke="rgb(0,0,0)" stroke-linejoin="miter" stroke-linecap="square" stroke-miterlimit="3"/><circle cx="1800.2549648434997" cy="670.8181132009299" r="174.38759112656976" fill="none" stroke-width="10" stroke="rgb(0,0,0)" stroke-linejoin="miter" stroke-linecap="square" stroke-miterlimit="3"/><circle cx="1668.5000000000002" cy="779.7057043274997" r="30.5" fill="none" stroke-width="5" stroke="rgb(0,0,0)" stroke-linejoin="miter" stroke-linecap="square" stroke-miterlimit="3"/><mask id="_mask_p5G4sipt0irN6Qglg1mTt4pUfmq5ibJA"><path d=" M 1128.171 589.915 C 1114.464 551.866 1107 510.849 1107 468.103 C 1107 269.357 1268.357 108 1467.103 108 C 1657.251 108 1813.175 255.698 1826.297 442.533 C 1817.749 441.569 1809.059 441.073 1800.255 441.073 C 1673.455 441.073 1570.51 544.018 1570.51 670.818 C 1570.51 718.219 1584.896 762.287 1609.545 798.882 C 1565.852 817.753 1517.689 828.206 1467.103 828.206 C 1384.314 828.206 1308.013 800.207 1247.163 753.167 C 1262.018 757.539 1277.738 759.884 1294 759.884 C 1385.556 759.884 1459.888 685.552 1459.888 593.996 C 1459.888 502.441 1385.556 428.109 1294 428.109 C 1203.809 428.109 1130.333 500.241 1128.171 589.915 Z " fill-rule="evenodd" fill="white" stroke="none"/></mask><path d=" M 1128.171 589.915 C 1114.464 551.866 1107 510.849 1107 468.103 C 1107 269.357 1268.357 108 1467.103 108 C 1657.251 108 1813.175 255.698 1826.297 442.533 C 1817.749 441.569 1809.059 441.073 1800.255 441.073 C 1673.455 441.073 1570.51 544.018 1570.51 670.818 C 1570.51 718.219 1584.896 762.287 1609.545 798.882 C 1565.852 817.753 1517.689 828.206 1467.103 828.206 C 1384.314 828.206 1308.013 800.207 1247.163 753.167 C 1262.018 757.539 1277.738 759.884 1294 759.884 C 1385.556 759.884 1459.888 685.552 1459.888 593.996 C 1459.888 502.441 1385.556 428.109 1294 428.109 C 1203.809 428.109 1130.333 500.241 1128.171 589.915 Z " fill-rule="evenodd" fill="none" mask="url(#_mask_p5G4sipt0irN6Qglg1mTt4pUfmq5ibJA)" stroke-width="20" stroke="rgb(0,0,0)" stroke-linejoin="miter" stroke-linecap="square" stroke-miterlimit="3"/><path d=" M 1814.918 399.093 C 1602.731 388.352 1457.747 626.388 1566.411 809.029 L 1571.562 807.91 L 1571.562 807.91 C 1463.15 628.133 1606.233 392.856 1815.589 404.127 L 1814.918 399.093 L 1814.918 399.093 Z " fill="rgb(0,0,0)"/><circle cx="1872.951533779864" cy="392.15723810736364" r="35.95153377986367" fill="none" stroke-width="5" stroke="rgb(0,0,0)" stroke-linejoin="miter" stroke-linecap="square" stroke-miterlimit="3"/><circle cx="1486.0000000000005" cy="285.2357043274998" r="127.00000000000023" fill="none" stroke-width="5" stroke="rgb(0,0,0)" stroke-linejoin="miter" stroke-linecap="square" stroke-miterlimit="3"/><circle cx="1340.9757668899322" cy="428.1087718872273" r="56.02423311006805" fill="rgb(0,0,0)"/><circle cx="1230.4389530422884" cy="436.3547250988708" r="37.61240887343024" fill="rgb(0,0,0)"/><g><circle cx="1064.5000000000002" cy="655.7057043275036" r="29.500000000003638" fill="rgb(0,0,0)"/><circle cx="1094.5000000000002" cy="135.70570432749997" r="20.5" fill="none" stroke-width="5" stroke="rgb(0,0,0)" stroke-linejoin="miter" stroke-linecap="square" stroke-miterlimit="3"/><path d=" M 980.492 139.367 C 1030.235 140.916 1076.519 156.278 1115.648 181.733 C 1053.45 259.039 1016.206 357.256 1016.206 464.103 C 1016.206 531.528 1031.037 595.516 1057.619 652.978 C 1030.768 662.203 1001.964 667.206 972 667.206 C 889.233 667.206 815.311 629.035 766.894 569.351 C 768.154 569.022 769.414 568.693 770.674 568.355 C 939.487 523.122 1039.817 349.344 994.584 180.532 C 990.773 166.308 986.049 152.571 980.492 139.367 Z " fill-rule="evenodd" fill="none" stroke-width="10" stroke="rgb(0,0,0)" stroke-linejoin="miter" stroke-linecap="square" stroke-miterlimit="3"/><circle cx="997.6409166252818" cy="333.2057043275" r="16" fill="rgb(0,0,0)"/><circle cx="1005.3379237276038" cy="274.86778059989643" r="18.33792372760354" fill="rgb(0,0,0)"/><circle cx="1002.6583820402445" cy="213.18823891253732" r="21.017465414962658" fill="rgb(0,0,0)"/><circle cx="777.5000000000001" cy="500.38155178270677" r="41.5" fill="none" stroke-width="5" stroke="rgb(0,0,0)" stroke-linejoin="miter" stroke-linecap="square" stroke-miterlimit="3"/></g><g><circle cx="574.0000000000001" cy="657.3844582118838" r="148" fill="none" stroke-width="10" stroke="rgb(0,0,0)" stroke-linejoin="miter" stroke-linecap="square" stroke-miterlimit="3"/><circle cx="612.5000000000002" cy="518.7057043274999" r="45.5" fill="none" stroke-width="5" stroke="rgb(0,0,0)" stroke-linejoin="miter" stroke-linecap="square" stroke-miterlimit="3"/></g><line x1="612.5" y1="564.206" x2="612.5" y2="1147.491" stroke-width="4" stroke="rgb(0,0,0)" stroke-linejoin="miter" stroke-linecap="round" stroke-miterlimit="3"/><g><mask id="_mask_eef8vhGb5rbJaBSFz6xZTj4hzr53hne6"><path d=" M 127.175 1098.012 C 140.428 951.317 263.877 836.206 414 836.206 C 572.952 836.206 702 965.254 702 1124.206 C 702 1158.03 696.156 1190.501 685.423 1220.661 C 649.672 1191.218 603.885 1173.534 554 1173.534 C 439.754 1173.534 347 1266.287 347 1380.534 C 347 1388.698 347.474 1396.753 348.394 1404.672 C 271.578 1386.755 206.537 1338.055 167.002 1272.309 C 184.952 1282.696 205.787 1288.646 228 1288.646 C 295.334 1288.646 350 1233.979 350 1166.646 C 350 1099.312 295.334 1044.646 228 1044.646 C 186.113 1044.646 149.129 1065.8 127.175 1098.012 Z " fill-rule="evenodd" fill="white" stroke="none"/></mask><path d=" M 127.175 1098.012 C 140.428 951.317 263.877 836.206 414 836.206 C 572.952 836.206 702 965.254 702 1124.206 C 702 1158.03 696.156 1190.501 685.423 1220.661 C 649.672 1191.218 603.885 1173.534 554 1173.534 C 439.754 1173.534 347 1266.287 347 1380.534 C 347 1388.698 347.474 1396.753 348.394 1404.672 C 271.578 1386.755 206.537 1338.055 167.002 1272.309 C 184.952 1282.696 205.787 1288.646 228 1288.646 C 295.334 1288.646 350 1233.979 350 1166.646 C 350 1099.312 295.334 1044.646 228 1044.646 C 186.113 1044.646 149.129 1065.8 127.175 1098.012 Z " fill-rule="evenodd" fill="none" mask="url(#_mask_eef8vhGb5rbJaBSFz6xZTj4hzr53hne6)" stroke-width="20" stroke="rgb(0,0,0)" stroke-linejoin="miter" stroke-linecap="square" stroke-miterlimit="3"/><path d=" M 318.22 1390.415 C 318.067 1387.072 317.998 1383.725 318 1380.376 C 317.99 1364.396 319.6 1348.456 322.8 1332.796 C 325.91 1317.606 330.52 1302.766 336.57 1288.486 C 348.46 1260.436 365.65 1234.936 387.2 1213.406 C 408.74 1191.856 434.23 1174.666 462.28 1162.776 C 476.56 1156.726 491.4 1152.116 506.6 1149.006 C 522.25 1145.806 538.19 1144.196 554.17 1144.206 C 570.15 1144.196 586.09 1145.806 601.74 1149.006 C 616.94 1152.116 631.78 1156.726 646.06 1162.776 C 661.775 1169.437 676.686 1177.762 690.528 1187.616 L 690.528 1187.616 L 691.831 1182.401 C 678.141 1172.836 663.455 1164.713 648.01 1158.166 C 633.42 1151.996 618.26 1147.286 602.75 1144.106 C 586.76 1140.836 570.49 1139.196 554.17 1139.206 C 537.85 1139.196 521.58 1140.836 505.59 1144.106 C 490.08 1147.286 474.92 1151.996 460.33 1158.166 C 431.69 1170.306 405.66 1187.866 383.67 1209.876 C 361.66 1231.856 344.1 1257.896 331.96 1286.536 C 325.79 1301.116 321.08 1316.286 317.9 1331.796 C 314.63 1347.786 312.99 1364.056 313 1380.376 C 312.998 1382.971 313.039 1385.565 313.14 1388.157 L 318.22 1390.415 L 318.22 1390.415 Z " fill="rgb(0,0,0)"/><circle cx="736.0000000000002" cy="1154.803139208501" r="27.59743488100105" fill="none" stroke-width="5" stroke="rgb(0,0,0)" stroke-linejoin="miter" stroke-linecap="square" stroke-miterlimit="3"/><circle cx="453.89985647762455" cy="1000.3387050000044" r="120.10014352237556" fill="none" stroke-width="5" stroke="rgb(0,0,0)" stroke-linejoin="miter" stroke-linecap="square" stroke-miterlimit="3"/><line x1="383.67" y1="1099.206" x2="383.67" y2="1213.277" stroke-width="4" stroke="rgb(0,0,0)" stroke-linejoin="miter" stroke-linecap="round" stroke-miterlimit="3"/><circle cx="249.50000000000023" cy="1041.7057043275" r="26.5" fill="rgb(0,0,0)"/><circle cx="304.7500000000002" cy="1065.4557043275" r="21.749999999999943" fill="rgb(0,0,0)"/><circle cx="339.61461653799404" cy="1104.0202572873038" r="16.814552959804075" fill="rgb(0,0,0)"/></g><line x1="499" y1="1149.241" x2="499" y2="1399.206" stroke-width="4" stroke="rgb(0,0,0)" stroke-linejoin="miter" stroke-linecap="round" stroke-miterlimit="3"/><circle cx="554.0000000000003" cy="1548.5338293274997" r="31.5" fill="none" stroke-width="5" stroke="rgb(0,0,0)" stroke-linejoin="miter" stroke-linecap="square" stroke-miterlimit="3"/><path d=" M 405.368 1302.194 C 393.004 1325.591 386 1352.251 386 1380.534 C 386 1473.256 461.278 1548.534 554 1548.534 C 615.536 1548.534 669.389 1515.377 698.656 1465.972 C 575.97 1462.741 468.412 1398.345 405.368 1302.194 Z " fill-rule="evenodd" fill="none" stroke-width="10" stroke="rgb(0,0,0)" stroke-linejoin="miter" stroke-linecap="square" stroke-miterlimit="3"/><g><circle cx="702.0000000000002" cy="1841.9557043275" r="31.75" fill="rgb(0,0,0)"/><circle cx="772.0000000000003" cy="1675.2057043275" r="46" fill="none" stroke-width="5" stroke="rgb(0,0,0)" stroke-linejoin="miter" stroke-linecap="square" stroke-miterlimit="3"/><path d=" M 523.493 1610.409 C 546.793 1603.634 571.426 1600.005 596.9 1600.005 C 703.57 1600.005 795.498 1663.623 836.769 1754.961 C 719.087 1793.552 634 1904.352 634 2034.869 C 634 2064.994 638.533 2094.069 646.966 2121.443 C 630.755 2124.567 614.017 2126.206 596.9 2126.206 C 497.869 2126.206 411.543 2071.373 366.656 1990.436 C 479.072 1965.843 563.336 1865.619 563.336 1745.87 C 563.336 1695.971 548.705 1649.462 523.493 1610.409 Z " fill-rule="evenodd" fill="none" stroke-width="10" stroke="rgb(0,0,0)" stroke-linejoin="miter" stroke-linecap="square" stroke-miterlimit="3"/><circle cx="356.4291694977981" cy="1935.3983960585024" r="40.192691731003094" fill="none" stroke-width="5" stroke="rgb(0,0,0)" stroke-linejoin="miter" stroke-linecap="square" stroke-miterlimit="3"/><circle cx="557.5000000000002" cy="1700.7057043275" r="20.499999999999886" fill="rgb(0,0,0)"/><circle cx="544.5000000000002" cy="1838.7057043274997" r="20.499999999999886" fill="rgb(0,0,0)"/><circle cx="560.0000000000003" cy="1771.7057043274997" r="25.5" fill="rgb(0,0,0)"/></g><circle cx="928.5000000000002" cy="2034.869061098505" r="139.33664322899494" fill="none" stroke-width="10" stroke="rgb(0,0,0)" stroke-linejoin="miter" stroke-linecap="square" stroke-miterlimit="3"/><circle cx="836.7693355356101" cy="1935.7251096005134" r="40.19269173100338" fill="none" stroke-width="5" stroke="rgb(0,0,0)" stroke-linejoin="miter" stroke-linecap="square" stroke-miterlimit="3"/><line x1="868.648" y1="1962.854" x2="1367.934" y2="2462.14" stroke-width="4" stroke="rgb(0,0,0)" stroke-linejoin="miter" stroke-linecap="round" stroke-miterlimit="3"/><line x1="1995.822" y1="1797.11" x2="1995.822" y2="1981.557" stroke-width="4" stroke="rgb(0,0,0)" stroke-linejoin="miter" stroke-linecap="round" stroke-miterlimit="3"/><line x1="1612.317" y1="1949.528" x2="1612.317" y2="2027.318" stroke-width="4" stroke="rgb(0,0,0)" stroke-linejoin="miter" stroke-linecap="round" stroke-miterlimit="3"/><line x1="1612.317" y1="2027.318" x2="1921" y2="2027.318" stroke-width="4" stroke="rgb(0,0,0)" stroke-linejoin="miter" stroke-linecap="round" stroke-miterlimit="3"/><line x1="1921" y1="2027.318" x2="1921" y2="1994.604" stroke-width="4" stroke="rgb(0,0,0)" stroke-linejoin="miter" stroke-linecap="round" stroke-miterlimit="3"/><line x1="1893" y1="1650.643" x2="1893" y2="1511.625" stroke-width="4" stroke="rgb(0,0,0)" stroke-linejoin="miter" stroke-linecap="round" stroke-miterlimit="3"/><line x1="1769" y1="1474.206" x2="2003.75" y2="1474.206" stroke-width="4" stroke="rgb(0,0,0)" stroke-linejoin="miter" stroke-linecap="round" stroke-miterlimit="3"/><line x1="1787.5" y1="756.08" x2="1787.5" y2="403.465" stroke-width="4" stroke="rgb(0,0,0)" stroke-linejoin="miter" stroke-linecap="round" stroke-miterlimit="3"/><line x1="1787.5" y1="756.206" x2="1689.495" y2="756.08" stroke-width="4" stroke="rgb(0,0,0)" stroke-linejoin="miter" stroke-linecap="round" stroke-miterlimit="3"/><line x1="1579" y1="373.277" x2="1579" y2="521.206" stroke-width="4" stroke="rgb(0,0,0)" stroke-linejoin="miter" stroke-linecap="round" stroke-miterlimit="3"/><line x1="1703" y1="418.86" x2="1703" y2="207.418" stroke-width="4" stroke="rgb(0,0,0)" stroke-linejoin="miter" stroke-linecap="round" stroke-miterlimit="3"/><mask id="_mask_b0lQAWtlk9yUtcKRFTUK1F2tjmsLpEZy"><path d=" M 1296.238 1513.728 C 1324.516 1470.708 1340.976 1419.239 1340.976 1363.956 C 1340.976 1213.206 1218.586 1090.817 1067.837 1090.817 C 917.087 1090.817 794.698 1213.206 794.698 1363.956 C 794.698 1514.705 917.087 1637.095 1067.837 1637.095 C 1080.92 1637.095 1093.789 1636.173 1106.384 1634.394 C 1031.001 1619.811 974 1553.403 974 1473.787 C 974 1383.504 1047.298 1310.206 1137.582 1310.206 C 1227.865 1310.206 1301.163 1383.504 1301.163 1473.787 C 1301.163 1487.564 1299.457 1500.945 1296.238 1513.728 Z " fill-rule="evenodd" fill="white" stroke="none"/></mask><path d=" M 1296.238 1513.728 C 1324.516 1470.708 1340.976 1419.239 1340.976 1363.956 C 1340.976 1213.206 1218.586 1090.817 1067.837 1090.817 C 917.087 1090.817 794.698 1213.206 794.698 1363.956 C 794.698 1514.705 917.087 1637.095 1067.837 1637.095 C 1080.92 1637.095 1093.789 1636.173 1106.384 1634.394 C 1031.001 1619.811 974 1553.403 974 1473.787 C 974 1383.504 1047.298 1310.206 1137.582 1310.206 C 1227.865 1310.206 1301.163 1383.504 1301.163 1473.787 C 1301.163 1487.564 1299.457 1500.945 1296.238 1513.728 Z " fill-rule="evenodd" fill="none" mask="url(#_mask_b0lQAWtlk9yUtcKRFTUK1F2tjmsLpEZy)" stroke-width="20" stroke="rgb(0,0,0)" stroke-linejoin="miter" stroke-linecap="square" stroke-miterlimit="3"/><path d=" M 1382.897 1350.815 C 1375.999 1182.862 1237.471 1048.624 1067.837 1048.624 C 893.8 1048.624 752.505 1189.919 752.505 1363.956 C 752.505 1537.992 893.8 1679.287 1067.837 1679.287 C 1109.948 1679.287 1150.143 1671.015 1186.886 1656.013 C 1217.577 1679.597 1255.987 1693.625 1297.648 1693.625 C 1398.097 1693.625 1479.648 1612.074 1479.648 1511.625 C 1479.648 1441.971 1440.434 1381.403 1382.897 1350.815 Z " fill-rule="evenodd" fill="none" stroke-width="20" stroke="rgb(0,0,0)" stroke-linejoin="miter" stroke-linecap="square" stroke-miterlimit="3"/><circle cx="1368.9757668899301" cy="1442.2057043274997" r="28" fill="none" stroke-width="5" stroke="rgb(0,0,0)" stroke-linejoin="miter" stroke-linecap="square" stroke-miterlimit="3"/><circle cx="977.500705728995" cy="1237.8273689586235" r="90.3359375" fill="none" stroke-width="5" stroke="rgb(0,0,0)" stroke-linejoin="miter" stroke-linecap="square" stroke-miterlimit="3"/><circle cx="977.500705728995" cy="1237.8273689586233" r="79.37833536887644" fill="none" stroke-width="5" stroke="rgb(0,0,0)" stroke-linejoin="miter" stroke-linecap="square" stroke-miterlimit="3"/><circle cx="1009.0000000000005" cy="1177.1197668274997" r="11.000000000000114" fill="rgb(0,0,0)"/><circle cx="983.0000000000002" cy="1180.2057043274997" r="9.000000000000227" fill="rgb(0,0,0)"/><circle cx="1035.0000000000002" cy="1186.5338293275" r="13" fill="rgb(0,0,0)"/><line x1="576.503" y1="1525.866" x2="576.503" y2="1442.206" stroke-width="4" stroke="rgb(0,0,0)" stroke-linejoin="miter" stroke-linecap="round" stroke-miterlimit="3"/><line x1="1303" y1="1448.206" x2="974" y2="1448.206" stroke-width="4" stroke="rgb(0,0,0)" stroke-linejoin="miter" stroke-linecap="round" stroke-miterlimit="3"/><path d=" M 1285.022 2472.92 C 1810.614 2461.798 2254.062 2114.283 2408.525 1637.212 C 2171.737 1412.482 2024 1094.817 2024 742.918 C 2024 616.032 2043.208 493.597 2078.885 378.37 C 1863.446 179.066 1575.342 57.206 1259 57.206 C 1132.605 57.206 1010.718 76.66 896.176 112.742 C 897.462 123.652 898.122 134.753 898.122 146.006 C 898.122 301.703 771.716 428.109 616.02 428.109 C 552.461 428.109 493.783 407.044 446.601 371.511 C 401.095 412.903 358.759 457.72 320.014 505.562 C 361.217 540.992 387.324 593.493 387.324 652.044 C 387.324 758.653 300.771 845.206 194.162 845.206 C 171.757 845.206 150.237 841.383 130.219 834.356 C 79.041 968.206 51 1113.457 51 1265.206 C 51 1299.858 52.462 1334.171 55.333 1368.086 C 63.966 1367.346 72.702 1366.969 81.526 1366.969 C 249.57 1366.969 386 1503.4 386 1671.444 C 386 1778.042 331.101 1871.919 248.057 1926.319 C 312.683 2024.892 391.332 2113.46 481.173 2189.164 C 532.673 2179.342 585.827 2174.206 640.17 2174.206 C 898.44 2174.206 1129.828 2290.211 1285.022 2472.92 Z " fill-rule="evenodd" fill="none" stroke-width="20" stroke="rgb(0,0,0)" stroke-linejoin="miter" stroke-linecap="square" stroke-miterlimit="3"/><circle cx="1259.0000000000002" cy="1265.2057043274997" r="1249.0000000000002" fill="none" stroke-width="20" stroke="rgb(0,0,0)" stroke-linejoin="miter" stroke-linecap="square" stroke-miterlimit="3"/></g></svg>
