<?xml version="1.0" standalone="no"?><!-- Generator: Gravit.io --><svg xmlns="http://www.w3.org/2000/svg" xmlns:xlink="http://www.w3.org/1999/xlink" style="isolation:isolate" viewBox="0 0 684 684" width="684" height="684"><defs><clipPath id="_clipPath_RcoYNT6fETjajSs8sZzS563TSE5OoXY3"><rect width="684" height="684"/></clipPath></defs><g clip-path="url(#_clipPath_RcoYNT6fETjajSs8sZzS563TSE5OoXY3)"><mask id="_mask_BawTVMW5BaTr0T6VDn94kYlRYy7PZJgP"><circle cx="421.0345555777501" cy="567.9812967581047" r="30.018703241895253" fill="white" stroke="none"/></mask><circle cx="421.0345555777501" cy="567.9812967581047" r="30.018703241895253" fill="none" mask="url(#_mask_BawTVMW5BaTr0T6VDn94kYlRYy7PZJgP)" stroke-width="10" stroke="rgb(0,0,0)" stroke-linejoin="miter" stroke-linecap="square" stroke-miterlimit="3"/><mask id="_mask_pB5hQtBazJLfl3x33LWxq98ffjkRJ5T0"><path d=" M 316.332 291.113 C 314.595 291.032 312.845 291 311.087 291 C 233.771 291 171 353.771 171 431.087 C 171 508.404 233.771 571.175 311.087 571.175 C 355.642 571.175 395.366 550.33 421.035 517.872 C 348.39 508.984 292.051 447.01 292.051 371.981 C 292.051 342.11 300.982 314.308 316.332 291.113 Z " fill-rule="evenodd" fill="white" stroke="none"/></mask><path d=" M 316.332 291.113 C 314.595 291.032 312.845 291 311.087 291 C 233.771 291 171 353.771 171 431.087 C 171 508.404 233.771 571.175 311.087 571.175 C 355.642 571.175 395.366 550.33 421.035 517.872 C 348.39 508.984 292.051 447.01 292.051 371.981 C 292.051 342.11 300.982 314.308 316.332 291.113 Z " fill-rule="evenodd" fill="none" mask="url(#_mask_pB5hQtBazJLfl3x33LWxq98ffjkRJ5T0)" stroke-width="20" stroke="rgb(0,0,0)" stroke-linejoin="miter" stroke-linecap="square" stroke-miterlimit="3"/><mask id="_mask_UdmP241KA3mjCg0oY85GQMuiUG3fIgVI"><circle cx="439.0325200327097" cy="371.9812967581046" r="132.92221619863403" fill="white" stroke="none"/></mask><circle cx="439.0325200327097" cy="371.9812967581046" r="132.92221619863403" fill="none" mask="url(#_mask_UdmP241KA3mjCg0oY85GQMuiUG3fIgVI)" stroke-width="20" stroke="rgb(0,0,0)" stroke-linejoin="miter" stroke-linecap="square" stroke-miterlimit="3"/><mask id="_mask_dDONfy37iNPFg01v54PLbWRBG71vHLiA"><circle cx="497" cy="466.9625935162094" r="85" fill="white" stroke="none"/></mask><circle cx="497" cy="466.9625935162094" r="85" fill="none" mask="url(#_mask_dDONfy37iNPFg01v54PLbWRBG71vHLiA)" stroke-width="10" stroke="rgb(0,0,0)" stroke-linejoin="miter" stroke-linecap="square" stroke-miterlimit="3"/><mask id="_mask_zHepciVcy2FBE1OORC6m4ku1NhljDdZY"><circle cx="532.0187032418951" cy="392.9812967581048" r="20.018703241895423" fill="white" stroke="none"/></mask><circle cx="532.0187032418951" cy="392.9812967581048" r="20.018703241895423" fill="none" mask="url(#_mask_zHepciVcy2FBE1OORC6m4ku1NhljDdZY)" stroke-width="10" stroke="rgb(0,0,0)" stroke-linejoin="miter" stroke-linecap="square" stroke-miterlimit="3"/><mask id="_mask_V4mgAY1HHXrtUKmNROgsKei0LJ8RwSZC"><circle cx="556" cy="325" r="29" fill="white" stroke="none"/></mask><circle cx="556" cy="325" r="29" fill="none" mask="url(#_mask_V4mgAY1HHXrtUKmNROgsKei0LJ8RwSZC)" stroke-width="10" stroke="rgb(0,0,0)" stroke-linejoin="miter" stroke-linecap="square" stroke-miterlimit="3"/><mask id="_mask_yrsXkshnjtOIEq1OQO6vR5SiffVvwlbs"><circle cx="329.1103038340757" cy="148.0000000000001" r="23" fill="white" stroke="none"/></mask><circle cx="329.1103038340757" cy="148.0000000000001" r="23" fill="none" mask="url(#_mask_yrsXkshnjtOIEq1OQO6vR5SiffVvwlbs)" stroke-width="10" stroke="rgb(0,0,0)" stroke-linejoin="miter" stroke-linecap="square" stroke-miterlimit="3"/><mask id="_mask_OeNdOFOsnNWk9qbRWQpGdhXDmCRvNl8m"><path d=" M 264.863 69.113 C 314.483 97.195 348 150.464 348 211.5 C 348 234.021 343.437 255.485 335.178 275.012 C 327.324 273.8 319.278 273.175 311.087 273.175 C 244.171 273.175 186.92 314.887 163.946 373.709 C 130.817 369.55 100.759 355.46 76.865 334.502 C 184.341 293.117 261.399 190.266 264.863 69.113 Z " fill-rule="evenodd" fill="white" stroke="none"/></mask><path d=" M 264.863 69.113 C 314.483 97.195 348 150.464 348 211.5 C 348 234.021 343.437 255.485 335.178 275.012 C 327.324 273.8 319.278 273.175 311.087 273.175 C 244.171 273.175 186.92 314.887 163.946 373.709 C 130.817 369.55 100.759 355.46 76.865 334.502 C 184.341 293.117 261.399 190.266 264.863 69.113 Z " fill-rule="evenodd" fill="none" mask="url(#_mask_OeNdOFOsnNWk9qbRWQpGdhXDmCRvNl8m)" stroke-width="20" stroke="rgb(0,0,0)" stroke-linejoin="miter" stroke-linecap="square" stroke-miterlimit="3"/><mask id="_mask_nN7FxcPz1JjCiSgbJmiGroeKCjBYtHSI"><path d=" M 1.2 313.29 C 0.402 322.754 0 332.331 0 342 C 0 530.755 153.245 684 342 684 C 530.755 684 684 530.755 684 342 C 684 153.245 530.755 0 342 0 C 300.15 0 260.046 7.533 222.976 21.329 C 224.971 34.113 226 47.215 226 60.555 C 226 190.96 127.687 298.584 1.2 313.29 Z " fill-rule="evenodd" fill="white" stroke="none"/></mask><path d=" M 1.2 313.29 C 0.402 322.754 0 332.331 0 342 C 0 530.755 153.245 684 342 684 C 530.755 684 684 530.755 684 342 C 684 153.245 530.755 0 342 0 C 300.15 0 260.046 7.533 222.976 21.329 C 224.971 34.113 226 47.215 226 60.555 C 226 190.96 127.687 298.584 1.2 313.29 Z " fill-rule="evenodd" fill="none" mask="url(#_mask_nN7FxcPz1JjCiSgbJmiGroeKCjBYtHSI)" stroke-width="30" stroke="rgb(0,0,0)" stroke-linejoin="miter" stroke-linecap="square" stroke-miterlimit="3"/><path d=" M 293.268 269.315 C 301.875 135.375 536.625 138.375 551 299 C 560.781 295.142 576.135 305.162 581 313 C 593.021 140.524 299.625 98.625 288.069 270.26 L 288.069 270.26 L 293.268 269.315 L 293.268 269.315 Z " fill="rgb(0,0,0)"/><circle cx="489.35473821570054" cy="385.3547382157003" r="16.645261784299805" fill="rgb(0,0,0)"/><circle cx="455.35473821570054" cy="395.6452617842996" r="12.645261784299578" fill="rgb(0,0,0)"/><mask id="_mask_uTkRCVoOdfRS0QvxXtZ5kY7sTfCsOvJ8"><path d=" M 651.905 285.377 C 647.279 259.892 639.572 235.476 629.188 212.524 C 607.804 218.317 585.316 221.411 562.11 221.411 C 442.493 221.411 341.927 139.194 313.899 28.232 C 153.19 42.472 27 177.616 27 342 C 27 346.279 27.086 350.538 27.253 354.776 C 100.091 362.15 157 423.732 157 498.5 C 157 527.791 148.266 555.058 133.248 577.827 C 188.845 627.08 261.956 657 342 657 C 466.408 657 574.068 584.723 625.233 479.899 C 606.93 456.661 596 427.347 596 395.5 C 596 350.304 618.013 310.209 651.905 285.377 Z " fill-rule="evenodd" fill="white" stroke="none"/></mask><path d=" M 651.905 285.377 C 647.279 259.892 639.572 235.476 629.188 212.524 C 607.804 218.317 585.316 221.411 562.11 221.411 C 442.493 221.411 341.927 139.194 313.899 28.232 C 153.19 42.472 27 177.616 27 342 C 27 346.279 27.086 350.538 27.253 354.776 C 100.091 362.15 157 423.732 157 498.5 C 157 527.791 148.266 555.058 133.248 577.827 C 188.845 627.08 261.956 657 342 657 C 466.408 657 574.068 584.723 625.233 479.899 C 606.93 456.661 596 427.347 596 395.5 C 596 350.304 618.013 310.209 651.905 285.377 Z " fill-rule="evenodd" fill="none" mask="url(#_mask_uTkRCVoOdfRS0QvxXtZ5kY7sTfCsOvJ8)" stroke-width="30" stroke="rgb(0,0,0)" stroke-linejoin="miter" stroke-linecap="square" stroke-miterlimit="3"/><path d=" M 299.344 313.311 C 287.552 314.455 275.98 317.39 265.03 322.02 C 250.97 327.98 238.19 336.6 227.4 347.4 C 216.6 358.19 207.98 370.97 202.02 385.03 C 195.86 399.6 192.7 415.27 192.71 431.09 C 192.7 446.91 195.86 462.57 202.02 477.14 C 207.98 491.2 216.6 503.98 227.4 514.77 C 238.19 525.58 250.97 534.2 265.03 540.15 C 279.6 546.31 295.27 549.48 311.09 549.46 C 326.91 549.48 342.57 546.31 357.14 540.15 C 370.408 534.535 382.537 526.542 392.934 516.58 L 398.399 518.22 C 398.37 518.25 398.34 518.28 398.31 518.31 C 387.06 529.57 373.75 538.55 359.09 544.76 C 343.9 551.18 327.58 554.48 311.09 554.46 C 294.6 554.48 278.27 551.18 263.08 544.76 C 248.43 538.55 235.11 529.57 223.86 518.31 C 212.61 507.06 203.62 493.75 197.41 479.09 C 191 463.9 187.7 447.58 187.71 431.09 C 187.7 414.6 191 398.27 197.41 383.08 C 203.62 368.43 212.61 355.11 223.86 343.86 C 235.11 332.61 248.43 323.62 263.08 317.41 C 275.467 312.183 288.613 309.024 301.984 308.032 L 299.344 313.311 L 299.344 313.311 Z " fill="rgb(0,0,0)"/><circle cx="266.5000000000002" cy="110" r="19.000000000000057" fill="rgb(0,0,0)"/><circle cx="256.0191103118576" cy="150.98088968814216" r="15.019110311857744" fill="rgb(0,0,0)"/><path d=" M 323 168 C 225.203 228.4 210.667 352 298.651 430.692 L 298.651 430.692 L 301.917 439.185 C 201.253 370.821 207.68 199.994 311.09 136 C 305.135 151.329 309.115 162.005 323 168 Z " fill="rgb(0,0,0)"/><path d=" M 51.618 311.746 C 56.226 300.901 62.876 291.054 71.21 282.73 C 79.55 274.38 89.42 267.72 100.29 263.11 C 111.55 258.36 123.66 255.91 135.88 255.92 C 148.11 255.91 160.21 258.36 171.48 263.11 C 182.34 267.72 192.22 274.38 200.56 282.73 C 205.749 287.913 210.286 293.687 214.066 299.934 L 217.705 296.295 C 213.842 290.109 209.276 284.37 204.09 279.19 C 195.3 270.39 184.88 263.36 173.42 258.51 C 161.54 253.49 148.78 250.91 135.88 250.92 C 122.99 250.91 110.22 253.49 98.34 258.51 C 86.88 263.36 76.47 270.39 67.67 279.19 C 58.87 287.99 51.85 298.4 46.99 309.86 C 46.585 310.818 46.196 311.781 45.828 312.752 L 51.618 311.746 L 51.618 311.746 Z " fill="rgb(0,0,0)"/></g></svg>
