<?xml version="1.0" standalone="no"?><!-- Generator: Gravit.io --><svg xmlns="http://www.w3.org/2000/svg" xmlns:xlink="http://www.w3.org/1999/xlink" style="isolation:isolate" viewBox="0 0 1050 1050" width="1050" height="1050"><defs><clipPath id="_clipPath_q47HokoeDCT20hUsHTvgAI75XLTw823o"><rect width="1050" height="1050"/></clipPath></defs><g clip-path="url(#_clipPath_q47HokoeDCT20hUsHTvgAI75XLTw823o)"><mask id="_mask_83c4BLR6VFLkHYeNn2igCT47NBWfFaaY"><path d=" M 608.424 1038.322 C 855.822 998.365 1045 783.601 1045 525 C 1045 238.004 811.996 5 525 5 C 238.004 5 5 238.004 5 525 C 5 783.601 194.178 998.365 441.576 1038.322 C 396.23 1010.32 366 960.162 366 903 C 366 815.246 437.246 744 525 744 C 612.754 744 684 815.246 684 903 C 684 960.162 653.77 1010.32 608.424 1038.322 Z " fill="white" stroke="none"/></mask><path d=" M 608.424 1038.322 C 855.822 998.365 1045 783.601 1045 525 C 1045 238.004 811.996 5 525 5 C 238.004 5 5 238.004 5 525 C 5 783.601 194.178 998.365 441.576 1038.322 C 396.23 1010.32 366 960.162 366 903 C 366 815.246 437.246 744 525 744 C 612.754 744 684 815.246 684 903 C 684 960.162 653.77 1010.32 608.424 1038.322 Z " fill="none" mask="url(#_mask_83c4BLR6VFLkHYeNn2igCT47NBWfFaaY)" stroke-width="20" stroke="rgb(0,0,0)" stroke-linejoin="miter" stroke-linecap="square" stroke-miterlimit="3"/><g id="Group"><path d=" M 500 889 C 500 875.202 511.202 864 525 864 C 538.798 864 550 875.202 550 889 C 550 902.798 538.798 914 525 914 C 511.202 914 500 902.798 500 889 Z " fill="rgb(0,0,0)"/><path d=" M 383 789 C 383 775.202 394.202 764 408 764 C 421.798 764 433 775.202 433 789 C 433 802.798 421.798 814 408 814 C 394.202 814 383 802.798 383 789 Z " fill="rgb(0,0,0)"/><path d=" M 649 839 C 649 825.202 660.202 814 674 814 C 687.798 814 699 825.202 699 839 C 699 852.798 687.798 864 674 864 C 660.202 864 649 852.798 649 839 Z " fill="rgb(0,0,0)"/></g></g></svg>
