<?xml version="1.0" standalone="no"?><!-- Generator: Gravit.io --><svg xmlns="http://www.w3.org/2000/svg" xmlns:xlink="http://www.w3.org/1999/xlink" style="isolation:isolate" viewBox="0 0 571.104 571.104" width="571.104" height="571.104"><defs><clipPath id="_clipPath_ekaWd0rns27Iwr02KkyrIYiWkp66Wt9y"><rect width="571.104" height="571.104"/></clipPath></defs><g clip-path="url(#_clipPath_ekaWd0rns27Iwr02KkyrIYiWkp66Wt9y)"><path d=" M 184.552 285.552 C 184.552 229.809 229.809 184.552 285.552 184.552 C 341.296 184.552 386.552 229.809 386.552 285.552 C 386.552 341.296 341.296 386.552 285.552 386.552 C 229.809 386.552 184.552 341.296 184.552 285.552 Z " fill="none" stroke-width="5" stroke="rgb(0,0,0)" stroke-linejoin="miter" stroke-linecap="square" stroke-miterlimit="3"/><path d=" M 125.552 285.552 C 125.552 197.246 197.246 125.552 285.552 125.552 C 373.859 125.552 445.552 197.246 445.552 285.552 C 445.552 373.859 373.859 445.552 285.552 445.552 C 197.246 445.552 125.552 373.859 125.552 285.552 Z " fill="none" stroke-width="10" stroke="rgb(0,0,0)" stroke-linejoin="miter" stroke-linecap="square" stroke-miterlimit="3"/><path d=" M 81.252 379.819 C 29.224 267.063 78.529 133.279 191.285 81.252 C 304.042 29.224 437.825 78.529 489.853 191.285 C 541.88 304.042 492.576 437.825 379.819 489.853 C 267.063 541.88 133.279 492.576 81.252 379.819 Z " fill="none" stroke-width="5" stroke="rgb(0,0,0)" stroke-linejoin="miter" stroke-linecap="square" stroke-miterlimit="3"/><path d=" M 19.38 189.421 C 72.436 42.516 234.779 -33.677 381.684 19.38 C 528.588 72.436 604.781 234.779 551.724 381.684 C 498.668 528.588 336.325 604.781 189.421 551.724 C 42.516 498.668 -33.677 336.325 19.38 189.421 Z " fill="none" stroke-width="5" stroke="rgb(0,0,0)" stroke-linejoin="miter" stroke-linecap="square" stroke-miterlimit="3"/><g id="Group"><path d=" M 245.205 262.258 C 258.062 239.99 286.578 232.349 308.846 245.205 C 331.114 258.062 338.755 286.578 325.899 308.846 C 313.042 331.114 284.526 338.755 262.258 325.899 C 239.99 313.042 232.349 284.526 245.205 262.258 Z " fill="none" stroke-width="5" stroke="rgb(0,0,0)" stroke-linejoin="miter" stroke-linecap="square" stroke-miterlimit="3"/><line x1="245.205" y1="262.258" x2="325.899" y2="308.846" stroke-width="4" stroke="rgb(0,0,0)" stroke-linejoin="miter" stroke-linecap="square" stroke-miterlimit="3"/></g><line x1="301.552" y1="241.552" x2="381.684" y2="19.38" stroke-width="4" stroke="rgb(0,0,0)" stroke-linejoin="miter" stroke-linecap="square" stroke-miterlimit="3"/><line x1="244.552" y1="309.552" x2="90.696" y2="398.052" stroke-width="4" stroke="rgb(0,0,0)" stroke-linejoin="miter" stroke-linecap="square" stroke-miterlimit="3"/><line x1="276.344" y1="386.132" x2="265.039" y2="509.618" stroke-width="4" stroke="rgb(0,0,0)" stroke-linejoin="miter" stroke-linecap="square" stroke-miterlimit="3"/><path d=" M 232.141 217.258 C 232.141 202.518 244.108 190.552 258.847 190.552 C 273.586 190.552 285.552 202.518 285.552 217.258 C 285.552 231.997 273.586 243.963 258.847 243.963 C 244.108 243.963 232.141 231.997 232.141 217.258 Z " fill="none" stroke-width="5" stroke="rgb(0,0,0)" stroke-linejoin="miter" stroke-linecap="square" stroke-miterlimit="3"/></g></svg>
