<?xml version="1.0" encoding="UTF-8" standalone="no"?>
<!DOCTYPE svg PUBLIC "-//W3C//DTD SVG 1.1//EN" "http://www.w3.org/Graphics/SVG/1.1/DTD/svg11.dtd">
<svg width="100%" height="100%" viewBox="0 0 1000 1000" version="1.1" xmlns="http://www.w3.org/2000/svg" xmlns:xlink="http://www.w3.org/1999/xlink" xml:space="preserve" xmlns:serif="http://www.serif.com/" style="fill-rule:evenodd;clip-rule:evenodd;stroke-linecap:round;stroke-linejoin:round;stroke-miterlimit:1.5;">
    <g transform="matrix(0.976,0,0,0.976,12,12)">
        <path d="M371.026,16.857C412.166,5.851 455.405,0 500,0C597.606,0 688.718,28.029 765.713,76.506C668.475,100.217 596.224,187.988 596.224,292.5C596.224,415.239 695.873,514.888 818.612,514.888C890.341,514.888 954.184,480.856 994.815,428.042C998.245,451.562 1000,475.578 1000,500C1000,775.958 775.958,1000 500,1000C224.042,1000 0,775.958 0,500C0,291.652 127.71,112.897 309.07,37.84C265.871,64.172 237,111.741 237,166C237,248.787 304.213,316 387,316C469.787,316 537,248.787 537,166C537,83.213 469.787,16 387,16C381.602,16 376.271,16.286 371.026,16.857Z" style="fill:none;stroke:black;stroke-width:21.35px;"/>
    </g>
    <g transform="matrix(0.976,0,0,0.976,12,12)">
        <path d="M776.831,869.797C699.659,927.691 603.804,962 500,962C245.015,962 38,754.985 38,500C38,245.015 245.015,38 500,38C597.532,38 688.045,68.288 762.607,119.98C689.868,143.56 637.224,211.931 637.224,292.5C637.224,392.611 718.501,473.888 818.612,473.888C872.331,473.888 920.628,450.485 953.829,413.311C959.205,441.389 962,470.371 962,500C962,570.988 945.955,638.258 917.267,698.393C897.374,658.452 856.118,631 808.5,631C741.442,631 687,685.442 687,752.5C687,808.6 725.104,855.871 776.831,869.797Z" style="fill:none;stroke:black;stroke-width:21.35px;"/>
    </g>
    <g transform="matrix(1,0,0,1,-87.344,35.304)">
        <g transform="matrix(0.621493,0.78342,-0.78342,0.621493,632.286,15.4098)">
            <text x="300.196px" y="662.046px" style="font-family:'FredokaOne-Regular', 'Fredoka One';font-size:83.333px;">C</text>
        </g>
        <g transform="matrix(0.810498,0.585741,-0.585741,0.810498,477.394,-62.9385)">
            <text x="335.967px" y="706.333px" style="font-family:'FredokaOne-Regular', 'Fredoka One';font-size:83.333px;">o</text>
        </g>
        <g transform="matrix(0.951524,0.307576,-0.307576,0.951524,244.997,-79.9357)">
            <text x="376.089px" y="737.267px" style="font-family:'FredokaOne-Regular', 'Fredoka One';font-size:83.333px;">m</text>
        </g>
        <g transform="matrix(0.997345,0.0728151,-0.0728151,0.997345,56.2428,-30.352)">
            <text x="444.405px" y="756.204px" style="font-family:'FredokaOne-Regular', 'Fredoka One';font-size:83.333px;">i</text>
        </g>
        <g transform="matrix(0.993866,-0.110587,0.110587,0.993866,-81.0898,56.159)">
            <text x="465.723px" y="759.096px" style="font-family:'FredokaOne-Regular', 'Fredoka One';font-size:83.333px;">n</text>
        </g>
        <g transform="matrix(0.933812,-0.357764,0.357764,0.933812,-235.334,234.504)">
            <text x="516.113px" y="753.274px" style="font-family:'FredokaOne-Regular', 'Fredoka One';font-size:83.333px;">g</text>
        </g>
        <g transform="matrix(0.744975,-0.667093,0.667093,0.744975,-335.362,571.654)">
            <text x="579.982px" y="724.445px" style="font-family:'FredokaOne-Regular', 'Fredoka One';font-size:83.333px;">S</text>
        </g>
        <g transform="matrix(0.554333,-0.832295,0.832295,0.554333,-301.25,821.374)">
            <text x="616.344px" y="691.984px" style="font-family:'FredokaOne-Regular', 'Fredoka One';font-size:83.333px;">o</text>
        </g>
        <g transform="matrix(0.322253,-0.946654,0.946654,0.322253,-178.871,1050.45)">
            <text x="644.184px" y="650.147px" style="font-family:'FredokaOne-Regular', 'Fredoka One';font-size:83.333px;">o</text>
        </g>
        <g transform="matrix(0.0665006,-0.997786,0.997786,0.0665006,15.3421,1221.32)">
            <text x="660.384px" y="602.46px" style="font-family:'FredokaOne-Regular', 'Fredoka One';font-size:83.333px;">n</text>
        </g>
        <g transform="matrix(-0.119211,-0.992869,0.992869,-0.119211,193.287,1275.58)">
            <text x="662.437px" y="552.056px" style="font-family:'FredokaOne-Regular', 'Fredoka One';font-size:83.333px;">!</text>
        </g>
        <g transform="matrix(-0.998139,-0.0609717,0.0609717,-0.998139,947.115,772.135)">
            <text x="485.338px" y="371.617px" style="font-family:'FredokaOne-Regular', 'Fredoka One';font-size:20.833px;">(</text>
        </g>
        <g transform="matrix(-0.999992,-0.00396413,0.00396413,-0.999992,953.145,743.95)">
            <text x="477.31px" y="371.03px" style="font-family:'FredokaOne-Regular', 'Fredoka One';font-size:20.833px;">H</text>
        </g>
        <g transform="matrix(-0.99789,0.0649212,-0.0649212,-0.99789,948.659,711.186)">
            <text x="462.774px" y="371.006px" style="font-family:'FredokaOne-Regular', 'Fredoka One';font-size:20.833px;">o</text>
        </g>
        <g transform="matrix(-0.991595,0.129383,-0.129383,-0.991595,944.748,682.279)">
            <text x="450.212px" y="371.827px" style="font-family:'FredokaOne-Regular', 'Fredoka One';font-size:20.833px;">p</text>
        </g>
        <g transform="matrix(-0.981799,0.189924,-0.189924,-0.981799,939.437,656.738)">
            <text x="438.249px" y="373.384px" style="font-family:'FredokaOne-Regular', 'Fredoka One';font-size:20.833px;">e</text>
        </g>
        <g transform="matrix(-0.969936,0.243362,-0.243362,-0.969936,931.955,636.174)">
            <text x="426.681px" y="375.653px" style="font-family:'FredokaOne-Regular', 'Fredoka One';font-size:20.833px;">f</text>
        </g>
        <g transform="matrix(-0.954572,0.297982,-0.297982,-0.954572,929.004,614.084)">
            <text x="417.692px" y="377.857px" style="font-family:'FredokaOne-Regular', 'Fredoka One';font-size:20.833px;">u</text>
        </g>
        <g transform="matrix(-0.931874,0.362783,-0.362783,-0.931874,921.942,590.131)">
            <path d="M410.228,377.943C410.686,377.943 411.026,378.061 411.249,378.297C411.471,378.533 411.582,379.019 411.582,379.755C411.582,380.492 411.464,380.981 411.228,381.224C410.992,381.467 410.651,381.589 410.207,381.589C408.804,381.589 407.818,381.252 407.249,380.578C406.679,379.905 406.394,378.783 406.394,377.214L406.394,367.276C406.394,366.957 406.405,366.717 406.426,366.558C406.446,366.398 406.506,366.214 406.603,366.005C406.797,365.644 407.339,365.464 408.228,365.464C409.075,365.464 409.603,365.658 409.811,366.047C409.922,366.242 409.988,366.419 410.009,366.578C410.03,366.738 410.04,366.978 410.04,367.297L410.04,377.297C410.04,377.728 410.103,377.943 410.228,377.943ZM415.665,377.297C415.665,377.561 415.721,377.735 415.832,377.818C415.943,377.901 416.228,377.943 416.686,377.943C417.144,377.943 417.526,378.061 417.832,378.297C418.137,378.533 418.29,379.019 418.29,379.755C418.29,380.492 418.127,380.981 417.801,381.224C417.474,381.467 417.019,381.589 416.436,381.589C413.492,381.589 412.019,380.13 412.019,377.214L411.999,367.276C411.999,366.957 412.009,366.717 412.03,366.558C412.051,366.398 412.117,366.214 412.228,366.005C412.436,365.644 412.978,365.464 413.853,365.464C414.7,365.464 415.228,365.658 415.436,366.047C415.589,366.353 415.665,366.769 415.665,367.297L415.665,377.297Z"/>
        </g>
        <g transform="matrix(-0.906316,0.422602,-0.422602,-0.906316,913.313,570.216)">
            <text x="393.452px" y="386.342px" style="font-family:'FredokaOne-Regular', 'Fredoka One';font-size:20.833px;">y</text>
        </g>
        <g transform="matrix(-0.882913,0.469536,-0.469536,-0.882913,903.388,558.131)">
            <text x="382.104px" y="391.703px" style="font-family:'FredokaOne-Regular', 'Fredoka One';font-size:20.833px;">)</text>
        </g>
    </g>
    <g transform="matrix(0.915504,0,0,0.915504,-92.3271,38.348)">
        <circle cx="518" cy="613" r="242" style="fill:none;stroke:black;stroke-width:22.76px;"/>
    </g>
</svg>
