<?xml version="1.0" standalone="no"?><!-- Generator: Gravit.io --><svg xmlns="http://www.w3.org/2000/svg" xmlns:xlink="http://www.w3.org/1999/xlink" style="isolation:isolate" viewBox="0 0 1120.366 1120.366" width="1120.366" height="1120.366"><defs><clipPath id="_clipPath_ZAU6OeyMKntWf4SdbImWLArwWWesYudt"><rect width="1120.366" height="1120.366"/></clipPath></defs><g clip-path="url(#_clipPath_ZAU6OeyMKntWf4SdbImWLArwWWesYudt)"><g id="Group"><path d=" M 599.91 895.41 C 599.91 879.154 613.108 865.955 629.365 865.955 C 645.621 865.955 658.82 879.154 658.82 895.41 C 658.82 911.667 645.621 924.865 629.365 924.865 C 613.108 924.865 599.91 911.667 599.91 895.41 Z " fill="none" stroke-width="5" stroke="rgb(0,0,0)" stroke-linejoin="miter" stroke-linecap="square" stroke-miterlimit="3"/><path d=" M 564.732 846.136 C 547.008 824.778 520.265 811.169 490.369 811.169 C 437.047 811.169 393.757 854.46 393.757 907.781 C 393.757 961.103 437.047 1004.394 490.369 1004.394 C 526.409 1004.394 557.867 984.617 574.469 955.332 C 558.243 940.476 548.069 919.122 548.069 895.41 C 548.069 876.889 554.277 859.805 564.732 846.136 Z " fill="none" stroke-width="5" stroke="rgb(0,0,0)" stroke-linejoin="miter" stroke-linecap="square" stroke-miterlimit="3"/><path d=" M 544.535 871.257 C 544.535 867.356 547.702 864.188 551.604 864.188 C 555.505 864.188 558.673 867.356 558.673 871.257 C 558.673 875.159 555.505 878.327 551.604 878.327 C 547.702 878.327 544.535 875.159 544.535 871.257 Z " fill="rgb(0,0,0)" stroke-width="3" stroke="rgb(0,0,0)" stroke-linejoin="miter" stroke-linecap="square" stroke-miterlimit="3"/><path d=" M 541 889.519 C 541 885.618 544.168 882.45 548.069 882.45 C 551.971 882.45 555.138 885.618 555.138 889.519 C 555.138 893.421 551.971 896.589 548.069 896.589 C 544.168 896.589 541 893.421 541 889.519 Z " fill="rgb(0,0,0)" stroke-width="3" stroke="rgb(0,0,0)" stroke-linejoin="miter" stroke-linecap="square" stroke-miterlimit="3"/><path d=" M 542.178 908.371 C 542.178 904.469 545.346 901.301 549.247 901.301 C 553.149 901.301 556.317 904.469 556.317 908.371 C 556.317 912.272 553.149 915.44 549.247 915.44 C 545.346 915.44 542.178 912.272 542.178 908.371 Z " fill="rgb(0,0,0)" stroke-width="3" stroke="rgb(0,0,0)" stroke-linejoin="miter" stroke-linecap="square" stroke-miterlimit="3"/><path d=" M 423 882.45 C 423 852.413 447.387 828.026 477.424 828.026 C 507.461 828.026 531.848 852.413 531.848 882.45 C 531.848 912.488 507.461 936.874 477.424 936.874 C 447.387 936.874 423 912.488 423 882.45 Z " fill="none" stroke-width="5" stroke="rgb(0,0,0)" stroke-linejoin="miter" stroke-linecap="square" stroke-miterlimit="3"/><path d=" M 458 830 C 394.442 683.985 612.153 763.492 887.5 425.5" fill="none" stroke-width="5" stroke="rgb(0,0,0)" stroke-linejoin="miter" stroke-linecap="square" stroke-miterlimit="3"/><path d=" M 652.34 875.97 C 683.671 836.626 688.897 776.364 731 778" fill="none" stroke-width="5" stroke="rgb(0,0,0)" stroke-linejoin="miter" stroke-linecap="butt" stroke-miterlimit="3"/><g id="Group"><path d=" M 844.768 554.672 C 850.658 520.92 882.842 498.3 916.594 504.189 C 950.347 510.079 972.967 542.264 967.077 576.016 C 961.187 609.768 929.003 632.389 895.251 626.499 C 861.499 620.609 838.878 588.424 844.768 554.672 Z " fill="none" stroke-width="5" stroke="rgb(0,0,0)" stroke-linejoin="miter" stroke-linecap="square" stroke-miterlimit="3"/><path d=" M 894.439 563.34 C 895.545 557.002 901.589 552.755 907.926 553.861 C 914.264 554.967 918.512 561.01 917.406 567.348 C 916.3 573.686 910.256 577.933 903.919 576.827 C 897.581 575.721 893.333 569.678 894.439 563.34 Z " fill="none" stroke-width="5" stroke="rgb(0,0,0)" stroke-linejoin="miter" stroke-linecap="square" stroke-miterlimit="3"/><path d=" M 820.069 550.731 C 828.323 503.435 873.422 471.737 920.718 479.99 C 968.014 488.244 999.711 533.343 991.458 580.639 C 983.205 627.935 938.106 659.632 890.81 651.379 C 843.514 643.126 811.816 598.027 820.069 550.731 Z " fill="none" stroke-width="10" stroke="rgb(0,0,0)" stroke-linejoin="miter" stroke-linecap="square" stroke-miterlimit="3"/><path d=" M 930.701 523.407 C 931.293 520.017 934.525 517.745 937.915 518.337 C 941.305 518.929 943.577 522.161 942.986 525.551 C 942.394 528.941 939.161 531.213 935.772 530.621 C 932.382 530.03 930.11 526.797 930.701 523.407 Z " fill="rgb(0,0,0)"/><path d=" M 940.489 533.619 C 941.081 530.229 944.314 527.957 947.703 528.549 C 951.093 529.141 953.365 532.373 952.774 535.763 C 952.182 539.153 948.95 541.425 945.56 540.833 C 942.17 540.242 939.898 537.009 940.489 533.619 Z " fill="rgb(0,0,0)"/><path d=" M 975.265 530.73 C 976.31 524.742 982.019 520.729 988.007 521.774 C 993.995 522.819 998.008 528.529 996.963 534.516 C 995.918 540.504 990.209 544.517 984.221 543.472 C 978.233 542.427 974.22 536.718 975.265 530.73 Z " fill="rgb(0,0,0)"/><path d=" M 925.291 482.309 C 926.777 473.79 934.901 468.08 943.42 469.567 C 951.939 471.054 957.648 479.177 956.162 487.696 C 954.675 496.215 946.552 501.925 938.033 500.438 C 929.514 498.952 923.804 490.828 925.291 482.309 Z " fill="rgb(0,0,0)"/><path d=" M 956.868 504.649 C 958.132 497.403 965.041 492.547 972.287 493.812 C 979.532 495.076 984.388 501.985 983.124 509.23 C 981.859 516.476 974.951 521.332 967.705 520.067 C 960.46 518.803 955.604 511.894 956.868 504.649 Z " fill="rgb(0,0,0)"/><path d=" M 802.213 366.064 C 819.129 357.979 837.458 352.625 856.534 350.468 C 851.934 392.8 881 432.044 923.538 439.467 C 955.251 445.001 985.909 431.359 1003.603 406.906 C 1036.955 444.531 1053.495 496.443 1044.188 549.776 C 1027.967 642.732 939.328 705.031 846.372 688.81 C 784.761 678.058 736.617 635.494 715.877 580.945 C 759.877 548.39 791.93 499.544 802.072 441.422 C 806.55 415.762 806.397 390.356 802.213 366.064 Z " fill="none" stroke-width="5" stroke="rgb(0,0,0)" stroke-linejoin="miter" stroke-linecap="square" stroke-miterlimit="3"/><path d=" M 758.606 430.935 C 760.374 420.802 770.036 414.012 780.168 415.78 C 790.3 417.548 797.09 427.21 795.322 437.342 C 793.554 447.474 783.893 454.264 773.761 452.496 C 763.628 450.728 756.838 441.067 758.606 430.935 Z " fill="rgb(0,0,0)"/><path d=" M 762.689 467.171 C 763.881 460.338 770.397 455.758 777.23 456.951 C 784.064 458.143 788.643 464.659 787.451 471.492 C 786.259 478.326 779.743 482.905 772.909 481.713 C 766.076 480.52 761.496 474.004 762.689 467.171 Z " fill="rgb(0,0,0)"/><path d=" M 926.349 357.25 C 927.427 351.071 933.319 346.93 939.498 348.008 C 945.678 349.086 949.819 354.979 948.741 361.158 C 947.662 367.337 941.77 371.478 935.591 370.4 C 929.412 369.322 925.271 363.429 926.349 357.25 Z " fill="none" stroke-width="5" stroke="rgb(0,0,0)" stroke-linejoin="miter" stroke-linecap="square" stroke-miterlimit="3"/><path d=" M 762.598 496.884 C 763.214 493.35 766.585 490.981 770.119 491.598 C 773.654 492.214 776.022 495.585 775.406 499.119 C 774.789 502.654 771.419 505.022 767.884 504.406 C 764.35 503.789 761.981 500.419 762.598 496.884 Z " fill="rgb(0,0,0)"/></g><g id="Group"><path d=" M 317.489 768.437 C 317.489 761.382 323.217 755.654 330.272 755.654 C 337.327 755.654 343.055 761.382 343.055 768.437 C 343.055 775.492 337.327 781.22 330.272 781.22 C 323.217 781.22 317.489 775.492 317.489 768.437 Z " fill="rgb(0,0,0)"/><path d=" M 275.173 755.654 C 275.173 748.599 280.901 742.871 287.956 742.871 C 295.011 742.871 300.739 748.599 300.739 755.654 C 300.739 762.709 295.011 768.437 287.956 768.437 C 280.901 768.437 275.173 762.709 275.173 755.654 Z " fill="rgb(0,0,0)"/><path d=" M 258.423 768.437 C 258.423 761.382 252.695 755.654 245.64 755.654 C 238.585 755.654 232.857 761.382 232.857 768.437 C 232.857 775.492 238.585 781.22 245.64 781.22 C 252.695 781.22 258.423 775.492 258.423 768.437 Z " fill="rgb(0,0,0)"/><path d=" M 177.261 804.88 C 186.264 810.915 195.783 816.238 205.74 820.765 C 213.9 782.866 247.633 754.426 287.956 754.426 C 328.279 754.426 362.011 782.866 370.171 820.765 C 439.038 789.456 486.968 720.037 486.968 639.512 C 486.968 529.674 397.793 440.5 287.956 440.5 C 178.118 440.5 88.944 529.674 88.944 639.512 C 88.944 648.66 89.562 657.665 90.763 666.486 C 95.73 650.85 110.374 639.512 127.646 639.512 C 149.007 639.512 166.349 656.854 166.349 678.214 C 166.349 699.575 149.007 716.917 127.646 716.917 C 116.887 716.917 107.147 712.517 100.134 705.415 C 103.916 716.181 108.598 726.524 114.094 736.352 C 120.906 732.635 128.717 730.527 137.016 730.527 C 163.548 730.527 185.089 752.068 185.089 778.6 C 185.089 788.297 182.211 797.327 177.261 804.88 Z " fill-rule="evenodd" fill="none" stroke-width="5" stroke="rgb(0,0,0)" stroke-linejoin="miter" stroke-linecap="square" stroke-miterlimit="3"/><path d=" M 99.036 734.813 C 99.036 727.144 105.262 720.918 112.93 720.918 C 120.599 720.918 126.824 727.144 126.824 734.813 C 126.824 742.481 120.599 748.707 112.93 748.707 C 105.262 748.707 99.036 742.481 99.036 734.813 Z " fill="rgb(0,0,0)"/><path d=" M 170.731 804.84 C 170.731 801.006 173.844 797.893 177.678 797.893 C 181.512 797.893 184.625 801.006 184.625 804.84 C 184.625 808.675 181.512 811.788 177.678 811.788 C 173.844 811.788 170.731 808.675 170.731 804.84 Z " fill="rgb(0,0,0)"/><path d=" M 132.382 730.644 C 132.382 724.509 137.363 719.529 143.498 719.529 C 149.633 719.529 154.613 724.509 154.613 730.644 C 154.613 736.779 149.633 741.76 143.498 741.76 C 137.363 741.76 132.382 736.779 132.382 730.644 Z " fill="rgb(0,0,0)"/><g id="Group"><path d=" M 341.18 685.819 C 332.503 653.433 351.75 620.095 384.136 611.417 C 416.522 602.739 449.86 621.987 458.537 654.373 C 467.215 686.758 447.967 720.097 415.582 728.774 C 383.196 737.452 349.858 718.204 341.18 685.819 Z " fill="none" stroke-width="5" stroke="rgb(0,0,0)" stroke-linejoin="miter" stroke-linecap="square" stroke-miterlimit="3"/><path d=" M 381.149 675.109 C 378.382 664.783 384.519 654.153 394.846 651.386 C 405.172 648.619 415.802 654.756 418.569 665.082 C 421.336 675.409 415.199 686.039 404.872 688.806 C 394.546 691.573 383.916 685.435 381.149 675.109 Z " fill="none" stroke-width="5" stroke="rgb(0,0,0)" stroke-linejoin="miter" stroke-linecap="square" stroke-miterlimit="3"/><path d=" M 142.94 572.811 C 134.262 540.426 153.51 507.088 185.896 498.41 C 218.281 489.732 251.619 508.98 260.297 541.366 C 268.975 573.751 249.727 607.089 217.341 615.767 C 184.956 624.445 151.618 605.197 142.94 572.811 Z " fill="none" stroke-width="5" stroke="rgb(0,0,0)" stroke-linejoin="miter" stroke-linecap="square" stroke-miterlimit="3"/><line x1="260.026" y1="575.064" x2="354.036" y2="629.341" stroke-width="4" stroke="rgb(0,0,0)" stroke-linejoin="miter" stroke-linecap="square" stroke-miterlimit="3"/><line x1="252.077" y1="590.551" x2="343.526" y2="643.349" stroke-width="4" stroke="rgb(0,0,0)" stroke-linejoin="miter" stroke-linecap="square" stroke-miterlimit="3"/><line x1="240.318" y1="604.168" x2="338.746" y2="660.996" stroke-width="4" stroke="rgb(0,0,0)" stroke-linejoin="miter" stroke-linecap="square" stroke-miterlimit="3"/></g><path d=" M 241.767 838.524 C 241.767 813.032 262.464 792.335 287.956 792.335 C 313.448 792.335 334.144 813.032 334.144 838.524 C 334.144 864.016 313.448 884.713 287.956 884.713 C 262.464 884.713 241.767 864.016 241.767 838.524 Z " fill="none" stroke-width="5" stroke="rgb(0,0,0)" stroke-linejoin="miter" stroke-linecap="square" stroke-miterlimit="3"/><path d=" M 110.23 678.214 C 110.23 668.602 118.034 660.799 127.646 660.799 C 137.258 660.799 145.062 668.602 145.062 678.214 C 145.062 687.827 137.258 695.63 127.646 695.63 C 118.034 695.63 110.23 687.827 110.23 678.214 Z " fill="none" stroke-width="5" stroke="rgb(0,0,0)" stroke-linejoin="miter" stroke-linecap="square" stroke-miterlimit="3"/></g><g id="Group"><path d=" M 751.339 782.303 C 751.339 739.086 786.426 704 829.642 704 C 872.859 704 907.945 739.086 907.945 782.303 C 907.945 825.52 872.859 860.606 829.642 860.606 C 786.426 860.606 751.339 825.52 751.339 782.303 Z " fill="none" stroke-width="5" stroke="rgb(0,0,0)" stroke-linejoin="miter" stroke-linecap="square" stroke-miterlimit="3"/><path d=" M 681.826 778.226 C 681.826 740.186 712.71 709.302 750.75 709.302 C 788.791 709.302 819.675 740.186 819.675 778.226 C 819.675 816.267 788.791 847.151 750.75 847.151 C 712.71 847.151 681.826 816.267 681.826 778.226 Z " fill="none" stroke-width="5" stroke="rgb(0,0,0)" stroke-linejoin="miter" stroke-linecap="square" stroke-miterlimit="3"/><path d=" M 733.077 778.226 C 733.077 768.473 740.996 760.554 750.75 760.554 C 760.504 760.554 768.423 768.473 768.423 778.226 C 768.423 787.98 760.504 795.899 750.75 795.899 C 740.996 795.899 733.077 787.98 733.077 778.226 Z " fill="none" stroke-width="5" stroke="rgb(0,0,0)" stroke-linejoin="miter" stroke-linecap="square" stroke-miterlimit="3"/><path d=" M 796.111 765.266 C 796.111 754.212 805.086 745.237 816.14 745.237 C 827.195 745.237 836.17 754.212 836.17 765.266 C 836.17 776.321 827.195 785.296 816.14 785.296 C 805.086 785.296 796.111 776.321 796.111 765.266 Z " fill="none" stroke-width="3" stroke="rgb(0,0,0)" stroke-linejoin="miter" stroke-linecap="square" stroke-miterlimit="3"/><path d=" M 707.157 736.253 C 707.157 732.108 710.523 728.742 714.668 728.742 C 718.813 728.742 722.179 732.108 722.179 736.253 C 722.179 740.399 718.813 743.764 714.668 743.764 C 710.523 743.764 707.157 740.399 707.157 736.253 Z " fill="rgb(0,0,0)"/><path d=" M 696.848 751.275 C 696.848 747.13 700.213 743.764 704.359 743.764 C 708.504 743.764 711.87 747.13 711.87 751.275 C 711.87 755.421 708.504 758.786 704.359 758.786 C 700.213 758.786 696.848 755.421 696.848 751.275 Z " fill="rgb(0,0,0)"/></g><g id="Group"><g id="Group"><path d=" M 261.259 338.705 C 261.259 290.802 300.15 251.911 348.053 251.911 C 395.957 251.911 434.848 290.802 434.848 338.705 C 434.848 386.609 395.957 425.5 348.053 425.5 C 300.15 425.5 261.259 386.609 261.259 338.705 Z " fill="none" stroke-width="5" stroke="rgb(0,0,0)" stroke-linejoin="miter" stroke-linecap="square" stroke-miterlimit="3"/></g><g id="Group"><path d=" M 391.348 399.705 C 391.348 390.16 399.098 382.411 408.643 382.411 C 418.188 382.411 425.937 390.16 425.937 399.705 C 425.937 409.251 418.188 417 408.643 417 C 399.098 417 391.348 409.251 391.348 399.705 Z " fill="none" stroke-width="5" stroke="rgb(0,0,0)" stroke-linejoin="miter" stroke-linecap="square" stroke-miterlimit="3"/></g><line x1="390.508" y1="381.57" x2="426.778" y2="417.84" stroke-width="4" stroke="rgb(0,0,0)" stroke-linejoin="miter" stroke-linecap="square" stroke-miterlimit="3"/></g><g id="Group"><path d=" M 605.679 454.445 C 605.679 444.892 613.435 437.136 622.988 437.136 C 632.54 437.136 640.296 444.892 640.296 454.445 C 640.296 463.997 632.54 471.753 622.988 471.753 C 613.435 471.753 605.679 463.997 605.679 454.445 Z " fill="none" stroke-width="5" stroke="rgb(0,0,0)" stroke-linejoin="miter" stroke-linecap="square" stroke-miterlimit="3"/><path d=" M 474.217 348.115 C 474.217 298.927 514.152 258.992 563.34 258.992 C 612.529 258.992 652.464 298.927 652.464 348.115 C 652.464 397.304 612.529 437.239 563.34 437.239 C 514.152 437.239 474.217 397.304 474.217 348.115 Z " fill="none" stroke-width="5" stroke="rgb(0,0,0)" stroke-linejoin="miter" stroke-linecap="square" stroke-miterlimit="3"/><path d=" M 496.388 394.162 C 496.388 390.804 499.114 388.078 502.472 388.078 C 505.83 388.078 508.556 390.804 508.556 394.162 C 508.556 397.52 505.83 400.246 502.472 400.246 C 499.114 400.246 496.388 397.52 496.388 394.162 Z " fill="rgb(0,0,0)"/><path d=" M 508.556 406.331 C 508.556 402.973 511.283 400.246 514.641 400.246 C 517.998 400.246 520.725 402.973 520.725 406.331 C 520.725 409.689 517.998 412.415 514.641 412.415 C 511.283 412.415 508.556 409.689 508.556 406.331 Z " fill="rgb(0,0,0)"/><path d=" M 716.761 519.354 C 723.245 507.104 727.933 493.642 730.443 479.257 C 743.359 405.24 693.753 334.662 619.736 321.746 C 545.719 308.829 475.141 358.435 462.224 432.452 C 449.308 506.469 498.914 577.048 572.931 589.964 C 595.837 593.961 618.414 591.97 639.045 585.098 C 605.579 580.591 579.742 551.884 579.742 517.191 C 579.742 479.37 610.448 448.664 648.269 448.664 C 686.09 448.664 716.796 479.37 716.796 517.191 C 716.796 517.915 716.784 518.636 716.761 519.354 Z " fill="none" stroke-width="5" stroke="rgb(0,0,0)" stroke-linejoin="miter" stroke-linecap="square" stroke-miterlimit="3"/></g><path d=" M 179.403 925.347 C 88.434 830.523 32.5 701.834 32.5 560.183 C 32.5 534.986 34.27 510.2 37.711 485.947 C 47.362 487.537 57.268 488.366 67.366 488.366 C 167.263 488.366 248.366 407.263 248.366 307.366 C 248.366 257.338 228.025 212.022 195.163 179.253 C 203.457 171.304 212.009 163.623 220.803 156.22 C 239.305 205.446 286.841 240.5 342.5 240.5 C 414.249 240.5 472.5 182.249 472.5 110.5 C 472.5 85.9 465.652 62.887 453.74 43.278 C 460.694 41.835 467.704 40.545 474.76 39.394 C 519.871 196.454 664.696 311.5 836.179 311.5 C 895.928 311.5 952.44 297.534 1002.628 272.692 C 1056.536 355.416 1087.866 454.17 1087.866 560.183 C 1087.866 593.577 1084.757 626.25 1078.806 657.927 C 1070.959 656.298 1062.827 655.455 1054.5 655.455 C 987.718 655.455 933.5 709.673 933.5 776.455 C 933.5 816.862 953.349 852.669 983.823 874.646 C 973.034 889.157 961.517 903.094 949.321 916.401 C 908.026 896.108 861.583 884.713 812.5 884.713 C 679.306 884.713 565.556 968.625 521.281 1086.425 C 482.489 1083.596 444.855 1076.565 408.843 1065.765 C 409.449 1060.33 409.759 1054.807 409.759 1049.212 C 409.759 967.253 343.218 900.712 261.259 900.712 C 231.013 900.712 202.867 909.774 179.403 925.347 Z " fill="none" stroke-width="10" stroke="rgb(0,0,0)" stroke-linejoin="miter" stroke-linecap="square" stroke-miterlimit="3"/><path d=" M 5 560.183 C 5 253.769 253.769 5 560.183 5 C 866.597 5 1115.366 253.769 1115.366 560.183 C 1115.366 866.597 866.597 1115.366 560.183 1115.366 C 253.769 1115.366 5 866.597 5 560.183 Z " fill="none" stroke-width="10" stroke="rgb(0,0,0)" stroke-linejoin="miter" stroke-linecap="square" stroke-miterlimit="3"/><path d=" M 374.5 225.705 C 374.5 211.242 386.242 199.5 400.705 199.5 C 415.168 199.5 426.911 211.242 426.911 225.705 C 426.911 240.168 415.168 251.911 400.705 251.911 C 386.242 251.911 374.5 240.168 374.5 225.705 Z " fill="rgb(0,0,0)"/></g></g></svg>
