<?xml version="1.0" standalone="no"?><!-- Generator: Gravit.io --><svg xmlns="http://www.w3.org/2000/svg" xmlns:xlink="http://www.w3.org/1999/xlink" style="isolation:isolate" viewBox="0 0 1050 1050" width="1050" height="1050"><defs><clipPath id="_clipPath_Zcvo0QkC07exvoFC90NoiUHIq8SlbFbc"><rect width="1050" height="1050"/></clipPath></defs><g clip-path="url(#_clipPath_Zcvo0QkC07exvoFC90NoiUHIq8SlbFbc)"><mask id="_mask_NqbwpVrSPoX9Wx728wZoIjS4Ix1gWpXi"><path d=" M 0 525 C 0 235.245 235.245 0 525 0 C 814.755 0 1050 235.245 1050 525 C 1050 814.755 814.755 1050 525 1050 C 235.245 1050 0 814.755 0 525 Z " fill="white" stroke="none"/></mask><path d=" M 0 525 C 0 235.245 235.245 0 525 0 C 814.755 0 1050 235.245 1050 525 C 1050 814.755 814.755 1050 525 1050 C 235.245 1050 0 814.755 0 525 Z " fill="none" mask="url(#_mask_NqbwpVrSPoX9Wx728wZoIjS4Ix1gWpXi)" stroke-width="20" stroke="rgb(0,0,0)" stroke-linejoin="miter" stroke-linecap="square" stroke-miterlimit="3"/><path d=" M 364.029 719.515 C 364.029 572.437 483.437 453.029 630.515 453.029 C 777.592 453.029 897 572.437 897 719.515 C 897 866.592 777.592 986 630.515 986 C 483.437 986 364.029 866.592 364.029 719.515 Z " fill="none" stroke-width="5" stroke="rgb(0,0,0)" stroke-linejoin="miter" stroke-linecap="square" stroke-miterlimit="3"/><path d=" M 374 723.708 C 374 708.339 386.477 695.862 401.846 695.862 C 417.214 695.862 429.691 708.339 429.691 723.708 C 429.691 739.076 417.214 751.553 401.846 751.553 C 386.477 751.553 374 739.076 374 723.708 Z " fill="rgb(0,0,0)"/><path d=" M 384.737 654.846 C 384.737 639.477 397.214 627 412.583 627 C 427.951 627 440.428 639.477 440.428 654.846 C 440.428 670.214 427.951 682.691 412.583 682.691 C 397.214 682.691 384.737 670.214 384.737 654.846 Z " fill="rgb(0,0,0)"/><path d=" M 662.557 467.204 C 662.557 440.139 684.53 418.166 711.594 418.166 C 738.659 418.166 760.632 440.139 760.632 467.204 C 760.632 494.268 738.659 516.242 711.594 516.242 C 684.53 516.242 662.557 494.268 662.557 467.204 Z " fill="none" stroke-width="5" stroke="rgb(0,0,0)" stroke-linejoin="miter" stroke-linecap="square" stroke-miterlimit="3"/><path d=" M 646.39 467.204 C 646.39 431.217 675.607 402 711.594 402 C 747.581 402 776.798 431.217 776.798 467.204 C 776.798 503.191 747.581 532.408 711.594 532.408 C 675.607 532.408 646.39 503.191 646.39 467.204 Z " fill="none" stroke-width="5" stroke="rgb(0,0,0)" stroke-linejoin="miter" stroke-linecap="square" stroke-miterlimit="3"/><path d=" M 209.15 266.682 C 209.15 150.403 303.554 56 419.832 56 C 536.111 56 630.515 150.403 630.515 266.682 C 630.515 382.961 536.111 477.364 419.832 477.364 C 303.554 477.364 209.15 382.961 209.15 266.682 Z " fill="none" stroke-width="5" stroke="rgb(0,0,0)" stroke-linejoin="miter" stroke-linecap="square" stroke-miterlimit="3"/><path d=" M 359.5 426.5 C 359.5 418.497 365.997 412 374 412 C 382.003 412 388.5 418.497 388.5 426.5 C 388.5 434.503 382.003 441 374 441 C 365.997 441 359.5 434.503 359.5 426.5 Z " fill="rgb(0,0,0)"/><path d=" M 551 142 C 551 113.3 574.3 90 603 90 C 631.7 90 655 113.3 655 142 C 655 170.7 631.7 194 603 194 C 574.3 194 551 170.7 551 142 Z " fill="rgb(0,0,0)"/><path d=" M 506 266.682 C 506 249.573 519.891 235.682 537 235.682 C 554.109 235.682 568 249.573 568 266.682 C 568 283.791 554.109 297.682 537 297.682 C 519.891 297.682 506 283.791 506 266.682 Z " fill="rgb(0,0,0)"/></g></svg>
