<?xml version="1.0" standalone="no"?><!-- Generator: Gravit.io --><svg xmlns="http://www.w3.org/2000/svg" xmlns:xlink="http://www.w3.org/1999/xlink" style="isolation:isolate" viewBox="0 0 1474.931 1474.931" width="1474.931" height="1474.931"><defs><clipPath id="_clipPath_Ql15TdQZeBTJ7KRdNefS1StzwUVXyHoD"><rect width="1474.931" height="1474.931"/></clipPath></defs><g clip-path="url(#_clipPath_Ql15TdQZeBTJ7KRdNefS1StzwUVXyHoD)"><g><mask id="_mask_8QNTKHQsLCRnquCSOxAkiqB2F7TfNmdS"><circle cx="896.6103646940472" cy="1119.494705949594" r="27.255227173218827" fill="white" stroke="none"/></mask><circle cx="896.6103646940472" cy="1119.494705949594" r="27.255227173218827" fill="none" mask="url(#_mask_8QNTKHQsLCRnquCSOxAkiqB2F7TfNmdS)" stroke-width="10" stroke="rgb(0,0,0)" stroke-linejoin="miter" stroke-linecap="square" stroke-miterlimit="3"/><mask id="_mask_hTzWySfnnIw6xghXlv2tloyLsK6UPdUH"><path d=" M 1086.624 1103.605 C 1071.044 1227.916 964.852 1324.212 836.346 1324.212 C 825.888 1324.212 815.579 1323.574 805.457 1322.325 C 868.176 1311.662 915.992 1257.004 915.992 1191.267 C 915.992 1117.892 856.421 1058.322 783.047 1058.322 C 709.673 1058.322 650.102 1117.892 650.102 1191.267 C 650.102 1217.205 657.546 1241.419 670.414 1261.885 C 617.515 1215.636 584.084 1147.666 584.084 1071.949 C 584.084 960.926 655.962 866.557 755.687 832.892 C 775.536 985.964 906.545 1104.353 1064.987 1104.353 C 1072.261 1104.353 1079.477 1104.103 1086.624 1103.605 Z " fill-rule="evenodd" fill="white" stroke="none"/></mask><path d=" M 1086.624 1103.605 C 1071.044 1227.916 964.852 1324.212 836.346 1324.212 C 825.888 1324.212 815.579 1323.574 805.457 1322.325 C 868.176 1311.662 915.992 1257.004 915.992 1191.267 C 915.992 1117.892 856.421 1058.322 783.047 1058.322 C 709.673 1058.322 650.102 1117.892 650.102 1191.267 C 650.102 1217.205 657.546 1241.419 670.414 1261.885 C 617.515 1215.636 584.084 1147.666 584.084 1071.949 C 584.084 960.926 655.962 866.557 755.687 832.892 C 775.536 985.964 906.545 1104.353 1064.987 1104.353 C 1072.261 1104.353 1079.477 1104.103 1086.624 1103.605 Z " fill-rule="evenodd" fill="none" mask="url(#_mask_hTzWySfnnIw6xghXlv2tloyLsK6UPdUH)" stroke-width="20" stroke="rgb(0,0,0)" stroke-linejoin="miter" stroke-linecap="square" stroke-miterlimit="3"/></g><mask id="_mask_rXznZ5Fj5IgyEyZVlpnJI1tzjc6YzWgM"><path d=" M 1221.065 561.685 C 1294.987 611.794 1343.596 696.481 1343.596 792.432 C 1343.596 810.455 1341.881 828.08 1338.612 845.156 C 1299.357 789.465 1234.54 753.063 1161.289 753.063 C 1041.617 753.063 944.458 850.222 944.458 969.894 C 944.458 998.393 949.969 1025.615 959.987 1050.55 C 858.199 1009.052 786.378 909.063 786.378 792.432 C 786.378 786.061 786.592 779.739 787.018 773.475 C 813.566 779.183 841.112 782.186 869.355 782.186 C 1023.992 782.186 1157.765 692.151 1221.065 561.685 Z " fill-rule="evenodd" fill="white" stroke="none"/></mask><path d=" M 1221.065 561.685 C 1294.987 611.794 1343.596 696.481 1343.596 792.432 C 1343.596 810.455 1341.881 828.08 1338.612 845.156 C 1299.357 789.465 1234.54 753.063 1161.289 753.063 C 1041.617 753.063 944.458 850.222 944.458 969.894 C 944.458 998.393 949.969 1025.615 959.987 1050.55 C 858.199 1009.052 786.378 909.063 786.378 792.432 C 786.378 786.061 786.592 779.739 787.018 773.475 C 813.566 779.183 841.112 782.186 869.355 782.186 C 1023.992 782.186 1157.765 692.151 1221.065 561.685 Z " fill-rule="evenodd" fill="none" mask="url(#_mask_rXznZ5Fj5IgyEyZVlpnJI1tzjc6YzWgM)" stroke-width="20" stroke="rgb(0,0,0)" stroke-linejoin="miter" stroke-linecap="square" stroke-miterlimit="3"/><g><mask id="_mask_jHx2k6tkdNqO4gVzsnL8m1dgM0F8J5D8"><circle cx="1309.6657644487468" cy="671.2849270305808" r="35.721921334360786" fill="white" stroke="none"/></mask><circle cx="1309.6657644487468" cy="671.2849270305808" r="35.721921334360786" fill="none" mask="url(#_mask_jHx2k6tkdNqO4gVzsnL8m1dgM0F8J5D8)" stroke-width="20" stroke="rgb(0,0,0)" stroke-linejoin="miter" stroke-linecap="square" stroke-miterlimit="3"/><mask id="_mask_6QNqtROAFtzBNQ6zGwBn3K5klDrFdq8e"><circle cx="1309.6657644487468" cy="671.2849270305801" r="44.2013253438065" fill="white" stroke="none"/></mask><circle cx="1309.6657644487468" cy="671.2849270305801" r="44.2013253438065" fill="none" mask="url(#_mask_6QNqtROAFtzBNQ6zGwBn3K5klDrFdq8e)" stroke-width="10" stroke="rgb(0,0,0)" stroke-linejoin="miter" stroke-linecap="square" stroke-miterlimit="3"/></g><path d=" M 1114.021 699.764 C 1162.312 729.623 1237.839 738.643 1285.426 707.638 C 1278.553 701.802 1273.714 695.55 1270.89 688.862 C 1224.626 718.554 1165.274 724.569 1118.261 696.13 L 1114.021 699.764 L 1114.021 699.764 Z " fill="rgb(0,0,0)"/><mask id="_mask_Mg8GjOf6qEEmPQCWXZGbdeXoH2ZhLNog"><circle cx="679.5980997200015" cy="693.8442209983084" r="30.28358574802087" fill="white" stroke="none"/></mask><circle cx="679.5980997200015" cy="693.8442209983084" r="30.28358574802087" fill="none" mask="url(#_mask_Mg8GjOf6qEEmPQCWXZGbdeXoH2ZhLNog)" stroke-width="10" stroke="rgb(0,0,0)" stroke-linejoin="miter" stroke-linecap="square" stroke-miterlimit="3"/><mask id="_mask_P0qoBjqV7uIvxV7E7Szq5epnLOOQ3kRF"><path d=" M 1129.647 204.794 C 1167.459 257.372 1189.73 321.857 1189.73 391.503 C 1189.73 568.322 1046.175 711.878 869.355 711.878 C 734.932 711.878 619.735 628.911 572.224 511.434 C 616.284 526.786 663.616 535.128 712.882 535.128 C 915.503 535.128 1085.427 394.023 1129.647 204.794 Z " fill-rule="evenodd" fill="white" stroke="none"/></mask><path d=" M 1129.647 204.794 C 1167.459 257.372 1189.73 321.857 1189.73 391.503 C 1189.73 568.322 1046.175 711.878 869.355 711.878 C 734.932 711.878 619.735 628.911 572.224 511.434 C 616.284 526.786 663.616 535.128 712.882 535.128 C 915.503 535.128 1085.427 394.023 1129.647 204.794 Z " fill-rule="evenodd" fill="none" mask="url(#_mask_P0qoBjqV7uIvxV7E7Szq5epnLOOQ3kRF)" stroke-width="20" stroke="rgb(0,0,0)" stroke-linejoin="miter" stroke-linecap="square" stroke-miterlimit="3"/><mask id="_mask_1BLxudtnxY1wIghBpsHfdCxoizYsWrTN"><circle cx="619.8595829382444" cy="589.1499092761073" r="42.97789747022205" fill="white" stroke="none"/></mask><circle cx="619.8595829382444" cy="589.1499092761073" r="42.97789747022205" fill="none" mask="url(#_mask_1BLxudtnxY1wIghBpsHfdCxoizYsWrTN)" stroke-width="10" stroke="rgb(0,0,0)" stroke-linejoin="miter" stroke-linecap="square" stroke-miterlimit="3"/><circle cx="1055.6734648156676" cy="368.33602739868445" r="46.20822065235501" fill="rgb(0,0,0)"/><circle cx="962.3816854680225" cy="460.6278067463294" r="36.500000000000114" fill="rgb(0,0,0)"/><circle cx="862.517660588647" cy="512.763781866954" r="24.635975120624607" fill="rgb(0,0,0)"/><mask id="_mask_c2dWiSDrimKZenFl8cXLJ4TSAyT0WvV8"><circle cx="347.6652712160434" cy="787.7662234825281" r="262.783585748021" fill="white" stroke="none"/></mask><circle cx="347.6652712160434" cy="787.7662234825281" r="262.783585748021" fill="none" mask="url(#_mask_c2dWiSDrimKZenFl8cXLJ4TSAyT0WvV8)" stroke-width="20" stroke="rgb(0,0,0)" stroke-linejoin="miter" stroke-linecap="square" stroke-miterlimit="3"/><mask id="_mask_koR6ivLxiuR0QKtwfPyULmNSHI8z9BeL"><circle cx="347.6652712160434" cy="914.9559024211972" r="108.83851059494236" fill="white" stroke="none"/></mask><circle cx="347.6652712160434" cy="914.9559024211972" r="108.83851059494236" fill="none" mask="url(#_mask_koR6ivLxiuR0QKtwfPyULmNSHI8z9BeL)" stroke-width="10" stroke="rgb(0,0,0)" stroke-linejoin="miter" stroke-linecap="square" stroke-miterlimit="3"/><circle cx="300.5397414540365" cy="903.1363570301254" r="30.65805598601412" fill="rgb(0,0,0)"/><circle cx="288.5526574750153" cy="840.1234410091466" r="27.329027993007116" fill="rgb(0,0,0)"/><circle cx="291.2107134610295" cy="773.4653850231324" r="21.670972006992884" fill="rgb(0,0,0)"/><circle cx="305.73698718656" cy="715.4862523743864" r="17.184329711544706" fill="rgb(0,0,0)"/><circle cx="326.5082633409388" cy="667.4209908890559" r="13.626577872916357" fill="rgb(0,0,0)"/><g><mask id="_mask_IuHbvCevIa29msfqsDf4i5qbTXdXjWWl"><circle cx="423.55265747501545" cy="842.4653850231326" r="23.95112433597052" fill="white" stroke="none"/></mask><circle cx="423.55265747501545" cy="842.4653850231326" r="23.95112433597052" fill="none" mask="url(#_mask_IuHbvCevIa29msfqsDf4i5qbTXdXjWWl)" stroke-width="10" stroke="rgb(0,0,0)" stroke-linejoin="miter" stroke-linecap="square" stroke-miterlimit="3"/><mask id="_mask_ePFWCu2T4fQ4dEC1LGZTWaiSBjMGRQ0o"><circle cx="423.5526574750153" cy="842.4653850231324" r="34.67097200699288" fill="white" stroke="none"/></mask><circle cx="423.5526574750153" cy="842.4653850231324" r="34.67097200699288" fill="none" mask="url(#_mask_ePFWCu2T4fQ4dEC1LGZTWaiSBjMGRQ0o)" stroke-width="10" stroke="rgb(0,0,0)" stroke-linejoin="miter" stroke-linecap="square" stroke-miterlimit="3"/></g><mask id="_mask_7pxeRZIMkB9Qg6GTxFGcFdxdxOrYK7fC"><circle cx="310.21717147151884" cy="671.2849270305801" r="113.33548600349644" fill="white" stroke="none"/></mask><circle cx="310.21717147151884" cy="671.2849270305801" r="113.33548600349644" fill="none" mask="url(#_mask_7pxeRZIMkB9Qg6GTxFGcFdxdxOrYK7fC)" stroke-width="10" stroke="rgb(0,0,0)" stroke-linejoin="miter" stroke-linecap="square" stroke-miterlimit="3"/><mask id="_mask_kHbCNpomXj5Aw8xBUc0MQQO2bDJpJudF"><circle cx="737.4653850231327" cy="737.4653850231327" r="737.4653850231327" fill="white" stroke="none"/></mask><circle cx="737.4653850231327" cy="737.4653850231327" r="737.4653850231327" fill="none" mask="url(#_mask_kHbCNpomXj5Aw8xBUc0MQQO2bDJpJudF)" stroke-width="30" stroke="rgb(0,0,0)" stroke-linejoin="miter" stroke-linecap="square" stroke-miterlimit="3"/><mask id="_mask_wyuxHwcdDtWxwiecgdNVL1Y71pATHhqw"><path d=" M 84.489 475.025 C 51.813 556.135 33.829 644.717 33.829 737.465 C 33.829 881.898 77.44 1016.226 152.202 1127.986 C 201.218 1101.58 257.279 1086.6 316.811 1086.6 C 508.89 1086.6 664.834 1242.544 664.834 1434.623 C 664.834 1435.543 664.83 1436.463 664.822 1437.381 C 688.703 1439.844 712.938 1441.102 737.465 1441.102 C 999.669 1441.102 1228.567 1297.373 1349.606 1084.471 C 1320.676 1119.977 1276.605 1142.654 1227.279 1142.654 C 1140.172 1142.654 1069.452 1071.934 1069.452 984.827 C 1069.452 897.72 1140.172 827 1227.279 827 C 1314.386 827 1385.106 897.72 1385.106 984.827 C 1385.106 998.401 1383.389 1011.577 1380.152 1024.147 C 1419.32 936.567 1441.102 839.54 1441.102 737.465 C 1441.102 691.621 1436.708 646.794 1428.311 603.388 C 1418.914 604.84 1409.286 605.588 1399.485 605.588 C 1295.254 605.588 1210.631 520.965 1210.631 416.734 C 1210.631 362.237 1233.765 313.1 1270.737 278.615 C 1213.585 212.262 1144.271 156.677 1066.27 115.336 C 1061.918 306.655 905.239 460.628 712.882 460.628 C 529.862 460.628 379.141 321.24 361.193 142.917 C 333.31 160.612 306.754 180.213 281.717 201.547 C 328.62 231.56 359.732 284.117 359.732 343.882 C 359.732 437.09 284.059 512.764 190.85 512.764 C 150.552 512.764 113.531 498.619 84.489 475.025 Z " fill-rule="evenodd" fill="white" stroke="none"/></mask><path d=" M 84.489 475.025 C 51.813 556.135 33.829 644.717 33.829 737.465 C 33.829 881.898 77.44 1016.226 152.202 1127.986 C 201.218 1101.58 257.279 1086.6 316.811 1086.6 C 508.89 1086.6 664.834 1242.544 664.834 1434.623 C 664.834 1435.543 664.83 1436.463 664.822 1437.381 C 688.703 1439.844 712.938 1441.102 737.465 1441.102 C 999.669 1441.102 1228.567 1297.373 1349.606 1084.471 C 1320.676 1119.977 1276.605 1142.654 1227.279 1142.654 C 1140.172 1142.654 1069.452 1071.934 1069.452 984.827 C 1069.452 897.72 1140.172 827 1227.279 827 C 1314.386 827 1385.106 897.72 1385.106 984.827 C 1385.106 998.401 1383.389 1011.577 1380.152 1024.147 C 1419.32 936.567 1441.102 839.54 1441.102 737.465 C 1441.102 691.621 1436.708 646.794 1428.311 603.388 C 1418.914 604.84 1409.286 605.588 1399.485 605.588 C 1295.254 605.588 1210.631 520.965 1210.631 416.734 C 1210.631 362.237 1233.765 313.1 1270.737 278.615 C 1213.585 212.262 1144.271 156.677 1066.27 115.336 C 1061.918 306.655 905.239 460.628 712.882 460.628 C 529.862 460.628 379.141 321.24 361.193 142.917 C 333.31 160.612 306.754 180.213 281.717 201.547 C 328.62 231.56 359.732 284.117 359.732 343.882 C 359.732 437.09 284.059 512.764 190.85 512.764 C 150.552 512.764 113.531 498.619 84.489 475.025 Z " fill-rule="evenodd" fill="none" mask="url(#_mask_wyuxHwcdDtWxwiecgdNVL1Y71pATHhqw)" stroke-width="30" stroke="rgb(0,0,0)" stroke-linejoin="miter" stroke-linecap="square" stroke-miterlimit="3"/><path d=" M 823 997 C 884.209 977.164 921 907.366 921 825.11 C 921 810.555 918.037 796.962 915.238 784.342 L 910.189 784.745 C 913.014 797.222 914.52 810.681 914.52 825.11 C 914.52 905.545 865.842 955.232 805.732 974.165 L 809.008 978.26 L 823 997 Z " fill="rgb(0,0,0)"/><path d=" M 984 1099 C 987.184 1037.708 1015.969 995.385 1061.428 977.998 L 1060.704 972.928 C 1013.371 990.601 969.762 1028.629 966 1092 L 976.682 1096.026 L 984 1099 Z " fill="rgb(0,0,0)"/><path d=" M 1003 764 C 1023.015 816.836 1051.294 860.239 1092.37 890.507 L 1089.328 894.562 C 1047.408 863.669 1007.338 823.027 987 769 L 997.875 765.852 L 1003 764 Z " fill="rgb(0,0,0)"/><path d=" M 881 996 C 909.658 922.58 1003.859 903.222 1070.865 930.177 L 1069.181 934.893 C 1004.265 908.558 923.21 936.387 896 1008 L 885.955 999.888 L 881 996 Z " fill="rgb(0,0,0)"/></g></svg>
