<?xml version="1.0" standalone="no"?><!-- Generator: Gravit.io --><svg xmlns="http://www.w3.org/2000/svg" xmlns:xlink="http://www.w3.org/1999/xlink" style="isolation:isolate" viewBox="0 0 662.154 406.047" width="662.154" height="406.047"><defs><clipPath id="_clipPath_BGaUAg553ApCjmvRKSKJaB1VVLrlulGb"><rect width="662.154" height="406.047"/></clipPath></defs><g clip-path="url(#_clipPath_BGaUAg553ApCjmvRKSKJaB1VVLrlulGb)"><mask id="_mask_6hg9vieOjBa9uxe900E6PcOzoj8WKuhX"><circle cx="427.6541531341701" cy="100.50000000000006" r="15.5" fill="white" stroke="none"/></mask><circle cx="427.6541531341701" cy="100.50000000000006" r="15.5" fill="none" mask="url(#_mask_6hg9vieOjBa9uxe900E6PcOzoj8WKuhX)" stroke-width="20" stroke="rgb(0,0,0)" stroke-linejoin="miter" stroke-linecap="square" stroke-miterlimit="3"/><mask id="_mask_74Ytm6KiYZdRfyuJGk8YimpXuTJjrn8T"><path d=" M 218.447 150.356 C 210.248 185.564 175.007 207.492 139.798 199.293 C 104.59 191.094 82.662 155.852 90.861 120.644 C 99.06 85.436 134.302 63.508 169.51 71.707 C 204.718 79.906 226.646 115.148 218.447 150.356 Z " fill="white" stroke="none"/></mask><path d=" M 218.447 150.356 C 210.248 185.564 175.007 207.492 139.798 199.293 C 104.59 191.094 82.662 155.852 90.861 120.644 C 99.06 85.436 134.302 63.508 169.51 71.707 C 204.718 79.906 226.646 115.148 218.447 150.356 Z " fill="none" mask="url(#_mask_74Ytm6KiYZdRfyuJGk8YimpXuTJjrn8T)" stroke-width="20" stroke="rgb(0,0,0)" stroke-linejoin="miter" stroke-linecap="square" stroke-miterlimit="3"/><mask id="_mask_9VRADs15mBzBcylm16cr5QhDujkBr99Y"><circle cx="154.6541531341701" cy="135.4999999999999" r="18.87288135593215" fill="white" stroke="none"/></mask><circle cx="154.6541531341701" cy="135.4999999999999" r="18.87288135593215" fill="none" mask="url(#_mask_9VRADs15mBzBcylm16cr5QhDujkBr99Y)" stroke-width="20" stroke="rgb(0,0,0)" stroke-linejoin="miter" stroke-linecap="square" stroke-miterlimit="3"/><mask id="_mask_wdHifZ4zK5TewR1hCQhv147hpHShQxpl"><circle cx="82.577076567085" cy="272.42292343291496" r="82.57707656708499" fill="white" stroke="none"/></mask><circle cx="82.577076567085" cy="272.42292343291496" r="82.57707656708499" fill="none" mask="url(#_mask_wdHifZ4zK5TewR1hCQhv147hpHShQxpl)" stroke-width="20" stroke="rgb(0,0,0)" stroke-linejoin="miter" stroke-linecap="square" stroke-miterlimit="3"/><mask id="_mask_wnT0wWyztZ70NwB869LVBR4lHPbG7JNe"><circle cx="643.65415313417" cy="373.5" r="18.5" fill="white" stroke="none"/></mask><circle cx="643.65415313417" cy="373.5" r="18.5" fill="none" mask="url(#_mask_wnT0wWyztZ70NwB869LVBR4lHPbG7JNe)" stroke-width="20" stroke="rgb(0,0,0)" stroke-linejoin="miter" stroke-linecap="square" stroke-miterlimit="3"/><mask id="_mask_kGTyINgoa8giSXXrLZ5SxmzDLFmsTkuZ"><circle cx="558.1541531341701" cy="268.6183390736182" r="53" fill="white" stroke="none"/></mask><circle cx="558.1541531341701" cy="268.6183390736182" r="53" fill="none" mask="url(#_mask_kGTyINgoa8giSXXrLZ5SxmzDLFmsTkuZ)" stroke-width="20" stroke="rgb(0,0,0)" stroke-linejoin="miter" stroke-linecap="square" stroke-miterlimit="3"/><mask id="_mask_D2zQOvdodum3ycXrGfl8UxrQPQtR2lZS"><path d=" M 582.096 163.515 C 617.905 189.809 641.154 232.211 641.154 280 C 641.154 318.946 625.713 354.314 600.622 380.307 C 581.084 359.208 553.149 346 522.154 346 C 479.942 346 443.406 370.497 426.016 406.047 C 381.948 381.294 352.154 334.099 352.154 280 C 352.154 220.652 388.01 169.613 439.232 147.402 C 454.738 174.062 483.618 192 516.654 192 C 542.477 192 565.761 181.04 582.096 163.515 Z " fill-rule="evenodd" fill="white" stroke="none"/></mask><path d=" M 582.096 163.515 C 617.905 189.809 641.154 232.211 641.154 280 C 641.154 318.946 625.713 354.314 600.622 380.307 C 581.084 359.208 553.149 346 522.154 346 C 479.942 346 443.406 370.497 426.016 406.047 C 381.948 381.294 352.154 334.099 352.154 280 C 352.154 220.652 388.01 169.613 439.232 147.402 C 454.738 174.062 483.618 192 516.654 192 C 542.477 192 565.761 181.04 582.096 163.515 Z " fill-rule="evenodd" fill="none" mask="url(#_mask_D2zQOvdodum3ycXrGfl8UxrQPQtR2lZS)" stroke-width="40" stroke="rgb(0,0,0)" stroke-linejoin="miter" stroke-linecap="square" stroke-miterlimit="3"/><mask id="_mask_lYmzlECxzgo8bLnYhLFAmDKt1B1up203"><path d=" M 430.683 174.435 C 426.214 124.714 402.734 80.438 367.574 48.937 C 374.278 59.787 378.142 72.571 378.142 86.25 C 378.142 125.574 346.216 157.5 306.892 157.5 C 267.568 157.5 235.642 125.574 235.642 86.25 C 235.642 46.926 267.568 15 306.892 15 C 309.71 15 312.491 15.164 315.223 15.49 C 292.031 5.52 266.482 0 239.654 0 C 133.79 0 47.842 85.948 47.842 191.813 C 47.842 284.402 113.587 361.758 200.904 379.692 C 187.973 368.068 179.842 351.214 179.842 332.475 C 179.842 297.415 208.306 268.95 243.367 268.95 C 278.427 268.95 306.892 297.415 306.892 332.475 C 306.892 350.015 299.767 365.905 288.249 377.396 C 323.815 368.099 355.37 348.837 379.731 322.763 C 374.822 309.432 372.154 295.025 372.154 280 C 372.154 235.512 395.539 196.443 430.683 174.435 Z " fill-rule="evenodd" fill="white" stroke="none"/></mask><path d=" M 430.683 174.435 C 426.214 124.714 402.734 80.438 367.574 48.937 C 374.278 59.787 378.142 72.571 378.142 86.25 C 378.142 125.574 346.216 157.5 306.892 157.5 C 267.568 157.5 235.642 125.574 235.642 86.25 C 235.642 46.926 267.568 15 306.892 15 C 309.71 15 312.491 15.164 315.223 15.49 C 292.031 5.52 266.482 0 239.654 0 C 133.79 0 47.842 85.948 47.842 191.813 C 47.842 284.402 113.587 361.758 200.904 379.692 C 187.973 368.068 179.842 351.214 179.842 332.475 C 179.842 297.415 208.306 268.95 243.367 268.95 C 278.427 268.95 306.892 297.415 306.892 332.475 C 306.892 350.015 299.767 365.905 288.249 377.396 C 323.815 368.099 355.37 348.837 379.731 322.763 C 374.822 309.432 372.154 295.025 372.154 280 C 372.154 235.512 395.539 196.443 430.683 174.435 Z " fill-rule="evenodd" fill="none" mask="url(#_mask_lYmzlECxzgo8bLnYhLFAmDKt1B1up203)" stroke-width="40" stroke="rgb(0,0,0)" stroke-linejoin="miter" stroke-linecap="square" stroke-miterlimit="3"/><circle cx="362.7795387894258" cy="287.62538565525574" r="27.625385655255684" fill="rgb(0,0,0)"/><circle cx="368.7795387894257" cy="232.37461434474437" r="25.374614344744373" fill="rgb(0,0,0)"/><circle cx="396.86965106306536" cy="189.8458468658299" r="23.30722405759468" fill="rgb(0,0,0)"/><circle cx="359.1541531341701" cy="149.00292930996454" r="21.40827387130065" fill="rgb(0,0,0)"/><circle cx="306.490112962931" cy="166.53862280823523" r="19.66404017123915" fill="rgb(0,0,0)"/><circle cx="257.32435013173335" cy="152.34928571044702" r="18.06191747081823" fill="rgb(0,0,0)"/><path d=" M 228.905 156.112 C 226.829 165.03 217.902 170.584 208.985 168.507 C 200.067 166.431 194.513 157.504 196.589 148.586 C 198.666 139.669 207.592 134.115 216.51 136.191 C 225.428 138.268 230.982 147.194 228.905 156.112 Z " fill="rgb(0,0,0)"/><path d=" M 205.237 187.357 C 203.329 195.549 195.131 200.65 186.939 198.743 C 178.748 196.835 173.646 188.636 175.554 180.445 C 177.462 172.254 185.66 167.152 193.852 169.06 C 202.043 170.967 207.145 179.166 205.237 187.357 Z " fill="rgb(0,0,0)"/><path d=" M 170.786 198.79 C 169.034 206.313 161.503 210.999 153.979 209.247 C 146.455 207.495 141.769 199.964 143.521 192.44 C 145.274 184.916 152.804 180.23 160.328 181.983 C 167.852 183.735 172.538 191.266 170.786 198.79 Z " fill="rgb(0,0,0)"/><circle cx="90.01081602923466" cy="196.7577852201248" r="12.856662895064574" fill="rgb(0,0,0)"/><circle cx="149.96332267097915" cy="309.8091695368091" r="11.809169536809094" fill="rgb(0,0,0)"/><circle cx="463.4234645382877" cy="187.42238232754227" r="25.730688595882384" fill="rgb(0,0,0)"/><circle cx="511.34621892181735" cy="201.01169028950665" r="22.192065787647124" fill="rgb(0,0,0)"/><circle cx="517.0140596971811" cy="245.8599065630109" r="19.14009343698902" fill="rgb(0,0,0)"/><circle cx="511.34621892181735" cy="283.4921552467374" r="16.507844753262702" fill="rgb(0,0,0)"/><circle cx="533.5382847094644" cy="310.7624029216498" r="14.237597078350063" fill="rgb(0,0,0)"/><path d=" M 432.765 376.189 C 438.729 380.181 445.075 383.604 451.714 386.42 C 465.934 392.42 481.214 395.51 496.654 395.5 C 512.094 395.51 527.374 392.42 541.594 386.42 C 555.314 380.6 567.784 372.19 578.314 361.66 C 580.528 359.446 582.647 357.147 584.662 354.763 L 576.218 349.253 C 574.62 351.082 572.958 352.86 571.234 354.58 C 561.624 364.21 550.234 371.89 537.704 377.21 C 524.714 382.69 510.754 385.51 496.654 385.5 C 482.554 385.51 468.594 382.69 455.604 377.21 C 450.044 374.849 444.708 372.024 439.651 368.773 L 432.765 376.189 L 432.765 376.189 Z " fill="rgb(0,0,0)"/></g></svg>
