<?xml version="1.0" standalone="no"?><!-- Generator: Gravit.io --><svg xmlns="http://www.w3.org/2000/svg" xmlns:xlink="http://www.w3.org/1999/xlink" style="isolation:isolate" viewBox="0 0 236 225.287" width="236" height="225.287"><defs><clipPath id="_clipPath_x3oIFPO9KpezWYH2eX7PBmBLRgAJqnm5"><rect width="236" height="225.287"/></clipPath></defs><g clip-path="url(#_clipPath_x3oIFPO9KpezWYH2eX7PBmBLRgAJqnm5)"><mask id="_mask_pfUxakp7yaFks4VP9GjHD1WSnKlzKo4E"><circle cx="131.49999999999994" cy="114.78719410393" r="37.500000000000085" fill="white" stroke="none"/></mask><circle cx="131.49999999999994" cy="114.78719410393" r="37.500000000000085" fill="none" mask="url(#_mask_pfUxakp7yaFks4VP9GjHD1WSnKlzKo4E)" stroke-width="10" stroke="rgb(0,0,0)" stroke-linejoin="miter" stroke-linecap="square" stroke-miterlimit="3"/><mask id="_mask_j7qbeLno51Ez0MrIiU5a8hEiODsZS1sS"><circle cx="131.4999999999999" cy="114.78719410393" r="48.50000000000001" fill="white" stroke="none"/></mask><circle cx="131.4999999999999" cy="114.78719410393" r="48.50000000000001" fill="none" mask="url(#_mask_j7qbeLno51Ez0MrIiU5a8hEiODsZS1sS)" stroke-width="16" stroke="rgb(0,0,0)" stroke-linejoin="miter" stroke-linecap="square" stroke-miterlimit="3"/><mask id="_mask_gPbGOgI9SoYeZ3Umo7K6uzPv5Q6IjsdM"><path d=" M 27.141 75.504 C 26.384 80.153 26 84.926 26 89.787 C 26 139.736 66.552 180.287 116.5 180.287 C 166.448 180.287 207 139.736 207 89.787 C 207 43.722 172.509 5.65 127.968 0 C 127.989 0.76 128 1.522 128 2.287 C 128 44.785 93.497 79.287 51 79.287 C 42.672 79.287 34.651 77.962 27.141 75.504 Z " fill-rule="evenodd" fill="white" stroke="none"/></mask><path d=" M 27.141 75.504 C 26.384 80.153 26 84.926 26 89.787 C 26 139.736 66.552 180.287 116.5 180.287 C 166.448 180.287 207 139.736 207 89.787 C 207 43.722 172.509 5.65 127.968 0 C 127.989 0.76 128 1.522 128 2.287 C 128 44.785 93.497 79.287 51 79.287 C 42.672 79.287 34.651 77.962 27.141 75.504 Z " fill-rule="evenodd" fill="none" mask="url(#_mask_gPbGOgI9SoYeZ3Umo7K6uzPv5Q6IjsdM)" stroke-width="20" stroke="rgb(0,0,0)" stroke-linejoin="miter" stroke-linecap="square" stroke-miterlimit="3"/><circle cx="150" cy="97.28719410393" r="12" fill="rgb(0,0,0)"/><path d=" M 149 123.287 C 154.519 123.287 159 127.768 159 133.287 C 159 138.806 154.519 143.287 149 143.287 C 143.481 143.287 139 138.806 139 133.287 C 139 127.768 143.481 123.287 149 123.287 Z " fill="rgb(0,0,0)"/><path d=" M 121 132.287 C 121 136.703 117.415 140.287 113 140.287 C 108.585 140.287 105 136.703 105 132.287 C 105 127.872 108.585 124.287 113 124.287 C 117.415 124.287 121 127.872 121 132.287 Z " fill="rgb(0,0,0)"/><path d=" M 114 102.287 C 110.689 102.287 108 99.599 108 96.287 C 108 92.976 110.689 90.287 114 90.287 C 117.311 90.287 120 92.976 120 96.287 C 120 99.599 117.311 102.287 114 102.287 Z " fill="rgb(0,0,0)"/><circle cx="184" cy="96.28719410393" r="12" fill="rgb(0,0,0)"/><circle cx="170.5" cy="77.28719410392992" r="10.500000000000028" fill="rgb(0,0,0)"/><circle cx="153.4999999999999" cy="66.78719410393" r="8.5" fill="rgb(0,0,0)"/><mask id="_mask_wuuN9cM6A8jflc8cxS0UBSxO0CBpI2Bs"><circle cx="217.25" cy="40.53719410393006" r="18.749999999999943" fill="white" stroke="none"/></mask><circle cx="217.25" cy="40.53719410393006" r="18.749999999999943" fill="none" mask="url(#_mask_wuuN9cM6A8jflc8cxS0UBSxO0CBpI2Bs)" stroke-width="10" stroke="rgb(0,0,0)" stroke-linejoin="miter" stroke-linecap="square" stroke-miterlimit="3"/><mask id="_mask_EnteKBHy9NDQPrKjJJbnpbM9e1QSfzw4"><circle cx="15" cy="128.28719410393" r="15" fill="white" stroke="none"/></mask><circle cx="15" cy="128.28719410393" r="15" fill="none" mask="url(#_mask_EnteKBHy9NDQPrKjJJbnpbM9e1QSfzw4)" stroke-width="10" stroke="rgb(0,0,0)" stroke-linejoin="miter" stroke-linecap="square" stroke-miterlimit="3"/><circle cx="110.5" cy="14.5" r="14.499999999999972" fill="rgb(0,0,0)"/><circle cx="98.50000000000017" cy="42.28719410393015" r="11.999999999999815" fill="rgb(0,0,0)"/><circle cx="79.93103448275832" cy="61.218228586688355" r="9.93103448275835" fill="rgb(0,0,0)"/><path d=" M 51.712 147.295 C 43.465 147.367 35.562 150.678 29.73 156.51 C 23.82 162.42 20.5 170.44 20.5 178.79 C 20.5 187.14 23.82 195.16 29.73 201.06 C 35.63 206.97 43.65 210.29 52 210.29 C 60.35 210.29 68.37 206.97 74.27 201.06 C 80.18 195.16 83.5 187.14 83.5 178.79 C 83.5 174.853 82.762 170.99 81.347 167.393 L 98.039 172.262 C 98.345 174.393 98.5 176.572 98.5 178.787 C 98.5 204.451 77.664 225.287 52 225.287 C 26.336 225.287 5.5 204.451 5.5 178.787 C 5.5 155.563 22.563 136.292 44.821 132.824 L 51.712 147.295 L 51.712 147.295 Z " fill="rgb(0,0,0)"/><circle cx="38" cy="169.50999450683594" r="13" fill="rgb(0,0,0)"/><circle cx="41.71179798905959" cy="195" r="10" fill="rgb(0,0,0)"/><circle cx="63.999999999999986" cy="199" r="7.0000000000000036" fill="rgb(0,0,0)"/></g></svg>
