<?xml version="1.0" standalone="no"?><!-- Generator: Gravit.io --><svg xmlns="http://www.w3.org/2000/svg" xmlns:xlink="http://www.w3.org/1999/xlink" style="isolation:isolate" viewBox="0 0 2929 1811.025" width="2929" height="1811.025"><defs><clipPath id="_clipPath_O8gj3bh4yse22cUBHCjhd4zFDB8Ldmy6"><rect width="2929" height="1811.025"/></clipPath></defs><g clip-path="url(#_clipPath_O8gj3bh4yse22cUBHCjhd4zFDB8Ldmy6)"><g><mask id="_mask_98xk6LdcV7OMDEgvvVfkv94mIx0x0jfy"><circle cx="734.6672335525475" cy="823.3038528707875" r="734.6672335525475" fill="white" stroke="none"/></mask><circle cx="734.6672335525475" cy="823.3038528707875" r="734.6672335525475" fill="none" mask="url(#_mask_98xk6LdcV7OMDEgvvVfkv94mIx0x0jfy)" stroke-width="30" stroke="rgb(0,0,0)" stroke-linejoin="miter" stroke-linecap="square" stroke-miterlimit="3"/><g><g><mask id="_mask_0Wg2cGSMxkZoUvlsmmj6vt13DrTS8ToH"><circle cx="963.4859019375325" cy="789.6462016363275" r="49.81442793702729" fill="white" stroke="none"/></mask><circle cx="963.4859019375325" cy="789.6462016363275" r="49.81442793702729" fill="none" mask="url(#_mask_0Wg2cGSMxkZoUvlsmmj6vt13DrTS8ToH)" stroke-width="10" stroke="rgb(0,0,0)" stroke-linejoin="miter" stroke-linecap="square" stroke-miterlimit="3"/><mask id="_mask_NxkGMzucEWi5OQjKrQk0KlIFxDZfJ8Dv"><circle cx="998.6106925030388" cy="1254.6157516413753" r="44.92712090087565" fill="white" stroke="none"/></mask><circle cx="998.6106925030388" cy="1254.6157516413753" r="44.92712090087565" fill="none" mask="url(#_mask_NxkGMzucEWi5OQjKrQk0KlIFxDZfJ8Dv)" stroke-width="10" stroke="rgb(0,0,0)" stroke-linejoin="miter" stroke-linecap="square" stroke-miterlimit="3"/><mask id="_mask_BJkRJ5FT4yC3xvVbFdLMNiS7ELLBC3zL"><circle cx="1021.5335097773591" cy="634.906769928647" r="49.814427937027176" fill="white" stroke="none"/></mask><circle cx="1021.5335097773591" cy="634.906769928647" r="49.814427937027176" fill="none" mask="url(#_mask_BJkRJ5FT4yC3xvVbFdLMNiS7ELLBC3zL)" stroke-width="10" stroke="rgb(0,0,0)" stroke-linejoin="miter" stroke-linecap="square" stroke-miterlimit="3"/><mask id="_mask_guNvHL3oThA0zbZiEi05PUJWRLCb1sXH"><path d=" M 783.064 502.621 C 995.423 530.567 1159.553 712.471 1159.553 932.407 C 1159.553 1124.076 1034.901 1286.861 862.306 1344.035 C 862.22 1217 759.058 1113.892 632.003 1113.892 C 540.822 1113.892 461.947 1166.994 424.681 1243.956 C 343.183 1165.121 292.49 1054.637 292.49 932.407 C 292.49 919.329 293.07 906.386 294.195 893.599 C 341.531 918.386 395.376 932.407 452.47 932.407 C 641.223 932.407 794.466 779.164 794.466 590.412 C 794.466 560.066 790.505 530.638 783.064 502.621 Z " fill-rule="evenodd" fill="white" stroke="none"/></mask><path d=" M 783.064 502.621 C 995.423 530.567 1159.553 712.471 1159.553 932.407 C 1159.553 1124.076 1034.901 1286.861 862.306 1344.035 C 862.22 1217 759.058 1113.892 632.003 1113.892 C 540.822 1113.892 461.947 1166.994 424.681 1243.956 C 343.183 1165.121 292.49 1054.637 292.49 932.407 C 292.49 919.329 293.07 906.386 294.195 893.599 C 341.531 918.386 395.376 932.407 452.47 932.407 C 641.223 932.407 794.466 779.164 794.466 590.412 C 794.466 560.066 790.505 530.638 783.064 502.621 Z " fill-rule="evenodd" fill="none" mask="url(#_mask_guNvHL3oThA0zbZiEi05PUJWRLCb1sXH)" stroke-width="20" stroke="rgb(0,0,0)" stroke-linejoin="miter" stroke-linecap="square" stroke-miterlimit="3"/><path d=" M 819.373 1198.193 C 872.842 1179.804 931.278 1184.068 971.719 1223.92 L 980.16 1218.645 C 936.666 1174.461 858.219 1156.294 800.213 1177.118 L 813.142 1191.72 L 819.373 1198.193 Z " fill="rgb(0,0,0)"/><path d=" M 315.195 1045.228 C 402.101 1033.018 503.518 1053.836 567 1115.531 L 531.905 1131.637 C 471.142 1074.162 400.815 1043.799 318.488 1054.862 L 315.195 1045.228 L 315.195 1045.228 Z " fill="rgb(0,0,0)"/><mask id="_mask_Vbo1ZrghMESvSj6pNBqIp81POOAiZDzk"><circle cx="1113.2891165863098" cy="939.9010869966246" r="218.0571762708086" fill="white" stroke="none"/></mask><circle cx="1113.2891165863098" cy="939.9010869966246" r="218.0571762708086" fill="none" mask="url(#_mask_Vbo1ZrghMESvSj6pNBqIp81POOAiZDzk)" stroke-width="10" stroke="rgb(0,0,0)" stroke-linejoin="miter" stroke-linecap="square" stroke-miterlimit="3"/></g><path d=" M 597.124 614.062 C 607.04 331.081 1013.541 311.071 1027.797 591.285 L 1037.457 592.666 C 1033.684 280.141 550.186 293.538 537.73 587.239 L 566.673 595.433 L 597.124 614.062 Z " fill="rgb(0,0,0)"/><g><g><path d=" M 480.814 408.682 C 471.797 390.138 479.533 367.762 498.077 358.746 C 516.621 349.729 538.997 357.464 548.013 376.009 C 557.03 394.553 549.294 416.929 530.75 425.945 C 512.206 434.961 489.83 427.226 480.814 408.682 Z " fill="rgb(0,0,0)"/><path d=" M 332.315 431.885 C 325.61 418.096 331.362 401.457 345.152 394.753 C 358.941 388.048 375.579 393.8 382.284 407.589 C 388.988 421.379 383.236 438.017 369.447 444.722 C 355.658 451.426 339.02 445.674 332.315 431.885 Z " fill="rgb(0,0,0)"/><path d=" M 256.252 580.25 C 251.267 569.996 255.544 557.624 265.798 552.638 C 276.051 547.653 288.423 551.93 293.409 562.184 C 298.394 572.437 294.117 584.809 283.864 589.795 C 273.61 594.78 261.238 590.503 256.252 580.25 Z " fill="rgb(0,0,0)"/></g><mask id="_mask_XTpfX07SZqcWT52t0oCBJXLQbhiAbf0F"><circle cx="501.3269247047341" cy="736.022970772008" r="37.062139612746705" fill="white" stroke="none"/></mask><circle cx="501.3269247047341" cy="736.022970772008" r="37.062139612746705" fill="none" mask="url(#_mask_XTpfX07SZqcWT52t0oCBJXLQbhiAbf0F)" stroke-width="10" stroke="rgb(0,0,0)" stroke-linejoin="miter" stroke-linecap="square" stroke-miterlimit="3"/><mask id="_mask_inqqhqgrSqbZPl65XsjWGFx34uqAwEqB"><path d=" M 541.064 319.546 C 653.688 358.025 734.773 464.824 734.773 590.412 C 734.773 683.482 690.241 766.234 621.31 818.466 C 637.479 795.03 646.938 766.623 646.938 736.023 C 646.938 655.658 581.692 590.412 501.327 590.412 C 420.962 590.412 355.716 655.658 355.716 736.023 C 355.716 802.73 400.669 859.021 461.907 876.231 C 457.512 876.444 453.087 876.546 448.639 876.546 C 290.717 876.546 162.504 748.333 162.504 590.412 C 162.504 590.411 162.504 590.41 162.504 590.409 C 337.961 590.141 487.132 476.875 541.064 319.546 Z " fill-rule="evenodd" fill="white" stroke="none"/></mask><path d=" M 541.064 319.546 C 653.688 358.025 734.773 464.824 734.773 590.412 C 734.773 683.482 690.241 766.234 621.31 818.466 C 637.479 795.03 646.938 766.623 646.938 736.023 C 646.938 655.658 581.692 590.412 501.327 590.412 C 420.962 590.412 355.716 655.658 355.716 736.023 C 355.716 802.73 400.669 859.021 461.907 876.231 C 457.512 876.444 453.087 876.546 448.639 876.546 C 290.717 876.546 162.504 748.333 162.504 590.412 C 162.504 590.411 162.504 590.41 162.504 590.409 C 337.961 590.141 487.132 476.875 541.064 319.546 Z " fill-rule="evenodd" fill="none" mask="url(#_mask_inqqhqgrSqbZPl65XsjWGFx34uqAwEqB)" stroke-width="20" stroke="rgb(0,0,0)" stroke-linejoin="miter" stroke-linecap="square" stroke-miterlimit="3"/><mask id="_mask_Jr0Aa98c0ksW39XksaLmAp8NMNOmg9Dt"><circle cx="642.1484806036375" cy="315.7039787071573" r="39.27676048880994" fill="white" stroke="none"/></mask><circle cx="642.1484806036375" cy="315.7039787071573" r="39.27676048880994" fill="none" mask="url(#_mask_Jr0Aa98c0ksW39XksaLmAp8NMNOmg9Dt)" stroke-width="10" stroke="rgb(0,0,0)" stroke-linejoin="miter" stroke-linecap="square" stroke-miterlimit="3"/><path d=" M 361.047 796.683 C 423.667 764.956 450.406 646.067 446.42 595.433 L 477.053 585.519 C 482.357 637.024 429.72 770.641 364.183 802.48 L 362.719 799.261 L 361.047 796.683 Z " fill="rgb(0,0,0)"/></g></g><mask id="_mask_vN79fMpEQeAwZKsuktTGGFmSMo4ZQEoT"><path d=" M 403.74 231.649 C 502.279 175.915 616.1 144.105 737.292 144.105 C 824.882 144.105 908.622 160.721 985.525 190.977 C 1023.84 452.247 1188.597 672.663 1415.578 787.996 C 1416.187 799.688 1416.491 811.461 1416.491 823.304 C 1416.491 1198.164 1112.152 1502.503 737.292 1502.503 C 697.659 1502.503 658.814 1499.101 621.037 1492.565 C 624.657 1492.837 628.314 1492.971 632.003 1492.971 C 714.114 1492.971 780.778 1426.307 780.778 1344.196 C 780.778 1262.085 714.114 1195.422 632.003 1195.422 C 549.892 1195.422 483.228 1262.085 483.228 1344.196 C 483.228 1409.629 525.561 1465.253 584.304 1485.163 C 439.048 1451.68 311.547 1371.546 218.444 1261.414 C 248.599 1197.79 265.465 1126.665 265.465 1051.632 C 265.465 894.6 191.595 754.686 76.724 664.79 C 96.817 580.874 132.505 502.991 180.566 434.394 C 293.274 425.903 384.836 341.149 403.74 231.649 Z " fill-rule="evenodd" fill="white" stroke="none"/></mask><path d=" M 403.74 231.649 C 502.279 175.915 616.1 144.105 737.292 144.105 C 824.882 144.105 908.622 160.721 985.525 190.977 C 1023.84 452.247 1188.597 672.663 1415.578 787.996 C 1416.187 799.688 1416.491 811.461 1416.491 823.304 C 1416.491 1198.164 1112.152 1502.503 737.292 1502.503 C 697.659 1502.503 658.814 1499.101 621.037 1492.565 C 624.657 1492.837 628.314 1492.971 632.003 1492.971 C 714.114 1492.971 780.778 1426.307 780.778 1344.196 C 780.778 1262.085 714.114 1195.422 632.003 1195.422 C 549.892 1195.422 483.228 1262.085 483.228 1344.196 C 483.228 1409.629 525.561 1465.253 584.304 1485.163 C 439.048 1451.68 311.547 1371.546 218.444 1261.414 C 248.599 1197.79 265.465 1126.665 265.465 1051.632 C 265.465 894.6 191.595 754.686 76.724 664.79 C 96.817 580.874 132.505 502.991 180.566 434.394 C 293.274 425.903 384.836 341.149 403.74 231.649 Z " fill-rule="evenodd" fill="none" mask="url(#_mask_vN79fMpEQeAwZKsuktTGGFmSMo4ZQEoT)" stroke-width="30" stroke="rgb(0,0,0)" stroke-linejoin="miter" stroke-linecap="square" stroke-miterlimit="3"/><g><g><mask id="_mask_F7HNmimGx8CAqRbOgcdjvJr0baMf8YpB"><path d=" M 2391.042 807.838 C 2383.073 781.525 2397.966 753.692 2424.279 745.723 C 2450.592 737.754 2478.424 752.647 2486.394 778.96 C 2494.363 805.274 2479.469 833.106 2453.156 841.075 C 2426.843 849.044 2399.011 834.151 2391.042 807.838 Z " fill="white" stroke="none"/></mask><path d=" M 2391.042 807.838 C 2383.073 781.525 2397.966 753.692 2424.279 745.723 C 2450.592 737.754 2478.424 752.647 2486.394 778.96 C 2494.363 805.274 2479.469 833.106 2453.156 841.075 C 2426.843 849.044 2399.011 834.151 2391.042 807.838 Z " fill="none" mask="url(#_mask_F7HNmimGx8CAqRbOgcdjvJr0baMf8YpB)" stroke-width="10" stroke="rgb(0,0,0)" stroke-linejoin="miter" stroke-linecap="square" stroke-miterlimit="3"/><mask id="_mask_bViCc11jVxrdPAVGeltJgWnkzhPwfJW6"><path d=" M 2564.109 1241.25 C 2556.922 1217.518 2570.353 1192.416 2594.085 1185.229 C 2617.816 1178.042 2642.918 1191.474 2650.106 1215.205 C 2657.293 1238.937 2643.861 1264.039 2620.129 1271.226 C 2596.398 1278.413 2571.296 1264.981 2564.109 1241.25 Z " fill="white" stroke="none"/></mask><path d=" M 2564.109 1241.25 C 2556.922 1217.518 2570.353 1192.416 2594.085 1185.229 C 2617.816 1178.042 2642.918 1191.474 2650.106 1215.205 C 2657.293 1238.937 2643.861 1264.039 2620.129 1271.226 C 2596.398 1278.413 2571.296 1264.981 2564.109 1241.25 Z " fill="none" mask="url(#_mask_bViCc11jVxrdPAVGeltJgWnkzhPwfJW6)" stroke-width="10" stroke="rgb(0,0,0)" stroke-linejoin="miter" stroke-linecap="square" stroke-miterlimit="3"/><mask id="_mask_h5SGLGuKbc1DCLxiOD5YXeA2yJO6x9Cx"><path d=" M 2401.746 642.916 C 2393.777 616.603 2408.67 588.77 2434.983 580.801 C 2461.296 572.832 2489.129 587.725 2497.098 614.039 C 2505.067 640.352 2490.174 668.184 2463.86 676.153 C 2437.547 684.122 2409.715 669.229 2401.746 642.916 Z " fill="white" stroke="none"/></mask><path d=" M 2401.746 642.916 C 2393.777 616.603 2408.67 588.77 2434.983 580.801 C 2461.296 572.832 2489.129 587.725 2497.098 614.039 C 2505.067 640.352 2490.174 668.184 2463.86 676.153 C 2437.547 684.122 2409.715 669.229 2401.746 642.916 Z " fill="none" mask="url(#_mask_h5SGLGuKbc1DCLxiOD5YXeA2yJO6x9Cx)" stroke-width="10" stroke="rgb(0,0,0)" stroke-linejoin="miter" stroke-linecap="square" stroke-miterlimit="3"/><mask id="_mask_Lo0JiLT7aYU5hFKPCbVmulYGI3hHAESW"><path d=" M 2317.803 570.198 C 2477.826 594.609 2617.735 708.064 2667.747 873.201 C 2723.303 1056.642 2651.186 1248.569 2502.573 1353.316 C 2465.669 1231.76 2337.049 1162.979 2215.448 1199.807 C 2128.182 1226.235 2068.084 1299.921 2054.726 1384.38 C 1973.076 1342.419 1904.738 1274.751 1862.894 1188.412 C 1896.988 1185.333 1931.273 1178.743 1965.312 1168.434 C 2222.45 1090.559 2373.583 828.3 2317.803 570.198 Z " fill-rule="evenodd" fill="white" stroke="none"/></mask><path d=" M 2317.803 570.198 C 2477.826 594.609 2617.735 708.064 2667.747 873.201 C 2723.303 1056.642 2651.186 1248.569 2502.573 1353.316 C 2465.669 1231.76 2337.049 1162.979 2215.448 1199.807 C 2128.182 1226.235 2068.084 1299.921 2054.726 1384.38 C 1973.076 1342.419 1904.738 1274.751 1862.894 1188.412 C 1896.988 1185.333 1931.273 1178.743 1965.312 1168.434 C 2222.45 1090.559 2373.583 828.3 2317.803 570.198 Z " fill-rule="evenodd" fill="none" mask="url(#_mask_Lo0JiLT7aYU5hFKPCbVmulYGI3hHAESW)" stroke-width="20" stroke="rgb(0,0,0)" stroke-linejoin="miter" stroke-linecap="square" stroke-miterlimit="3"/><path d=" M 2419.21 1226.179 C 2465.053 1193.082 2522.217 1180.225 2572.473 1206.644 L 2579.022 1199.149 C 2524.589 1169.468 2444.244 1174.819 2394.764 1211.562 L 2411.37 1221.791 L 2419.21 1226.179 Z " fill="rgb(0,0,0)"/><path d=" M 1892.291 1225.764 C 1976.224 1188.203 2083.844 1176.312 2164.634 1213.194 L 2133.822 1238.54 C 2056.928 1204.675 1977.906 1198.414 1898.257 1233.537 L 1892.291 1225.764 L 1892.291 1225.764 Z " fill="rgb(0,0,0)"/><mask id="_mask_L5l0u8aoHuWtMM9UwoHa92hCDUfgn9f0"><path d=" M 2416.945 956.988 C 2382.062 841.805 2447.255 719.97 2562.437 685.087 C 2677.62 650.203 2799.454 715.396 2834.338 830.579 C 2869.221 945.761 2804.029 1067.596 2688.846 1102.479 C 2573.664 1137.363 2451.829 1072.17 2416.945 956.988 Z " fill="white" stroke="none"/></mask><path d=" M 2416.945 956.988 C 2382.062 841.805 2447.255 719.97 2562.437 685.087 C 2677.62 650.203 2799.454 715.396 2834.338 830.579 C 2869.221 945.761 2804.029 1067.596 2688.846 1102.479 C 2573.664 1137.363 2451.829 1072.17 2416.945 956.988 Z " fill="none" mask="url(#_mask_L5l0u8aoHuWtMM9UwoHa92hCDUfgn9f0)" stroke-width="10" stroke="rgb(0,0,0)" stroke-linejoin="miter" stroke-linecap="square" stroke-miterlimit="3"/></g><g><mask id="_mask_17UMMFm2mPo6Et92A287K8kWsF9R295Q"><path d=" M 2111.84 321.267 C 2104.641 297.497 2118.095 272.354 2141.865 265.155 C 2165.635 257.956 2190.777 271.41 2197.976 295.18 C 2205.175 318.95 2191.721 344.093 2167.951 351.291 C 2144.181 358.49 2119.039 345.037 2111.84 321.267 Z " fill="white" stroke="none"/></mask><path d=" M 2111.84 321.267 C 2104.641 297.497 2118.095 272.354 2141.865 265.155 C 2165.635 257.956 2190.777 271.41 2197.976 295.18 C 2205.175 318.95 2191.721 344.093 2167.951 351.291 C 2144.181 358.49 2119.039 345.037 2111.84 321.267 Z " fill="none" mask="url(#_mask_17UMMFm2mPo6Et92A287K8kWsF9R295Q)" stroke-width="10" stroke="rgb(0,0,0)" stroke-linejoin="miter" stroke-linecap="square" stroke-miterlimit="3"/><mask id="_mask_JeLVZJg5TYN9q4CL95pWdzwmy7f26Qh4"><path d=" M 1512.865 1039.723 C 1505.506 1015.425 1519.259 989.724 1543.557 982.365 C 1567.855 975.006 1593.557 988.759 1600.916 1013.057 C 1608.274 1037.355 1594.522 1063.057 1570.223 1070.415 C 1545.925 1077.774 1520.224 1064.022 1512.865 1039.723 Z " fill="white" stroke="none"/></mask><path d=" M 1512.865 1039.723 C 1505.506 1015.425 1519.259 989.724 1543.557 982.365 C 1567.855 975.006 1593.557 988.759 1600.916 1013.057 C 1608.274 1037.355 1594.522 1063.057 1570.223 1070.415 C 1545.925 1077.774 1520.224 1064.022 1512.865 1039.723 Z " fill="none" mask="url(#_mask_JeLVZJg5TYN9q4CL95pWdzwmy7f26Qh4)" stroke-width="10" stroke="rgb(0,0,0)" stroke-linejoin="miter" stroke-linecap="square" stroke-miterlimit="3"/><mask id="_mask_2sdrmcVP3BxhI5HjYqsfSXUh1EDoDHQS"><path d=" M 1795.858 236.583 C 1993.338 227.135 2179.706 352.155 2239.592 549.892 C 2281.036 686.738 2252.757 828.219 2175.224 936.097 C 2181.033 903.317 2179.422 868.722 2169.12 834.705 C 2134.086 719.024 2011.725 653.55 1896.044 688.584 C 1780.363 723.618 1714.889 845.98 1749.923 961.66 C 1773.036 1037.977 1834.156 1092.442 1906.293 1110.606 C 1752.697 1142.54 1597.785 1089.718 1495 980.735 C 1728.982 816.734 1852.133 525.953 1795.858 236.583 Z " fill-rule="evenodd" fill="white" stroke="none"/></mask><path d=" M 1795.858 236.583 C 1993.338 227.135 2179.706 352.155 2239.592 549.892 C 2281.036 686.738 2252.757 828.219 2175.224 936.097 C 2181.033 903.317 2179.422 868.722 2169.12 834.705 C 2134.086 719.024 2011.725 653.55 1896.044 688.584 C 1780.363 723.618 1714.889 845.98 1749.923 961.66 C 1773.036 1037.977 1834.156 1092.442 1906.293 1110.606 C 1752.697 1142.54 1597.785 1089.718 1495 980.735 C 1728.982 816.734 1852.133 525.953 1795.858 236.583 Z " fill-rule="evenodd" fill="none" mask="url(#_mask_2sdrmcVP3BxhI5HjYqsfSXUh1EDoDHQS)" stroke-width="20" stroke="rgb(0,0,0)" stroke-linejoin="miter" stroke-linecap="square" stroke-miterlimit="3"/><path d=" M 2042.367 689.814 C 2071.979 605.266 2093.96 512.479 2071.774 420.124 C 2054.135 361.882 2038.534 323.485 2001.006 279.604 L 1954.899 263.885 C 1994.99 308.775 2026.089 362.427 2044.339 422.686 C 2071.342 511.849 2066.914 604.588 2037.632 688.167 L 2042.367 689.814 L 2042.367 689.814 Z " fill="rgb(0,0,0)"/></g><path d=" M 1933.643 675.587 C 1926.373 561.444 2012.481 456.926 2118.767 423.907 C 2242.192 385.564 2389.248 462.388 2427.18 586.239 L 2427.18 586.239 L 2427.18 586.239 L 2427.18 586.239 L 2427.18 586.239 L 2449.193 579.573 C 2449.097 579.227 2477.194 589.231 2477.09 588.886 C 2435.279 450.83 2262.929 363.23 2124.52 399.683 C 2000.827 432.26 1921.178 553.252 1928.814 676.213 L 1933.643 675.587 L 1933.643 675.587 Z " fill="rgb(0,0,0)"/></g><mask id="_mask_DlCibH8OoR3oEerumZPNYkWUVcbOrF67"><path d=" M 1302.71 357.599 C 1468.177 140.334 1729.573 0 2023.487 0 C 2523.253 0 2929 405.747 2929 905.513 C 2929 1405.279 2523.253 1811.025 2023.487 1811.025 C 1688.283 1811.025 1395.375 1628.493 1238.831 1357.482 C 1107.225 1481.749 929.777 1557.971 734.667 1557.971 C 329.193 1557.971 0 1228.778 0 823.304 C 0 417.83 329.193 88.637 734.667 88.637 C 963.441 88.637 1167.933 193.431 1302.71 357.599 Z " fill-rule="evenodd" fill="white" stroke="none"/></mask><path d=" M 1302.71 357.599 C 1468.177 140.334 1729.573 0 2023.487 0 C 2523.253 0 2929 405.747 2929 905.513 C 2929 1405.279 2523.253 1811.025 2023.487 1811.025 C 1688.283 1811.025 1395.375 1628.493 1238.831 1357.482 C 1107.225 1481.749 929.777 1557.971 734.667 1557.971 C 329.193 1557.971 0 1228.778 0 823.304 C 0 417.83 329.193 88.637 734.667 88.637 C 963.441 88.637 1167.933 193.431 1302.71 357.599 Z " fill-rule="evenodd" fill="none" mask="url(#_mask_DlCibH8OoR3oEerumZPNYkWUVcbOrF67)" stroke-width="30" stroke="rgb(0,0,0)" stroke-linejoin="miter" stroke-linecap="square" stroke-miterlimit="3"/><mask id="_mask_gpmF3A0qGVKlSxtuQlXWnEYXpQl8bRvv"><path d=" M 2472.735 1648.787 C 2723.972 1496.52 2892 1220.484 2892 905.513 C 2892 819.859 2879.574 737.085 2856.419 658.9 C 2548.775 551.109 2294.312 329.766 2143.396 45.236 C 2104.2 39.803 2064.168 37 2023.487 37 C 1896.501 37 1775.844 64.312 1667.072 113.373 C 1719.153 151.511 1753 213.104 1753 282.541 C 1753 398.19 1659.108 492.082 1543.459 492.082 C 1454.894 492.082 1379.088 437.018 1348.449 359.282 C 1340.852 368.634 1333.457 378.157 1326.257 387.833 C 1192.43 206.409 977.194 88.637 734.667 88.637 C 329.193 88.637 0 417.83 0 823.304 C 0 1228.778 329.193 1557.971 734.667 1557.971 C 943.553 1557.971 1132.194 1470.605 1266.006 1330.446 C 1281.821 1358.557 1299.155 1385.701 1317.909 1411.757 C 1428.632 1380.64 1545.388 1364 1666 1364 C 1971.39 1364 2252.06 1470.68 2472.735 1648.787 Z " fill-rule="evenodd" fill="white" stroke="none"/></mask><path d=" M 2472.735 1648.787 C 2723.972 1496.52 2892 1220.484 2892 905.513 C 2892 819.859 2879.574 737.085 2856.419 658.9 C 2548.775 551.109 2294.312 329.766 2143.396 45.236 C 2104.2 39.803 2064.168 37 2023.487 37 C 1896.501 37 1775.844 64.312 1667.072 113.373 C 1719.153 151.511 1753 213.104 1753 282.541 C 1753 398.19 1659.108 492.082 1543.459 492.082 C 1454.894 492.082 1379.088 437.018 1348.449 359.282 C 1340.852 368.634 1333.457 378.157 1326.257 387.833 C 1192.43 206.409 977.194 88.637 734.667 88.637 C 329.193 88.637 0 417.83 0 823.304 C 0 1228.778 329.193 1557.971 734.667 1557.971 C 943.553 1557.971 1132.194 1470.605 1266.006 1330.446 C 1281.821 1358.557 1299.155 1385.701 1317.909 1411.757 C 1428.632 1380.64 1545.388 1364 1666 1364 C 1971.39 1364 2252.06 1470.68 2472.735 1648.787 Z " fill-rule="evenodd" fill="none" mask="url(#_mask_gpmF3A0qGVKlSxtuQlXWnEYXpQl8bRvv)" stroke-width="30" stroke="rgb(0,0,0)" stroke-linejoin="miter" stroke-linecap="square" stroke-miterlimit="3"/><mask id="_mask_4df4aYcNnc1ENqyZWYKNHneanLNcyogP"><circle cx="238" cy="869.5127337101601" r="36" fill="white" stroke="none"/></mask><circle cx="238" cy="869.5127337101601" r="36" fill="none" mask="url(#_mask_4df4aYcNnc1ENqyZWYKNHneanLNcyogP)" stroke-width="20" stroke="rgb(0,0,0)" stroke-linejoin="miter" stroke-linecap="square" stroke-miterlimit="3"/><mask id="_mask_NCPo2nJe4b4LMWvH92Zp6h0tALkJt9el"><circle cx="1472" cy="484" r="47" fill="white" stroke="none"/></mask><circle cx="1472" cy="484" r="47" fill="none" mask="url(#_mask_NCPo2nJe4b4LMWvH92Zp6h0tALkJt9el)" stroke-width="20" stroke="rgb(0,0,0)" stroke-linejoin="miter" stroke-linecap="square" stroke-miterlimit="3"/></g></g></svg>
