<?xml version="1.0" standalone="no"?><!-- Generator: Gravit.io --><svg xmlns="http://www.w3.org/2000/svg" xmlns:xlink="http://www.w3.org/1999/xlink" style="isolation:isolate" viewBox="0 0 566.067 544.335" width="566.067" height="544.335"><defs><clipPath id="_clipPath_DFAlnQYOCCEKkm5Ab27cTT6IMfCr1J72"><rect width="566.067" height="544.335"/></clipPath></defs><g clip-path="url(#_clipPath_DFAlnQYOCCEKkm5Ab27cTT6IMfCr1J72)"><mask id="_mask_j8Mm5XxzWupZPcOLe5LVdAxYeT9besg5"><circle cx="517.5666666666673" cy="216.4999999999999" r="22.500000000000114" fill="white" stroke="none"/></mask><circle cx="517.5666666666673" cy="216.4999999999999" r="22.500000000000114" fill="none" mask="url(#_mask_j8Mm5XxzWupZPcOLe5LVdAxYeT9besg5)" stroke-width="16" stroke="rgb(0,0,0)" stroke-linejoin="miter" stroke-linecap="square" stroke-miterlimit="3"/><mask id="_mask_Pt5PUIwtMuVYEw8blPIwYpjfrwgwRMaN"><circle cx="517.5666666666675" cy="216.4999999999999" r="35.50000000000014" fill="white" stroke="none"/></mask><circle cx="517.5666666666675" cy="216.4999999999999" r="35.50000000000014" fill="none" mask="url(#_mask_Pt5PUIwtMuVYEw8blPIwYpjfrwgwRMaN)" stroke-width="10" stroke="rgb(0,0,0)" stroke-linejoin="miter" stroke-linecap="square" stroke-miterlimit="3"/><path d=" M 494.067 240 C 439.307 260.822 386.608 292.076 363.024 352.064 L 358.574 349.232 C 382.669 288.164 428.462 235.332 484.067 214 C 483.415 223.928 486.758 232.605 494.067 240 Z " fill="rgb(0,0,0)"/><circle cx="524.0666666666671" cy="371" r="42" fill="rgb(0,0,0)"/><circle cx="373.06666666666695" cy="251.99999999999977" r="31.03201293945324" fill="rgb(0,0,0)"/><circle cx="459.1384326887054" cy="77.07176602203822" r="22.92823397796178" fill="rgb(0,0,0)"/><mask id="_mask_kvh7ncW7QTU7oAvXtaefO6ccWnX4Fktk"><circle cx="284.3201151529951" cy="117.99999999999937" r="88.74655151367193" fill="white" stroke="none"/></mask><circle cx="284.3201151529951" cy="117.99999999999937" r="88.74655151367193" fill="none" mask="url(#_mask_kvh7ncW7QTU7oAvXtaefO6ccWnX4Fktk)" stroke-width="10" stroke="rgb(0,0,0)" stroke-linejoin="miter" stroke-linecap="square" stroke-miterlimit="3"/><mask id="_mask_qtsWuNQ255HmtPYSqyYt6PYZuhHJpZwW"><path d=" M 19.455 357.626 C 10.766 330.978 6.067 302.533 6.067 273 C 6.067 252.199 8.398 231.938 12.825 212.469 C 13.343 263.628 55.036 305 106.317 305 C 157.921 305 199.817 263.104 199.817 211.5 C 199.817 159.896 157.921 118 106.317 118 C 77.423 118 51.572 131.135 34.428 151.765 C 79.118 61.853 171.926 0 279.067 0 C 353.738 0 421.447 30.044 470.75 78.697 C 413.387 98.215 372.067 152.57 372.067 216.5 C 372.067 296.804 437.263 362 517.567 362 C 524.391 362 531.107 361.529 537.678 360.602 C 512.222 435.701 454.944 496.17 381.935 525.929 C 401.197 506.199 413.067 479.225 413.067 449.5 C 413.067 389.065 364.001 340 303.567 340 C 243.132 340 194.067 389.065 194.067 449.5 C 194.067 489.996 216.098 525.388 248.816 544.335 C 208.024 539.831 169.928 526.324 136.567 505.838 C 159.348 488.59 174.067 461.25 174.067 430.5 C 174.067 378.344 131.723 336 79.567 336 C 56.736 336 35.785 344.114 19.455 357.626 Z " fill-rule="evenodd" fill="white" stroke="none"/></mask><path d=" M 19.455 357.626 C 10.766 330.978 6.067 302.533 6.067 273 C 6.067 252.199 8.398 231.938 12.825 212.469 C 13.343 263.628 55.036 305 106.317 305 C 157.921 305 199.817 263.104 199.817 211.5 C 199.817 159.896 157.921 118 106.317 118 C 77.423 118 51.572 131.135 34.428 151.765 C 79.118 61.853 171.926 0 279.067 0 C 353.738 0 421.447 30.044 470.75 78.697 C 413.387 98.215 372.067 152.57 372.067 216.5 C 372.067 296.804 437.263 362 517.567 362 C 524.391 362 531.107 361.529 537.678 360.602 C 512.222 435.701 454.944 496.17 381.935 525.929 C 401.197 506.199 413.067 479.225 413.067 449.5 C 413.067 389.065 364.001 340 303.567 340 C 243.132 340 194.067 389.065 194.067 449.5 C 194.067 489.996 216.098 525.388 248.816 544.335 C 208.024 539.831 169.928 526.324 136.567 505.838 C 159.348 488.59 174.067 461.25 174.067 430.5 C 174.067 378.344 131.723 336 79.567 336 C 56.736 336 35.785 344.114 19.455 357.626 Z " fill-rule="evenodd" fill="none" mask="url(#_mask_qtsWuNQ255HmtPYSqyYt6PYZuhHJpZwW)" stroke-width="20" stroke="rgb(0,0,0)" stroke-linejoin="miter" stroke-linecap="square" stroke-miterlimit="3"/><path d=" M 250.744 348.327 C 229.206 300.157 211.927 234.743 227.067 184 C 237.473 191.412 248.149 198.755 259.067 202 C 244.659 251.108 238.067 298 254.995 345.67 L 250.744 348.327 L 250.744 348.327 Z " fill="rgb(0,0,0)"/><circle cx="54.06666666666729" cy="133.99999999999994" r="30" fill="rgb(0,0,0)"/><circle cx="24.066666666667288" cy="183.0000000000001" r="19.00000000000025" fill="rgb(0,0,0)"/><circle cx="12.033333333333644" cy="220.96798706054653" r="12.033333333333648" fill="rgb(0,0,0)"/><path d=" M 147.067 359 C 174.82 335.656 211.071 328.689 234.451 357.212 L 238.479 354.191 C 213.112 323.165 161.106 320.612 131.403 346.558 L 135.715 349.432 L 147.067 359 Z " fill="rgb(0,0,0)"/><path d=" M 93.984 332 C 93.959 332.825 93.947 333.659 93.947 334.5 L 93.947 334.5 L 93.947 334.5 C 93.947 382.489 134.366 398.06 172.067 393 L 178.067 413 C 137.421 418.873 88.947 386.208 88.947 334.5 L 88.947 334.5 L 88.947 334.5 C 88.947 333.66 88.958 332.827 88.978 332 L 93.984 332 L 93.984 332 Z " fill="rgb(0,0,0)"/></g></svg>
