<?xml version="1.0" standalone="no"?><!-- Generator: Gravit.io --><svg xmlns="http://www.w3.org/2000/svg" xmlns:xlink="http://www.w3.org/1999/xlink" style="isolation:isolate" viewBox="0 0 841.35 568.315" width="841.35" height="568.315"><defs><clipPath id="_clipPath_1HpVREf2YZuudEiLOu3mJE0NK5pGusZf"><rect width="841.35" height="568.315"/></clipPath></defs><g clip-path="url(#_clipPath_1HpVREf2YZuudEiLOu3mJE0NK5pGusZf)"><mask id="_mask_ZeuxTwD5hbw8Wpy5zB459bkcyIHWv7ig"><circle cx="633.8569014588026" cy="294.4253912977417" r="88.14309854119745" fill="white" stroke="none"/></mask><circle cx="633.8569014588026" cy="294.4253912977417" r="88.14309854119745" fill="none" mask="url(#_mask_ZeuxTwD5hbw8Wpy5zB459bkcyIHWv7ig)" stroke-width="20" stroke="rgb(0,0,0)" stroke-linejoin="miter" stroke-linecap="square" stroke-miterlimit="3"/><mask id="_mask_N2VkNKD3ks4Zs7t3ZXE74gqPwW9Gbaoa"><circle cx="667.2612649474568" cy="219.36000061035162" r="27.360000610351562" fill="white" stroke="none"/></mask><circle cx="667.2612649474568" cy="219.36000061035162" r="27.360000610351562" fill="none" mask="url(#_mask_N2VkNKD3ks4Zs7t3ZXE74gqPwW9Gbaoa)" stroke-width="20" stroke="rgb(0,0,0)" stroke-linejoin="miter" stroke-linecap="square" stroke-miterlimit="3"/><mask id="_mask_Dy4DjPIcJvxdz3iQkLjHLYMqU1pY9eVv"><circle cx="757.3485207973168" cy="203.65769534369508" r="61.65147920268316" fill="white" stroke="none"/></mask><circle cx="757.3485207973168" cy="203.65769534369508" r="61.65147920268316" fill="none" mask="url(#_mask_Dy4DjPIcJvxdz3iQkLjHLYMqU1pY9eVv)" stroke-width="20" stroke="rgb(0,0,0)" stroke-linejoin="miter" stroke-linecap="square" stroke-miterlimit="3"/><mask id="_mask_lztszoY0jNoSx88izKxyU8oXK7Tv1Jeb"><circle cx="643.941929168355" cy="107.94192916835509" r="84.05807083164495" fill="white" stroke="none"/></mask><circle cx="643.941929168355" cy="107.94192916835509" r="84.05807083164495" fill="none" mask="url(#_mask_lztszoY0jNoSx88izKxyU8oXK7Tv1Jeb)" stroke-width="20" stroke="rgb(0,0,0)" stroke-linejoin="miter" stroke-linecap="square" stroke-miterlimit="3"/><mask id="_mask_T4naaxmpULHIs9LHizyKDE4hXKVdlWr2"><circle cx="643.941929168355" cy="107.94192916835512" r="23.31933577910172" fill="white" stroke="none"/></mask><circle cx="643.941929168355" cy="107.94192916835512" r="23.31933577910172" fill="none" mask="url(#_mask_T4naaxmpULHIs9LHizyKDE4hXKVdlWr2)" stroke-width="20" stroke="rgb(0,0,0)" stroke-linejoin="miter" stroke-linecap="square" stroke-miterlimit="3"/><mask id="_mask_kmskF5f2eziIp6jxqyyjO2JgA44ub4Hf"><circle cx="757.348520797318" cy="203.65769534369517" r="17.10331358526048" fill="white" stroke="none"/></mask><circle cx="757.348520797318" cy="203.65769534369517" r="17.10331358526048" fill="none" mask="url(#_mask_kmskF5f2eziIp6jxqyyjO2JgA44ub4Hf)" stroke-width="20" stroke="rgb(0,0,0)" stroke-linejoin="miter" stroke-linecap="square" stroke-miterlimit="3"/><mask id="_mask_EDvbGckzUL4pOJlswhhfpsHImquUIwIv"><circle cx="520.8967691585228" cy="184.5429629738202" r="59.34243503778865" fill="white" stroke="none"/></mask><circle cx="520.8967691585228" cy="184.5429629738202" r="59.34243503778865" fill="none" mask="url(#_mask_EDvbGckzUL4pOJlswhhfpsHImquUIwIv)" stroke-width="20" stroke="rgb(0,0,0)" stroke-linejoin="miter" stroke-linecap="square" stroke-miterlimit="3"/><mask id="_mask_yEwXCErRufJfxR0YdBwhPoPvPUMiupta"><path d=" M 434.035 203.658 C 434.035 91.256 525.291 0 637.692 0 C 750.094 0 841.35 91.256 841.35 203.658 C 841.35 316.059 750.094 407.315 637.692 407.315 C 525.291 407.315 434.035 316.059 434.035 203.658 Z " fill-rule="evenodd" fill="white" stroke="none"/></mask><path d=" M 434.035 203.658 C 434.035 91.256 525.291 0 637.692 0 C 750.094 0 841.35 91.256 841.35 203.658 C 841.35 316.059 750.094 407.315 637.692 407.315 C 525.291 407.315 434.035 316.059 434.035 203.658 Z " fill-rule="evenodd" fill="none" mask="url(#_mask_yEwXCErRufJfxR0YdBwhPoPvPUMiupta)" stroke-width="40" stroke="rgb(0,0,0)" stroke-linejoin="miter" stroke-linecap="square" stroke-miterlimit="3"/><mask id="_mask_o5snmBvaD9l5XplBGU98LjwIyXkYLWjF"><path d=" M 132.291 330.127 C 131.062 338.951 130.424 347.964 130.424 357.124 C 130.424 460.133 211.088 544.45 312.642 550.294 C 281.286 536.218 259.424 504.711 259.424 468.138 C 259.424 418.465 299.751 378.138 349.424 378.138 C 399.096 378.138 439.424 418.465 439.424 468.138 C 439.424 490.208 431.462 510.434 418.247 526.09 C 477.4 492.968 517.424 429.683 517.424 357.124 C 517.424 272.989 463.61 201.323 388.554 174.698 C 401.948 186.346 410.424 203.51 410.424 222.638 C 410.424 257.684 381.97 286.138 346.924 286.138 C 311.877 286.138 283.424 257.684 283.424 222.638 C 283.424 195.884 300.005 172.973 323.441 163.626 C 277.098 163.739 234.562 180.179 201.289 207.498 C 220.627 220.073 233.424 241.873 233.424 266.638 C 233.424 305.548 201.834 337.138 162.924 337.138 C 151.946 337.138 141.551 334.623 132.291 330.127 Z " fill-rule="evenodd" fill="white" stroke="none"/></mask><path d=" M 132.291 330.127 C 131.062 338.951 130.424 347.964 130.424 357.124 C 130.424 460.133 211.088 544.45 312.642 550.294 C 281.286 536.218 259.424 504.711 259.424 468.138 C 259.424 418.465 299.751 378.138 349.424 378.138 C 399.096 378.138 439.424 418.465 439.424 468.138 C 439.424 490.208 431.462 510.434 418.247 526.09 C 477.4 492.968 517.424 429.683 517.424 357.124 C 517.424 272.989 463.61 201.323 388.554 174.698 C 401.948 186.346 410.424 203.51 410.424 222.638 C 410.424 257.684 381.97 286.138 346.924 286.138 C 311.877 286.138 283.424 257.684 283.424 222.638 C 283.424 195.884 300.005 172.973 323.441 163.626 C 277.098 163.739 234.562 180.179 201.289 207.498 C 220.627 220.073 233.424 241.873 233.424 266.638 C 233.424 305.548 201.834 337.138 162.924 337.138 C 151.946 337.138 141.551 334.623 132.291 330.127 Z " fill-rule="evenodd" fill="rgb(255,255,255)" mask="url(#_mask_o5snmBvaD9l5XplBGU98LjwIyXkYLWjF)" stroke-width="40" stroke="rgb(0,0,0)" stroke-linejoin="miter" stroke-linecap="square" stroke-miterlimit="3"/><g><mask id="_mask_lsKjWTPY0O6W2CgzYaYoLVPNMbAvDFyO"><circle cx="142.21189591078075" cy="455.5830486799557" r="87.21189591078064" fill="white" stroke="none"/></mask><circle cx="142.21189591078075" cy="455.5830486799557" r="87.21189591078064" fill="rgb(255,255,255)" mask="url(#_mask_lsKjWTPY0O6W2CgzYaYoLVPNMbAvDFyO)" stroke-width="40" stroke="rgb(0,0,0)" stroke-linejoin="miter" stroke-linecap="square" stroke-miterlimit="3"/><mask id="_mask_aAASObJAy3LZrILgdks8VQlEUvXNFFzB"><circle cx="76.0483271375464" cy="492.2670635498438" r="76.0483271375464" fill="white" stroke="none"/></mask><circle cx="76.0483271375464" cy="492.2670635498438" r="76.0483271375464" fill="none" mask="url(#_mask_aAASObJAy3LZrILgdks8VQlEUvXNFFzB)" stroke-width="20" stroke="rgb(0,0,0)" stroke-linejoin="miter" stroke-linecap="square" stroke-miterlimit="3"/><mask id="_mask_sIIhq4FwjbYFl9jqbygzVjQaBgwXlxS5"><circle cx="76.04832713754622" cy="492.2670635498438" r="28.065454062665978" fill="white" stroke="none"/></mask><circle cx="76.04832713754622" cy="492.2670635498438" r="28.065454062665978" fill="none" mask="url(#_mask_sIIhq4FwjbYFl9jqbygzVjQaBgwXlxS5)" stroke-width="20" stroke="rgb(0,0,0)" stroke-linejoin="miter" stroke-linecap="square" stroke-miterlimit="3"/></g><mask id="_mask_thIpJU3Tn6xrxTafavAHvZDjLOuERdku"><circle cx="316.4237918215613" cy="287.2824815585452" r="31" fill="white" stroke="none"/></mask><circle cx="316.4237918215613" cy="287.2824815585452" r="31" fill="none" mask="url(#_mask_thIpJU3Tn6xrxTafavAHvZDjLOuERdku)" stroke-width="20" stroke="rgb(0,0,0)" stroke-linejoin="miter" stroke-linecap="square" stroke-miterlimit="3"/><path d=" M 419.154 241.751 C 422.671 244.644 426.043 247.722 429.274 250.955 C 442.874 264.545 453.724 280.625 461.224 298.325 C 468.964 316.675 472.954 336.385 472.934 356.305 C 472.954 376.215 468.964 395.935 461.224 414.275 C 457.351 423.415 452.586 432.125 446.988 440.267 L 448.655 454.899 C 457.51 443.712 464.84 431.361 470.434 418.175 C 478.704 398.595 482.954 377.555 482.934 356.305 C 482.954 335.045 478.704 314.005 470.434 294.425 C 462.424 275.545 450.854 258.385 436.344 243.885 C 431.507 239.045 426.374 234.531 420.974 230.376 L 419.154 241.751 L 419.154 241.751 Z " fill="rgb(0,0,0)"/><path d=" M 240.005 254.34 C 249.778 246.293 260.683 239.694 272.384 234.735 C 272.812 234.555 273.241 234.376 273.672 234.204 L 271.744 224.18 C 270.655 224.624 269.567 225.068 268.484 225.525 C 257.903 230.009 247.924 235.745 238.771 242.614 L 240.005 254.34 L 240.005 254.34 Z " fill="rgb(0,0,0)"/><path d=" M 171.661 346.048 C 172.845 329.385 176.762 313.007 183.284 297.565 C 190.964 279.435 202.084 262.965 216.014 249.045 C 222.249 242.801 229 237.124 236.185 232.066 L 231.725 223.015 C 223.579 228.606 215.955 234.955 208.944 241.975 C 194.094 256.805 182.254 274.355 174.074 293.675 C 167.077 310.24 162.892 327.824 161.668 345.703 L 171.661 346.048 L 171.661 346.048 Z " fill="rgb(0,0,0)"/><path d=" M 561.812 150.435 C 564.891 146.052 568.353 141.933 572.16 138.13 C 580.61 129.67 590.62 122.92 601.63 118.25 C 613.04 113.43 625.31 110.96 637.69 110.97 C 650.08 110.96 662.34 113.43 673.76 118.25 C 684.77 122.92 694.77 129.67 703.22 138.13 C 710.152 145.054 715.936 153.025 720.371 161.728 L 728.27 155.298 C 723.518 146.385 717.457 138.219 710.29 131.06 C 700.93 121.69 689.85 114.21 677.65 109.04 C 665.01 103.7 651.42 100.96 637.69 100.97 C 623.97 100.96 610.38 103.7 597.73 109.04 C 585.54 114.21 574.45 121.69 565.09 131.06 C 561.361 134.785 557.933 138.783 554.844 143.024 L 561.812 150.435 L 561.812 150.435 Z " fill="rgb(0,0,0)"/><path d=" M 712.242 320.617 C 705.707 324.778 698.826 328.403 691.66 331.44 C 674.58 338.65 656.23 342.36 637.69 342.35 C 619.16 342.36 600.8 338.65 583.73 331.44 C 567.25 324.46 552.28 314.37 539.64 301.71 C 526.98 289.07 516.89 274.1 509.91 257.62 C 502.7 240.55 498.99 222.19 499 203.66 C 498.99 185.12 502.7 166.77 509.91 149.69 C 516.89 133.22 526.98 118.25 539.64 105.61 C 548.348 96.889 558.161 89.382 568.806 83.264 L 564.779 97.648 C 558.32 102.078 552.274 107.112 546.71 112.68 C 534.97 124.41 525.6 138.3 519.12 153.58 C 512.43 169.43 508.99 186.46 509 203.66 C 508.99 220.86 512.43 237.88 519.12 253.73 C 525.6 269.01 534.97 282.9 546.71 294.64 C 558.45 306.38 572.34 315.75 587.62 322.23 C 603.47 328.92 620.49 332.36 637.69 332.35 C 654.89 332.36 671.92 328.92 687.76 322.23 C 697.708 318.014 707.064 312.574 715.606 306.04 L 712.242 320.617 L 712.242 320.617 Z " fill="rgb(0,0,0)"/><path d=" M 563.935 341.441 C 550.43 334.225 538.049 325.035 527.19 314.16 C 512.92 299.91 501.55 283.04 493.68 264.48 C 485.55 245.23 481.37 224.55 481.38 203.66 C 481.37 182.77 485.55 162.08 493.68 142.84 C 501.55 124.27 512.92 107.4 527.19 93.15 C 541.44 78.89 558.31 67.51 576.87 59.64 C 578.285 59.043 579.707 58.468 581.137 57.913 L 573.116 72.382 C 558.737 79.455 545.611 88.86 534.26 100.22 C 520.91 113.56 510.25 129.36 502.89 146.73 C 495.28 164.74 491.37 184.1 491.38 203.66 C 491.37 223.21 495.28 242.57 502.89 260.58 C 510.25 277.96 520.91 293.75 534.26 307.09 C 541.679 314.514 549.855 321.106 558.638 326.767 L 563.935 341.441 L 563.935 341.441 Z " fill="rgb(0,0,0)"/><path d=" M 717.481 294.175 C 707.742 302.788 696.656 309.77 684.66 314.86 C 669.79 321.13 653.82 324.36 637.69 324.35 C 621.56 324.36 605.59 321.13 590.73 314.86 C 576.4 308.78 563.37 300 552.37 288.98 C 541.35 277.98 532.57 264.95 526.49 250.62 C 520.22 235.76 516.99 219.79 517 203.66 C 516.99 187.53 520.22 171.56 526.49 156.7 C 532.57 142.36 541.35 129.33 552.37 118.33 C 556.833 113.863 561.63 109.762 566.721 106.071 L 565.474 119.786 C 563.399 121.582 561.385 123.453 559.44 125.4 C 549.33 135.49 541.28 147.44 535.7 160.59 C 529.95 174.22 526.99 188.86 527 203.66 C 526.99 218.45 529.95 233.1 535.7 246.72 C 541.28 259.87 549.33 271.82 559.44 281.91 C 569.53 292.02 581.48 300.07 594.63 305.65 C 608.25 311.4 622.9 314.36 637.69 314.35 C 652.49 314.36 667.13 311.4 680.76 305.65 C 693.91 300.07 705.86 292.02 715.95 281.91 C 716.085 281.775 716.219 281.64 716.351 281.503 L 717.481 294.175 L 717.481 294.175 Z " fill="rgb(0,0,0)"/><path d=" M 768.425 200.111 C 773.955 195.482 780.158 191.719 786.82 188.9 C 796.05 185 805.98 182.99 816 183 C 820.893 182.995 825.765 183.472 830.532 184.476 L 829.431 174.075 C 825.001 173.353 820.509 172.996 816 173 C 804.64 172.99 793.39 175.27 782.92 179.69 C 775.355 182.891 768.307 187.172 761.998 192.397 L 768.425 200.111 L 768.425 200.111 Z " fill="rgb(0,0,0)"/></g></svg>
