<?xml version="1.0" standalone="no"?><!-- Generator: Gravit.io --><svg xmlns="http://www.w3.org/2000/svg" xmlns:xlink="http://www.w3.org/1999/xlink" style="isolation:isolate" viewBox="0 0 587 411.487" width="587" height="411.487"><defs><clipPath id="_clipPath_2R51FioGCusUJILChJOKSo6wywLDvtGq"><rect width="587" height="411.487"/></clipPath></defs><g clip-path="url(#_clipPath_2R51FioGCusUJILChJOKSo6wywLDvtGq)"><mask id="_mask_t1JIJ3RJvhx299oZx5pu6u20uCMF7vWO"><circle cx="306.0000000000002" cy="30" r="30" fill="white" stroke="none"/></mask><circle cx="306.0000000000002" cy="30" r="30" fill="none" mask="url(#_mask_t1JIJ3RJvhx299oZx5pu6u20uCMF7vWO)" stroke-width="20" stroke="rgb(0,0,0)" stroke-linejoin="miter" stroke-linecap="square" stroke-miterlimit="3"/><mask id="_mask_VHwfqePVSnLUucH1LsDaWZ4t39TwuNda"><path d=" M 137.885 45.987 C 59.977 68.749 3 140.766 3 225.987 C 3 316.943 67.905 392.86 153.889 409.902 C 132.388 396.959 118 373.39 118 346.487 C 118 305.645 151.158 272.487 192 272.487 C 232.842 272.487 266 305.645 266 346.487 C 266 372.721 252.319 395.784 231.711 408.929 C 275.856 399.015 314.133 373.512 340.43 338.499 C 304.439 312.524 281 270.221 281 222.487 C 281 176.283 302.96 135.168 337.013 109.031 C 310.464 75.823 272.869 51.825 229.815 42.63 C 248.7 56.252 261 78.445 261 103.487 C 261 144.88 227.394 178.487 186 178.487 C 144.606 178.487 111 144.88 111 103.487 C 111 80.403 121.452 59.74 137.885 45.987 Z " fill-rule="evenodd" fill="white" stroke="none"/></mask><path d=" M 137.885 45.987 C 59.977 68.749 3 140.766 3 225.987 C 3 316.943 67.905 392.86 153.889 409.902 C 132.388 396.959 118 373.39 118 346.487 C 118 305.645 151.158 272.487 192 272.487 C 232.842 272.487 266 305.645 266 346.487 C 266 372.721 252.319 395.784 231.711 408.929 C 275.856 399.015 314.133 373.512 340.43 338.499 C 304.439 312.524 281 270.221 281 222.487 C 281 176.283 302.96 135.168 337.013 109.031 C 310.464 75.823 272.869 51.825 229.815 42.63 C 248.7 56.252 261 78.445 261 103.487 C 261 144.88 227.394 178.487 186 178.487 C 144.606 178.487 111 144.88 111 103.487 C 111 80.403 121.452 59.74 137.885 45.987 Z " fill-rule="evenodd" fill="none" mask="url(#_mask_VHwfqePVSnLUucH1LsDaWZ4t39TwuNda)" stroke-width="40" stroke="rgb(0,0,0)" stroke-linejoin="miter" stroke-linecap="square" stroke-miterlimit="3"/><mask id="_mask_dGpbAWqsXaBehu9HvgpJZiTR55lVxlCf"><circle cx="21" cy="89.48685785018" r="21" fill="white" stroke="none"/></mask><circle cx="21" cy="89.48685785018" r="21" fill="none" mask="url(#_mask_dGpbAWqsXaBehu9HvgpJZiTR55lVxlCf)" stroke-width="20" stroke="rgb(0,0,0)" stroke-linejoin="miter" stroke-linecap="square" stroke-miterlimit="3"/><mask id="_mask_VMzZwzSuNYfInOMGdKPtuKp7Ef5dSvSm"><circle cx="86.5" cy="226.2701572533349" r="58.5" fill="white" stroke="none"/></mask><circle cx="86.5" cy="226.2701572533349" r="58.5" fill="none" mask="url(#_mask_VMzZwzSuNYfInOMGdKPtuKp7Ef5dSvSm)" stroke-width="20" stroke="rgb(0,0,0)" stroke-linejoin="miter" stroke-linecap="square" stroke-miterlimit="3"/><circle cx="269.0000000000001" cy="221.48685785018" r="39" fill="rgb(0,0,0)"/><circle cx="308.0000000000001" cy="310.48685785017994" r="28.000000000000114" fill="rgb(0,0,0)"/><circle cx="303" cy="124.38429374761574" r="20.10256410256426" fill="rgb(0,0,0)"/><path d=" M 77.937 279.16 C 77.177 277.605 76.467 276.024 75.79 274.427 C 69.32 259.097 65.99 242.627 66 225.987 C 65.99 209.347 69.32 192.877 75.79 177.547 C 82.06 162.757 91.12 149.317 102.48 137.967 C 104.27 136.176 106.111 134.442 108.011 132.778 L 104.211 122.865 C 101.156 125.396 98.224 128.081 95.41 130.897 C 83.14 143.157 73.35 157.677 66.58 173.657 C 59.58 190.217 55.99 208.007 56 225.987 C 55.99 243.082 59.235 260.005 65.567 275.872 L 77.937 279.16 L 77.937 279.16 Z " fill="rgb(0,0,0)"/><path d=" M 42.095 195.587 C 40.023 205.562 38.99 215.747 39 225.987 C 38.98 246.237 43.04 266.287 50.92 284.937 C 58.54 302.927 69.57 319.277 83.39 333.097 C 90.557 340.264 98.405 346.681 106.824 352.24 L 108.101 341.002 C 101.837 336.51 95.936 331.503 90.46 326.027 C 77.55 313.117 67.25 297.847 60.13 281.037 C 52.77 263.617 48.98 244.897 49 225.987 C 48.984 211.193 51.3 196.516 55.85 182.486 L 42.095 195.587 L 42.095 195.587 Z " fill="rgb(0,0,0)"/><path d=" M 260.767 144.639 C 252.275 137.307 242.679 131.326 232.32 126.937 C 219.09 121.347 204.87 118.477 190.5 118.487 C 176.13 118.477 161.91 121.347 148.68 126.937 C 135.91 132.347 124.3 140.177 114.5 149.987 C 107.299 157.181 101.165 165.35 96.288 174.242 L 85.744 172.736 C 91.36 161.734 98.671 151.668 107.43 142.917 C 118.14 132.197 130.82 123.647 144.78 117.727 C 159.25 111.617 174.8 108.477 190.5 108.487 C 206.2 108.477 221.75 111.617 236.22 117.727 C 246.891 122.252 256.815 128.315 265.669 135.725 L 260.767 144.639 L 260.767 144.639 Z " fill="rgb(0,0,0)"/><mask id="_mask_yYQlRLxFbVlQnqZhahRWjl7NOZGt2hGZ"><circle cx="414" cy="337.48685785018" r="25" fill="white" stroke="none"/></mask><circle cx="414" cy="337.48685785018" r="25" fill="none" mask="url(#_mask_yYQlRLxFbVlQnqZhahRWjl7NOZGt2hGZ)" stroke-width="20" stroke="rgb(0,0,0)" stroke-linejoin="miter" stroke-linecap="square" stroke-miterlimit="3"/><mask id="_mask_W56mmyL5tpBnSaOQibS2ifGr5uJMXilO"><path d=" M 566.722 143.744 C 579.644 167.09 587 193.936 587 222.487 C 587 250.197 580.07 276.301 567.848 299.158 C 567.947 297.78 568 296.39 568 294.987 C 568 264.907 543.579 240.487 513.5 240.487 C 483.421 240.487 459 264.907 459 294.987 C 459 325.066 483.421 349.487 513.5 349.487 C 518.783 349.487 523.891 348.734 528.722 347.327 C 500.403 371.146 463.863 385.487 424 385.487 C 334.038 385.487 261 312.449 261 222.487 C 261 141.376 320.372 74.023 397.992 61.559 C 390.353 75.139 386 90.809 386 107.487 C 386 159.367 428.12 201.487 480 201.487 C 519.029 201.487 552.534 177.65 566.722 143.744 Z " fill-rule="evenodd" fill="white" stroke="none"/></mask><path d=" M 566.722 143.744 C 579.644 167.09 587 193.936 587 222.487 C 587 250.197 580.07 276.301 567.848 299.158 C 567.947 297.78 568 296.39 568 294.987 C 568 264.907 543.579 240.487 513.5 240.487 C 483.421 240.487 459 264.907 459 294.987 C 459 325.066 483.421 349.487 513.5 349.487 C 518.783 349.487 523.891 348.734 528.722 347.327 C 500.403 371.146 463.863 385.487 424 385.487 C 334.038 385.487 261 312.449 261 222.487 C 261 141.376 320.372 74.023 397.992 61.559 C 390.353 75.139 386 90.809 386 107.487 C 386 159.367 428.12 201.487 480 201.487 C 519.029 201.487 552.534 177.65 566.722 143.744 Z " fill-rule="evenodd" fill="none" mask="url(#_mask_W56mmyL5tpBnSaOQibS2ifGr5uJMXilO)" stroke-width="40" stroke="rgb(0,0,0)" stroke-linejoin="miter" stroke-linecap="square" stroke-miterlimit="3"/><mask id="_mask_4Mw7Fq6zqVAL4WBIXlqBAKn3hPAVHHzL"><circle cx="480.00000000000034" cy="107.48685785018" r="44.99999999999986" fill="white" stroke="none"/></mask><circle cx="480.00000000000034" cy="107.48685785018" r="44.99999999999986" fill="none" mask="url(#_mask_4Mw7Fq6zqVAL4WBIXlqBAKn3hPAVHHzL)" stroke-width="20" stroke="rgb(0,0,0)" stroke-linejoin="miter" stroke-linecap="square" stroke-miterlimit="3"/><mask id="_mask_l6ypbiMceuW0lLwgseiVKtHPFVkqY3SF"><circle cx="480.0000000000001" cy="107.48685785017989" r="28.237740539915535" fill="white" stroke="none"/></mask><circle cx="480.0000000000001" cy="107.48685785017989" r="28.237740539915535" fill="none" mask="url(#_mask_l6ypbiMceuW0lLwgseiVKtHPFVkqY3SF)" stroke-width="30" stroke="rgb(0,0,0)" stroke-linejoin="miter" stroke-linecap="square" stroke-miterlimit="3"/><mask id="_mask_FftpRjXVPdZkhk72kYNA8qLnBtEBdK9o"><circle cx="359.5512820512821" cy="239.99557335749165" r="62.4487179487179" fill="white" stroke="none"/></mask><circle cx="359.5512820512821" cy="239.99557335749165" r="62.4487179487179" fill="none" mask="url(#_mask_FftpRjXVPdZkhk72kYNA8qLnBtEBdK9o)" stroke-width="20" stroke="rgb(0,0,0)" stroke-linejoin="miter" stroke-linecap="square" stroke-miterlimit="3"/><path d=" M 439.613 376.124 C 439.2 378.036 439 380.001 439 381.987 C 439 389.807 442.11 397.317 447.64 402.847 C 453.17 408.377 460.68 411.487 468.5 411.487 C 476.32 411.487 483.83 408.377 489.36 402.847 C 494.89 397.317 498 389.807 498 381.987 C 498 374.858 495.415 367.986 490.759 362.644 L 481.133 367.148 C 481.536 367.475 481.92 367.828 482.29 368.197 C 485.94 371.857 488 376.817 488 381.987 C 488 387.157 485.94 392.117 482.29 395.777 C 478.63 399.427 473.67 401.487 468.5 401.487 C 463.33 401.487 458.37 399.427 454.71 395.777 C 451.06 392.117 449 387.157 449 381.987 C 449 379.818 449.362 377.687 450.074 375.682 L 439.613 376.124 L 439.613 376.124 Z " fill="rgb(0,0,0)"/><circle cx="378" cy="124.38429374761574" r="36" fill="rgb(0,0,0)"/><circle cx="412.0000000000001" cy="184.26463562795783" r="26.000000000000114" fill="rgb(0,0,0)"/><circle cx="463.5122002495658" cy="210.26463562795794" r="18.777777777777942" fill="rgb(0,0,0)"/><path d=" M 415.395 249.33 C 420.654 248.023 425.812 246.295 430.83 244.177 C 443.6 238.767 455.2 230.937 465 221.127 C 474.81 211.327 482.63 199.727 488.04 186.957 C 493.64 173.727 496.51 159.497 496.5 145.127 C 496.5 144.803 496.499 144.479 496.493 144.155 L 486.487 146.824 C 486.279 159.276 483.68 171.578 478.83 183.067 C 473.93 194.647 466.83 205.167 457.93 214.057 C 449.04 222.957 438.51 230.057 426.93 234.967 C 423.597 236.375 420.195 237.593 416.735 238.603 L 415.395 249.33 L 415.395 249.33 Z " fill="rgb(0,0,0)"/></g></svg>
