<?xml version="1.0" standalone="no"?><!-- Generator: Gravit.io --><svg xmlns="http://www.w3.org/2000/svg" xmlns:xlink="http://www.w3.org/1999/xlink" style="isolation:isolate" viewBox="0 0 866 609" width="866" height="609"><defs><clipPath id="_clipPath_1Uhz4pIG4qIqH4VXi9FmxmGsMPmkjY9d"><rect width="866" height="609"/></clipPath></defs><g clip-path="url(#_clipPath_1Uhz4pIG4qIqH4VXi9FmxmGsMPmkjY9d)"><mask id="_mask_lqekqiNfb4F1IveZY5cYWroCxH9nkqly"><circle cx="178.7004373177847" cy="494.1362973760936" r="83.1362973760933" fill="white" stroke="none"/></mask><circle cx="178.7004373177847" cy="494.1362973760936" r="83.1362973760933" fill="none" mask="url(#_mask_lqekqiNfb4F1IveZY5cYWroCxH9nkqly)" stroke-width="20" stroke="rgb(0,0,0)" stroke-linejoin="miter" stroke-linecap="square" stroke-miterlimit="3"/><mask id="_mask_vdzeMbkLRufGF3ffDPUxWxCi0VlScMjV"><circle cx="239.5000000000001" cy="540.9868804664724" r="27.5" fill="white" stroke="none"/></mask><circle cx="239.5000000000001" cy="540.9868804664724" r="27.5" fill="none" mask="url(#_mask_vdzeMbkLRufGF3ffDPUxWxCi0VlScMjV)" stroke-width="20" stroke="rgb(0,0,0)" stroke-linejoin="miter" stroke-linecap="square" stroke-miterlimit="3"/><mask id="_mask_PFJdnfuzoyTZnWANadn5ygiKyI9Pz4N1"><path d=" M 286.515 207.113 C 262.413 197.366 236.078 192 208.5 192 C 93.426 192 0 285.426 0 400.5 C 0 515.574 93.426 609 208.5 609 C 323.574 609 417 515.574 417 400.5 C 417 345.404 395.583 295.27 360.626 257.979 C 368.517 272.25 373 288.659 373 306.107 C 373 361.24 328.24 406 273.107 406 C 217.975 406 173.214 361.24 173.214 306.107 C 173.214 250.975 217.975 206.214 273.107 206.214 C 277.654 206.214 282.13 206.519 286.515 207.113 Z " fill-rule="evenodd" fill="white" stroke="none"/></mask><path d=" M 286.515 207.113 C 262.413 197.366 236.078 192 208.5 192 C 93.426 192 0 285.426 0 400.5 C 0 515.574 93.426 609 208.5 609 C 323.574 609 417 515.574 417 400.5 C 417 345.404 395.583 295.27 360.626 257.979 C 368.517 272.25 373 288.659 373 306.107 C 373 361.24 328.24 406 273.107 406 C 217.975 406 173.214 361.24 173.214 306.107 C 173.214 250.975 217.975 206.214 273.107 206.214 C 277.654 206.214 282.13 206.519 286.515 207.113 Z " fill-rule="evenodd" fill="none" mask="url(#_mask_PFJdnfuzoyTZnWANadn5ygiKyI9Pz4N1)" stroke-width="40" stroke="rgb(0,0,0)" stroke-linejoin="miter" stroke-linecap="square" stroke-miterlimit="3"/><mask id="_mask_3nQ5jyiJlKqaMMq0qCnCjyrMSKp8uALc"><circle cx="273.1071428571428" cy="306.10714285714295" r="23.89285714285741" fill="white" stroke="none"/></mask><circle cx="273.1071428571428" cy="306.10714285714295" r="23.89285714285741" fill="none" mask="url(#_mask_3nQ5jyiJlKqaMMq0qCnCjyrMSKp8uALc)" stroke-width="20" stroke="rgb(0,0,0)" stroke-linejoin="miter" stroke-linecap="square" stroke-miterlimit="3"/><mask id="_mask_CA7E7eP0CC2ZldeC19XwdxaVBGzC9n3v"><circle cx="273.107142857143" cy="306.1071428571429" r="45.89285714285698" fill="white" stroke="none"/></mask><circle cx="273.107142857143" cy="306.1071428571429" r="45.89285714285698" fill="none" mask="url(#_mask_CA7E7eP0CC2ZldeC19XwdxaVBGzC9n3v)" stroke-width="30" stroke="rgb(0,0,0)" stroke-linejoin="miter" stroke-linecap="square" stroke-miterlimit="3"/><mask id="_mask_8PxNxXvAPsnob9HM4AHURU2RBe8WcnTn"><circle cx="826.743440233236" cy="391.25655976676387" r="39.256559766763985" fill="white" stroke="none"/></mask><circle cx="826.743440233236" cy="391.25655976676387" r="39.256559766763985" fill="none" mask="url(#_mask_8PxNxXvAPsnob9HM4AHURU2RBe8WcnTn)" stroke-width="20" stroke="rgb(0,0,0)" stroke-linejoin="miter" stroke-linecap="square" stroke-miterlimit="3"/><path d=" M 661.111 71.48 C 655.666 79.772 650.972 88.56 647.08 97.74 C 642.83 107.79 639.58 118.25 637.39 128.94 C 635.13 139.98 633.99 151.23 634 162.5 C 633.99 173.77 635.13 185.01 637.39 196.06 C 639.58 206.75 642.83 217.21 647.08 227.26 C 655.47 247.05 667.59 265.02 682.79 280.21 C 697.98 295.41 715.95 307.53 735.74 315.92 C 745.79 320.17 756.25 323.42 766.94 325.61 C 777.99 327.87 789.23 329.01 800.5 329 C 811.77 329.01 823.01 327.87 834.06 325.61 C 837.248 324.957 840.415 324.21 843.55 323.344 L 839.338 344.908 C 826.817 347.6 813.821 349 800.5 349 C 697.568 349 614 265.432 614 162.5 C 614 127.283 623.782 94.332 640.805 66.24 L 661.111 71.48 L 661.111 71.48 Z " fill="rgb(0,0,0)"/><mask id="_mask_8Xq80vk0zdLmvsdoqxniS9BZOKBTyI9g"><circle cx="639.5" cy="25.5" r="25.5" fill="white" stroke="none"/></mask><circle cx="639.5" cy="25.5" r="25.5" fill="none" mask="url(#_mask_8Xq80vk0zdLmvsdoqxniS9BZOKBTyI9g)" stroke-width="20" stroke="rgb(0,0,0)" stroke-linejoin="miter" stroke-linecap="square" stroke-miterlimit="3"/><mask id="_mask_ujrfGD415ED12ITt0rKpYPYcMSoMNRA0"><circle cx="505.5" cy="190.00000000000006" r="82.5" fill="white" stroke="none"/></mask><circle cx="505.5" cy="190.00000000000006" r="82.5" fill="none" mask="url(#_mask_ujrfGD415ED12ITt0rKpYPYcMSoMNRA0)" stroke-width="20" stroke="rgb(0,0,0)" stroke-linejoin="miter" stroke-linecap="square" stroke-miterlimit="3"/><mask id="_mask_hPY6PyQuqWlgssCaBrVyh6KstcDl3bMR"><path d=" M 432.957 500.01 C 449.522 514.001 467.899 525.912 487.681 535.344 C 506.085 456.665 576.746 398 661 398 C 715.877 398 764.987 422.887 797.646 461.985 C 831.389 418.814 851.5 364.487 851.5 305.5 C 851.5 301.141 851.39 296.807 851.16 292.504 C 835.452 298.634 818.366 302 800.5 302 C 723.508 302 661 239.492 661 162.5 C 661 127.397 673.994 95.305 695.429 70.775 C 665.148 58.036 631.889 51 597 51 C 490.822 51 399.743 116.163 361.609 208.646 C 417.91 253.645 454 322.891 454 400.5 C 454 435.915 446.485 469.589 432.957 500.01 Z " fill-rule="evenodd" fill="white" stroke="none"/></mask><path d=" M 432.957 500.01 C 449.522 514.001 467.899 525.912 487.681 535.344 C 506.085 456.665 576.746 398 661 398 C 715.877 398 764.987 422.887 797.646 461.985 C 831.389 418.814 851.5 364.487 851.5 305.5 C 851.5 301.141 851.39 296.807 851.16 292.504 C 835.452 298.634 818.366 302 800.5 302 C 723.508 302 661 239.492 661 162.5 C 661 127.397 673.994 95.305 695.429 70.775 C 665.148 58.036 631.889 51 597 51 C 490.822 51 399.743 116.163 361.609 208.646 C 417.91 253.645 454 322.891 454 400.5 C 454 435.915 446.485 469.589 432.957 500.01 Z " fill-rule="evenodd" fill="none" mask="url(#_mask_hPY6PyQuqWlgssCaBrVyh6KstcDl3bMR)" stroke-width="40" stroke="rgb(0,0,0)" stroke-linejoin="miter" stroke-linecap="square" stroke-miterlimit="3"/><circle cx="508.5000000000001" cy="468.5000000000001" r="17.500000000000085" fill="rgb(0,0,0)"/><path d=" M 795 376 C 536.606 298.545 231.061 444.625 266 327" fill="none" stroke-width="10" stroke="rgb(0,0,0)" stroke-linejoin="miter" stroke-linecap="round" stroke-miterlimit="3"/><circle cx="550.9700012207031" cy="139.97000122070347" r="52.029998779296875" fill="rgb(0,0,0)"/><circle cx="471.470001220703" cy="232.47000122070312" r="42.47000122070304" fill="rgb(0,0,0)"/><circle cx="451.66655863932533" cy="319.66655863932533" r="34.66655863932533" fill="rgb(0,0,0)"/><circle cx="462.7030785648308" cy="396.70307856483066" r="28.296921435169395" fill="rgb(0,0,0)"/><circle cx="457.5037991840368" cy="461.09764205437534" r="23.097642054375285" fill="rgb(0,0,0)"/><circle cx="174.73500061035168" cy="253.23500061035156" r="33.76499938964844" fill="rgb(0,0,0)"/><circle cx="163.76499938964855" cy="330.00000000000034" r="25.235000610351562" fill="rgb(0,0,0)"/><circle cx="196.85992202919084" cy="385.1400779708093" r="18.859922029190756" fill="rgb(0,0,0)"/><mask id="_mask_5qmmcDc7iz2LSTLO3CroIJRRyoX4s6FN"><circle cx="393.5" cy="170.5" r="26.5" fill="white" stroke="none"/></mask><circle cx="393.5" cy="170.5" r="26.5" fill="none" mask="url(#_mask_5qmmcDc7iz2LSTLO3CroIJRRyoX4s6FN)" stroke-width="20" stroke="rgb(0,0,0)" stroke-linejoin="miter" stroke-linecap="square" stroke-miterlimit="3"/></g></svg>
