<?xml version="1.0" standalone="no"?><!-- Generator: Gravit.io --><svg xmlns="http://www.w3.org/2000/svg" xmlns:xlink="http://www.w3.org/1999/xlink" style="isolation:isolate" viewBox="0 0 1277.75 1122" width="1277.75" height="1122"><defs><clipPath id="_clipPath_OTw8zr9veUy9VBbp4lhhWd4N9Ea3tk1X"><rect width="1277.75" height="1122"/></clipPath></defs><g clip-path="url(#_clipPath_OTw8zr9veUy9VBbp4lhhWd4N9Ea3tk1X)"><g><mask id="_mask_jr0QEbxsvWfjdRHHgnY5OO0ir3OtDgAI"><circle cx="535.2499997540021" cy="923.9999999999999" r="197.99999999999997" fill="white" stroke="none"/></mask><circle cx="535.2499997540021" cy="923.9999999999999" r="197.99999999999997" fill="none" mask="url(#_mask_jr0QEbxsvWfjdRHHgnY5OO0ir3OtDgAI)" stroke-width="20" stroke="rgb(0,0,0)" stroke-linejoin="miter" stroke-linecap="square" stroke-miterlimit="3"/><mask id="_mask_RXgKN76OYUtvhSviopD6aB1G6EXH1j9J"><circle cx="720.249999754002" cy="973.9999999999999" r="42" fill="white" stroke="none"/></mask><circle cx="720.249999754002" cy="973.9999999999999" r="42" fill="none" mask="url(#_mask_RXgKN76OYUtvhSviopD6aB1G6EXH1j9J)" stroke-width="10" stroke="rgb(0,0,0)" stroke-linejoin="miter" stroke-linecap="square" stroke-miterlimit="3"/></g><g><mask id="_mask_VRl5BMFuBBsluPce2npBlW2ZQamde42D"><circle cx="1045.7499997540021" cy="602.5000000000001" r="157.5" fill="white" stroke="none"/></mask><circle cx="1045.7499997540021" cy="602.5000000000001" r="157.5" fill="none" mask="url(#_mask_VRl5BMFuBBsluPce2npBlW2ZQamde42D)" stroke-width="10" stroke="rgb(0,0,0)" stroke-linejoin="miter" stroke-linecap="square" stroke-miterlimit="3"/><circle cx="1097.9999997540017" cy="653.2499999999999" r="19.75" fill="rgb(0,0,0)"/><circle cx="1185.4999997540021" cy="534.2499999999999" r="15.75" fill="rgb(0,0,0)"/><mask id="_mask_wbFUqfsLJvBfGfkA87XZB32aYDquDB8V"><circle cx="1022.249999754002" cy="451.5" r="23.500000000000114" fill="white" stroke="none"/></mask><circle cx="1022.249999754002" cy="451.5" r="23.500000000000114" fill="none" mask="url(#_mask_wbFUqfsLJvBfGfkA87XZB32aYDquDB8V)" stroke-width="10" stroke="rgb(0,0,0)" stroke-linejoin="miter" stroke-linecap="square" stroke-miterlimit="3"/><circle cx="941.4999997540021" cy="720.7499999999999" r="23.75" fill="rgb(0,0,0)"/><mask id="_mask_jFBPESRI1OpFNtXetSAmKRVCeLFijrlw"><path d=" M 906.68 208.617 C 929.617 202.987 953.587 200 978.25 200 C 1143.549 200 1277.75 334.201 1277.75 499.5 C 1277.75 664.799 1143.549 799 978.25 799 C 855.295 799 749.546 724.748 703.437 618.676 C 826.818 546.412 909.75 412.439 909.75 259.25 C 909.75 242.11 908.712 225.211 906.68 208.617 Z " fill-rule="evenodd" fill="white" stroke="none"/></mask><path d=" M 906.68 208.617 C 929.617 202.987 953.587 200 978.25 200 C 1143.549 200 1277.75 334.201 1277.75 499.5 C 1277.75 664.799 1143.549 799 978.25 799 C 855.295 799 749.546 724.748 703.437 618.676 C 826.818 546.412 909.75 412.439 909.75 259.25 C 909.75 242.11 908.712 225.211 906.68 208.617 Z " fill-rule="evenodd" fill="none" mask="url(#_mask_jFBPESRI1OpFNtXetSAmKRVCeLFijrlw)" stroke-width="20" stroke="rgb(0,0,0)" stroke-linejoin="miter" stroke-linecap="square" stroke-miterlimit="3"/><mask id="_mask_RIYKcIXs2vvUWMGsTgrN2zB4arzqUAfy"><circle cx="728.6741418913222" cy="655.4999999999999" r="29.5" fill="white" stroke="none"/></mask><circle cx="728.6741418913222" cy="655.4999999999999" r="29.5" fill="none" mask="url(#_mask_RIYKcIXs2vvUWMGsTgrN2zB4arzqUAfy)" stroke-width="10" stroke="rgb(0,0,0)" stroke-linejoin="miter" stroke-linecap="square" stroke-miterlimit="3"/></g><g><mask id="_mask_BNvld9gi2FYCtl7QICXDgWTAH0eP5jVw"><circle cx="493.4999997540022" cy="259.24999999999994" r="259.2499999999999" fill="white" stroke="none"/></mask><circle cx="493.4999997540022" cy="259.24999999999994" r="259.2499999999999" fill="none" mask="url(#_mask_BNvld9gi2FYCtl7QICXDgWTAH0eP5jVw)" stroke-width="20" stroke="rgb(0,0,0)" stroke-linejoin="miter" stroke-linecap="square" stroke-miterlimit="3"/><mask id="_mask_og40nYx19mgHrwxGEIFUshX4GXalXudH"><circle cx="418.99999975400215" cy="482.7499999999999" r="108.75" fill="white" stroke="none"/></mask><circle cx="418.99999975400215" cy="482.7499999999999" r="108.75" fill="none" mask="url(#_mask_og40nYx19mgHrwxGEIFUshX4GXalXudH)" stroke-width="10" stroke="rgb(0,0,0)" stroke-linejoin="miter" stroke-linecap="square" stroke-miterlimit="3"/><mask id="_mask_bJxViUXCCYcElJoKzL2BBX8gBbtvPoBX"><circle cx="493.74999975400215" cy="409.4999999999999" r="23.5" fill="white" stroke="none"/></mask><circle cx="493.74999975400215" cy="409.4999999999999" r="23.5" fill="none" mask="url(#_mask_bJxViUXCCYcElJoKzL2BBX8gBbtvPoBX)" stroke-width="10" stroke="rgb(0,0,0)" stroke-linejoin="miter" stroke-linecap="square" stroke-miterlimit="3"/><mask id="_mask_MCVZ3odi7ztmI8AiAOyuPVCGjipucoPS"><circle cx="242.74999975400215" cy="210.4999999999999" r="31.500000000000014" fill="white" stroke="none"/></mask><circle cx="242.74999975400215" cy="210.4999999999999" r="31.500000000000014" fill="none" mask="url(#_mask_MCVZ3odi7ztmI8AiAOyuPVCGjipucoPS)" stroke-width="10" stroke="rgb(0,0,0)" stroke-linejoin="miter" stroke-linecap="square" stroke-miterlimit="3"/></g><circle cx="361.1693402174602" cy="433.67723960565775" r="19" fill="rgb(0,0,0)"/><circle cx="462.99999975400215" cy="541.9999999999999" r="19" fill="rgb(0,0,0)"/><path d=" M 215.595 219.898 C 89.436 300.305 11.945 435.112 12 586.274 L 12 586.274 C 11.913 826.929 214.315 1003.711 471 1008 C 544.952 1009.236 619.783 994.474 683.103 966 C 679.727 979.337 683.369 992.014 694 1004 C 633.66 1030.933 548.219 1038.8 478 1040 C 213.518 1044.519 0 832.186 0 586.274 L 0 586.274 C 0 432.836 85.495 296.15 213.734 214.936 L 215.595 219.898 L 215.595 219.898 Z " fill="rgb(0,0,0)"/><path d=" M 733.028 339.945 C 790.778 331.737 846.19 365.114 888 406 L 895.832 383.381 C 853.766 343.688 793.026 327.44 735.674 334.652 L 733.028 339.945 L 733.028 339.945 Z " fill="rgb(0,0,0)"/></g></svg>
