<?xml version="1.0" standalone="no"?><!-- Generator: Gravit.io --><svg xmlns="http://www.w3.org/2000/svg" xmlns:xlink="http://www.w3.org/1999/xlink" style="isolation:isolate" viewBox="0 0 893 878.692" width="893" height="878.692"><defs><clipPath id="_clipPath_lNlR9SyKNr5lKuKNLApdd21VQ59kfpFD"><rect width="893" height="878.692"/></clipPath></defs><g clip-path="url(#_clipPath_lNlR9SyKNr5lKuKNLApdd21VQ59kfpFD)"><mask id="_mask_KTi0AouxdyC8rldZmrFWAt45Z6WYv4Hj"><circle cx="530.5" cy="628" r="77" fill="white" stroke="none"/></mask><circle cx="530.5" cy="628" r="77" fill="none" mask="url(#_mask_KTi0AouxdyC8rldZmrFWAt45Z6WYv4Hj)" stroke-width="10" stroke="rgb(0,0,0)" stroke-linejoin="miter" stroke-linecap="square" stroke-miterlimit="3"/><line x1="585.5" y1="516.964" x2="585.5" y2="576.705" stroke-width="4" stroke="rgb(0,0,0)" stroke-linejoin="miter" stroke-linecap="round" stroke-miterlimit="3"/><mask id="_mask_JbnJzQMyaD1JDf8iEfhJWHM6ddT6JRTm"><circle cx="660.5000000000001" cy="738.0000000000001" r="18" fill="white" stroke="none"/></mask><circle cx="660.5000000000001" cy="738.0000000000001" r="18" fill="none" mask="url(#_mask_JbnJzQMyaD1JDf8iEfhJWHM6ddT6JRTm)" stroke-width="10" stroke="rgb(0,0,0)" stroke-linejoin="miter" stroke-linecap="square" stroke-miterlimit="3"/><mask id="_mask_U8ku1IVJbC3YLxzvHqef1Mm0oVV8UDKU"><path d=" M 757.89 587.192 C 762.848 569.981 765.5 551.798 765.5 533 C 765.5 424.825 677.675 337 569.5 337 C 461.325 337 373.5 424.825 373.5 533 C 373.5 641.175 461.325 729 569.5 729 C 629.295 729 682.871 702.166 718.833 659.893 C 709.522 664.449 699.057 667 688 667 C 649.09 667 617.5 635.41 617.5 596.5 C 617.5 557.59 649.09 526 688 526 C 723.755 526 753.329 552.675 757.89 587.192 Z " fill-rule="evenodd" fill="white" stroke="none"/></mask><path d=" M 757.89 587.192 C 762.848 569.981 765.5 551.798 765.5 533 C 765.5 424.825 677.675 337 569.5 337 C 461.325 337 373.5 424.825 373.5 533 C 373.5 641.175 461.325 729 569.5 729 C 629.295 729 682.871 702.166 718.833 659.893 C 709.522 664.449 699.057 667 688 667 C 649.09 667 617.5 635.41 617.5 596.5 C 617.5 557.59 649.09 526 688 526 C 723.755 526 753.329 552.675 757.89 587.192 Z " fill-rule="evenodd" fill="none" mask="url(#_mask_U8ku1IVJbC3YLxzvHqef1Mm0oVV8UDKU)" stroke-width="20" stroke="rgb(0,0,0)" stroke-linejoin="miter" stroke-linecap="square" stroke-miterlimit="3"/><mask id="_mask_vRCBHyRsidPOeXTqLjzLLkDjbRe3xZMN"><circle cx="615.4999999999999" cy="450" r="75" fill="white" stroke="none"/></mask><circle cx="615.4999999999999" cy="450" r="75" fill="none" mask="url(#_mask_vRCBHyRsidPOeXTqLjzLLkDjbRe3xZMN)" stroke-width="10" stroke="rgb(0,0,0)" stroke-linejoin="miter" stroke-linecap="square" stroke-miterlimit="3"/><mask id="_mask_stuBOrjhGZclRdFwpBKUJOZf1YYNDqsb"><circle cx="473.5" cy="490" r="67.00000000000003" fill="white" stroke="none"/></mask><circle cx="473.5" cy="490" r="67.00000000000003" fill="none" mask="url(#_mask_stuBOrjhGZclRdFwpBKUJOZf1YYNDqsb)" stroke-width="10" stroke="rgb(0,0,0)" stroke-linejoin="miter" stroke-linecap="square" stroke-miterlimit="3"/><mask id="_mask_WRnHdybTqTMGSzjj01YiSqWjUQQRToat"><circle cx="425.5" cy="375" r="15" fill="white" stroke="none"/></mask><circle cx="425.5" cy="375" r="15" fill="none" mask="url(#_mask_WRnHdybTqTMGSzjj01YiSqWjUQQRToat)" stroke-width="10" stroke="rgb(0,0,0)" stroke-linejoin="miter" stroke-linecap="square" stroke-miterlimit="3"/><line x1="423.5" y1="531.56" x2="423.5" y2="616" stroke-width="4" stroke="rgb(0,0,0)" stroke-linejoin="miter" stroke-linecap="round" stroke-miterlimit="3"/><line x1="423.5" y1="616" x2="456.5" y2="616" stroke-width="4" stroke="rgb(0,0,0)" stroke-linejoin="miter" stroke-linecap="round" stroke-miterlimit="3"/><line x1="635.5" y1="327.732" x2="635.5" y2="518.134" stroke-width="4" stroke="rgb(0,0,0)" stroke-linejoin="miter" stroke-linecap="round" stroke-miterlimit="3"/><circle cx="705" cy="668.4999999999999" r="20.5" fill="rgb(0,0,0)"/><circle cx="622.0000000000002" cy="556.9999999999999" r="16.499999999999886" fill="rgb(0,0,0)"/><circle cx="758.2195121951221" cy="576.7053701393687" r="12.719512195122093" fill="rgb(0,0,0)"/><mask id="_mask_qDuaiorOmqCA48GtEI1B0hkG1Z6cWuag"><circle cx="684.4999999999999" cy="267.9999999999999" r="21" fill="white" stroke="none"/></mask><circle cx="684.4999999999999" cy="267.9999999999999" r="21" fill="none" mask="url(#_mask_qDuaiorOmqCA48GtEI1B0hkG1Z6cWuag)" stroke-width="10" stroke="rgb(0,0,0)" stroke-linejoin="miter" stroke-linecap="square" stroke-miterlimit="3"/><mask id="_mask_ZVBPwrrCYzcnFG9HFdaLj6dQYwI3NxAC"><path d=" M 413.529 266.446 C 423.191 298.872 443.912 326.548 471.313 345.094 C 500.674 329.706 534.079 321 569.5 321 C 596.63 321 622.577 326.107 646.426 335.42 C 677.673 308.823 697.5 269.209 697.5 225 C 697.5 220.968 697.335 216.974 697.009 213.025 C 681.896 220.684 664.808 225 646.72 225 C 585.181 225 535.22 175.039 535.22 113.5 C 535.22 102.019 536.959 90.94 540.208 80.524 C 465.923 86.764 407.5 149.113 407.5 225 C 407.5 227.464 407.562 229.913 407.682 232.347 C 410.328 194.734 441.719 165 480 165 C 520.014 165 552.5 197.486 552.5 237.5 C 552.5 277.514 520.014 310 480 310 C 450.276 310 424.705 292.073 413.529 266.446 Z " fill-rule="evenodd" fill="white" stroke="none"/></mask><path d=" M 413.529 266.446 C 423.191 298.872 443.912 326.548 471.313 345.094 C 500.674 329.706 534.079 321 569.5 321 C 596.63 321 622.577 326.107 646.426 335.42 C 677.673 308.823 697.5 269.209 697.5 225 C 697.5 220.968 697.335 216.974 697.009 213.025 C 681.896 220.684 664.808 225 646.72 225 C 585.181 225 535.22 175.039 535.22 113.5 C 535.22 102.019 536.959 90.94 540.208 80.524 C 465.923 86.764 407.5 149.113 407.5 225 C 407.5 227.464 407.562 229.913 407.682 232.347 C 410.328 194.734 441.719 165 480 165 C 520.014 165 552.5 197.486 552.5 237.5 C 552.5 277.514 520.014 310 480 310 C 450.276 310 424.705 292.073 413.529 266.446 Z " fill-rule="evenodd" fill="none" mask="url(#_mask_ZVBPwrrCYzcnFG9HFdaLj6dQYwI3NxAC)" stroke-width="20" stroke="rgb(0,0,0)" stroke-linejoin="miter" stroke-linecap="square" stroke-miterlimit="3"/><mask id="_mask_IEYYMBdFWyJV4GRTKnf33jPhtv9G39fl"><circle cx="480" cy="237.5" r="33.49999999999997" fill="white" stroke="none"/></mask><circle cx="480" cy="237.5" r="33.49999999999997" fill="none" mask="url(#_mask_IEYYMBdFWyJV4GRTKnf33jPhtv9G39fl)" stroke-width="20" stroke="rgb(0,0,0)" stroke-linejoin="miter" stroke-linecap="square" stroke-miterlimit="3"/><mask id="_mask_WcZ2RqzM9gDP6NOFdvqaP3uwJvQLtzcG"><circle cx="496.99999999999994" cy="277.5" r="8.5" fill="white" stroke="none"/></mask><circle cx="496.99999999999994" cy="277.5" r="8.5" fill="none" mask="url(#_mask_WcZ2RqzM9gDP6NOFdvqaP3uwJvQLtzcG)" stroke-width="10" stroke="rgb(0,0,0)" stroke-linejoin="miter" stroke-linecap="square" stroke-miterlimit="3"/><mask id="_mask_2hTD5VpkEt0l8JKn9iwRXPcArRhqIKCU"><path d=" M 245.388 539.896 C 317.181 533.397 373.5 472.974 373.5 399.5 C 373.5 321.68 310.32 258.5 232.5 258.5 C 154.68 258.5 91.5 321.68 91.5 399.5 C 91.5 455.527 124.249 503.966 171.646 526.678 C 157.427 513.782 148.5 495.162 148.5 474.474 C 148.5 435.549 180.102 403.947 219.026 403.947 C 257.951 403.947 289.553 435.549 289.553 474.474 C 289.553 504.08 271.271 529.449 245.388 539.896 Z " fill-rule="evenodd" fill="white" stroke="none"/></mask><path d=" M 245.388 539.896 C 317.181 533.397 373.5 472.974 373.5 399.5 C 373.5 321.68 310.32 258.5 232.5 258.5 C 154.68 258.5 91.5 321.68 91.5 399.5 C 91.5 455.527 124.249 503.966 171.646 526.678 C 157.427 513.782 148.5 495.162 148.5 474.474 C 148.5 435.549 180.102 403.947 219.026 403.947 C 257.951 403.947 289.553 435.549 289.553 474.474 C 289.553 504.08 271.271 529.449 245.388 539.896 Z " fill-rule="evenodd" fill="none" mask="url(#_mask_2hTD5VpkEt0l8JKn9iwRXPcArRhqIKCU)" stroke-width="20" stroke="rgb(0,0,0)" stroke-linejoin="miter" stroke-linecap="square" stroke-miterlimit="3"/><mask id="_mask_LpJhGPX8SI46AmnndK57Fya912hRcHAW"><circle cx="293" cy="473.5" r="23.5" fill="white" stroke="none"/></mask><circle cx="293" cy="473.5" r="23.5" fill="none" mask="url(#_mask_LpJhGPX8SI46AmnndK57Fya912hRcHAW)" stroke-width="10" stroke="rgb(0,0,0)" stroke-linejoin="miter" stroke-linecap="square" stroke-miterlimit="3"/><mask id="_mask_Xjh151FBMKchuIZUdfpe1CEBF6y47zAq"><circle cx="262.5" cy="277.5" r="80.00000000000006" fill="white" stroke="none"/></mask><circle cx="262.5" cy="277.5" r="80.00000000000006" fill="none" mask="url(#_mask_Xjh151FBMKchuIZUdfpe1CEBF6y47zAq)" stroke-width="10" stroke="rgb(0,0,0)" stroke-linejoin="miter" stroke-linecap="square" stroke-miterlimit="3"/><line x1="203.5" y1="328.944" x2="203.5" y2="640" stroke-width="4" stroke="rgb(0,0,0)" stroke-linejoin="miter" stroke-linecap="round" stroke-miterlimit="3"/><line x1="203.5" y1="640" x2="455.054" y2="640" stroke-width="4" stroke="rgb(0,0,0)" stroke-linejoin="miter" stroke-linecap="round" stroke-miterlimit="3"/><line x1="558.406" y1="404" x2="312.5" y2="404" stroke-width="4" stroke="rgb(0,0,0)" stroke-linejoin="miter" stroke-linecap="round" stroke-miterlimit="3"/><line x1="312.5" y1="404" x2="312.5" y2="219" stroke-width="4" stroke="rgb(0,0,0)" stroke-linejoin="miter" stroke-linecap="round" stroke-miterlimit="3"/><line x1="663.933" y1="268" x2="552.5" y2="268" stroke-width="4" stroke="rgb(0,0,0)" stroke-linejoin="miter" stroke-linecap="round" stroke-miterlimit="3"/><line x1="559.071" y1="244" x2="593.5" y2="244" stroke-width="4" stroke="rgb(0,0,0)" stroke-linejoin="miter" stroke-linecap="round" stroke-miterlimit="3"/><line x1="593.5" y1="244" x2="593.5" y2="316" stroke-width="4" stroke="rgb(0,0,0)" stroke-linejoin="miter" stroke-linecap="round" stroke-miterlimit="3"/><mask id="_mask_wWy7RZsEJJjA44uRT1Nlw46pkyO3t6Ac"><path d=" M 127.146 758.438 C 48.499 677.923 0 567.831 0 446.5 C 0 200.07 200.07 0 446.5 0 C 514.965 0 579.851 15.443 637.854 43.046 C 602.846 47.417 575.72 77.316 575.72 113.5 C 575.72 152.686 607.534 184.5 646.72 184.5 C 685.905 184.5 717.72 152.686 717.72 113.5 C 717.72 104.689 716.111 96.251 713.162 88.469 C 822.294 169.889 893 300.002 893 446.5 C 893 654.119 750.987 828.83 558.876 878.692 C 526.752 769.114 425.408 689 305.5 689 C 236.767 689 174.133 715.324 127.146 758.438 Z " fill-rule="evenodd" fill="white" stroke="none"/></mask><path d=" M 127.146 758.438 C 48.499 677.923 0 567.831 0 446.5 C 0 200.07 200.07 0 446.5 0 C 514.965 0 579.851 15.443 637.854 43.046 C 602.846 47.417 575.72 77.316 575.72 113.5 C 575.72 152.686 607.534 184.5 646.72 184.5 C 685.905 184.5 717.72 152.686 717.72 113.5 C 717.72 104.689 716.111 96.251 713.162 88.469 C 822.294 169.889 893 300.002 893 446.5 C 893 654.119 750.987 828.83 558.876 878.692 C 526.752 769.114 425.408 689 305.5 689 C 236.767 689 174.133 715.324 127.146 758.438 Z " fill-rule="evenodd" fill="none" mask="url(#_mask_wWy7RZsEJJjA44uRT1Nlw46pkyO3t6Ac)" stroke-width="40" stroke="rgb(0,0,0)" stroke-linejoin="miter" stroke-linecap="square" stroke-miterlimit="3"/><mask id="_mask_vvnl0Wcqqlopl1eL1RcYp0fYjrzbRsyj"><path d=" M 843.623 505.815 C 814.932 699.329 647.941 848 446.5 848 C 224.906 848 45 668.094 45 446.5 C 45 317.805 105.681 203.17 199.979 129.685 C 225.325 155.783 260.783 172 300 172 C 372.749 172 432.567 116.192 438.919 45.083 C 441.439 45.024 443.967 45 446.5 45 C 580.515 45 699.283 110.802 772.222 211.838 C 767.162 235.429 764.5 259.906 764.5 285 C 764.5 368.805 794.188 445.731 843.623 505.815 Z " fill-rule="evenodd" fill="white" stroke="none"/></mask><path d=" M 843.623 505.815 C 814.932 699.329 647.941 848 446.5 848 C 224.906 848 45 668.094 45 446.5 C 45 317.805 105.681 203.17 199.979 129.685 C 225.325 155.783 260.783 172 300 172 C 372.749 172 432.567 116.192 438.919 45.083 C 441.439 45.024 443.967 45 446.5 45 C 580.515 45 699.283 110.802 772.222 211.838 C 767.162 235.429 764.5 259.906 764.5 285 C 764.5 368.805 794.188 445.731 843.623 505.815 Z " fill-rule="evenodd" fill="none" mask="url(#_mask_vvnl0Wcqqlopl1eL1RcYp0fYjrzbRsyj)" stroke-width="40" stroke="rgb(0,0,0)" stroke-linejoin="miter" stroke-linecap="square" stroke-miterlimit="3"/></g></svg>
