<?xml version="1.0" standalone="no"?><!-- Generator: Gravit.io --><svg xmlns="http://www.w3.org/2000/svg" xmlns:xlink="http://www.w3.org/1999/xlink" style="isolation:isolate" viewBox="0 0 544 333" width="544" height="333"><defs><clipPath id="_clipPath_0fNHDxyCu8mzvEg8LfBdpVy7npQd1c6m"><rect width="544" height="333"/></clipPath></defs><g clip-path="url(#_clipPath_0fNHDxyCu8mzvEg8LfBdpVy7npQd1c6m)"><mask id="_mask_QU4pVlU8YTdnpy9gggNKapFdWUffskg9"><circle cx="178.0000000000001" cy="240" r="59" fill="white" stroke="none"/></mask><circle cx="178.0000000000001" cy="240" r="59" fill="none" mask="url(#_mask_QU4pVlU8YTdnpy9gggNKapFdWUffskg9)" stroke-width="20" stroke="rgb(0,0,0)" stroke-linejoin="miter" stroke-linecap="square" stroke-miterlimit="3"/><mask id="_mask_ZF4sX9xA9yUZ5f8JV7GBCDKEPtpiPFu2"><circle cx="260.030029296875" cy="314" r="19" fill="white" stroke="none"/></mask><circle cx="260.030029296875" cy="314" r="19" fill="none" mask="url(#_mask_ZF4sX9xA9yUZ5f8JV7GBCDKEPtpiPFu2)" stroke-width="20" stroke="rgb(0,0,0)" stroke-linejoin="miter" stroke-linecap="square" stroke-miterlimit="3"/><mask id="_mask_2DkL4CrFtrKvug5f4t5PFL5rEFRrKZAI"><circle cx="237" cy="136" r="54" fill="white" stroke="none"/></mask><circle cx="237" cy="136" r="54" fill="none" mask="url(#_mask_2DkL4CrFtrKvug5f4t5PFL5rEFRrKZAI)" stroke-width="20" stroke="rgb(0,0,0)" stroke-linejoin="miter" stroke-linecap="square" stroke-miterlimit="3"/><mask id="_mask_ZfhXf2s1od8vUOOpOC38o0OaaBbmBjYG"><path d=" M 63.645 33.078 C 24.966 62.577 0 109.146 0 161.5 C 0 250.634 72.366 323 161.5 323 C 250.634 323 323 250.634 323 161.5 C 323 72.366 250.634 0 161.5 0 C 160.427 0 159.355 0.01 158.288 0.037 C 174.427 11.23 185 29.89 185 51 C 185 85.219 157.219 113 123 113 C 88.781 113 61 85.219 61 51 C 61 44.768 61.921 38.749 63.645 33.078 Z " fill-rule="evenodd" fill="white" stroke="none"/></mask><path d=" M 63.645 33.078 C 24.966 62.577 0 109.146 0 161.5 C 0 250.634 72.366 323 161.5 323 C 250.634 323 323 250.634 323 161.5 C 323 72.366 250.634 0 161.5 0 C 160.427 0 159.355 0.01 158.288 0.037 C 174.427 11.23 185 29.89 185 51 C 185 85.219 157.219 113 123 113 C 88.781 113 61 85.219 61 51 C 61 44.768 61.921 38.749 63.645 33.078 Z " fill-rule="evenodd" fill="none" mask="url(#_mask_ZfhXf2s1od8vUOOpOC38o0OaaBbmBjYG)" stroke-width="40" stroke="rgb(0,0,0)" stroke-linejoin="miter" stroke-linecap="square" stroke-miterlimit="3"/><mask id="_mask_2oI3oUHS9mxsPWMxsPgp0wGs58KiLKlH"><circle cx="123" cy="51" r="15.999999999999993" fill="white" stroke="none"/></mask><circle cx="123" cy="51" r="15.999999999999993" fill="none" mask="url(#_mask_2oI3oUHS9mxsPWMxsPgp0wGs58KiLKlH)" stroke-width="20" stroke="rgb(0,0,0)" stroke-linejoin="miter" stroke-linecap="square" stroke-miterlimit="3"/><mask id="_mask_8LEvCPABuv8pAzy89TTuD7c4aYuBqx2N"><circle cx="78.00000000000006" cy="182" r="53.00000000000001" fill="white" stroke="none"/></mask><circle cx="78.00000000000006" cy="182" r="53.00000000000001" fill="none" mask="url(#_mask_8LEvCPABuv8pAzy89TTuD7c4aYuBqx2N)" stroke-width="20" stroke="rgb(0,0,0)" stroke-linejoin="miter" stroke-linecap="square" stroke-miterlimit="3"/><path d=" M 231.97 249.156 C 235.134 246.625 238.156 243.909 241.03 241.03 C 251.3 230.78 259.49 218.64 265.15 205.28 C 270.059 193.65 272.968 181.302 273.759 168.743 L 262.765 177.294 C 261.501 185.555 259.207 193.644 255.94 201.38 C 250.78 213.55 243.32 224.62 233.96 233.96 C 233.84 234.081 233.719 234.201 233.596 234.319 L 231.97 249.156 L 231.97 249.156 Z " fill="rgb(0,0,0)"/><path d=" M 67.361 230.084 C 70.909 234.97 74.85 239.574 79.14 243.86 C 89.76 254.49 102.34 262.98 116.17 268.84 C 123.065 271.752 130.204 273.982 137.493 275.493 L 149.402 287.402 C 136.642 286.208 124.123 283.055 112.28 278.05 C 97.25 271.68 83.6 262.48 72.07 250.93 C 63.233 242.108 55.772 232.046 49.92 221.062 L 67.361 230.084 L 67.361 230.084 Z " fill="rgb(0,0,0)"/><circle cx="193.0673828125" cy="67" r="26" fill="rgb(0,0,0)"/><circle cx="166.00000000000017" cy="109.99996932672491" r="21.00000000000017" fill="rgb(0,0,0)"/><circle cx="125.62922186644181" cy="123.0384615384612" r="16.96153846153871" fill="rgb(0,0,0)"/><path d=" M 127.841 181.211 C 131.256 178.727 134.474 175.97 137.47 172.97 C 144.95 165.5 150.92 156.65 155.05 146.91 C 159.31 136.81 161.51 125.96 161.5 115 C 161.51 104.04 159.31 93.19 155.05 83.09 C 150.92 73.35 144.95 64.5 137.47 57.03 C 135.829 55.387 134.122 53.817 132.347 52.331 L 126.524 60.541 C 127.873 61.66 129.158 62.856 130.4 64.1 C 136.97 70.66 142.22 78.44 145.84 86.99 C 149.58 95.85 151.51 105.38 151.5 115 C 151.51 124.62 149.58 134.15 145.84 143.01 C 142.22 151.56 136.97 159.34 130.4 165.9 C 128.288 168.015 126.049 169.994 123.682 171.803 L 127.841 181.211 L 127.841 181.211 Z " fill="rgb(0,0,0)"/><path d=" M 313.28 155.547 C 308.668 152.317 303.717 149.578 298.51 147.37 C 288.54 143.16 277.82 140.99 267 141 C 256.18 140.99 245.46 143.16 235.49 147.37 C 225.87 151.45 217.12 157.34 209.74 164.74 C 202.747 171.715 197.102 179.913 193.067 188.908 L 182.895 187.232 C 182.98 187.017 183.07 186.803 183.16 186.59 C 187.74 175.78 194.36 165.96 202.67 157.67 C 210.96 149.36 220.78 142.74 231.59 138.16 C 242.79 133.43 254.84 130.99 267 131 C 279.16 130.99 291.21 133.43 302.41 138.16 C 305.047 139.277 307.625 140.516 310.127 141.886 L 313.28 155.547 L 313.28 155.547 Z " fill="rgb(0,0,0)"/><mask id="_mask_IWcD3JaTu5u7AQfwB3Z1k8YlU1tqXOYK"><path d=" M 502.42 203.113 C 527.76 182.863 544 151.699 544 116.771 C 544 55.784 494.487 6.271 433.5 6.271 C 372.513 6.271 323 55.784 323 116.771 C 323 177.758 372.513 227.271 433.5 227.271 C 436.371 227.271 439.217 227.161 442.037 226.956 C 424.452 219.989 412 202.823 412 182.771 C 412 156.555 433.284 135.271 459.5 135.271 C 485.716 135.271 507 156.555 507 182.771 C 507 190.05 505.359 196.949 502.42 203.113 Z " fill-rule="evenodd" fill="white" stroke="none"/></mask><path d=" M 502.42 203.113 C 527.76 182.863 544 151.699 544 116.771 C 544 55.784 494.487 6.271 433.5 6.271 C 372.513 6.271 323 55.784 323 116.771 C 323 177.758 372.513 227.271 433.5 227.271 C 436.371 227.271 439.217 227.161 442.037 226.956 C 424.452 219.989 412 202.823 412 182.771 C 412 156.555 433.284 135.271 459.5 135.271 C 485.716 135.271 507 156.555 507 182.771 C 507 190.05 505.359 196.949 502.42 203.113 Z " fill-rule="evenodd" fill="none" mask="url(#_mask_IWcD3JaTu5u7AQfwB3Z1k8YlU1tqXOYK)" stroke-width="40" stroke="rgb(0,0,0)" stroke-linejoin="miter" stroke-linecap="square" stroke-miterlimit="3"/><mask id="_mask_0Nd5AsMh3zUFDf128E6iqbWHE7OZGqTl"><circle cx="459.5" cy="182.77098061608467" r="14.5" fill="white" stroke="none"/></mask><circle cx="459.5" cy="182.77098061608467" r="14.5" fill="none" mask="url(#_mask_0Nd5AsMh3zUFDf128E6iqbWHE7OZGqTl)" stroke-width="20" stroke="rgb(0,0,0)" stroke-linejoin="miter" stroke-linecap="square" stroke-miterlimit="3"/><mask id="_mask_ZtJWVFAC1YyEgbizzQwWvnu6jxsrNvI5"><path d=" M 405.961 34.932 C 428.635 28.857 451.975 42.332 458.051 65.006 C 464.126 87.68 450.65 111.02 427.977 117.096 C 405.303 123.171 381.962 109.695 375.887 87.022 C 369.812 64.348 383.287 41.007 405.961 34.932 Z " fill="white" stroke="none"/></mask><path d=" M 405.961 34.932 C 428.635 28.857 451.975 42.332 458.051 65.006 C 464.126 87.68 450.65 111.02 427.977 117.096 C 405.303 123.171 381.962 109.695 375.887 87.022 C 369.812 64.348 383.287 41.007 405.961 34.932 Z " fill="none" mask="url(#_mask_ZtJWVFAC1YyEgbizzQwWvnu6jxsrNvI5)" stroke-width="20" stroke="rgb(0,0,0)" stroke-linejoin="miter" stroke-linecap="square" stroke-miterlimit="3"/><mask id="_mask_XgoeRfxbwN4QdTAocab5ZGpisCgfJYkE"><path d=" M 409.397 47.754 C 424.994 43.574 441.05 52.844 445.229 68.442 C 449.408 84.039 440.138 100.095 424.541 104.274 C 408.944 108.453 392.888 99.183 388.709 83.586 C 384.529 67.989 393.799 51.933 409.397 47.754 Z " fill="white" stroke="none"/></mask><path d=" M 409.397 47.754 C 424.994 43.574 441.05 52.844 445.229 68.442 C 449.408 84.039 440.138 100.095 424.541 104.274 C 408.944 108.453 392.888 99.183 388.709 83.586 C 384.529 67.989 393.799 51.933 409.397 47.754 Z " fill="none" mask="url(#_mask_XgoeRfxbwN4QdTAocab5ZGpisCgfJYkE)" stroke-width="20" stroke="rgb(0,0,0)" stroke-linejoin="miter" stroke-linecap="square" stroke-miterlimit="3"/><path d=" M 381.619 55.197 C 390.949 52.697 400.553 58.241 403.052 67.571 C 405.552 76.9 400.007 86.504 390.678 89.004 C 381.349 91.504 371.745 85.959 369.245 76.63 C 366.745 67.3 372.29 57.696 381.619 55.197 Z " fill="rgb(0,0,0)"/><path d=" M 397.681 88.77 C 405.438 86.691 413.423 91.301 415.501 99.058 C 417.58 106.815 412.97 114.8 405.213 116.879 C 397.456 118.957 389.471 114.347 387.392 106.59 C 385.314 98.833 389.924 90.848 397.681 88.77 Z " fill="rgb(0,0,0)"/><path d=" M 428.632 91.556 C 435.081 89.828 441.721 93.661 443.449 100.111 C 445.177 106.56 441.344 113.199 434.894 114.928 C 428.445 116.656 421.805 112.823 420.077 106.373 C 418.349 99.923 422.182 93.284 428.632 91.556 Z " fill="rgb(0,0,0)"/><path d=" M 450.021 125.654 C 450.01 126.546 449.999 127.438 450 128.331 C 449.99 142.801 452.88 157.121 458.51 170.441 C 458.802 171.13 459.101 171.815 459.403 172.5 L 451.292 178.739 C 450.587 177.294 449.929 175.825 449.3 174.341 C 443.15 159.781 439.99 144.131 440 128.331 C 440 127.695 440.004 127.059 440.015 126.424 L 450.021 125.654 L 450.021 125.654 Z " fill="rgb(0,0,0)"/></g></svg>
