<?xml version="1.0" standalone="no"?><!-- Generator: Gravit.io --><svg xmlns="http://www.w3.org/2000/svg" xmlns:xlink="http://www.w3.org/1999/xlink" style="isolation:isolate" viewBox="0 0 662.376 470.438" width="662.376" height="470.438"><defs><clipPath id="_clipPath_TuYeSjePIV9VfLJZnNaQwypbN7mB7whB"><rect width="662.376" height="470.438"/></clipPath></defs><g clip-path="url(#_clipPath_TuYeSjePIV9VfLJZnNaQwypbN7mB7whB)"><mask id="_mask_LtjltEj941nojHAjMcE6CjjckLAHI0R1"><path d=" M 334.83 381.932 C 321.082 403.761 302.8 422.451 281.314 436.686 C 259.826 366.423 194.42 315.264 117.16 315.264 C 77.676 315.264 41.289 328.625 12.278 351.071 C 4.348 330.711 0 308.566 0 285.415 C 0 185.332 81.254 104.078 181.337 104.078 C 213.438 104.078 243.602 112.437 269.77 127.093 C 255.698 154.294 247.752 185.166 247.752 217.88 C 247.752 286.088 282.294 346.292 334.83 381.932 Z " fill-rule="evenodd" fill="white" stroke="none"/></mask><path d=" M 334.83 381.932 C 321.082 403.761 302.8 422.451 281.314 436.686 C 259.826 366.423 194.42 315.264 117.16 315.264 C 77.676 315.264 41.289 328.625 12.278 351.071 C 4.348 330.711 0 308.566 0 285.415 C 0 185.332 81.254 104.078 181.337 104.078 C 213.438 104.078 243.602 112.437 269.77 127.093 C 255.698 154.294 247.752 185.166 247.752 217.88 C 247.752 286.088 282.294 346.292 334.83 381.932 Z " fill-rule="evenodd" fill="none" mask="url(#_mask_LtjltEj941nojHAjMcE6CjjckLAHI0R1)" stroke-width="40" stroke="rgb(0,0,0)" stroke-linejoin="miter" stroke-linecap="square" stroke-miterlimit="3"/><mask id="_mask_ZorCuknRnqaYpYtH6nJ0erRwmiX4LGeX"><circle cx="184.69491885865523" cy="78.33238057162575" r="19.775415554563097" fill="white" stroke="none"/></mask><circle cx="184.69491885865523" cy="78.33238057162575" r="19.775415554563097" fill="none" mask="url(#_mask_ZorCuknRnqaYpYtH6nJ0erRwmiX4LGeX)" stroke-width="20" stroke="rgb(0,0,0)" stroke-linejoin="miter" stroke-linecap="square" stroke-miterlimit="3"/><mask id="_mask_jESjlpU2M3GD7THHvK6ItNjnQu1sUyRk"><circle cx="414.53748454942604" cy="319.3685777083757" r="85.44472003764042" fill="white" stroke="none"/></mask><circle cx="414.53748454942604" cy="319.3685777083757" r="85.44472003764042" fill="none" mask="url(#_mask_jESjlpU2M3GD7THHvK6ItNjnQu1sUyRk)" stroke-width="20" stroke="rgb(0,0,0)" stroke-linejoin="miter" stroke-linecap="square" stroke-miterlimit="3"/><mask id="_mask_VXaIRiPLcMkSSIx7gYV894KB9nKEGkbQ"><circle cx="558.8329122098344" cy="443.57279191552686" r="26.864715470349893" fill="white" stroke="none"/></mask><circle cx="558.8329122098344" cy="443.57279191552686" r="26.864715470349893" fill="none" mask="url(#_mask_VXaIRiPLcMkSSIx7gYV894KB9nKEGkbQ)" stroke-width="20" stroke="rgb(0,0,0)" stroke-linejoin="miter" stroke-linecap="square" stroke-miterlimit="3"/><mask id="_mask_D270bd1tSlRcpRIcl3V72n7VKmJT060a"><circle cx="515.9575744687234" cy="116.39508185460012" r="66.04242553127668" fill="white" stroke="none"/></mask><circle cx="515.9575744687234" cy="116.39508185460012" r="66.04242553127668" fill="none" mask="url(#_mask_D270bd1tSlRcpRIcl3V72n7VKmJT060a)" stroke-width="20" stroke="rgb(0,0,0)" stroke-linejoin="miter" stroke-linecap="square" stroke-miterlimit="3"/><circle cx="577.163985613992" cy="122.11739463012648" r="26.6798872442497" fill="rgb(0,0,0)"/><circle cx="473.4049638183035" cy="159.84247120418027" r="16.404963818303543" fill="rgb(0,0,0)"/><mask id="_mask_jRP2BEkBULrpSkjqk2lIAhjlVvxJdFVV"><path d=" M 420.597 1.451 C 428.893 0.494 437.329 0 445.88 0 C 557.786 0 650.101 84.549 662.376 193.197 C 651.922 189.463 640.661 187.438 628.931 187.438 C 573.777 187.438 529 232.215 529 287.368 C 529 329.245 554.814 365.139 591.388 379.986 C 552.803 414.657 501.786 435.759 445.88 435.759 C 325.629 435.759 228 338.131 228 217.88 C 228 173.348 241.388 131.92 264.36 97.405 C 280.869 121.698 308.728 137.659 340.286 137.659 C 390.945 137.659 432.074 96.53 432.074 45.871 C 432.074 29.759 427.914 14.611 420.597 1.451 Z " fill-rule="evenodd" fill="white" stroke="none"/></mask><path d=" M 420.597 1.451 C 428.893 0.494 437.329 0 445.88 0 C 557.786 0 650.101 84.549 662.376 193.197 C 651.922 189.463 640.661 187.438 628.931 187.438 C 573.777 187.438 529 232.215 529 287.368 C 529 329.245 554.814 365.139 591.388 379.986 C 552.803 414.657 501.786 435.759 445.88 435.759 C 325.629 435.759 228 338.131 228 217.88 C 228 173.348 241.388 131.92 264.36 97.405 C 280.869 121.698 308.728 137.659 340.286 137.659 C 390.945 137.659 432.074 96.53 432.074 45.871 C 432.074 29.759 427.914 14.611 420.597 1.451 Z " fill-rule="evenodd" fill="none" mask="url(#_mask_jRP2BEkBULrpSkjqk2lIAhjlVvxJdFVV)" stroke-width="40" stroke="rgb(0,0,0)" stroke-linejoin="miter" stroke-linecap="square" stroke-miterlimit="3"/><circle cx="80.96726745924877" cy="315.6373672263827" r="57.0875203744934" fill="rgb(0,0,0)"/><circle cx="184.694918858655" cy="315.6373672263827" r="37.68522586812966" fill="rgb(0,0,0)"/><mask id="_mask_HxuMPaJoB6zNjOA07tP0co2L3mZrE52K"><circle cx="242.1228247537183" cy="355.5603321395952" r="24.87717524628168" fill="white" stroke="none"/></mask><circle cx="242.1228247537183" cy="355.5603321395952" r="24.87717524628168" fill="none" mask="url(#_mask_HxuMPaJoB6zNjOA07tP0co2L3mZrE52K)" stroke-width="20" stroke="rgb(0,0,0)" stroke-linejoin="miter" stroke-linecap="square" stroke-miterlimit="3"/><circle cx="273.4221875808787" cy="395.01531980499806" r="16.422187580878756" fill="rgb(0,0,0)"/><path d=" M 237.785 213.962 C 250.286 210.145 263.309 208.21 276.43 208.218 C 294.22 208.207 311.83 211.767 328.22 218.688 C 344.03 225.388 358.4 235.078 370.53 247.228 C 371.786 248.481 373.016 249.759 374.202 251.074 L 383.141 246.046 C 381.364 244.023 379.51 242.065 377.6 240.158 C 364.56 227.098 349.11 216.677 332.11 209.478 C 314.49 202.038 295.56 198.207 276.43 198.218 C 263.146 198.211 249.953 200.055 237.229 203.67 L 237.785 213.962 L 237.785 213.962 Z " fill="rgb(0,0,0)"/><path d=" M 238.789 232.537 C 250.882 228.35 263.604 226.209 276.43 226.218 C 291.81 226.207 307.04 229.288 321.21 235.267 C 334.89 241.068 347.31 249.448 357.81 259.948 C 357.884 260.021 357.958 260.095 358.03 260.171 L 367.056 255.093 C 366.335 254.351 365.612 253.61 364.88 252.878 C 353.47 241.468 339.97 232.358 325.11 226.058 C 309.71 219.558 293.15 216.207 276.43 216.218 C 263.442 216.21 250.551 218.229 238.23 222.196 L 238.789 232.537 L 238.789 232.537 Z " fill="rgb(0,0,0)"/><path d=" M 237.451 194.49 C 250.095 191.123 263.154 189.426 276.296 189.439 C 278.255 189.437 280.213 189.473 282.165 189.569 L 283.637 179.631 C 281.196 179.49 278.747 179.437 276.296 179.439 C 263.503 179.427 250.787 180.935 238.415 183.929 L 237.451 194.49 L 237.451 194.49 Z " fill="rgb(0,0,0)"/><circle cx="539.6711808763741" cy="341.3288891846764" r="39.688976289307675" fill="rgb(0,0,0)"/><circle cx="520.1086182012004" cy="266.3288891846764" r="27.108618201200443" fill="rgb(0,0,0)"/><circle cx="550.4840983697422" cy="212.92160575561903" r="18.515901630257872" fill="rgb(0,0,0)"/><path d=" M 284.109 130.52 C 292.547 114.86 303.254 100.499 315.88 87.888 C 332.65 71.098 352.5 57.718 374.34 48.458 C 385.45 43.748 397.01 40.158 408.84 37.738 C 419.556 35.549 430.441 34.318 441.367 34.035 L 438.602 24.158 C 427.926 24.531 417.302 25.802 406.83 27.938 C 394.36 30.498 382.17 34.288 370.44 39.248 C 347.41 49.008 326.49 63.118 308.81 80.808 C 295.85 93.76 284.812 108.456 276.027 124.458 L 284.109 130.52 L 284.109 130.52 Z " fill="rgb(0,0,0)"/><path d=" M 445.88 401.758 M 445.88 411.758 M 445.88 411.758 M 445.88 411.758 M 445.88 411.758 M 445.88 401.758" fill-rule="evenodd" fill="rgb(0,0,0)"/><path d=" M 441.889 55.027 C 421.481 55.526 401.334 59.855 382.51 67.808 C 363.16 76.008 345.58 87.868 330.73 102.728 C 315.86 117.578 304.01 135.158 295.81 154.508 C 291.633 164.396 288.455 174.649 286.342 185.12 L 276.241 184.639 C 278.486 172.995 281.963 161.593 286.6 150.618 C 295.3 130.078 307.88 111.418 323.66 95.658 C 339.42 79.888 358.08 67.298 378.61 58.598 C 398.89 50.034 420.604 45.426 442.593 45.022 L 441.889 55.027 L 441.889 55.027 Z " fill="rgb(0,0,0)"/><path d=" M 275.347 189.441 C 275.708 189.438 276.069 189.437 276.43 189.438 C 279.442 189.435 282.449 189.521 285.445 189.731 C 286.022 186.408 286.708 183.105 287.512 179.829 C 284.129 179.58 280.734 179.455 277.333 179.443 C 276.572 182.755 275.909 186.089 275.347 189.441 Z " fill="rgb(0,0,0)"/></g></svg>
