<?xml version="1.0" standalone="no"?><!-- Generator: Gravit.io --><svg xmlns="http://www.w3.org/2000/svg" xmlns:xlink="http://www.w3.org/1999/xlink" style="isolation:isolate" viewBox="0 0 589.631 389.001" width="589.631" height="389.001"><defs><clipPath id="_clipPath_JCDWVhHHwsj7tzzAptxXHC2M4jHbsIX3"><rect width="589.631" height="389.001"/></clipPath></defs><g clip-path="url(#_clipPath_JCDWVhHHwsj7tzzAptxXHC2M4jHbsIX3)"><mask id="_mask_VbxK9e1wUyXol2ddwjmuxwy54rHh5JLt"><path d=" M 148.777 319.65 C 181.339 302.663 203.589 268.58 203.589 229.341 C 203.589 173.159 157.976 127.546 101.794 127.546 C 45.613 127.546 0 173.159 0 229.341 C 0 265.281 18.666 296.896 46.827 315.008 C 54.781 295.09 74.258 281.001 97 281.001 C 121.47 281.001 142.161 297.313 148.777 319.65 Z " fill-rule="evenodd" fill="white" stroke="none"/></mask><path d=" M 148.777 319.65 C 181.339 302.663 203.589 268.58 203.589 229.341 C 203.589 173.159 157.976 127.546 101.794 127.546 C 45.613 127.546 0 173.159 0 229.341 C 0 265.281 18.666 296.896 46.827 315.008 C 54.781 295.09 74.258 281.001 97 281.001 C 121.47 281.001 142.161 297.313 148.777 319.65 Z " fill-rule="evenodd" fill="none" mask="url(#_mask_VbxK9e1wUyXol2ddwjmuxwy54rHh5JLt)" stroke-width="40" stroke="rgb(0,0,0)" stroke-linejoin="miter" stroke-linecap="square" stroke-miterlimit="3"/><mask id="_mask_NVbfh5xTDAyLJWfhQ7zqpktm8kf6UAjs"><circle cx="186.06057723527442" cy="207.62749544260072" r="61.8725045573994" fill="white" stroke="none"/></mask><circle cx="186.06057723527442" cy="207.62749544260072" r="61.8725045573994" fill="none" mask="url(#_mask_NVbfh5xTDAyLJWfhQ7zqpktm8kf6UAjs)" stroke-width="20" stroke="rgb(0,0,0)" stroke-linejoin="miter" stroke-linecap="square" stroke-miterlimit="3"/><circle cx="186.06057723527442" cy="259.37348366673" r="22.346260387811697" fill="rgb(0,0,0)"/><circle cx="160.52831883472805" cy="158.4728463246418" r="17.528318834728054" fill="rgb(0,0,0)"/><mask id="_mask_PSnmM0xFHJGmovexkIF3Upmz0diTGZ7y"><circle cx="47.63144373804681" cy="121.23945806060988" r="14.999999999999979" fill="white" stroke="none"/></mask><circle cx="47.63144373804681" cy="121.23945806060988" r="14.999999999999979" fill="none" mask="url(#_mask_PSnmM0xFHJGmovexkIF3Upmz0diTGZ7y)" stroke-width="20" stroke="rgb(0,0,0)" stroke-linejoin="miter" stroke-linecap="square" stroke-miterlimit="3"/><mask id="_mask_y34Il54mRnAPKzVOYFQ6TaJ7GOzvepM0"><circle cx="77.21909453023747" cy="204.41351436717937" r="44.58765079219063" fill="white" stroke="none"/></mask><circle cx="77.21909453023747" cy="204.41351436717937" r="44.58765079219063" fill="none" mask="url(#_mask_y34Il54mRnAPKzVOYFQ6TaJ7GOzvepM0)" stroke-width="20" stroke="rgb(0,0,0)" stroke-linejoin="miter" stroke-linecap="square" stroke-miterlimit="3"/><mask id="_mask_1JItjVoQwqfPYFqi3zcEReAJnCR13MDv"><path d=" M 254.165 145.657 C 285.083 91.519 343.376 55 410.131 55 C 509.2 55 589.631 135.431 589.631 234.5 C 589.631 300.209 554.248 357.719 501.512 389.001 C 478.281 355.757 439.727 334 396.131 334 C 358.202 334 324.089 350.469 300.575 376.656 C 270.613 353.524 248.155 321.138 237.494 283.798 C 262.164 267.439 278.434 239.419 278.434 207.628 C 278.434 183.717 269.23 161.939 254.165 145.657 Z " fill-rule="evenodd" fill="white" stroke="none"/></mask><path d=" M 254.165 145.657 C 285.083 91.519 343.376 55 410.131 55 C 509.2 55 589.631 135.431 589.631 234.5 C 589.631 300.209 554.248 357.719 501.512 389.001 C 478.281 355.757 439.727 334 396.131 334 C 358.202 334 324.089 350.469 300.575 376.656 C 270.613 353.524 248.155 321.138 237.494 283.798 C 262.164 267.439 278.434 239.419 278.434 207.628 C 278.434 183.717 269.23 161.939 254.165 145.657 Z " fill-rule="evenodd" fill="none" mask="url(#_mask_1JItjVoQwqfPYFqi3zcEReAJnCR13MDv)" stroke-width="40" stroke="rgb(0,0,0)" stroke-linejoin="miter" stroke-linecap="square" stroke-miterlimit="3"/><mask id="_mask_X6Sw2YfPWNfVjKMWVnu8nCAIn7jgvzWp"><circle cx="535.1314437380466" cy="346.49999999999983" r="28.499999999999886" fill="white" stroke="none"/></mask><circle cx="535.1314437380466" cy="346.49999999999983" r="28.499999999999886" fill="none" mask="url(#_mask_X6Sw2YfPWNfVjKMWVnu8nCAIn7jgvzWp)" stroke-width="20" stroke="rgb(0,0,0)" stroke-linejoin="miter" stroke-linecap="square" stroke-miterlimit="3"/><mask id="_mask_X5CdnFEiDvBMEJr41fPUPq0DBrFT8HBQ"><circle cx="430.7499675497602" cy="199.11852381171366" r="59.11852381171394" fill="white" stroke="none"/></mask><circle cx="430.7499675497602" cy="199.11852381171366" r="59.11852381171394" fill="none" mask="url(#_mask_X5CdnFEiDvBMEJr41fPUPq0DBrFT8HBQ)" stroke-width="40" stroke="rgb(0,0,0)" stroke-linejoin="miter" stroke-linecap="square" stroke-miterlimit="3"/><mask id="_mask_C19LUXm0X5Tk0eKgGlt84awbglqncwLx"><circle cx="430.74996754976064" cy="199.11852381171394" r="87.2457077392371" fill="white" stroke="none"/></mask><circle cx="430.74996754976064" cy="199.11852381171394" r="87.2457077392371" fill="none" mask="url(#_mask_C19LUXm0X5Tk0eKgGlt84awbglqncwLx)" stroke-width="30" stroke="rgb(0,0,0)" stroke-linejoin="miter" stroke-linecap="square" stroke-miterlimit="3"/><mask id="_mask_hwJtVxmsnieLzeHwqhPnjRgO5lMW9lTR"><circle cx="430.7499675497605" cy="199.11852381171394" r="111.11852381171403" fill="white" stroke="none"/></mask><circle cx="430.7499675497605" cy="199.11852381171394" r="111.11852381171403" fill="none" mask="url(#_mask_hwJtVxmsnieLzeHwqhPnjRgO5lMW9lTR)" stroke-width="20" stroke="rgb(0,0,0)" stroke-linejoin="miter" stroke-linecap="square" stroke-miterlimit="3"/><circle cx="382.631443738047" cy="262.0000000000002" r="19" fill="rgb(0,0,0)"/><circle cx="415.63144373804676" cy="278.00000000000006" r="16.000000000000057" fill="rgb(0,0,0)"/><circle cx="448.1577595275205" cy="275.4736842105266" r="13.473684210526415" fill="rgb(0,0,0)"/><circle cx="475.97770412585874" cy="264.65373961218836" r="11.346260387811753" fill="rgb(0,0,0)"/><circle cx="436.20128773307863" cy="216.1820887067193" r="19.430156004968524" fill="rgb(0,0,0)"/><circle cx="411.2155487768737" cy="187.41589496117268" r="15.41589496117274" fill="rgb(0,0,0)"/><circle cx="445.40046538701597" cy="179.7690216489696" r="12.230978351030274" fill="rgb(0,0,0)"/><mask id="_mask_7cO9HIPUUCGnz9zINxpfny0U5qiqCXSE"><circle cx="408.63144373804676" cy="23" r="23" fill="white" stroke="none"/></mask><circle cx="408.63144373804676" cy="23" r="23" fill="none" mask="url(#_mask_7cO9HIPUUCGnz9zINxpfny0U5qiqCXSE)" stroke-width="20" stroke="rgb(0,0,0)" stroke-linejoin="miter" stroke-linecap="square" stroke-miterlimit="3"/><path d=" M 339.631 111.001 C 298.38 182.71 328.325 282.357 398.631 326.001 L 388.052 324.045 L 382.631 329.163 C 314.967 281.1 268.884 175.787 309.631 103.001 L 325.323 111.923 L 335.351 114.43 L 339.631 111.001 Z " fill="rgb(0,0,0)"/><mask id="_mask_D2rugT26LT7bcjbWwDue7rMXCVSSm9RH"><circle cx="333.3968081119118" cy="83.76536437386486" r="34.765364373864884" fill="white" stroke="none"/></mask><circle cx="333.3968081119118" cy="83.76536437386486" r="34.765364373864884" fill="none" mask="url(#_mask_D2rugT26LT7bcjbWwDue7rMXCVSSm9RH)" stroke-width="20" stroke="rgb(0,0,0)" stroke-linejoin="miter" stroke-linecap="square" stroke-miterlimit="3"/><path d=" M 530.292 238.374 C 525.861 240.855 521.794 243.951 518.192 247.56 C 513.032 252.71 508.921 258.81 506.072 265.52 C 503.132 272.47 501.621 279.95 501.632 287.5 C 501.621 295.05 503.132 302.53 506.072 309.48 C 508.921 316.19 513.032 322.29 518.192 327.44 C 518.775 328.024 519.37 328.595 519.968 329.163 L 513.86 337.103 C 512.925 336.265 512.011 335.401 511.121 334.51 C 505.051 328.45 500.212 321.27 496.861 313.38 C 493.402 305.19 491.621 296.39 491.632 287.5 C 491.621 278.61 493.402 269.81 496.861 261.63 C 500.212 253.73 505.051 246.55 511.121 240.49 C 517.12 234.482 524.215 229.679 532.012 226.336 L 530.292 238.374 L 530.292 238.374 Z " fill="rgb(0,0,0)"/><circle cx="267.13144373804664" cy="269.5000000000001" r="24.5" fill="rgb(0,0,0)"/><circle cx="285.63144373804664" cy="230.50116515937003" r="18.499999999999943" fill="rgb(0,0,0)"/><circle cx="277.6620559829447" cy="162.03177740426793" r="13.969387755101991" fill="rgb(0,0,0)"/><path d=" M 311.925 354.535 C 323.152 363.67 335.635 371.18 349.011 376.851 C 368.041 384.881 388.481 389.021 409.131 389.001 C 429.781 389.021 450.221 384.881 469.251 376.851 C 476.65 373.715 483.775 370.016 490.557 365.776 L 483.217 358.529 C 477.499 361.982 471.526 365.021 465.351 367.641 C 447.561 375.151 428.441 379.021 409.131 379.001 C 389.821 379.021 370.701 375.151 352.911 367.641 C 341.063 362.614 329.957 356.043 319.873 348.125 L 311.925 354.535 L 311.925 354.535 Z " fill="rgb(0,0,0)"/><circle cx="136.813258166635" cy="283.813258166635" r="22.813258166634995" fill="rgb(0,0,0)"/><circle cx="99.18674183336502" cy="272.8132581666351" r="21.18674183336502" fill="rgb(0,0,0)"/><circle cx="62.63144373804679" cy="281.7197440545417" r="19.67619119701873" fill="rgb(0,0,0)"/><path d=" M 95.201 168.745 C 95.648 167.569 96.12 166.401 96.61 165.24 C 102.56 151.2 111.17 138.44 121.96 127.65 C 132.74 116.86 145.51 108.25 159.55 102.3 C 174.11 96.15 189.76 92.99 205.56 93 C 221.37 92.99 237.01 96.15 251.57 102.3 C 263.577 107.385 274.642 114.412 284.322 123.098 L 290.582 115.273 C 280.174 106.027 268.316 98.53 255.47 93.09 C 239.68 86.42 222.7 82.99 205.56 83 C 188.42 82.99 171.45 86.42 155.66 93.09 C 140.43 99.54 126.58 108.88 114.89 120.58 C 103.19 132.27 93.85 146.12 87.39 161.35 C 86.863 162.598 86.356 163.854 85.874 165.118 L 95.201 168.745 L 95.201 168.745 Z " fill="rgb(0,0,0)"/></g></svg>
