<?xml version="1.0" standalone="no"?><!-- Generator: Gravit.io --><svg xmlns="http://www.w3.org/2000/svg" xmlns:xlink="http://www.w3.org/1999/xlink" style="isolation:isolate" viewBox="0 0 732.706 412.08" width="732.706" height="412.08"><defs><clipPath id="_clipPath_0UcQlR8NtmgQyZQyF1NHs13YZGvKmEw0"><rect width="732.706" height="412.08"/></clipPath></defs><g clip-path="url(#_clipPath_0UcQlR8NtmgQyZQyF1NHs13YZGvKmEw0)"><mask id="_mask_aYUewrETzhG7vs9E1DUNDhqBcMlaRPLV"><circle cx="328.4999999999999" cy="376.1000061035157" r="27.5" fill="white" stroke="none"/></mask><circle cx="328.4999999999999" cy="376.1000061035157" r="27.5" fill="none" mask="url(#_mask_aYUewrETzhG7vs9E1DUNDhqBcMlaRPLV)" stroke-width="20" stroke="rgb(0,0,0)" stroke-linejoin="miter" stroke-linecap="square" stroke-miterlimit="3"/><mask id="_mask_iR72CLz5YZBvrj1kmWByOXwHfl7blxw8"><path d=" M 329.995 261.652 C 329.687 311.098 307.583 355.412 272.81 385.46 C 269.908 339.513 231.673 303.1 185 303.1 C 136.431 303.1 97 342.531 97 391.1 C 97 398.331 97.874 405.359 99.533 412.08 C 40.995 386.722 0 328.411 0 260.6 C 0 169.534 73.934 95.6 165 95.6 C 198.546 95.6 229.767 105.633 255.825 122.858 C 242.266 137.693 234 157.439 234 179.1 C 234 225.185 271.415 262.6 317.5 262.6 C 321.748 262.6 325.922 262.282 329.995 261.652 Z " fill-rule="evenodd" fill="white" stroke="none"/></mask><path d=" M 329.995 261.652 C 329.687 311.098 307.583 355.412 272.81 385.46 C 269.908 339.513 231.673 303.1 185 303.1 C 136.431 303.1 97 342.531 97 391.1 C 97 398.331 97.874 405.359 99.533 412.08 C 40.995 386.722 0 328.411 0 260.6 C 0 169.534 73.934 95.6 165 95.6 C 198.546 95.6 229.767 105.633 255.825 122.858 C 242.266 137.693 234 157.439 234 179.1 C 234 225.185 271.415 262.6 317.5 262.6 C 321.748 262.6 325.922 262.282 329.995 261.652 Z " fill-rule="evenodd" fill="none" mask="url(#_mask_iR72CLz5YZBvrj1kmWByOXwHfl7blxw8)" stroke-width="40" stroke="rgb(0,0,0)" stroke-linejoin="miter" stroke-linecap="square" stroke-miterlimit="3"/><mask id="_mask_LdBRY5cm6PFvHrgs1TdYjwpp7spATGZK"><circle cx="157.49999999999994" cy="144.90000610351586" r="24.50000000000003" fill="white" stroke="none"/></mask><circle cx="157.49999999999994" cy="144.90000610351586" r="24.50000000000003" fill="none" mask="url(#_mask_LdBRY5cm6PFvHrgs1TdYjwpp7spATGZK)" stroke-width="20" stroke="rgb(0,0,0)" stroke-linejoin="miter" stroke-linecap="square" stroke-miterlimit="3"/><mask id="_mask_SDo45fdstYv36RkFGyvHBLPs6ZyKxUwr"><circle cx="103.49999999999996" cy="220.65000610351564" r="65.50000000000006" fill="white" stroke="none"/></mask><circle cx="103.49999999999996" cy="220.65000610351564" r="65.50000000000006" fill="none" mask="url(#_mask_SDo45fdstYv36RkFGyvHBLPs6ZyKxUwr)" stroke-width="20" stroke="rgb(0,0,0)" stroke-linejoin="miter" stroke-linecap="square" stroke-miterlimit="3"/><path d=" M 21.987 319.561 C 31.768 319.265 41.414 317.158 50.44 313.35 C 59.88 309.35 68.46 303.56 75.7 296.3 C 80.702 291.311 85.007 285.687 88.474 279.563 L 78.604 276.66 C 75.783 281.212 72.439 285.433 68.63 289.23 C 62.3 295.58 54.79 300.64 46.54 304.14 C 37.98 307.75 28.79 309.61 19.5 309.6 C 19.221 309.6 18.941 309.599 18.662 309.587 L 21.987 319.561 L 21.987 319.561 Z " fill="rgb(0,0,0)"/><mask id="_mask_wpBcz4ga7DKNopolte6a9pvedKsdvzfN"><path d=" M 390.175 148.226 C 374.712 110.886 337.902 84.6 295 84.6 C 238.153 84.6 192 130.753 192 187.6 C 192 244.447 238.153 290.6 295 290.6 C 351.847 290.6 398 244.447 398 187.6 C 398 185.762 397.952 183.935 397.835 182.127 C 395.515 212.577 370.041 236.6 339 236.6 C 306.437 236.6 280 210.163 280 177.6 C 280 145.037 306.437 118.6 339 118.6 C 360.873 118.6 379.981 130.528 390.175 148.226 Z " fill-rule="evenodd" fill="white" stroke="none"/></mask><path d=" M 390.175 148.226 C 374.712 110.886 337.902 84.6 295 84.6 C 238.153 84.6 192 130.753 192 187.6 C 192 244.447 238.153 290.6 295 290.6 C 351.847 290.6 398 244.447 398 187.6 C 398 185.762 397.952 183.935 397.835 182.127 C 395.515 212.577 370.041 236.6 339 236.6 C 306.437 236.6 280 210.163 280 177.6 C 280 145.037 306.437 118.6 339 118.6 C 360.873 118.6 379.981 130.528 390.175 148.226 Z " fill-rule="evenodd" fill="rgb(255,255,255)" mask="url(#_mask_wpBcz4ga7DKNopolte6a9pvedKsdvzfN)" stroke-width="40" stroke="rgb(0,0,0)" stroke-linejoin="miter" stroke-linecap="square" stroke-miterlimit="3"/><path d=" M 236.244 116.191 C 230.979 106.855 228 96.073 228 84.6 C 228 48.726 257.126 19.6 293 19.6 C 328.874 19.6 358 48.726 358 84.6 C 358 94.398 355.828 103.692 351.93 112.023 L 324.889 99.034 C 325.018 98.759 325.141 98.48 325.26 98.2 C 327.07 93.9 328.01 89.27 328 84.6 C 328.01 79.93 327.07 75.3 325.26 71 C 323.49 66.84 320.94 63.05 317.74 59.86 C 314.55 56.66 310.76 54.11 306.6 52.34 C 302.3 50.53 297.67 49.59 293 49.6 C 288.33 49.59 283.7 50.53 279.4 52.34 C 275.24 54.11 271.45 56.66 268.26 59.86 C 265.06 63.05 262.51 66.84 260.75 70.98 C 258.93 75.29 257.99 79.92 258 84.6 C 257.99 89.27 258.93 93.9 260.74 98.2 C 261.038 98.899 261.357 99.588 261.706 100.261 L 236.244 116.191 L 236.244 116.191 Z " fill="rgb(0,0,0)"/><mask id="_mask_srUyhgsgZbowFLypi6TARa1cZY4XUoM7"><circle cx="293" cy="35.50000000000003" r="35.5" fill="white" stroke="none"/></mask><circle cx="293" cy="35.50000000000003" r="35.5" fill="none" mask="url(#_mask_srUyhgsgZbowFLypi6TARa1cZY4XUoM7)" stroke-width="20" stroke="rgb(0,0,0)" stroke-linejoin="miter" stroke-linecap="square" stroke-miterlimit="3"/><mask id="_mask_VXhuU6szqk7bTMruNsyK3XFK1D7xpY1J"><circle cx="545.0000000000003" cy="311.69367228878497" r="51.81459641782723" fill="white" stroke="none"/></mask><circle cx="545.0000000000003" cy="311.69367228878497" r="51.81459641782723" fill="none" mask="url(#_mask_VXhuU6szqk7bTMruNsyK3XFK1D7xpY1J)" stroke-width="20" stroke="rgb(0,0,0)" stroke-linejoin="miter" stroke-linecap="square" stroke-miterlimit="3"/><mask id="_mask_uDo4gmOe98gmPbIPRbGOjOZNtXZmrKh4"><circle cx="545.0000000000006" cy="311.69367228878497" r="76.90633381473074" fill="white" stroke="none"/></mask><circle cx="545.0000000000006" cy="311.69367228878497" r="76.90633381473074" fill="none" mask="url(#_mask_uDo4gmOe98gmPbIPRbGOjOZNtXZmrKh4)" stroke-width="30" stroke="rgb(0,0,0)" stroke-linejoin="miter" stroke-linecap="square" stroke-miterlimit="3"/><circle cx="542.1064576026407" cy="357.9903506465319" r="10.60965545698366" fill="rgb(0,0,0)"/><circle cx="520.8871466886733" cy="351.23875171936055" r="9.645141324530755" fill="rgb(0,0,0)"/><circle cx="565.2547967815144" cy="353.1677799842666" r="11.574169589436679" fill="rgb(0,0,0)"/><circle cx="584.1882295929875" cy="335.8942087030617" r="12.626366824840034" fill="rgb(0,0,0)"/><circle cx="614.2052154195006" cy="315.8052215230163" r="13.794784580499368" fill="rgb(0,0,0)"/><circle cx="608.8914264118338" cy="283.70857969168185" r="15.108573588166223" fill="rgb(0,0,0)"/><circle cx="588.1093481266153" cy="255.6474914619837" r="16.547485358467952" fill="rgb(0,0,0)"/><mask id="_mask_qshwoXnYtm8fsN7vU1e0BRhX4m7668dL"><circle cx="709.8528987002267" cy="357.9903506465318" r="22.852898700227" fill="white" stroke="none"/></mask><circle cx="709.8528987002267" cy="357.9903506465318" r="22.852898700227" fill="none" mask="url(#_mask_qshwoXnYtm8fsN7vU1e0BRhX4m7668dL)" stroke-width="20" stroke="rgb(0,0,0)" stroke-linejoin="miter" stroke-linecap="square" stroke-miterlimit="3"/><mask id="_mask_88wdRLu2ihNcrCNmlXw1waTenuhdBowG"><path d=" M 573.748 93.907 C 568.407 93.357 562.985 93.08 557.5 93.08 C 469.47 93.08 398 164.549 398 252.58 C 398 340.61 469.47 412.08 557.5 412.08 C 645.53 412.08 717 340.61 717 252.58 C 717 247.01 716.714 241.507 716.148 236.087 C 712.354 236.431 708.51 236.6 704.627 236.6 C 632.121 236.6 573.255 177.734 573.255 105.227 C 573.255 101.413 573.418 97.636 573.748 93.907 Z " fill-rule="evenodd" fill="white" stroke="none"/></mask><path d=" M 573.748 93.907 C 568.407 93.357 562.985 93.08 557.5 93.08 C 469.47 93.08 398 164.549 398 252.58 C 398 340.61 469.47 412.08 557.5 412.08 C 645.53 412.08 717 340.61 717 252.58 C 717 247.01 716.714 241.507 716.148 236.087 C 712.354 236.431 708.51 236.6 704.627 236.6 C 632.121 236.6 573.255 177.734 573.255 105.227 C 573.255 101.413 573.418 97.636 573.748 93.907 Z " fill-rule="evenodd" fill="none" mask="url(#_mask_88wdRLu2ihNcrCNmlXw1waTenuhdBowG)" stroke-width="40" stroke="rgb(0,0,0)" stroke-linejoin="miter" stroke-linecap="square" stroke-miterlimit="3"/><mask id="_mask_oYLao4MfdrH9yk4LXhewDtBa5PqDn6d3"><circle cx="508.30000000000007" cy="187.10000610351568" r="49.5" fill="white" stroke="none"/></mask><circle cx="508.30000000000007" cy="187.10000610351568" r="49.5" fill="none" mask="url(#_mask_oYLao4MfdrH9yk4LXhewDtBa5PqDn6d3)" stroke-width="20" stroke="rgb(0,0,0)" stroke-linejoin="miter" stroke-linecap="square" stroke-miterlimit="3"/><mask id="_mask_KYTwNoWOY08hwNl4OBA4nhkK0WfSCIjQ"><circle cx="508.30000000000007" cy="187.10000610351574" r="17.699999999999847" fill="white" stroke="none"/></mask><circle cx="508.30000000000007" cy="187.10000610351574" r="17.699999999999847" fill="none" mask="url(#_mask_KYTwNoWOY08hwNl4OBA4nhkK0WfSCIjQ)" stroke-width="20" stroke="rgb(0,0,0)" stroke-linejoin="miter" stroke-linecap="square" stroke-miterlimit="3"/><circle cx="465.95000000000016" cy="188.75000610351566" r="15.949999999999989" fill="rgb(0,0,0)"/><circle cx="478.5999999999999" cy="220.65000610351564" r="12.650000000000034" fill="rgb(0,0,0)"/><circle cx="654.797485358468" cy="235.59749146198362" r="30.797485358467952" fill="rgb(0,0,0)"/><circle cx="599.0314810124828" cy="198.14373890602388" r="26.373548270580955" fill="rgb(0,0,0)"/><circle cx="571.197760557704" cy="149.1850983694793" r="22.585092265963567" fill="rgb(0,0,0)"/><circle cx="185.97125767578706" cy="291.85033354674476" r="31.97125767578703" fill="rgb(0,0,0)"/><circle cx="243.97125767578711" cy="315.5648680706168" r="26.028742324212985" fill="rgb(0,0,0)"/><circle cx="212.5" cy="233.30000610351567" r="25.5" fill="rgb(0,0,0)"/><circle cx="202.5" cy="187.60000610351562" r="20.5" fill="rgb(0,0,0)"/><circle cx="209.51960784313724" cy="150.61961394665286" r="16.480392156862763" fill="rgb(0,0,0)"/><circle cx="299.760009765625" cy="229.64373890602394" r="31.5" fill="rgb(0,0,0)"/><circle cx="270.5" cy="178.10000610351562" r="24.499999999999957" fill="rgb(0,0,0)"/><circle cx="287.31556532118054" cy="132.5444505479602" r="19.055555555555486" fill="rgb(0,0,0)"/></g></svg>
