<?xml version="1.0" standalone="no"?><!-- Generator: Gravit.io --><svg xmlns="http://www.w3.org/2000/svg" xmlns:xlink="http://www.w3.org/1999/xlink" style="isolation:isolate" viewBox="0 0 401 309" width="401" height="309"><defs><clipPath id="_clipPath_CuRWMRzFppZX9K0KUwSe3FfOAD8OdeDS"><rect width="401" height="309"/></clipPath></defs><g clip-path="url(#_clipPath_CuRWMRzFppZX9K0KUwSe3FfOAD8OdeDS)"><mask id="_mask_lKm7Oc1f10BkOGoIvujVpRkKxJA1pwv0"><path d=" M 347.124 269.565 C 365.337 243.093 376 211.032 376 176.5 C 376 85.71 302.29 12 211.5 12 C 120.71 12 47 85.71 47 176.5 C 47 226.832 69.653 271.914 105.31 302.101 C 133.018 257.05 182.777 227 239.5 227 C 281.105 227 318.965 243.167 347.124 269.565 Z " fill-rule="evenodd" fill="white" stroke="none"/></mask><path d=" M 347.124 269.565 C 365.337 243.093 376 211.032 376 176.5 C 376 85.71 302.29 12 211.5 12 C 120.71 12 47 85.71 47 176.5 C 47 226.832 69.653 271.914 105.31 302.101 C 133.018 257.05 182.777 227 239.5 227 C 281.105 227 318.965 243.167 347.124 269.565 Z " fill-rule="evenodd" fill="none" mask="url(#_mask_lKm7Oc1f10BkOGoIvujVpRkKxJA1pwv0)" stroke-width="40" stroke="rgb(0,0,0)" stroke-linejoin="miter" stroke-linecap="square" stroke-miterlimit="3"/><path d=" M 355.237 236.991 C 342.174 226.747 327.791 218.244 312.44 211.74 C 301.11 206.94 289.33 203.28 277.28 200.81 C 264.85 198.27 252.19 196.99 239.5 197 C 226.81 196.99 214.15 198.27 201.72 200.81 C 189.67 203.28 177.89 206.94 166.56 211.74 C 144.28 221.18 124.04 234.83 106.94 251.94 C 101.291 257.585 96.02 263.573 91.159 269.868 L 84.785 261.794 C 120.975 216.234 176.851 187 239.5 187 C 283.837 187 324.782 201.641 357.734 226.379 L 355.237 236.991 L 355.237 236.991 Z " fill="rgb(0,0,0)"/><mask id="_mask_cvAnK5JjEDCeBFVjxkNpveOFqthNsFvc"><circle cx="364.50000000000006" cy="158.5" r="36.5" fill="white" stroke="none"/></mask><circle cx="364.50000000000006" cy="158.5" r="36.5" fill="none" mask="url(#_mask_cvAnK5JjEDCeBFVjxkNpveOFqthNsFvc)" stroke-width="20" stroke="rgb(0,0,0)" stroke-linejoin="miter" stroke-linecap="square" stroke-miterlimit="3"/><mask id="_mask_iPLBLH6YsXIOSQmZaodSZk3fP6LzV5UW"><circle cx="249.00000000000006" cy="113.05072023800494" r="66" fill="white" stroke="none"/></mask><circle cx="249.00000000000006" cy="113.05072023800494" r="66" fill="none" mask="url(#_mask_iPLBLH6YsXIOSQmZaodSZk3fP6LzV5UW)" stroke-width="20" stroke="rgb(0,0,0)" stroke-linejoin="miter" stroke-linecap="square" stroke-miterlimit="3"/><mask id="_mask_zA5RQuN10nAM9trEAobXrOLRXvzTV8I4"><circle cx="22" cy="190.9324951171875" r="22.000000000000014" fill="white" stroke="none"/></mask><circle cx="22" cy="190.9324951171875" r="22.000000000000014" fill="none" mask="url(#_mask_zA5RQuN10nAM9trEAobXrOLRXvzTV8I4)" stroke-width="20" stroke="rgb(0,0,0)" stroke-linejoin="miter" stroke-linecap="square" stroke-miterlimit="3"/><mask id="_mask_qfBVKdWQ5aixeTC9StR7sXxp9CNUwLaQ"><circle cx="97.50000000000004" cy="89.49999999999993" r="82.49999999999994" fill="white" stroke="none"/></mask><circle cx="97.50000000000004" cy="89.49999999999993" r="82.49999999999994" fill="none" mask="url(#_mask_qfBVKdWQ5aixeTC9StR7sXxp9CNUwLaQ)" stroke-width="20" stroke="rgb(0,0,0)" stroke-linejoin="miter" stroke-linecap="square" stroke-miterlimit="3"/><path d=" M 201.189 77.549 C 204.606 77.175 208.048 76.997 211.5 77 C 224.8 76.99 237.96 79.65 250.21 84.82 C 262.03 89.83 272.77 97.08 281.84 106.16 C 290.92 115.23 298.17 125.97 303.18 137.79 C 308.35 150.04 311.01 163.2 311 176.5 C 311.01 189.8 308.35 202.96 303.18 215.21 C 298.17 227.03 290.92 237.77 281.84 246.84 C 272.77 255.92 262.03 263.17 250.21 268.18 C 237.96 273.35 224.8 276.01 211.5 276 C 198.2 276.01 185.04 273.35 172.79 268.18 C 160.97 263.17 150.23 255.92 141.16 246.84 C 135.28 240.967 130.168 234.393 125.947 227.271 L 118.858 234.866 C 123.198 241.746 128.304 248.136 134.09 253.91 C 144.07 263.91 155.89 271.88 168.89 277.39 C 182.37 283.08 196.86 286.01 211.5 286 C 226.14 286.01 240.63 283.08 254.11 277.39 C 267.11 271.88 278.93 263.91 288.91 253.91 C 298.91 243.93 306.88 232.11 312.39 219.11 C 318.08 205.63 321.01 191.14 321 176.5 C 321.01 161.86 318.08 147.37 312.39 133.89 C 306.88 120.89 298.91 109.07 288.91 99.09 C 278.93 89.09 267.11 81.12 254.11 75.61 C 240.63 69.92 226.14 66.99 211.5 67 C 211.372 67 211.243 67 211.115 67.003 L 201.189 77.549 L 201.189 77.549 Z " fill="rgb(0,0,0)"/><circle cx="146.5000000000001" cy="30.499999999999996" r="30.5" fill="rgb(0,0,0)"/><circle cx="32.5" cy="43.49999999999994" r="24.50000000000007" fill="rgb(0,0,0)"/><circle cx="58.68032786885266" cy="152.31967213114729" r="19.680327868852586" fill="rgb(0,0,0)"/><path d=" M 101.447 250.222 C 106.223 257.381 111.714 264.059 117.83 270.17 C 129.91 282.26 144.21 291.91 159.94 298.58 C 176.26 305.47 193.79 309.01 211.5 309 C 229.21 309.01 246.74 305.47 263.06 298.58 C 278.79 291.91 293.09 282.26 305.17 270.17 C 317.26 258.09 326.91 243.79 333.58 228.06 C 334.902 224.93 336.1 221.755 337.181 218.545 L 328.451 212.932 C 327.293 216.737 325.924 220.482 324.37 224.16 C 318.2 238.71 309.28 251.93 298.1 263.1 C 286.93 274.28 273.71 283.2 259.16 289.37 C 244.08 295.74 227.87 299.01 211.5 299 C 211.5 299 211.5 299 211.5 299 L 211.5 299 L 211.5 299 C 195.13 299.01 178.92 295.74 163.84 289.37 C 149.29 283.2 136.07 274.28 124.9 263.1 C 118.694 256.899 113.184 250.067 108.451 242.728 L 101.447 250.222 L 101.447 250.222 Z " fill="rgb(0,0,0)"/></g></svg>
