<?xml version="1.0" standalone="no"?><!-- Generator: Gravit.io --><svg xmlns="http://www.w3.org/2000/svg" xmlns:xlink="http://www.w3.org/1999/xlink" style="isolation:isolate" viewBox="0 0 965.732 969.288" width="965.732" height="969.288"><defs><clipPath id="_clipPath_1DvVsa0SMiTF3dcl4qJozVzm5fiCyzqS"><rect width="965.732" height="969.288"/></clipPath></defs><g clip-path="url(#_clipPath_1DvVsa0SMiTF3dcl4qJozVzm5fiCyzqS)"><mask id="_mask_GfTlkF5Eh6lIjjb7Q4ocj9OWEoCCJjmV"><path d=" M 627.14 823.88 C 634.214 813.674 648.243 811.131 658.45 818.205 C 668.656 825.278 671.199 839.308 664.125 849.514 C 657.052 859.72 643.022 862.264 632.816 855.19 C 622.61 848.116 620.066 834.087 627.14 823.88 Z " fill="white" stroke="none"/></mask><path d=" M 627.14 823.88 C 634.214 813.674 648.243 811.131 658.45 818.205 C 668.656 825.278 671.199 839.308 664.125 849.514 C 657.052 859.72 643.022 862.264 632.816 855.19 C 622.61 848.116 620.066 834.087 627.14 823.88 Z " fill="none" mask="url(#_mask_GfTlkF5Eh6lIjjb7Q4ocj9OWEoCCJjmV)" stroke-width="10" stroke="rgb(0,0,0)" stroke-linejoin="miter" stroke-linecap="square" stroke-miterlimit="3"/><mask id="_mask_ieyTI7vVzZVrBm76Vhd8cLIcvNEVDefT"><path d=" M 672.53 757.307 C 673.378 788.78 664.571 820.783 645.279 848.619 C 638.778 857.998 631.416 866.429 623.372 873.878 C 611.763 845.261 591.983 819.589 564.729 800.7 C 504.888 759.224 427.071 762.968 371.923 804.566 C 359.262 761.562 365.458 713.416 392.957 673.739 C 419.784 635.032 461.275 612.481 504.799 608.396 C 496.686 657.357 516.551 708.906 560.018 739.033 C 594.139 762.682 635.516 768.078 672.53 757.307 Z " fill-rule="evenodd" fill="white" stroke="none"/></mask><path d=" M 672.53 757.307 C 673.378 788.78 664.571 820.783 645.279 848.619 C 638.778 857.998 631.416 866.429 623.372 873.878 C 611.763 845.261 591.983 819.589 564.729 800.7 C 504.888 759.224 427.071 762.968 371.923 804.566 C 359.262 761.562 365.458 713.416 392.957 673.739 C 419.784 635.032 461.275 612.481 504.799 608.396 C 496.686 657.357 516.551 708.906 560.018 739.033 C 594.139 762.682 635.516 768.078 672.53 757.307 Z " fill-rule="evenodd" fill="none" mask="url(#_mask_ieyTI7vVzZVrBm76Vhd8cLIcvNEVDefT)" stroke-width="20" stroke="rgb(0,0,0)" stroke-linejoin="miter" stroke-linecap="square" stroke-miterlimit="3"/><mask id="_mask_uECt4yTSSqYVtV99J2427wcQP6ZcIU4M"><path d=" M 425.435 611.08 C 435.653 596.337 455.918 592.664 470.66 602.881 C 485.403 613.099 489.076 633.364 478.858 648.106 C 468.641 662.849 448.376 666.522 433.634 656.304 C 418.891 646.087 415.218 625.822 425.435 611.08 Z " fill="white" stroke="none"/></mask><path d=" M 425.435 611.08 C 435.653 596.337 455.918 592.664 470.66 602.881 C 485.403 613.099 489.076 633.364 478.858 648.106 C 468.641 662.849 448.376 666.522 433.634 656.304 C 418.891 646.087 415.218 625.822 425.435 611.08 Z " fill="none" mask="url(#_mask_uECt4yTSSqYVtV99J2427wcQP6ZcIU4M)" stroke-width="10" stroke="rgb(0,0,0)" stroke-linejoin="miter" stroke-linecap="square" stroke-miterlimit="3"/><mask id="_mask_OSjiudCiDTlVfbm3z1AqKAUMrkPIUXZC"><path d=" M 558.648 576.87 C 588.044 534.457 646.344 523.889 688.757 553.285 C 731.17 582.681 741.738 640.98 712.343 683.393 C 682.947 725.806 624.647 736.375 582.234 706.979 C 539.821 677.583 529.253 619.283 558.648 576.87 Z " fill="white" stroke="none"/></mask><path d=" M 558.648 576.87 C 588.044 534.457 646.344 523.889 688.757 553.285 C 731.17 582.681 741.738 640.98 712.343 683.393 C 682.947 725.806 624.647 736.375 582.234 706.979 C 539.821 677.583 529.253 619.283 558.648 576.87 Z " fill="none" mask="url(#_mask_OSjiudCiDTlVfbm3z1AqKAUMrkPIUXZC)" stroke-width="20" stroke="rgb(0,0,0)" stroke-linejoin="miter" stroke-linecap="square" stroke-miterlimit="3"/><mask id="_mask_VtmTMue67UAeMZnNxYvZAkTkawiNYhcb"><path d=" M 677.379 722.429 C 683.51 713.584 695.668 711.379 704.514 717.51 C 713.359 723.641 715.563 735.8 709.433 744.645 C 703.302 753.491 691.143 755.695 682.298 749.564 C 673.452 743.433 671.248 731.275 677.379 722.429 Z " fill="white" stroke="none"/></mask><path d=" M 677.379 722.429 C 683.51 713.584 695.668 711.379 704.514 717.51 C 713.359 723.641 715.563 735.8 709.433 744.645 C 703.302 753.491 691.143 755.695 682.298 749.564 C 673.452 743.433 671.248 731.275 677.379 722.429 Z " fill="none" mask="url(#_mask_VtmTMue67UAeMZnNxYvZAkTkawiNYhcb)" stroke-width="10" stroke="rgb(0,0,0)" stroke-linejoin="miter" stroke-linecap="square" stroke-miterlimit="3"/><mask id="_mask_D8i1Kj4H9JIWtr8BRLfpZ61NEUqOmrTx"><path d=" M 598.744 580.022 C 617.215 553.372 653.847 546.732 680.497 565.202 C 707.147 583.673 713.788 620.305 695.317 646.955 C 676.846 673.605 640.214 680.245 613.564 661.775 C 586.914 643.304 580.274 606.672 598.744 580.022 Z " fill="white" stroke="none"/></mask><path d=" M 598.744 580.022 C 617.215 553.372 653.847 546.732 680.497 565.202 C 707.147 583.673 713.788 620.305 695.317 646.955 C 676.846 673.605 640.214 680.245 613.564 661.775 C 586.914 643.304 580.274 606.672 598.744 580.022 Z " fill="none" mask="url(#_mask_D8i1Kj4H9JIWtr8BRLfpZ61NEUqOmrTx)" stroke-width="10" stroke="rgb(0,0,0)" stroke-linejoin="miter" stroke-linecap="square" stroke-miterlimit="3"/><mask id="_mask_k2Kqr7dtKY7Ildow4P1fwSWBN2iiNUn2"><path d=" M 607.169 585.861 C 622.417 563.861 652.658 558.379 674.658 573.627 C 696.659 588.875 702.141 619.116 686.893 641.116 C 671.644 663.116 641.403 668.598 619.403 653.35 C 597.403 638.102 591.921 607.861 607.169 585.861 Z " fill="white" stroke="none"/></mask><path d=" M 607.169 585.861 C 622.417 563.861 652.658 558.379 674.658 573.627 C 696.659 588.875 702.141 619.116 686.893 641.116 C 671.644 663.116 641.403 668.598 619.403 653.35 C 597.403 638.102 591.921 607.861 607.169 585.861 Z " fill="none" mask="url(#_mask_k2Kqr7dtKY7Ildow4P1fwSWBN2iiNUn2)" stroke-width="10" stroke="rgb(0,0,0)" stroke-linejoin="miter" stroke-linecap="square" stroke-miterlimit="3"/><path d=" M 514.204 559.182 C 516.027 556.088 517.964 553.056 520.019 550.097 C 530.701 534.651 544.381 521.514 560.244 511.459 C 575.556 501.777 592.605 495.136 610.439 491.911 C 628.271 488.671 646.566 488.905 664.311 492.601 C 682.685 496.442 700.106 503.941 715.53 514.656 C 729.432 524.269 741.462 536.31 751.036 550.195 L 754.768 546.802 C 745.175 533.007 732.991 520.674 718.378 510.546 C 652.377 464.802 561.654 481.248 515.91 547.249 C 514.04 549.948 512.273 552.687 510.623 555.469 L 514.204 559.182 L 514.204 559.182 Z " fill="rgb(0,0,0)"/><mask id="_mask_J2gKmgLQzA39yXDn2BVFLHLscnOk7aTq"><path d=" M 631.872 485.266 C 639.26 474.606 653.913 471.95 664.573 479.338 C 675.233 486.726 677.889 501.379 670.501 512.039 C 663.112 522.699 648.459 525.355 637.8 517.967 C 627.14 510.579 624.483 495.926 631.872 485.266 Z " fill="white" stroke="none"/></mask><path d=" M 631.872 485.266 C 639.26 474.606 653.913 471.95 664.573 479.338 C 675.233 486.726 677.889 501.379 670.501 512.039 C 663.112 522.699 648.459 525.355 637.8 517.967 C 627.14 510.579 624.483 495.926 631.872 485.266 Z " fill="none" mask="url(#_mask_J2gKmgLQzA39yXDn2BVFLHLscnOk7aTq)" stroke-width="10" stroke="rgb(0,0,0)" stroke-linejoin="miter" stroke-linecap="square" stroke-miterlimit="3"/><mask id="_mask_hlcGx1jTxXTpLQTghFbUKbaVLkzz4Kqi"><path d=" M 485.005 300.233 C 481.76 304.168 478.656 308.273 475.698 312.539 C 417.378 396.685 438.345 512.349 522.491 570.669 C 524.754 572.237 527.039 573.748 529.347 575.197 C 531.685 570.713 534.324 566.323 537.279 562.06 C 574.849 507.853 649.361 494.346 703.568 531.916 C 717.769 541.758 729.176 554.136 737.602 568.022 C 753.889 556.137 768.495 541.372 780.621 523.876 C 781.711 522.303 782.773 520.719 783.801 519.122 C 773.473 516.471 763.437 511.967 754.166 505.541 C 712.008 476.322 701.503 418.373 730.722 376.215 C 746.25 353.811 769.892 340.347 794.968 337.05 C 784.564 315.596 769.91 295.926 751.255 279.418 C 747.015 291.611 741.069 303.434 733.361 314.556 C 687.538 380.671 596.659 397.145 530.544 351.322 C 510.852 337.674 495.563 320.028 485.005 300.233 Z " fill-rule="evenodd" fill="white" stroke="none"/></mask><path d=" M 485.005 300.233 C 481.76 304.168 478.656 308.273 475.698 312.539 C 417.378 396.685 438.345 512.349 522.491 570.669 C 524.754 572.237 527.039 573.748 529.347 575.197 C 531.685 570.713 534.324 566.323 537.279 562.06 C 574.849 507.853 649.361 494.346 703.568 531.916 C 717.769 541.758 729.176 554.136 737.602 568.022 C 753.889 556.137 768.495 541.372 780.621 523.876 C 781.711 522.303 782.773 520.719 783.801 519.122 C 773.473 516.471 763.437 511.967 754.166 505.541 C 712.008 476.322 701.503 418.373 730.722 376.215 C 746.25 353.811 769.892 340.347 794.968 337.05 C 784.564 315.596 769.91 295.926 751.255 279.418 C 747.015 291.611 741.069 303.434 733.361 314.556 C 687.538 380.671 596.659 397.145 530.544 351.322 C 510.852 337.674 495.563 320.028 485.005 300.233 Z " fill-rule="evenodd" fill="none" mask="url(#_mask_hlcGx1jTxXTpLQTghFbUKbaVLkzz4Kqi)" stroke-width="20" stroke="rgb(0,0,0)" stroke-linejoin="miter" stroke-linecap="square" stroke-miterlimit="3"/><mask id="_mask_IKKsSlwk2Z9tjmNDGEGxG8UEGB8m9iGn"><path d=" M 784.742 413.656 C 793.297 401.312 810.264 398.237 822.608 406.792 C 834.951 415.347 838.027 432.313 829.472 444.657 C 820.917 457 803.95 460.076 791.607 451.521 C 779.263 442.966 776.187 425.999 784.742 413.656 Z " fill="white" stroke="none"/></mask><path d=" M 784.742 413.656 C 793.297 401.312 810.264 398.237 822.608 406.792 C 834.951 415.347 838.027 432.313 829.472 444.657 C 820.917 457 803.95 460.076 791.607 451.521 C 779.263 442.966 776.187 425.999 784.742 413.656 Z " fill="none" mask="url(#_mask_IKKsSlwk2Z9tjmNDGEGxG8UEGB8m9iGn)" stroke-width="10" stroke="rgb(0,0,0)" stroke-linejoin="miter" stroke-linecap="square" stroke-miterlimit="3"/><mask id="_mask_VLnXoaqDctJpzTRONZ2Md55sHHM7Q2u1"><path d=" M 792.006 418.69 C 797.782 410.355 809.239 408.278 817.574 414.055 C 825.908 419.832 827.985 431.288 822.208 439.623 C 816.432 447.957 804.975 450.034 796.641 444.258 C 788.306 438.481 786.229 427.024 792.006 418.69 Z " fill="white" stroke="none"/></mask><path d=" M 792.006 418.69 C 797.782 410.355 809.239 408.278 817.574 414.055 C 825.908 419.832 827.985 431.288 822.208 439.623 C 816.432 447.957 804.975 450.034 796.641 444.258 C 788.306 438.481 786.229 427.024 792.006 418.69 Z " fill="none" mask="url(#_mask_VLnXoaqDctJpzTRONZ2Md55sHHM7Q2u1)" stroke-width="16" stroke="rgb(0,0,0)" stroke-linejoin="miter" stroke-linecap="square" stroke-miterlimit="3"/><mask id="_mask_dr1x7utzCBocaExgbNyoIZY63naegw7P"><path d=" M 511.038 160.468 C 550.259 103.88 628.044 89.779 684.632 129 C 741.221 168.221 755.321 246.005 716.101 302.594 C 676.88 359.182 599.095 373.283 542.507 334.062 C 485.918 294.842 471.818 217.057 511.038 160.468 Z " fill="white" stroke="none"/></mask><path d=" M 511.038 160.468 C 550.259 103.88 628.044 89.779 684.632 129 C 741.221 168.221 755.321 246.005 716.101 302.594 C 676.88 359.182 599.095 373.283 542.507 334.062 C 485.918 294.842 471.818 217.057 511.038 160.468 Z " fill="none" mask="url(#_mask_dr1x7utzCBocaExgbNyoIZY63naegw7P)" stroke-width="20" stroke="rgb(0,0,0)" stroke-linejoin="miter" stroke-linecap="square" stroke-miterlimit="3"/><mask id="_mask_mBTqV99O9cILBLsnrVmJnNPJD8PAAoAS"><path d=" M 544.52 323.996 C 552.483 312.506 568.277 309.643 579.767 317.606 C 591.257 325.57 594.12 341.364 586.157 352.854 C 578.193 364.344 562.399 367.207 550.909 359.244 C 539.419 351.28 536.556 335.486 544.52 323.996 Z " fill="white" stroke="none"/></mask><path d=" M 544.52 323.996 C 552.483 312.506 568.277 309.643 579.767 317.606 C 591.257 325.57 594.12 341.364 586.157 352.854 C 578.193 364.344 562.399 367.207 550.909 359.244 C 539.419 351.28 536.556 335.486 544.52 323.996 Z " fill="none" mask="url(#_mask_mBTqV99O9cILBLsnrVmJnNPJD8PAAoAS)" stroke-width="10" stroke="rgb(0,0,0)" stroke-linejoin="miter" stroke-linecap="square" stroke-miterlimit="3"/><mask id="_mask_9Rw3y17J8RiufJgGUaG1Sq7Qd9H7lPXu"><path d=" M 546.681 155.563 C 572.199 118.745 622.807 109.571 659.625 135.089 C 696.442 160.607 705.617 211.215 680.099 248.033 C 654.581 284.851 603.973 294.025 567.155 268.507 C 530.337 242.989 521.163 192.381 546.681 155.563 Z " fill="white" stroke="none"/></mask><path d=" M 546.681 155.563 C 572.199 118.745 622.807 109.571 659.625 135.089 C 696.442 160.607 705.617 211.215 680.099 248.033 C 654.581 284.851 603.973 294.025 567.155 268.507 C 530.337 242.989 521.163 192.381 546.681 155.563 Z " fill="none" mask="url(#_mask_9Rw3y17J8RiufJgGUaG1Sq7Qd9H7lPXu)" stroke-width="10" stroke="rgb(0,0,0)" stroke-linejoin="miter" stroke-linecap="square" stroke-miterlimit="3"/><mask id="_mask_pOP4SiWg159xa8nbBOGfccrUrWlsROHH"><path d=" M 398.677 168.283 C 420.414 190.89 433.785 221.6 433.785 255.408 C 433.785 293.22 417.059 327.156 390.612 350.219 C 364.893 307.783 318.265 279.418 265.065 279.418 C 237.805 279.418 212.271 286.865 190.399 299.85 C 185.152 286.036 182.288 271.054 182.288 255.408 C 182.288 186.006 238.634 129.66 308.036 129.66 C 316.451 129.66 324.674 130.488 332.619 132.09 C 300.12 135.782 274.841 163.404 274.841 196.884 C 274.841 232.882 304.067 262.107 340.065 262.107 C 376.062 262.107 405.288 232.882 405.288 196.884 C 405.288 186.625 402.915 176.916 398.677 168.283 Z " fill-rule="evenodd" fill="white" stroke="none"/></mask><path d=" M 398.677 168.283 C 420.414 190.89 433.785 221.6 433.785 255.408 C 433.785 293.22 417.059 327.156 390.612 350.219 C 364.893 307.783 318.265 279.418 265.065 279.418 C 237.805 279.418 212.271 286.865 190.399 299.85 C 185.152 286.036 182.288 271.054 182.288 255.408 C 182.288 186.006 238.634 129.66 308.036 129.66 C 316.451 129.66 324.674 130.488 332.619 132.09 C 300.12 135.782 274.841 163.404 274.841 196.884 C 274.841 232.882 304.067 262.107 340.065 262.107 C 376.062 262.107 405.288 232.882 405.288 196.884 C 405.288 186.625 402.915 176.916 398.677 168.283 Z " fill-rule="evenodd" fill="none" mask="url(#_mask_pOP4SiWg159xa8nbBOGfccrUrWlsROHH)" stroke-width="20" stroke="rgb(0,0,0)" stroke-linejoin="miter" stroke-linecap="square" stroke-miterlimit="3"/><mask id="_mask_PUxAdl1bzALPquPdo8SCkQby6px1p1Et"><circle cx="340.06450459174346" cy="196.88372118989648" r="13.833924935911057" fill="white" stroke="none"/></mask><circle cx="340.06450459174346" cy="196.88372118989648" r="13.833924935911057" fill="none" mask="url(#_mask_PUxAdl1bzALPquPdo8SCkQby6px1p1Et)" stroke-width="10" stroke="rgb(0,0,0)" stroke-linejoin="miter" stroke-linecap="square" stroke-miterlimit="3"/><mask id="_mask_WvXir8b5E7bKvp20r2HOjKZ98COlo7VA"><circle cx="286.2983655214023" cy="551.1865312651296" r="24.010140727492285" fill="white" stroke="none"/></mask><circle cx="286.2983655214023" cy="551.1865312651296" r="24.010140727492285" fill="none" mask="url(#_mask_WvXir8b5E7bKvp20r2HOjKZ98COlo7VA)" stroke-width="10" stroke="rgb(0,0,0)" stroke-linejoin="miter" stroke-linecap="square" stroke-miterlimit="3"/><mask id="_mask_6FwrXboHIxyzzHQByf66Qpj2IQObHm9L"><circle cx="321.40008489499326" cy="447.5285604942886" r="59.111860101083266" fill="white" stroke="none"/></mask><circle cx="321.40008489499326" cy="447.5285604942886" r="59.111860101083266" fill="none" mask="url(#_mask_6FwrXboHIxyzzHQByf66Qpj2IQObHm9L)" stroke-width="10" stroke="rgb(0,0,0)" stroke-linejoin="miter" stroke-linecap="square" stroke-miterlimit="3"/><mask id="_mask_iQ0ByGOMnpmEh2gqNyT6NViUo39yCHyN"><path d=" M 153.33 353.663 C 139.738 374.536 131.841 399.45 131.841 426.194 C 131.841 499.722 191.536 559.418 265.065 559.418 C 338.593 559.418 398.288 499.722 398.288 426.194 C 398.288 352.666 338.593 292.97 265.065 292.97 C 225.126 292.97 189.269 310.583 164.845 338.46 C 174.686 329.278 187.892 323.66 202.4 323.66 C 232.817 323.66 257.512 348.355 257.512 378.772 C 257.512 409.189 232.817 433.884 202.4 433.884 C 171.983 433.884 147.288 409.189 147.288 378.772 C 147.288 369.731 149.47 361.197 153.33 353.663 Z " fill-rule="evenodd" fill="white" stroke="none"/></mask><path d=" M 153.33 353.663 C 139.738 374.536 131.841 399.45 131.841 426.194 C 131.841 499.722 191.536 559.418 265.065 559.418 C 338.593 559.418 398.288 499.722 398.288 426.194 C 398.288 352.666 338.593 292.97 265.065 292.97 C 225.126 292.97 189.269 310.583 164.845 338.46 C 174.686 329.278 187.892 323.66 202.4 323.66 C 232.817 323.66 257.512 348.355 257.512 378.772 C 257.512 409.189 232.817 433.884 202.4 433.884 C 171.983 433.884 147.288 409.189 147.288 378.772 C 147.288 369.731 149.47 361.197 153.33 353.663 Z " fill-rule="evenodd" fill="none" mask="url(#_mask_iQ0ByGOMnpmEh2gqNyT6NViUo39yCHyN)" stroke-width="20" stroke="rgb(0,0,0)" stroke-linejoin="miter" stroke-linecap="square" stroke-miterlimit="3"/><mask id="_mask_SIeWolMDPbAtwcPxsi1XVUwefe8zt5AR"><path d=" M 27.209 645.038 C 9.587 594.825 0 540.846 0 484.644 C 0 217.162 217.162 0 484.644 0 C 732.22 0 936.687 186.042 965.732 425.836 C 840.013 475.751 751.036 598.541 751.036 741.948 C 751.036 787.769 760.12 831.486 776.586 871.392 C 695.375 932.836 594.233 969.288 484.644 969.288 C 385.279 969.288 292.857 939.32 215.943 887.923 C 277.483 865.175 321.4 805.947 321.4 736.543 C 321.4 647.493 249.103 575.197 160.054 575.197 C 104.977 575.197 56.309 602.853 27.209 645.038 Z " fill-rule="evenodd" fill="white" stroke="none"/></mask><path d=" M 27.209 645.038 C 9.587 594.825 0 540.846 0 484.644 C 0 217.162 217.162 0 484.644 0 C 732.22 0 936.687 186.042 965.732 425.836 C 840.013 475.751 751.036 598.541 751.036 741.948 C 751.036 787.769 760.12 831.486 776.586 871.392 C 695.375 932.836 594.233 969.288 484.644 969.288 C 385.279 969.288 292.857 939.32 215.943 887.923 C 277.483 865.175 321.4 805.947 321.4 736.543 C 321.4 647.493 249.103 575.197 160.054 575.197 C 104.977 575.197 56.309 602.853 27.209 645.038 Z " fill-rule="evenodd" fill="none" mask="url(#_mask_SIeWolMDPbAtwcPxsi1XVUwefe8zt5AR)" stroke-width="40" stroke="rgb(0,0,0)" stroke-linejoin="miter" stroke-linecap="square" stroke-miterlimit="3"/><mask id="_mask_qOljrMCUoRVFgtL3bBzyOUJo3fDt07PJ"><path d=" M 538.235 39.087 C 638.507 51.027 728.67 96.099 797.465 163.025 C 776.723 172.476 762.288 193.396 762.288 217.66 C 762.288 250.775 789.173 277.66 822.288 277.66 C 841.596 277.66 858.786 268.52 869.762 254.333 C 910.064 321.508 933.277 400.082 933.389 484.028 C 846.648 537.179 788.735 632.854 788.735 741.948 C 788.735 764.536 791.218 786.549 795.93 807.727 C 741.583 860.118 674.065 898.935 598.86 918.704 C 594.206 884.015 575.533 851.335 544.528 829.846 C 485.995 789.278 405.537 803.863 364.968 862.396 C 354.505 877.492 347.711 894.046 344.409 911 C 165.327 852.062 35.898 683.349 35.898 484.644 C 35.898 291.432 158.27 126.576 329.681 63.44 C 336.439 114.889 380.504 154.66 433.785 154.66 C 491.736 154.66 538.785 107.611 538.785 49.66 C 538.785 46.089 538.606 42.56 538.235 39.087 Z " fill-rule="evenodd" fill="white" stroke="none"/></mask><path d=" M 538.235 39.087 C 638.507 51.027 728.67 96.099 797.465 163.025 C 776.723 172.476 762.288 193.396 762.288 217.66 C 762.288 250.775 789.173 277.66 822.288 277.66 C 841.596 277.66 858.786 268.52 869.762 254.333 C 910.064 321.508 933.277 400.082 933.389 484.028 C 846.648 537.179 788.735 632.854 788.735 741.948 C 788.735 764.536 791.218 786.549 795.93 807.727 C 741.583 860.118 674.065 898.935 598.86 918.704 C 594.206 884.015 575.533 851.335 544.528 829.846 C 485.995 789.278 405.537 803.863 364.968 862.396 C 354.505 877.492 347.711 894.046 344.409 911 C 165.327 852.062 35.898 683.349 35.898 484.644 C 35.898 291.432 158.27 126.576 329.681 63.44 C 336.439 114.889 380.504 154.66 433.785 154.66 C 491.736 154.66 538.785 107.611 538.785 49.66 C 538.785 46.089 538.606 42.56 538.235 39.087 Z " fill-rule="evenodd" fill="none" mask="url(#_mask_qOljrMCUoRVFgtL3bBzyOUJo3fDt07PJ)" stroke-width="40" stroke="rgb(0,0,0)" stroke-linejoin="miter" stroke-linecap="square" stroke-miterlimit="3"/><path d=" M 385.569 790.033 C 389.113 806.509 395.666 822.197 404.918 836.29 C 414.528 850.91 426.878 863.55 441.268 873.51 C 452.808 881.52 465.518 887.7 478.938 891.84 C 491.908 895.82 505.388 897.84 518.958 897.83 C 537.608 897.84 556.068 894.04 573.208 886.67 C 590.633 879.188 606.301 868.143 619.192 854.245 L 621.263 857.879 L 621.263 857.879 C 608.161 871.764 592.344 882.815 574.788 890.35 C 557.148 897.93 538.158 901.84 518.958 901.83 C 504.998 901.84 491.108 899.76 477.758 895.66 C 463.948 891.4 450.868 885.04 438.988 876.79 C 424.178 866.54 411.468 853.54 401.568 838.49 C 392.244 824.263 385.571 808.467 381.882 791.867 L 385.569 790.033 L 385.569 790.033 Z " fill="rgb(0,0,0)"/><circle cx="504.2581954970349" cy="665.16000098773" r="26.5" fill="rgb(0,0,0)"/><circle cx="536.9460662174107" cy="724.6961044627234" r="21.036103474993524" fill="rgb(0,0,0)"/><circle cx="623.1347858054979" cy="766.961221764687" r="16.698779223042834" fill="rgb(0,0,0)"/><circle cx="647.0306980887391" cy="613.4884656372999" r="25" fill="rgb(0,0,0)"/><circle cx="647.0306980887392" cy="652.66000098773" r="13.000000000000114" fill="rgb(0,0,0)"/><circle cx="647.0306980887394" cy="679.4200009877301" r="6.760000000000105" fill="rgb(0,0,0)"/><path d=" M 297.148 251.449 C 348.645 134.017 565.035 159.952 550.288 319.66 C 568.638 310.462 581.658 316.482 589.288 333.66 C 605.531 169.673 354.877 98.274 293.6 249.554 L 293.6 249.554 L 297.148 251.449 L 297.148 251.449 Z " fill="rgb(0,0,0)"/><path d=" M 377.288 450.66 C 548.193 399.565 638.36 399.037 795.288 450.66 C 771.395 433.91 783.895 406.66 805.288 403.66 C 652.61 367.624 504.074 395.303 377.288 445.519 L 377.288 450.66 Z " fill="rgb(0,0,0)"/><path d=" M 498.986 327.588 C 498.809 327.829 498.638 328.074 498.468 328.32 C 489.218 341.65 482.078 356.32 477.308 371.82 C 472.708 386.79 470.378 402.37 470.378 418.03 C 470.378 443.13 476.328 467.89 487.758 490.24 C 493.548 501.56 500.688 512.13 509.018 521.72 C 514.182 527.649 519.775 533.178 525.751 538.262 L 523.694 541.788 C 517.372 536.431 511.457 530.602 506.008 524.34 C 497.458 514.51 490.128 503.67 484.198 492.06 C 472.478 469.14 466.378 443.77 466.378 418.03 C 466.378 401.97 468.768 386 473.488 370.65 C 478.378 354.75 485.698 339.71 495.188 326.04 C 495.454 325.656 495.721 325.274 495.997 324.898 L 498.986 327.588 L 498.986 327.588 Z " fill="rgb(0,0,0)"/><circle cx="712.9041255542774" cy="456.36505165284245" r="25.405006784855004" fill="rgb(0,0,0)"/><circle cx="728.9875524648373" cy="367.9117427144031" r="20.50495767880227" fill="rgb(0,0,0)"/><circle cx="763.3482650719208" cy="341.4475387425023" r="16.5500168124388" fill="rgb(0,0,0)"/><path d=" M 517.661 548.194 C 521.928 551.813 526.371 555.226 530.978 558.42 C 537.318 562.81 543.938 566.77 550.808 570.26 C 560.698 556.26 573.918 544.92 589.268 537.3 C 603.668 530.15 619.538 526.44 635.608 526.44 C 645.908 526.44 656.138 527.97 665.978 530.99 C 676.168 534.13 685.808 538.82 694.568 544.9 C 702.548 550.42 709.708 557.04 715.838 564.56 C 726.318 558.3 736.088 550.93 744.978 542.56 C 745.731 541.852 746.478 541.137 747.218 540.416 L 744.746 537.247 C 743.916 538.054 743.081 538.856 742.238 539.65 C 734.388 547.04 725.828 553.64 716.688 559.36 C 710.838 552.64 704.168 546.68 696.848 541.61 C 687.748 535.3 677.738 530.43 667.158 527.17 C 656.938 524.03 646.298 522.44 635.608 522.44 C 618.918 522.44 602.448 526.29 587.488 533.71 C 572.598 541.11 559.628 551.86 549.608 565.13 C 543.968 562.11 538.518 558.77 533.258 555.13 C 528.725 551.992 524.355 548.634 520.162 545.068 L 517.661 548.194 L 517.661 548.194 Z " fill="rgb(0,0,0)"/><path d=" M 663.478 793.659 C 674.453 796.001 685.672 797.17 696.948 797.16 C 712.615 797.175 728.172 794.911 743.126 790.441 L 742.665 786.396 C 727.873 790.894 712.47 793.175 696.948 793.16 C 685.827 793.171 674.767 792.003 663.952 789.672 L 663.478 793.659 L 663.478 793.659 Z " fill="rgb(0,0,0)"/><path d=" M 662.353 803.119 C 673.703 805.489 685.296 806.67 696.948 806.66 C 712.97 806.674 728.884 804.435 744.222 800.04 L 743.761 795.999 C 728.586 800.426 712.825 802.674 696.948 802.66 C 685.456 802.67 674.02 801.494 662.826 799.136 L 662.353 803.119 L 662.353 803.119 Z " fill="rgb(0,0,0)"/><path d=" M 664.255 259.461 C 672.595 264.631 680.323 270.763 687.288 277.74 C 698.998 289.43 708.328 303.27 714.788 318.51 C 717.32 324.503 719.385 330.666 720.946 336.95 L 724.172 333.421 C 722.643 327.822 720.738 322.32 718.468 316.95 C 711.818 301.24 702.188 286.97 690.118 274.91 C 683.399 268.18 675.987 262.211 668.023 257.087 L 664.255 259.461 L 664.255 259.461 Z " fill="rgb(0,0,0)"/><path d=" M 451.288 387.33 C 453.857 388.84 456.535 390.162 459.288 391.33 C 468.858 395.37 479.158 397.45 489.548 397.45 C 499.948 397.45 510.238 395.37 519.818 391.33 C 529.058 387.41 537.448 381.75 544.548 374.65 C 546.656 372.543 548.638 370.32 550.448 367.966 L 546.5 366.471 C 545.025 368.352 543.415 370.126 541.718 371.82 C 534.988 378.56 527.028 383.93 518.258 387.64 C 509.178 391.48 499.408 393.45 489.548 393.45 C 479.688 393.45 469.928 391.48 460.848 387.64 C 457.544 386.242 454.354 384.608 451.288 382.777 L 451.288 387.33 L 451.288 387.33 Z " fill="rgb(0,0,0)"/><path d=" M 380.285 253.866 C 391.422 264.415 404.374 272.897 418.518 278.9 C 420.872 279.894 423.252 280.815 425.662 281.644 L 424.765 285.572 C 422.132 284.668 419.53 283.666 416.958 282.58 C 402.028 276.256 388.4 267.246 376.734 256.009 L 380.285 253.866 L 380.285 253.866 Z " fill="rgb(0,0,0)"/><circle cx="144.44457332588235" cy="396.13584182384443" r="20.843651468027588" fill="rgb(0,0,0)"/><circle cx="186.6512746992159" cy="434.2969510824239" r="16.363049905305928" fill="rgb(0,0,0)"/><circle cx="239.92517488860403" cy="426.19409140022503" r="11.465909587505138" fill="rgb(0,0,0)"/></g></svg>
