<?xml version="1.0" standalone="no"?><!-- Generator: Gravit.io --><svg xmlns="http://www.w3.org/2000/svg" xmlns:xlink="http://www.w3.org/1999/xlink" style="isolation:isolate" viewBox="0 0 385.377 294.117" width="385.377" height="294.117"><defs><clipPath id="_clipPath_Kh4xOxDbBr1QTO7hTH1up1aARsgysbxR"><rect width="385.377" height="294.117"/></clipPath></defs><g clip-path="url(#_clipPath_Kh4xOxDbBr1QTO7hTH1up1aARsgysbxR)"><mask id="_mask_ReQt7Ucyhvc7xRpisz5ffFs1Q07apdDw"><circle cx="140.82112869972164" cy="230.71580612158897" r="28.1579847545961" fill="white" stroke="none"/></mask><circle cx="140.82112869972164" cy="230.71580612158897" r="28.1579847545961" fill="none" mask="url(#_mask_ReQt7Ucyhvc7xRpisz5ffFs1Q07apdDw)" stroke-width="20" stroke="rgb(0,0,0)" stroke-linejoin="miter" stroke-linecap="square" stroke-miterlimit="3"/><mask id="_mask_f31nXRjk737Wc91TaKxM7Pxl0ZG8g3ZB"><path d=" M 223.515 252.607 C 241.165 230.958 251.741 203.326 251.741 173.243 C 251.741 103.773 195.34 47.372 125.871 47.372 C 56.401 47.372 0 103.773 0 173.243 C 0 230.501 38.315 278.882 90.685 294.117 C 101.514 259.757 133.654 234.823 171.571 234.823 C 191.135 234.823 209.16 241.46 223.515 252.607 Z " fill-rule="evenodd" fill="white" stroke="none"/></mask><path d=" M 223.515 252.607 C 241.165 230.958 251.741 203.326 251.741 173.243 C 251.741 103.773 195.34 47.372 125.871 47.372 C 56.401 47.372 0 103.773 0 173.243 C 0 230.501 38.315 278.882 90.685 294.117 C 101.514 259.757 133.654 234.823 171.571 234.823 C 191.135 234.823 209.16 241.46 223.515 252.607 Z " fill-rule="evenodd" fill="none" mask="url(#_mask_f31nXRjk737Wc91TaKxM7Pxl0ZG8g3ZB)" stroke-width="40" stroke="rgb(0,0,0)" stroke-linejoin="miter" stroke-linecap="square" stroke-miterlimit="3"/><mask id="_mask_NwGVqf4ZIESpnRV7phkKwA5vVMUSU2l4"><circle cx="133.37935265378914" cy="60.87135632165899" r="31.27075732074482" fill="white" stroke="none"/></mask><circle cx="133.37935265378914" cy="60.87135632165899" r="31.27075732074482" fill="none" mask="url(#_mask_NwGVqf4ZIESpnRV7phkKwA5vVMUSU2l4)" stroke-width="20" stroke="rgb(0,0,0)" stroke-linejoin="miter" stroke-linecap="square" stroke-miterlimit="3"/><mask id="_mask_datWQdEj1ATL5Gb76xlg0i1JVsj6wY4G"><circle cx="104.55271556080112" cy="148.41043573114723" r="49.669345569289916" fill="white" stroke="none"/></mask><circle cx="104.55271556080112" cy="148.41043573114723" r="49.669345569289916" fill="none" mask="url(#_mask_datWQdEj1ATL5Gb76xlg0i1JVsj6wY4G)" stroke-width="20" stroke="rgb(0,0,0)" stroke-linejoin="miter" stroke-linecap="square" stroke-miterlimit="3"/><mask id="_mask_htI1992jsopMHbJfoKz35uV4lH7WOVmX"><circle cx="277.5232056032781" cy="107.85378660372415" r="107.85378660372413" fill="white" stroke="none"/></mask><circle cx="277.5232056032781" cy="107.85378660372415" r="107.85378660372413" fill="rgb(255,255,255)" mask="url(#_mask_htI1992jsopMHbJfoKz35uV4lH7WOVmX)" stroke-width="40" stroke="rgb(0,0,0)" stroke-linejoin="miter" stroke-linecap="square" stroke-miterlimit="3"/><mask id="_mask_bXDf3CVFKsicwB1uTcVwdTMWxYWG5QvZ"><circle cx="285.7464361409942" cy="153.58475738522554" r="41.00226598158105" fill="white" stroke="none"/></mask><circle cx="285.7464361409942" cy="153.58475738522554" r="41.00226598158105" fill="none" mask="url(#_mask_bXDf3CVFKsicwB1uTcVwdTMWxYWG5QvZ)" stroke-width="20" stroke="rgb(0,0,0)" stroke-linejoin="miter" stroke-linecap="square" stroke-miterlimit="3"/><mask id="_mask_7J6EVc0BHfZqh29PhOsNhwacwlxLriin"><circle cx="310.6186046382428" cy="128.25518623794227" r="19.3813953617572" fill="white" stroke="none"/></mask><circle cx="310.6186046382428" cy="128.25518623794227" r="19.3813953617572" fill="none" mask="url(#_mask_7J6EVc0BHfZqh29PhOsNhwacwlxLriin)" stroke-width="20" stroke="rgb(0,0,0)" stroke-linejoin="miter" stroke-linecap="square" stroke-miterlimit="3"/><mask id="_mask_u27yaBYhLitXKWnhDNfTs3lepfnfXH52"><circle cx="263.70722467470193" cy="69.35184140132534" r="43.230650002319166" fill="white" stroke="none"/></mask><circle cx="263.70722467470193" cy="69.35184140132534" r="43.230650002319166" fill="none" mask="url(#_mask_u27yaBYhLitXKWnhDNfTs3lepfnfXH52)" stroke-width="20" stroke="rgb(0,0,0)" stroke-linejoin="miter" stroke-linecap="square" stroke-miterlimit="3"/><mask id="_mask_QH7LYG62e26xRp7H95DqOnG3U6UXazM9"><circle cx="263.7072246747019" cy="69.3518414013253" r="13.815980928576195" fill="white" stroke="none"/></mask><circle cx="263.7072246747019" cy="69.3518414013253" r="13.815980928576195" fill="none" mask="url(#_mask_QH7LYG62e26xRp7H95DqOnG3U6UXazM9)" stroke-width="20" stroke="rgb(0,0,0)" stroke-linejoin="miter" stroke-linecap="square" stroke-miterlimit="3"/><circle cx="228.9444339511875" cy="53.30747645201102" r="13.815980928576238" fill="rgb(0,0,0)"/><circle cx="226.03327371198574" cy="80.04808470086822" r="12.033273711985743" fill="rgb(0,0,0)"/><circle cx="240.89823697772948" cy="99.42783734573892" r="10.480593233019846" fill="rgb(0,0,0)"/><circle cx="268.6164558704317" cy="183.86024186387993" r="10.616455870431707" fill="rgb(0,0,0)"/><circle cx="251.74108457326906" cy="168.25733500575336" r="10.616455870431707" fill="rgb(0,0,0)"/><circle cx="249.89124374612567" cy="145.69428727396053" r="10.616455870431707" fill="rgb(0,0,0)"/><circle cx="261.99528608118095" cy="126.25733500575338" r="10.616455870431707" fill="rgb(0,0,0)"/><path d=" M 140.821 83.435 C 141.353 86.286 141.612 89.201 141.612 92.142 C 141.612 101.192 139.16 109.994 134.635 117.656 L 123.974 110.548 C 127.148 104.988 128.848 98.648 128.848 92.142 C 128.848 89.481 128.564 86.848 127.987 84.29 L 140.821 83.435 L 140.821 83.435 Z " fill="rgb(0,0,0)"/><path d=" M 182.459 100.104 C 176.153 95.215 169.229 91.153 161.85 88.024 C 150.47 83.214 138.23 80.744 125.87 80.754 C 113.51 80.744 101.27 83.214 89.89 88.024 C 78.9 92.684 68.92 99.414 60.49 107.854 C 52.04 116.294 45.31 126.274 40.66 137.254 C 35.85 148.644 33.37 160.884 33.38 173.244 C 33.37 185.604 35.85 197.844 40.65 209.224 C 45.31 220.214 52.04 230.194 60.49 238.624 C 68.92 247.074 78.9 253.804 89.89 258.464 C 101.27 263.264 113.51 265.744 125.87 265.734 L 125.87 265.734 L 125.87 265.734 C 125.87 265.734 125.87 265.734 125.87 265.734 C 138.23 265.744 150.47 263.264 161.85 258.464 C 172.84 253.804 182.82 247.074 191.26 238.624 C 199.7 230.194 206.43 220.214 211.09 209.224 C 214.797 200.436 217.12 191.135 217.966 181.659 L 226.946 190.231 C 225.638 198.077 223.41 205.76 220.3 213.124 C 215.14 225.294 207.68 236.354 198.33 245.694 C 188.98 255.054 177.92 262.514 165.75 267.674 C 153.13 273.004 139.57 275.744 125.87 275.734 C 112.17 275.744 98.61 273.004 85.99 267.674 C 73.82 262.514 62.76 255.054 53.41 245.694 C 44.06 236.354 36.6 225.294 31.44 213.124 C 26.11 200.504 23.37 186.944 23.38 173.244 C 23.37 159.544 26.11 145.984 31.44 133.364 C 36.6 121.194 44.06 110.134 53.41 100.784 C 62.76 91.434 73.82 83.974 85.99 78.814 C 98.61 73.484 112.17 70.744 125.87 70.754 C 139.57 70.744 153.13 73.484 165.75 78.814 C 171.947 81.441 177.856 84.665 183.387 88.447 L 182.459 100.104 L 182.459 100.104 Z " fill="rgb(0,0,0)"/><path d=" M 228.36 173.244 M 125.87 275.734" fill-rule="evenodd" fill="rgb(0,0,0)"/><path d=" M 31.529 199.046 C 33.592 196.7 35.744 194.428 37.96 192.214 C 53.51 176.654 71.91 164.244 92.16 155.664 C 113.15 146.794 135.71 142.234 158.5 142.254 C 170.846 142.243 183.124 143.576 195.119 146.222 L 190.443 135.078 C 179.925 133.197 169.235 132.245 158.5 132.254 C 134.38 132.234 110.49 137.064 88.27 146.454 C 66.83 155.534 47.35 168.674 30.89 185.144 C 30.407 185.626 29.928 186.111 29.455 186.602 L 31.529 199.046 L 31.529 199.046 Z " fill="rgb(0,0,0)"/></g></svg>
