<?xml version="1.0" standalone="no"?><!-- Generator: Gravit.io --><svg xmlns="http://www.w3.org/2000/svg" xmlns:xlink="http://www.w3.org/1999/xlink" style="isolation:isolate" viewBox="0 0 1663.732 1663.732" width="1663.732" height="1663.732"><defs><clipPath id="_clipPath_P1LilwKDcPddo32xrmG7x4llhpVrtgbu"><rect width="1663.732" height="1663.732"/></clipPath></defs><g clip-path="url(#_clipPath_P1LilwKDcPddo32xrmG7x4llhpVrtgbu)"><line x1="1456.451" y1="575.897" x2="1574" y2="575.897" stroke-width="4" stroke="rgb(0,0,0)" stroke-linejoin="miter" stroke-linecap="square" stroke-miterlimit="3"/><line x1="1451" y1="565.207" x2="1574" y2="565.207" stroke-width="4" stroke="rgb(0,0,0)" stroke-linejoin="miter" stroke-linecap="square" stroke-miterlimit="3"/><g id="Group"><path d=" M 1222.142 953.5 C 1078.092 953.5 961.142 836.55 961.142 692.5 C 961.142 548.45 1078.092 431.5 1222.142 431.5 C 1366.191 431.5 1483.142 548.45 1483.142 692.5 C 1483.142 836.55 1366.191 953.5 1222.142 953.5 Z " fill="none" stroke-width="10" stroke="rgb(0,0,0)" stroke-linejoin="miter" stroke-linecap="square" stroke-miterlimit="3"/><path d=" M 1479.142 739.5 C 1453.202 739.5 1432.142 718.44 1432.142 692.5 C 1432.142 666.56 1453.202 645.5 1479.142 645.5 C 1505.082 645.5 1526.142 666.56 1526.142 692.5 C 1526.142 718.44 1505.082 739.5 1479.142 739.5 Z " fill="none" stroke-width="5" stroke="rgb(0,0,0)" stroke-linejoin="miter" stroke-linecap="square" stroke-miterlimit="3"/><line x1="1430.197" y1="692.5" x2="1244.947" y2="692.5" stroke-width="4" stroke="rgb(0,0,0)" stroke-linejoin="miter" stroke-linecap="square" stroke-miterlimit="3"/><path d=" M 1111.642 824 C 1039.065 824 980.142 765.077 980.142 692.5 C 980.142 619.923 1039.065 561 1111.642 561 C 1184.218 561 1243.142 619.923 1243.142 692.5 C 1243.142 765.077 1184.218 824 1111.642 824 Z " fill="none" stroke-width="5" stroke="rgb(0,0,0)" stroke-linejoin="miter" stroke-linecap="square" stroke-miterlimit="3"/><line x1="1111.642" y1="561" x2="1111.642" y2="456.5" stroke-width="4" stroke="rgb(0,0,0)" stroke-linejoin="miter" stroke-linecap="square" stroke-miterlimit="3"/><line x1="1111.642" y1="824" x2="1111.642" y2="928.55" stroke-width="4" stroke="rgb(0,0,0)" stroke-linejoin="miter" stroke-linecap="square" stroke-miterlimit="3"/></g><path d=" M 1542.565 953.82 C 1548.454 942.271 1562.61 937.676 1574.159 943.565 C 1585.707 949.454 1590.302 963.61 1584.413 975.159 C 1578.525 986.707 1564.368 991.302 1552.82 985.413 C 1541.271 979.525 1536.676 965.368 1542.565 953.82 Z " fill="rgb(0,0,0)"/><path d=" M 220.511 766.27 C 228.01 751.564 246.037 745.712 260.743 753.211 C 275.449 760.71 281.301 778.738 273.802 793.444 C 266.303 808.15 248.276 814.001 233.57 806.503 C 218.863 799.004 213.012 780.976 220.511 766.27 Z " fill="rgb(0,0,0)" stroke-width="3" stroke="rgb(0,0,0)" stroke-linejoin="miter" stroke-linecap="square" stroke-miterlimit="3"/><path d=" M 341.462 990.058 C 352.368 968.67 378.587 960.16 399.975 971.066 C 421.363 981.972 429.873 1008.191 418.967 1029.579 C 408.061 1050.967 381.842 1059.477 360.454 1048.571 C 339.066 1037.665 330.556 1011.446 341.462 990.058 Z " fill="rgb(0,0,0)" stroke-width="3" stroke="rgb(0,0,0)" stroke-linejoin="miter" stroke-linecap="square" stroke-miterlimit="3"/><path d=" M 329.001 983.704 C 343.414 955.439 378.063 944.192 406.329 958.605 C 434.594 973.018 445.841 1007.667 431.428 1035.933 C 417.015 1064.198 382.366 1075.445 354.1 1061.032 C 325.835 1046.619 314.588 1011.97 329.001 983.704 Z " fill="none" stroke-width="5" stroke="rgb(0,0,0)" stroke-linejoin="miter" stroke-linecap="square" stroke-miterlimit="3"/><path d=" M 421.033 1079.461 C 429.181 1063.481 448.77 1057.123 464.75 1065.271 C 480.73 1073.42 487.088 1093.008 478.94 1108.988 C 470.792 1124.968 451.203 1131.326 435.223 1123.178 C 419.243 1115.03 412.885 1095.441 421.033 1079.461 Z " fill="rgb(0,0,0)" stroke-width="3" stroke="rgb(0,0,0)" stroke-linejoin="miter" stroke-linecap="square" stroke-miterlimit="3"/><path d=" M 299.875 1017.682 C 308.023 1001.702 301.665 982.113 285.685 973.965 C 269.706 965.817 250.117 972.175 241.969 988.155 C 233.821 1004.134 240.179 1023.723 256.158 1031.871 C 272.138 1040.02 291.727 1033.661 299.875 1017.682 Z " fill="rgb(0,0,0)" stroke-width="3" stroke="rgb(0,0,0)" stroke-linejoin="miter" stroke-linecap="square" stroke-miterlimit="3"/><path d=" M 512.706 876.536 C 551.317 800.814 644.142 770.685 719.864 809.296 C 795.587 847.908 825.716 940.732 787.105 1016.455 C 748.493 1092.177 655.669 1122.306 579.946 1083.695 C 504.224 1045.083 474.094 952.259 512.706 876.536 Z " fill="none" stroke-width="5" stroke="rgb(0,0,0)" stroke-linejoin="miter" stroke-linecap="square" stroke-miterlimit="3"/><path d=" M 654.416 861.701 C 663.066 844.738 683.86 837.988 700.823 846.638 C 717.786 855.288 724.536 876.082 715.886 893.045 C 707.237 910.008 686.442 916.757 669.479 908.108 C 652.516 899.458 645.767 878.664 654.416 861.701 Z " fill="rgb(0,0,0)" stroke-width="3" stroke="rgb(0,0,0)" stroke-linejoin="miter" stroke-linecap="square" stroke-miterlimit="3"/><path d=" M 688.664 966.259 C 697.313 949.296 718.108 942.546 735.071 951.196 C 752.034 959.845 758.783 980.64 750.134 997.603 C 741.484 1014.566 720.69 1021.315 703.727 1012.666 C 686.763 1004.016 680.014 983.222 688.664 966.259 Z " fill="rgb(0,0,0)" stroke-width="3" stroke="rgb(0,0,0)" stroke-linejoin="miter" stroke-linecap="square" stroke-miterlimit="3"/><path d=" M 457.222 707.266 C 473.831 674.692 513.762 661.731 546.336 678.341 C 578.911 694.951 591.872 734.882 575.262 767.456 C 558.652 800.03 518.721 812.991 486.147 796.381 C 453.573 779.771 440.612 739.84 457.222 707.266 Z " fill="none" stroke-width="5" stroke="rgb(0,0,0)" stroke-linejoin="miter" stroke-linecap="square" stroke-miterlimit="3"/><path d=" M 77.269 904.844 C 89.42 997.509 135.046 1084.596 208.042 1147.276 C 198.988 1117.242 201.051 1083.809 216.412 1053.684 C 248.002 991.732 323.946 967.082 385.899 998.671 C 447.851 1030.261 472.501 1106.206 440.911 1168.158 C 425.55 1198.282 399.702 1219.587 370.076 1229.898 C 538.913 1270.067 719.724 1191.525 802.019 1030.132 C 852.817 930.511 856.021 819.049 820.059 721.734 C 733.71 783.94 616.394 796.852 515.136 745.219 C 413.878 693.587 355.429 591.052 355.065 484.629 C 311.686 496.81 270.486 516.536 233.604 543.133 C 279.202 611.45 287.558 701.78 247.624 780.096 C 212.542 848.897 148.067 892.979 77.269 904.844 Z " fill-rule="evenodd" fill="none" stroke-width="10" stroke="rgb(0,0,0)" stroke-linejoin="miter" stroke-linecap="square" stroke-miterlimit="3"/><path d=" M 220.511 766.27 C 213.012 780.976 218.863 799.004 233.57 806.503 C 248.276 814.001 266.303 808.15 273.802 793.444 C 281.301 778.738 275.449 760.71 260.743 753.211 C 246.037 745.712 228.01 751.564 220.511 766.27 Z " fill="rgb(0,0,0)" stroke-width="3" stroke="rgb(0,0,0)" stroke-linejoin="miter" stroke-linecap="square" stroke-miterlimit="3"/><path d=" M 109.104 832.844 C 126.405 798.915 167.998 785.414 201.927 802.715 C 235.856 820.016 249.356 861.608 232.056 895.538 C 214.755 929.467 173.162 942.967 139.233 925.666 C 105.304 908.366 91.804 866.773 109.104 832.844 Z " fill="rgb(0,0,0)" stroke-width="3" stroke="rgb(0,0,0)" stroke-linejoin="miter" stroke-linecap="square" stroke-miterlimit="3"/><path d=" M 208.966 637.002 C 191.665 670.932 205.165 712.524 239.094 729.825 C 273.024 747.126 314.616 733.625 331.917 699.696 C 349.218 665.767 335.718 624.174 301.788 606.874 C 267.859 589.573 226.267 603.073 208.966 637.002 Z " fill="rgb(0,0,0)" stroke-width="3" stroke="rgb(0,0,0)" stroke-linejoin="miter" stroke-linecap="square" stroke-miterlimit="3"/><g id="Group"><path d=" M 551.496 200.616 C 605.4 94.904 734.987 52.842 840.699 106.745 C 946.411 160.649 988.473 290.236 934.57 395.948 C 880.666 501.66 751.079 543.722 645.367 489.819 C 539.655 435.915 497.593 306.328 551.496 200.616 Z " fill="none" stroke-width="10" stroke="rgb(0,0,0)" stroke-linejoin="miter" stroke-linecap="square" stroke-miterlimit="3"/><path d=" M 477.769 396.938 C 525.78 302.781 641.203 265.316 735.361 313.328 C 829.518 361.339 866.983 476.763 818.971 570.92 C 770.96 665.078 655.536 702.542 561.379 654.53 C 467.221 606.519 429.757 491.096 477.769 396.938 Z " fill="none" stroke-width="5" stroke="rgb(0,0,0)" stroke-linejoin="miter" stroke-linecap="square" stroke-miterlimit="3"/><path d=" M 607.835 463.26 C 619.243 440.889 646.667 431.987 669.039 443.395 C 691.41 454.802 700.312 482.226 688.904 504.598 C 677.497 526.97 650.073 535.871 627.701 524.464 C 605.329 513.056 596.428 485.632 607.835 463.26 Z " fill="none" stroke-width="5" stroke="rgb(0,0,0)" stroke-linejoin="miter" stroke-linecap="square" stroke-miterlimit="3"/></g><path d=" M 504.09 115.573 C 642.152 52.504 797.499 29.512 950.753 52.863 C 942.304 183.857 1010.79 313.584 1135.078 376.959 C 1243.883 432.439 1368.729 423.443 1465.946 364.133 C 1637.097 596.695 1673.751 915.204 1533.751 1189.763 C 1408.685 1435.037 1172.434 1586.805 917.602 1615 C 884.681 1496.983 804.389 1392.575 686.742 1332.586 C 539.676 1257.596 370.714 1270.616 240.055 1352.124 C 108.094 1201.837 38.271 1006.08 44.302 807.173 C 90.913 805.174 135.158 778.81 157.845 734.316 C 191.371 668.567 165.21 587.968 99.461 554.442 C 98.041 553.718 96.613 553.022 95.177 552.365 C 100.504 538.375 106.256 524.462 112.447 510.645 C 254.903 509.087 391.765 430.417 460.916 294.802 C 490.227 237.32 504.112 175.999 504.09 115.573 Z " fill="none" stroke-width="10" stroke="rgb(0,0,0)" stroke-linejoin="miter" stroke-linecap="square" stroke-miterlimit="3"/><path d=" M 95.237 456.253 C 302.544 49.696 800.923 -112.069 1207.479 95.237 C 1614.036 302.544 1775.802 800.923 1568.495 1207.479 C 1361.189 1614.036 862.81 1775.802 456.253 1568.495 C 49.696 1361.189 -112.069 862.81 95.237 456.253 Z " fill="none" stroke-width="10" stroke="rgb(0,0,0)" stroke-linejoin="miter" stroke-linecap="square" stroke-miterlimit="3"/><g id="Group"><path d=" M 1164.448 1384.047 C 1170.763 1379.595 1179.505 1381.107 1183.958 1387.422 C 1188.41 1393.737 1186.898 1402.479 1180.582 1406.931 C 1174.267 1411.384 1165.526 1409.871 1161.073 1403.556 C 1156.621 1397.241 1158.133 1388.499 1164.448 1384.047 Z " fill="rgb(0,0,0)" stroke-width="3" stroke="rgb(0,0,0)" stroke-linejoin="miter" stroke-linecap="square" stroke-miterlimit="3"/><path d=" M 1132.488 1418.815 C 1138.803 1414.363 1147.545 1415.875 1151.997 1422.19 C 1156.45 1428.506 1154.937 1437.247 1148.622 1441.7 C 1142.307 1446.152 1133.565 1444.64 1129.113 1438.325 C 1124.661 1432.009 1126.173 1423.268 1132.488 1418.815 Z " fill="rgb(0,0,0)" stroke-width="3" stroke="rgb(0,0,0)" stroke-linejoin="miter" stroke-linecap="square" stroke-miterlimit="3"/><path d=" M 1207.933 1365.625 C 1201.618 1370.077 1200.105 1378.819 1204.558 1385.134 C 1209.01 1391.449 1217.752 1392.961 1224.067 1388.509 C 1230.382 1384.056 1231.894 1375.315 1227.442 1369 C 1222.99 1362.685 1214.248 1361.172 1207.933 1365.625 Z " fill="rgb(0,0,0)" stroke-width="3" stroke="rgb(0,0,0)" stroke-linejoin="miter" stroke-linecap="square" stroke-miterlimit="3"/><path d=" M 1196.002 1449.896 C 1209.534 1440.356 1228.266 1443.596 1237.807 1457.129 C 1247.348 1470.661 1244.107 1489.393 1230.575 1498.934 C 1217.043 1508.475 1198.31 1505.234 1188.769 1491.702 C 1179.229 1478.169 1182.469 1459.437 1196.002 1449.896 Z " fill="none" stroke-width="5" stroke="rgb(0,0,0)" stroke-linejoin="miter" stroke-linecap="square" stroke-miterlimit="3"/><path d=" M 1315.301 1292.154 C 1313.324 1322.6 1305.626 1352.561 1292.509 1380.308 C 1253.833 1365.691 1208.822 1369.892 1172.515 1395.489 C 1132.964 1423.374 1113.857 1469.52 1118.575 1514.492 C 1105.844 1516.867 1092.998 1518.205 1080.165 1518.523 C 1098.731 1484.227 1097.602 1440.921 1073.623 1406.911 C 1039.913 1359.097 973.725 1347.646 925.911 1381.357 C 907.711 1394.189 894.779 1411.726 887.617 1431.17 C 883.597 1426.337 879.743 1421.301 876.058 1416.074 C 817.921 1333.614 818.618 1227.217 869.495 1146.928 C 905.279 1182.658 962.682 1188.599 1005.412 1158.473 C 1045.113 1130.483 1059.744 1080.102 1044.271 1036.439 C 1076.565 1032.499 1109.27 1035.133 1140.329 1044.005 C 1108.591 1098.694 1109.422 1169.167 1148.217 1224.194 C 1187.017 1279.226 1253.123 1303.682 1315.301 1292.154 Z " fill="none" stroke-width="5" stroke="rgb(0,0,0)" stroke-linejoin="miter" stroke-linecap="square" stroke-miterlimit="3"/><path d=" M 1204.035 1013.544 C 1267.186 969.02 1354.604 984.144 1399.127 1047.295 C 1443.65 1110.446 1428.527 1197.863 1365.376 1242.387 C 1302.225 1286.91 1214.808 1271.787 1170.284 1208.636 C 1125.761 1145.485 1140.884 1058.067 1204.035 1013.544 Z " fill="none" stroke-width="10" stroke="rgb(0,0,0)" stroke-linejoin="miter" stroke-linecap="square" stroke-miterlimit="3"/><path d=" M 1231.922 1053.099 C 1273.242 1023.967 1330.441 1033.862 1359.572 1075.182 C 1388.704 1116.502 1378.809 1173.7 1337.489 1202.832 C 1296.169 1231.964 1238.971 1222.068 1209.839 1180.748 C 1180.707 1139.428 1190.602 1082.23 1231.922 1053.099 Z " fill="none" stroke-width="5" stroke="rgb(0,0,0)" stroke-linejoin="miter" stroke-linecap="square" stroke-miterlimit="3"/><path d=" M 1267.648 1103.771 C 1281.001 1094.356 1299.486 1097.554 1308.9 1110.907 C 1318.314 1124.261 1315.117 1142.745 1301.763 1152.159 C 1288.41 1161.574 1269.926 1158.376 1260.511 1145.023 C 1251.097 1131.67 1254.295 1113.185 1267.648 1103.771 Z " fill="none" stroke-width="5" stroke="rgb(0,0,0)" stroke-linejoin="miter" stroke-linecap="square" stroke-miterlimit="3"/><line x1="1337.489" y1="1202.832" x2="1365.376" y2="1242.387" stroke-width="5" stroke="rgb(0,0,0)" stroke-linejoin="miter" stroke-linecap="square" stroke-miterlimit="3"/><line x1="1231.922" y1="1053.099" x2="1204.035" y2="1013.544" stroke-width="5" stroke="rgb(0,0,0)" stroke-linejoin="miter" stroke-linecap="square" stroke-miterlimit="3"/><line x1="1208.809" y1="1179.287" x2="1169.254" y2="1207.174" stroke-width="5" stroke="rgb(0,0,0)" stroke-linejoin="miter" stroke-linecap="square" stroke-miterlimit="3"/></g><line x1="1278" y1="1295.854" x2="1278" y2="1478" stroke-width="4" stroke="rgb(0,0,0)" stroke-linejoin="miter" stroke-linecap="square" stroke-miterlimit="3"/><line x1="1300" y1="1295" x2="1300" y2="1466.131" stroke-width="4" stroke="rgb(0,0,0)" stroke-linejoin="miter" stroke-linecap="square" stroke-miterlimit="3"/><line x1="1256" y1="1295" x2="1256" y2="1492.147" stroke-width="4" stroke="rgb(0,0,0)" stroke-linejoin="miter" stroke-linecap="square" stroke-miterlimit="3"/><line x1="1231" y1="1498" x2="1237" y2="1507" stroke-width="4" stroke="rgb(0,0,0)" stroke-linejoin="miter" stroke-linecap="square" stroke-miterlimit="3"/></g></svg>
