<?xml version="1.0" standalone="no"?><!-- Generator: Gravit.io --><svg xmlns="http://www.w3.org/2000/svg" xmlns:xlink="http://www.w3.org/1999/xlink" style="isolation:isolate" viewBox="0 0 517.291 699.48" width="517.291" height="699.48"><defs><clipPath id="_clipPath_3JJRRlqG7rCbw5bWjjFyOf1loP91rYvw"><rect width="517.291" height="699.48"/></clipPath></defs><g clip-path="url(#_clipPath_3JJRRlqG7rCbw5bWjjFyOf1loP91rYvw)"><mask id="_mask_RaJdd3odfBDfWwQs3xFkWeMckA65RPmo"><circle cx="398" cy="63.618164062499986" r="18.5" fill="white" stroke="none"/></mask><circle cx="398" cy="63.618164062499986" r="18.5" fill="none" mask="url(#_mask_RaJdd3odfBDfWwQs3xFkWeMckA65RPmo)" stroke-width="20" stroke="rgb(0,0,0)" stroke-linejoin="miter" stroke-linecap="square" stroke-miterlimit="3"/><mask id="_mask_9wtfNV1NmkKfcMsiYwWM9QLZcQYUpC0Y"><path d=" M 359.778 533.781 C 389.256 498.477 407 453.044 407 403.5 C 407 291.185 315.815 200 203.5 200 C 91.185 200 0 291.185 0 403.5 C 0 488.328 52.015 561.102 125.864 591.64 C 141.825 533.09 195.42 490 259 490 C 298.749 490 334.596 506.842 359.778 533.781 Z " fill-rule="evenodd" fill="white" stroke="none"/></mask><path d=" M 359.778 533.781 C 389.256 498.477 407 453.044 407 403.5 C 407 291.185 315.815 200 203.5 200 C 91.185 200 0 291.185 0 403.5 C 0 488.328 52.015 561.102 125.864 591.64 C 141.825 533.09 195.42 490 259 490 C 298.749 490 334.596 506.842 359.778 533.781 Z " fill-rule="evenodd" fill="none" mask="url(#_mask_9wtfNV1NmkKfcMsiYwWM9QLZcQYUpC0Y)" stroke-width="40" stroke="rgb(0,0,0)" stroke-linejoin="miter" stroke-linecap="square" stroke-miterlimit="3"/><mask id="_mask_VYhP9CfHPhFE7ZcHuKayhb2aCGJjXQ9j"><circle cx="387.8090820312499" cy="347.19091796874994" r="104.19091796875" fill="white" stroke="none"/></mask><circle cx="387.8090820312499" cy="347.19091796874994" r="104.19091796875" fill="none" mask="url(#_mask_VYhP9CfHPhFE7ZcHuKayhb2aCGJjXQ9j)" stroke-width="20" stroke="rgb(0,0,0)" stroke-linejoin="miter" stroke-linecap="square" stroke-miterlimit="3"/><mask id="_mask_B1Lg4S7BTvqtC0sgyyRK6bkMM4QS4UbB"><circle cx="387.8090820312501" cy="347.19091796875006" r="35.30908203125006" fill="white" stroke="none"/></mask><circle cx="387.8090820312501" cy="347.19091796875006" r="35.30908203125006" fill="none" mask="url(#_mask_B1Lg4S7BTvqtC0sgyyRK6bkMM4QS4UbB)" stroke-width="20" stroke="rgb(0,0,0)" stroke-linejoin="miter" stroke-linecap="square" stroke-miterlimit="3"/><mask id="_mask_jhrkBWStIGcajznEDVxrxdbyc5x0Obw8"><circle cx="126.50000000000006" cy="372.5" r="96.5" fill="white" stroke="none"/></mask><circle cx="126.50000000000006" cy="372.5" r="96.5" fill="none" mask="url(#_mask_jhrkBWStIGcajznEDVxrxdbyc5x0Obw8)" stroke-width="20" stroke="rgb(0,0,0)" stroke-linejoin="miter" stroke-linecap="square" stroke-miterlimit="3"/><mask id="_mask_wIyQYfnFaigF2FUUcyL7pHrdncuzowxE"><path d=" M 366.426 243.357 C 386.218 217.823 398 185.776 398 151 C 398 67.661 330.339 0 247 0 C 163.661 0 96 67.661 96 151 C 96 167.42 98.627 183.231 103.495 198.031 C 133.703 183.277 167.643 175 203.5 175 C 267.264 175 324.962 201.174 366.426 243.357 Z " fill-rule="evenodd" fill="white" stroke="none"/></mask><path d=" M 366.426 243.357 C 386.218 217.823 398 185.776 398 151 C 398 67.661 330.339 0 247 0 C 163.661 0 96 67.661 96 151 C 96 167.42 98.627 183.231 103.495 198.031 C 133.703 183.277 167.643 175 203.5 175 C 267.264 175 324.962 201.174 366.426 243.357 Z " fill-rule="evenodd" fill="none" mask="url(#_mask_wIyQYfnFaigF2FUUcyL7pHrdncuzowxE)" stroke-width="40" stroke="rgb(0,0,0)" stroke-linejoin="miter" stroke-linecap="square" stroke-miterlimit="3"/><path d=" M 48.017 321.03 C 56.151 305.847 66.494 291.931 78.72 279.72 C 94.81 263.61 113.86 250.77 134.82 241.88 C 156.55 232.7 179.91 227.98 203.5 228 C 227.09 227.98 250.45 232.7 272.18 241.88 C 293.14 250.77 312.19 263.61 328.28 279.72 C 342.998 294.42 354.987 311.591 363.715 330.439 L 357.678 341.582 C 357.429 340.959 357.171 340.339 356.91 339.72 C 348.53 319.94 336.4 301.97 321.21 286.79 C 306.03 271.6 288.06 259.47 268.28 251.09 C 247.78 242.43 225.75 237.98 203.5 238 C 181.25 237.98 159.22 242.43 138.72 251.09 C 118.94 259.47 100.97 271.6 85.79 286.79 C 80.967 291.609 76.453 296.71 72.263 302.055 L 48.017 321.03 L 48.017 321.03 Z " fill="rgb(0,0,0)"/><circle cx="459.2500000000001" cy="415.75000000000006" r="48.24999999999994" fill="rgb(0,0,0)"/><circle cx="480.54094731622376" cy="316.47000122070307" r="36.749999999999915" fill="rgb(0,0,0)"/><circle cx="415.8000146737369" cy="251.7290685782162" r="27.99093264248694" fill="rgb(0,0,0)"/><circle cx="333.2299804687498" cy="202.4186172909335" r="21.31951864479572" fill="rgb(0,0,0)"/><circle cx="295.67227922921325" cy="182.76181740525922" r="16.23818259474075" fill="rgb(0,0,0)"/><path d=" M 55.796 429.66 C 53.824 433.462 51.997 437.345 50.32 441.3 C 41.68 461.77 37.23 483.77 37.25 505.98 C 37.23 528.2 41.68 550.2 50.32 570.67 C 58.69 590.41 70.79 608.36 85.97 623.52 C 101.12 638.69 119.07 650.79 138.82 659.16 C 159.28 667.81 181.28 672.25 203.5 672.23 C 225.72 672.25 247.72 667.81 268.18 659.16 C 287.93 650.79 305.88 638.69 321.03 623.52 C 336.21 608.36 348.31 590.41 356.68 570.67 C 365.32 550.2 369.77 528.2 369.75 505.98 C 369.752 503.813 369.711 501.647 369.604 499.487 L 378.096 481.941 C 379.208 489.888 379.757 497.92 379.75 505.98 C 379.77 529.54 375.05 552.86 365.89 574.56 C 357.02 595.5 344.19 614.52 328.1 630.59 C 312.04 646.67 293.01 659.5 272.08 668.37 C 250.38 677.54 227.06 682.25 203.5 682.23 C 179.94 682.25 156.62 677.54 134.92 668.37 C 113.99 659.5 94.96 646.67 78.9 630.59 C 62.81 614.52 49.98 595.5 41.11 574.56 C 31.95 552.86 27.23 529.54 27.25 505.98 C 27.23 482.43 31.95 459.11 41.11 437.41 C 43.683 431.336 46.589 425.424 49.823 419.704 L 55.796 429.66 L 55.796 429.66 Z " fill="rgb(0,0,0)"/><path d=" M 45.565 412.608 C 41.359 419.655 37.644 427.003 34.43 434.59 C 29.73 445.68 26.15 457.22 23.73 469.02 C 21.24 481.18 19.99 493.57 20 505.98 C 19.99 518.4 21.24 530.79 23.73 542.95 C 26.15 554.75 29.73 566.28 34.43 577.38 C 43.66 599.17 57.02 618.98 73.77 635.71 C 90.5 652.46 110.31 665.82 132.11 675.06 C 143.2 679.75 154.73 683.34 166.53 685.75 C 178.7 688.24 191.08 689.49 203.5 689.48 C 215.92 689.49 228.3 688.24 240.47 685.75 C 252.27 683.34 263.8 679.75 274.89 675.06 C 296.69 665.82 316.5 652.46 333.23 635.71 C 349.98 618.98 363.34 599.17 372.57 577.38 C 377.27 566.28 380.85 554.75 383.27 542.95 C 385.76 530.79 387.01 518.4 387 505.98 C 387.01 494.109 385.866 482.256 383.581 470.607 L 390.514 456.281 C 391.49 459.824 392.332 463.405 393.07 467.01 C 395.69 479.84 397.01 492.89 397 505.98 C 397.01 519.07 395.69 532.13 393.07 544.96 C 390.52 557.41 386.74 569.57 381.78 581.28 C 372.04 604.26 357.96 625.14 340.3 642.78 C 322.66 660.44 301.77 674.53 278.79 684.27 C 267.09 689.22 254.92 693 242.47 695.55 C 229.65 698.17 216.59 699.49 203.5 699.48 C 190.41 699.49 177.35 698.17 164.53 695.55 C 152.08 693 139.91 689.22 128.21 684.27 C 105.23 674.53 84.34 660.44 66.7 642.78 C 49.04 625.14 34.96 604.26 25.22 581.28 C 20.26 569.57 16.48 557.41 13.93 544.96 C 11.31 532.13 9.99 519.07 10 505.98 C 9.99 492.9 11.31 479.84 13.93 467.01 C 16.48 454.56 20.26 442.4 25.22 430.69 C 29.313 421.032 34.174 411.745 39.751 402.918 L 45.565 412.608 L 45.565 412.608 Z " fill="rgb(0,0,0)"/></g></svg>
