<?xml version="1.0" standalone="no"?><!-- Generator: Gravit.io --><svg xmlns="http://www.w3.org/2000/svg" xmlns:xlink="http://www.w3.org/1999/xlink" style="isolation:isolate" viewBox="0 0 457 354" width="457" height="354"><defs><clipPath id="_clipPath_BS7Inza30Uf2zPSkMtXTqZGTcOzT4XMQ"><rect width="457" height="354"/></clipPath></defs><g clip-path="url(#_clipPath_BS7Inza30Uf2zPSkMtXTqZGTcOzT4XMQ)"><mask id="_mask_25658yu7vF11qL0tAQ7CLIKheXCQYnZH"><circle cx="146.37227722772275" cy="292.37227722772275" r="61.627722772277224" fill="white" stroke="none"/></mask><circle cx="146.37227722772275" cy="292.37227722772275" r="61.627722772277224" fill="none" mask="url(#_mask_25658yu7vF11qL0tAQ7CLIKheXCQYnZH)" stroke-width="20" stroke="rgb(0,0,0)" stroke-linejoin="miter" stroke-linecap="square" stroke-miterlimit="3"/><mask id="_mask_GXp6LSWuxM6yKfxz6Z1zhzVAwtkksIis"><circle cx="149" cy="323.0000000000001" r="19" fill="white" stroke="none"/></mask><circle cx="149" cy="323.0000000000001" r="19" fill="none" mask="url(#_mask_GXp6LSWuxM6yKfxz6Z1zhzVAwtkksIis)" stroke-width="20" stroke="rgb(0,0,0)" stroke-linejoin="miter" stroke-linecap="square" stroke-miterlimit="3"/><mask id="_mask_Ccw7hqR7xfCo28Ks3u9FnXJWmR2PlISz"><path d=" M 246.704 85.092 C 221.888 51.095 181.735 29 136.461 29 C 61.146 29 0 90.146 0 165.461 C 0 240.776 61.146 301.923 136.461 301.923 C 178.298 301.923 215.762 283.055 240.789 253.36 C 219.913 232.554 207 203.773 207 172 C 207 137.312 222.391 106.191 246.704 85.092 Z " fill-rule="evenodd" fill="white" stroke="none"/></mask><path d=" M 246.704 85.092 C 221.888 51.095 181.735 29 136.461 29 C 61.146 29 0 90.146 0 165.461 C 0 240.776 61.146 301.923 136.461 301.923 C 178.298 301.923 215.762 283.055 240.789 253.36 C 219.913 232.554 207 203.773 207 172 C 207 137.312 222.391 106.191 246.704 85.092 Z " fill-rule="evenodd" fill="none" mask="url(#_mask_Ccw7hqR7xfCo28Ks3u9FnXJWmR2PlISz)" stroke-width="40" stroke="rgb(0,0,0)" stroke-linejoin="miter" stroke-linecap="square" stroke-miterlimit="3"/><mask id="_mask_LtphmEyc5UPB7seCxmAw7sB8GOHyT59N"><circle cx="131.50000000000006" cy="109.50000000000003" r="57.5" fill="white" stroke="none"/></mask><circle cx="131.50000000000006" cy="109.50000000000003" r="57.5" fill="none" mask="url(#_mask_LtphmEyc5UPB7seCxmAw7sB8GOHyT59N)" stroke-width="20" stroke="rgb(0,0,0)" stroke-linejoin="miter" stroke-linecap="square" stroke-miterlimit="3"/><mask id="_mask_8HYixpswfMIXTbtwzodtZH0Z5f7HWbzx"><circle cx="131.5" cy="109.50000000000003" r="17.50000000000003" fill="white" stroke="none"/></mask><circle cx="131.5" cy="109.50000000000003" r="17.50000000000003" fill="none" mask="url(#_mask_8HYixpswfMIXTbtwzodtZH0Z5f7HWbzx)" stroke-width="20" stroke="rgb(0,0,0)" stroke-linejoin="miter" stroke-linecap="square" stroke-miterlimit="3"/><mask id="_mask_5Me6mVUvjiWvPcdGn2vus0YpujhQvlKk"><circle cx="77" cy="181.50000000000003" r="54.5" fill="white" stroke="none"/></mask><circle cx="77" cy="181.50000000000003" r="54.5" fill="none" mask="url(#_mask_5Me6mVUvjiWvPcdGn2vus0YpujhQvlKk)" stroke-width="20" stroke="rgb(0,0,0)" stroke-linejoin="miter" stroke-linecap="square" stroke-miterlimit="3"/><mask id="_mask_txiLEgBi7svOmnCl6SUl415nISlc5TTl"><circle cx="315.5" cy="230.7445544554455" r="55.5" fill="white" stroke="none"/></mask><circle cx="315.5" cy="230.7445544554455" r="55.5" fill="none" mask="url(#_mask_txiLEgBi7svOmnCl6SUl415nISlc5TTl)" stroke-width="20" stroke="rgb(0,0,0)" stroke-linejoin="miter" stroke-linecap="square" stroke-miterlimit="3"/><mask id="_mask_IDqaUxsUgBjagcGdEJ4Wi3MdoLUz2Xez"><path d=" M 391.903 56.54 C 371.519 44.133 347.586 37 322 37 C 247.491 37 187 97.491 187 172 C 187 246.509 247.491 307 322 307 C 396.509 307 457 246.509 457 172 C 457 149.596 451.531 128.46 441.853 109.857 C 441.951 111.225 442 112.607 442 114 C 442 146.011 416.011 172 384 172 C 351.989 172 326 146.011 326 114 C 326 81.989 351.989 56 384 56 C 386.681 56 389.32 56.182 391.903 56.54 Z " fill-rule="evenodd" fill="white" stroke="none"/></mask><path d=" M 391.903 56.54 C 371.519 44.133 347.586 37 322 37 C 247.491 37 187 97.491 187 172 C 187 246.509 247.491 307 322 307 C 396.509 307 457 246.509 457 172 C 457 149.596 451.531 128.46 441.853 109.857 C 441.951 111.225 442 112.607 442 114 C 442 146.011 416.011 172 384 172 C 351.989 172 326 146.011 326 114 C 326 81.989 351.989 56 384 56 C 386.681 56 389.32 56.182 391.903 56.54 Z " fill-rule="evenodd" fill="none" mask="url(#_mask_IDqaUxsUgBjagcGdEJ4Wi3MdoLUz2Xez)" stroke-width="40" stroke="rgb(0,0,0)" stroke-linejoin="miter" stroke-linecap="square" stroke-miterlimit="3"/><mask id="_mask_0zlEzhbJ9mtKk6gmWYy0hPDC1IX6S7tv"><circle cx="299.4999999999999" cy="18.5" r="18.5" fill="white" stroke="none"/></mask><circle cx="299.4999999999999" cy="18.5" r="18.5" fill="none" mask="url(#_mask_0zlEzhbJ9mtKk6gmWYy0hPDC1IX6S7tv)" stroke-width="20" stroke="rgb(0,0,0)" stroke-linejoin="miter" stroke-linecap="square" stroke-miterlimit="3"/><mask id="_mask_m6ZcHB4vlqUtB0Dntyu7W85he2jgFbMm"><circle cx="262" cy="142.00000000000003" r="45" fill="white" stroke="none"/></mask><circle cx="262" cy="142.00000000000003" r="45" fill="none" mask="url(#_mask_m6ZcHB4vlqUtB0Dntyu7W85he2jgFbMm)" stroke-width="20" stroke="rgb(0,0,0)" stroke-linejoin="miter" stroke-linecap="square" stroke-miterlimit="3"/><path d=" M 100.581 226.235 C 103.854 226.745 107.17 227.004 110.5 227 C 118.99 227.01 127.39 225.31 135.21 222 C 142.75 218.81 149.6 214.19 155.39 208.39 C 161.19 202.6 165.81 195.75 169 188.21 C 172.31 180.39 174.01 171.99 174 163.5 C 174.01 155.01 172.31 146.61 169 138.79 C 165.81 131.25 161.19 124.4 155.39 118.61 C 152.014 115.228 148.277 112.247 144.244 109.731 L 138.84 118.138 C 142.271 120.273 145.45 122.804 148.32 125.68 C 153.21 130.56 157.1 136.33 159.79 142.69 C 162.58 149.27 164.01 156.35 164 163.5 C 164.01 170.65 162.58 177.73 159.79 184.31 C 157.1 190.67 153.21 196.44 148.32 201.32 C 143.44 206.21 137.67 210.1 131.31 212.79 C 124.73 215.58 117.65 217.01 110.5 217 C 110.072 217.001 109.645 216.996 109.218 216.98 L 100.581 226.235 L 100.581 226.235 Z " fill="rgb(0,0,0)"/><circle cx="266.5" cy="233.8900146484375" r="25.5" fill="rgb(0,0,0)"/><circle cx="363.5" cy="236.00000000000003" r="20.5" fill="rgb(0,0,0)"/><path d=" M 234.01 170.683 C 234.169 159.371 236.511 148.186 240.92 137.76 C 245.35 127.31 251.76 117.81 259.79 109.79 C 267.81 101.76 277.31 95.35 287.76 90.92 C 298.6 86.34 310.24 83.99 322 84 C 333.76 83.99 345.4 86.34 356.24 90.92 C 366.69 95.35 376.19 101.76 384.21 109.79 C 392.24 117.81 398.65 127.31 403.08 137.76 C 407.66 148.6 410.01 160.24 410 172 C 410.001 173.323 409.972 174.644 409.897 175.961 L 419.996 171.459 C 419.937 158.543 417.32 145.764 412.29 133.87 C 407.36 122.23 400.23 111.65 391.28 102.72 C 382.35 93.77 371.77 86.64 360.13 81.71 C 348.07 76.61 335.1 73.99 322 74 C 308.9 73.99 295.93 76.61 283.87 81.71 C 272.23 86.64 261.65 93.77 252.72 102.72 C 243.77 111.65 236.64 122.23 231.71 133.87 C 228.682 141.036 226.528 148.516 225.293 156.155 L 234.01 170.683 L 234.01 170.683 Z " fill="rgb(0,0,0)"/><path d=" M 143.36 159.49 C 149.062 163.017 155.043 166.101 161.24 168.73 C 177.82 175.73 195.63 179.32 213.62 179.31 C 231.61 179.32 249.43 175.73 266 168.73 C 281.99 161.95 296.52 152.15 308.8 139.86 C 312.25 136.413 315.503 132.787 318.537 128.99 L 323.08 139.196 C 320.769 141.852 318.367 144.435 315.87 146.93 C 302.68 160.13 287.07 170.66 269.9 177.94 C 252.09 185.46 232.95 189.32 213.62 189.31 C 194.29 189.32 175.16 185.46 157.35 177.94 C 147.314 173.687 137.813 168.325 129.025 161.961 L 143.36 159.49 L 143.36 159.49 Z " fill="rgb(0,0,0)"/><circle cx="112.83975219726562" cy="289" r="26" fill="rgb(0,0,0)"/><circle cx="181.88998413085938" cy="282.3500061035156" r="20.649993896484432" fill="rgb(0,0,0)"/><path d=" M 79.643 103.867 C 86.736 97.289 94.928 92 103.85 88.22 C 114.17 83.86 125.26 81.62 136.46 81.63 C 147.66 81.62 158.76 83.86 169.08 88.22 C 179.03 92.44 188.08 98.54 195.73 106.2 C 200.827 111.291 205.236 117.007 208.855 123.205 L 213.559 112.009 C 210.376 107.408 206.775 103.095 202.8 99.12 C 194.24 90.56 184.12 83.73 172.97 79.01 C 161.42 74.13 149 71.62 136.46 71.63 C 123.92 71.62 111.5 74.13 99.95 79.01 C 94.739 81.218 89.749 83.887 85.044 86.989 L 79.643 103.867 L 79.643 103.867 Z " fill="rgb(0,0,0)"/><path d=" M 142.852 57 C 143.618 63.852 145.392 70.561 148.09 76.94 C 151.8 85.7 157.17 93.66 163.9 100.39 C 170.63 107.12 178.59 112.49 187.35 116.2 C 193.515 118.807 199.989 120.552 206.6 121.37 L 202.447 130.888 C 195.934 129.83 189.555 127.992 183.45 125.41 C 173.51 121.2 164.47 115.1 156.83 107.46 C 149.19 99.82 143.09 90.79 138.88 80.84 C 135.661 73.228 133.598 65.191 132.758 57 L 142.852 57 L 142.852 57 Z " fill="rgb(0,0,0)"/><path d=" M 202.335 203.232 C 205.24 202.738 208.189 202.496 211.15 202.5 C 218.33 202.49 225.44 203.93 232.06 206.72 C 238.45 209.43 244.25 213.35 249.15 218.25 C 254.05 223.15 257.97 228.95 260.68 235.34 C 263.47 241.96 264.91 249.07 264.9 256.25 C 264.91 263.43 263.47 270.54 260.68 277.16 C 260.194 278.306 259.669 279.433 259.087 280.529 L 267.804 285.41 C 268.571 284 269.253 282.543 269.88 281.06 C 273.2 273.21 274.91 264.77 274.9 256.25 C 274.91 247.73 273.2 239.29 269.88 231.44 C 266.68 223.87 262.04 216.99 256.22 211.18 C 250.41 205.36 243.53 200.72 235.96 197.52 C 228.11 194.2 219.67 192.49 211.15 192.5 C 207.249 192.495 203.365 192.851 199.556 193.6 L 202.335 203.232 L 202.335 203.232 Z " fill="rgb(0,0,0)"/></g></svg>
