<?xml version="1.0" standalone="no"?><!-- Generator: Gravit.io --><svg xmlns="http://www.w3.org/2000/svg" xmlns:xlink="http://www.w3.org/1999/xlink" style="isolation:isolate" viewBox="0 0 413 415" width="413" height="415"><defs><clipPath id="_clipPath_D1PTjnF1AoYetF37YAz0xgfpO7fLU3Gg"><rect width="413" height="415"/></clipPath></defs><g clip-path="url(#_clipPath_D1PTjnF1AoYetF37YAz0xgfpO7fLU3Gg)"><g><g><circle cx="206.5" cy="206.5" r="206.5" fill="rgb(255,255,255)"/><path d=" M 206.5 413 C 92.532 413 0 320.468 0 206.5 C 0 92.532 92.532 0 206.5 0" fill="rgb(0,0,0)"/></g><circle cx="206.4999999999999" cy="105.25000000001273" r="103.24999999999818" fill="rgb(0,0,0)"/><circle cx="206.5" cy="311.7500000000091" r="103.24999999999818" fill="rgb(255,255,255)"/></g><g><mask id="_mask_oxg3VdGsDsXoR9rZTu8cQtOv63xwigTg"><circle cx="209.49999999999997" cy="326.5000000000074" r="9.54878048780489" fill="white" stroke="none"/></mask><circle cx="209.49999999999997" cy="326.5000000000074" r="9.54878048780489" fill="none" mask="url(#_mask_oxg3VdGsDsXoR9rZTu8cQtOv63xwigTg)" stroke-width="5" stroke="rgb(0,0,0)" stroke-linejoin="miter" stroke-linecap="square" stroke-miterlimit="3"/><mask id="_mask_ludpoUsgcthWLcsz6kIOgTNpcSKwkqyK"><circle cx="209.49999999999991" cy="326.50000000000733" r="13.500000000000057" fill="white" stroke="none"/></mask><circle cx="209.49999999999991" cy="326.50000000000733" r="13.500000000000057" fill="none" mask="url(#_mask_ludpoUsgcthWLcsz6kIOgTNpcSKwkqyK)" stroke-width="5" stroke="rgb(0,0,0)" stroke-linejoin="miter" stroke-linecap="square" stroke-miterlimit="3"/><mask id="_mask_T7BSOdCWlu2G4ge5GtUDQ2ZzNGTUmGSN"><path d=" M 220.435 266.09 C 239.862 272.043 254 290.134 254 311.5 C 254 329.652 243.796 345.439 228.813 353.427 C 229.581 351.432 230 349.265 230 347 C 230 337.066 221.934 329 212 329 C 202.066 329 194 337.066 194 347 C 194 351.251 195.477 355.16 197.954 358.234 C 175.811 354.202 159 334.799 159 311.5 C 159 287.938 176.193 268.36 198.709 264.644 C 192.903 268.018 189 274.307 189 281.5 C 189 292.262 197.738 301 208.5 301 C 219.262 301 228 292.262 228 281.5 C 228 275.234 225.038 269.654 220.435 266.09 Z " fill-rule="evenodd" fill="white" stroke="none"/></mask><path d=" M 220.435 266.09 C 239.862 272.043 254 290.134 254 311.5 C 254 329.652 243.796 345.439 228.813 353.427 C 229.581 351.432 230 349.265 230 347 C 230 337.066 221.934 329 212 329 C 202.066 329 194 337.066 194 347 C 194 351.251 195.477 355.16 197.954 358.234 C 175.811 354.202 159 334.799 159 311.5 C 159 287.938 176.193 268.36 198.709 264.644 C 192.903 268.018 189 274.307 189 281.5 C 189 292.262 197.738 301 208.5 301 C 219.262 301 228 292.262 228 281.5 C 228 275.234 225.038 269.654 220.435 266.09 Z " fill-rule="evenodd" fill="none" mask="url(#_mask_T7BSOdCWlu2G4ge5GtUDQ2ZzNGTUmGSN)" stroke-width="10" stroke="rgb(0,0,0)" stroke-linejoin="miter" stroke-linecap="square" stroke-miterlimit="3"/><circle cx="229" cy="287.0000000000073" r="8" fill="rgb(0,0,0)"/><circle cx="214.43861678255493" cy="302.43861678256224" r="10.56138321744504" fill="rgb(0,0,0)"/><circle cx="191.05714806678375" cy="287.94285193322344" r="13.942851933216218" fill="rgb(0,0,0)"/></g><mask id="_mask_Oa8dnGD6d4SWak3njkSc7bx502aJQMUz"><circle cx="265.50000000000006" cy="126.5" r="9.5" fill="white" stroke="none"/></mask><circle cx="265.50000000000006" cy="126.5" r="9.5" fill="none" mask="url(#_mask_Oa8dnGD6d4SWak3njkSc7bx502aJQMUz)" stroke-width="5" stroke="rgb(255,255,255)" stroke-linejoin="miter" stroke-linecap="square" stroke-miterlimit="3"/><mask id="_mask_dCdESjvat31vpAGsTzXn7HXPLEOWnEEk"><path d=" M 210.82 52.174 C 238.054 54.375 259.5 77.203 259.5 105 C 259.5 122.166 251.322 137.437 238.647 147.119 C 239.523 144.659 240 142.01 240 139.25 C 240 126.28 229.47 115.75 216.5 115.75 C 203.53 115.75 193 126.28 193 139.25 C 193 146.801 196.569 153.525 202.115 157.82 C 174.911 155.588 153.5 132.775 153.5 105 C 153.5 81.961 168.232 62.335 188.786 55.046 C 181.113 59.81 176 68.312 176 78 C 176 92.902 188.098 105 203 105 C 217.902 105 230 92.902 230 78 C 230 65.82 221.918 55.513 210.82 52.174 Z " fill-rule="evenodd" fill="white" stroke="none"/></mask><path d=" M 210.82 52.174 C 238.054 54.375 259.5 77.203 259.5 105 C 259.5 122.166 251.322 137.437 238.647 147.119 C 239.523 144.659 240 142.01 240 139.25 C 240 126.28 229.47 115.75 216.5 115.75 C 203.53 115.75 193 126.28 193 139.25 C 193 146.801 196.569 153.525 202.115 157.82 C 174.911 155.588 153.5 132.775 153.5 105 C 153.5 81.961 168.232 62.335 188.786 55.046 C 181.113 59.81 176 68.312 176 78 C 176 92.902 188.098 105 203 105 C 217.902 105 230 92.902 230 78 C 230 65.82 221.918 55.513 210.82 52.174 Z " fill-rule="evenodd" fill="none" mask="url(#_mask_dCdESjvat31vpAGsTzXn7HXPLEOWnEEk)" stroke-width="10" stroke="rgb(255,255,255)" stroke-linejoin="miter" stroke-linecap="square" stroke-miterlimit="3"/><circle cx="230" cy="86" r="13" fill="rgb(255,255,255)"/><circle cx="189" cy="104" r="11" fill="rgb(255,255,255)"/><circle cx="175.30769230769232" cy="86.00000000000001" r="9.307692307692292" fill="rgb(255,255,255)"/></g></svg>
