<?xml version="1.0" standalone="no"?><!-- Generator: Gravit.io --><svg xmlns="http://www.w3.org/2000/svg" xmlns:xlink="http://www.w3.org/1999/xlink" style="isolation:isolate" viewBox="0 0 730 730" width="730" height="730"><defs><clipPath id="_clipPath_h2npUziqk0LmWar8mBqv2YicU37Wilrf"><rect width="730" height="730"/></clipPath></defs><g clip-path="url(#_clipPath_h2npUziqk0LmWar8mBqv2YicU37Wilrf)"><path d=" M 517.17 694.014 C 335.582 777.999 119.971 698.758 35.986 517.17 C -47.999 335.582 31.242 119.971 212.83 35.986 C 394.418 -47.999 610.029 31.242 694.014 212.83 C 777.999 394.418 698.758 610.029 517.17 694.014 Z " fill="none" stroke-width="5" stroke="rgb(0,0,0)" stroke-linejoin="miter" stroke-linecap="square" stroke-miterlimit="3"/><path d=" M 72 365 C 72 203.289 203.289 72 365 72 C 526.711 72 658 203.289 658 365 C 658 526.711 526.711 658 365 658 C 203.289 658 72 526.711 72 365 Z " fill="none" stroke-width="5" stroke="rgb(0,0,0)" stroke-linejoin="miter" stroke-linecap="square" stroke-miterlimit="3"/><path d=" M 492.351 178.294 C 595.389 248.589 621.972 389.314 551.677 492.352 C 481.381 595.39 340.656 621.973 237.618 551.677 C 134.58 481.382 107.998 340.657 178.293 237.619 C 248.588 134.581 389.313 107.998 492.351 178.294 Z " fill="none" stroke-width="5" stroke="rgb(0,0,0)" stroke-linejoin="miter" stroke-linecap="square" stroke-miterlimit="3"/><path d=" M 287.388 220.518 C 367.122 177.679 466.636 207.633 509.476 287.368 C 552.315 367.102 522.36 466.617 442.626 509.456 C 362.891 552.295 263.377 522.341 220.538 442.606 C 177.699 362.872 207.653 263.357 287.388 220.518 Z " fill="none" stroke-width="5" stroke="rgb(0,0,0)" stroke-linejoin="miter" stroke-linecap="square" stroke-miterlimit="3"/><path d=" M 256 365 C 256 304.841 304.841 256 365 256 C 425.159 256 474 304.841 474 365 C 474 425.159 425.159 474 365 474 C 304.841 474 256 425.159 256 365 Z " fill="none" stroke-width="10" stroke="rgb(0,0,0)" stroke-linejoin="miter" stroke-linecap="square" stroke-miterlimit="3"/><line x1="630.934" y1="242.004" x2="694.014" y2="212.83" stroke-width="4" stroke="rgb(0,0,0)" stroke-linejoin="miter" stroke-linecap="square" stroke-miterlimit="3"/><line x1="383.911" y1="202.094" x2="390.714" y2="143.488" stroke-width="4" stroke="rgb(0,0,0)" stroke-linejoin="miter" stroke-linecap="square" stroke-miterlimit="3"/><line x1="349.541" y1="528.27" x2="343.697" y2="589.994" stroke-width="4" stroke="rgb(0,0,0)" stroke-linejoin="miter" stroke-linecap="square" stroke-miterlimit="3"/><line x1="216.508" y1="295.386" x2="160.371" y2="269.068" stroke-width="4" stroke="rgb(0,0,0)" stroke-linejoin="miter" stroke-linecap="square" stroke-miterlimit="3"/><line x1="373.125" y1="528.783" x2="376.203" y2="590.707" stroke-width="4" stroke="rgb(0,0,0)" stroke-linejoin="miter" stroke-linecap="square" stroke-miterlimit="3"/><path d=" M 481.908 440.637 C 492.772 451.236 492.987 468.661 482.388 479.525 C 471.79 490.389 454.365 490.604 443.501 480.005 C 432.637 469.406 432.421 451.981 443.02 441.117 C 453.619 430.253 471.044 430.038 481.908 440.637 Z " fill="none" stroke-width="5" stroke="rgb(0,0,0)" stroke-linejoin="miter" stroke-linecap="square" stroke-miterlimit="3"/><line x1="443.608" y1="440.504" x2="483.269" y2="478.61" stroke-width="4" stroke="rgb(0,0,0)" stroke-linejoin="miter" stroke-linecap="square" stroke-miterlimit="3"/><line x1="413.477" y1="462.625" x2="437.927" y2="511.891" stroke-width="4" stroke="rgb(0,0,0)" stroke-linejoin="miter" stroke-linecap="square" stroke-miterlimit="3"/><line x1="365" y1="474" x2="365" y2="529" stroke-width="4" stroke="rgb(0,0,0)" stroke-linejoin="miter" stroke-linecap="square" stroke-miterlimit="3"/></g></svg>
