<?xml version="1.0" standalone="no"?><!-- Generator: Gravit.io --><svg xmlns="http://www.w3.org/2000/svg" xmlns:xlink="http://www.w3.org/1999/xlink" style="isolation:isolate" viewBox="0 0 3063.152 3063.152" width="3063.152" height="3063.152"><defs><clipPath id="_clipPath_TQ9YNBcaGzFbnbBBv5k2Ok3ou1Tb9FeY"><rect width="3063.152" height="3063.152"/></clipPath></defs><g clip-path="url(#_clipPath_TQ9YNBcaGzFbnbBBv5k2Ok3ou1Tb9FeY)"><g id="Group"><g id="Group"><path d=" M 735.576 2340.112 C 735.576 2061.395 961.859 1835.112 1240.576 1835.112 C 1519.293 1835.112 1745.576 2061.395 1745.576 2340.112 C 1745.576 2618.829 1519.293 2845.112 1240.576 2845.112 C 961.859 2845.112 735.576 2618.829 735.576 2340.112 Z " fill="none" stroke-width="10" stroke="rgb(0,0,0)" stroke-linejoin="miter" stroke-linecap="square" stroke-miterlimit="3"/><path d=" M 1076.576 2609.112 C 1076.576 2518.598 1150.062 2445.112 1240.576 2445.112 C 1331.09 2445.112 1404.576 2518.598 1404.576 2609.112 C 1404.576 2699.626 1331.09 2773.112 1240.576 2773.112 C 1150.062 2773.112 1076.576 2699.626 1076.576 2609.112 Z " fill="none" stroke-width="5" stroke="rgb(0,0,0)" stroke-linejoin="miter" stroke-linecap="square" stroke-miterlimit="3"/><path d=" M 1206.076 2773.112 C 1206.076 2754.071 1221.535 2738.612 1240.576 2738.612 C 1259.617 2738.612 1275.076 2754.071 1275.076 2773.112 C 1275.076 2792.153 1259.617 2807.612 1240.576 2807.612 C 1221.535 2807.612 1206.076 2792.153 1206.076 2773.112 Z " fill="none" stroke-width="5" stroke="rgb(0,0,0)" stroke-linejoin="miter" stroke-linecap="square" stroke-miterlimit="3"/><path d=" M 1125.576 2609.112 C 1125.576 2592.003 1139.467 2578.112 1156.576 2578.112 C 1173.686 2578.112 1187.576 2592.003 1187.576 2609.112 C 1187.576 2626.222 1173.686 2640.112 1156.576 2640.112 C 1139.467 2640.112 1125.576 2626.222 1125.576 2609.112 Z " fill="rgb(0,0,0)"/><path d=" M 1355.576 2609.112 C 1355.576 2592.003 1341.686 2578.112 1324.576 2578.112 C 1307.467 2578.112 1293.576 2592.003 1293.576 2609.112 C 1293.576 2626.222 1307.467 2640.112 1324.576 2640.112 C 1341.686 2640.112 1355.576 2626.222 1355.576 2609.112 Z " fill="rgb(0,0,0)"/><path d=" M 966.576 2152.112 C 966.576 2000.888 1089.352 1878.112 1240.576 1878.112 C 1391.801 1878.112 1514.576 2000.888 1514.576 2152.112 C 1514.576 2303.337 1391.801 2426.112 1240.576 2426.112 C 1089.352 2426.112 966.576 2303.337 966.576 2152.112 Z " fill="none" stroke-width="5" stroke="rgb(0,0,0)" stroke-linejoin="miter" stroke-linecap="square" stroke-miterlimit="3"/><path d=" M 1196.576 2152.112 C 1196.576 2127.828 1216.292 2108.112 1240.576 2108.112 C 1264.86 2108.112 1284.576 2127.828 1284.576 2152.112 C 1284.576 2176.397 1264.86 2196.112 1240.576 2196.112 C 1216.292 2196.112 1196.576 2176.397 1196.576 2152.112 Z " fill="none" stroke-width="5" stroke="rgb(0,0,0)" stroke-linejoin="miter" stroke-linecap="square" stroke-miterlimit="3"/><line x1="1240.576" y1="2426.112" x2="1240.576" y2="2845.112" stroke-width="4" stroke="rgb(0,0,0)" stroke-linejoin="miter" stroke-linecap="square" stroke-miterlimit="3"/><line x1="1514.576" y1="2152.112" x2="1706.576" y2="2152.112" stroke-width="4" stroke="rgb(0,0,0)" stroke-linejoin="miter" stroke-linecap="square" stroke-miterlimit="3"/><line x1="966.576" y1="2152.112" x2="773.576" y2="2152.112" stroke-width="4" stroke="rgb(0,0,0)" stroke-linejoin="miter" stroke-linecap="square" stroke-miterlimit="3"/></g><g id="Group"><path d=" M 1863.826 1633.612 C 1863.826 1355.447 2089.661 1129.612 2367.826 1129.612 C 2645.991 1129.612 2871.826 1355.447 2871.826 1633.612 C 2871.826 1911.777 2645.991 2137.612 2367.826 2137.612 C 2089.661 2137.612 1863.826 1911.777 1863.826 1633.612 Z " fill="none" stroke-width="10" stroke="rgb(0,0,0)" stroke-linejoin="miter" stroke-linecap="square" stroke-miterlimit="3"/><path d=" M 1915.735 1961.868 C 1848.661 1869.682 1809.076 1756.234 1809.076 1633.612 C 1809.076 1510.864 1848.743 1397.308 1915.974 1305.095" fill="none" stroke-width="4" stroke="rgb(0,0,0)" stroke-linejoin="miter" stroke-linecap="square" stroke-miterlimit="3"/><path d=" M 2296.826 2243.112 C 2296.826 2203.926 2328.64 2172.112 2367.826 2172.112 C 2407.012 2172.112 2438.826 2203.926 2438.826 2243.112 C 2438.826 2282.298 2407.012 2314.112 2367.826 2314.112 C 2328.64 2314.112 2296.826 2282.298 2296.826 2243.112 Z " fill="none" stroke-width="5" stroke="rgb(0,0,0)" stroke-linejoin="miter" stroke-linecap="square" stroke-miterlimit="3"/><path d=" M 2348.826 1633.612 C 2348.826 1504.188 2453.902 1399.112 2583.326 1399.112 C 2712.75 1399.112 2817.826 1504.188 2817.826 1633.612 C 2817.826 1763.036 2712.75 1868.112 2583.326 1868.112 C 2453.902 1868.112 2348.826 1763.036 2348.826 1633.612 Z " fill="none" stroke-width="5" stroke="rgb(0,0,0)" stroke-linejoin="miter" stroke-linecap="square" stroke-miterlimit="3"/><path d=" M 1531.576 1633.612 C 1531.576 1450.239 1680.452 1301.362 1863.826 1301.362 C 2047.2 1301.362 2196.076 1450.239 2196.076 1633.612 C 2196.076 1816.986 2047.2 1965.862 1863.826 1965.862 C 1680.452 1965.862 1531.576 1816.986 1531.576 1633.612 Z " fill="none" stroke-width="5" stroke="rgb(0,0,0)" stroke-linejoin="miter" stroke-linecap="square" stroke-miterlimit="3"/><path d=" M 2409.576 1633.612 C 2409.576 1606.293 2431.756 1584.112 2459.076 1584.112 C 2486.396 1584.112 2508.576 1606.293 2508.576 1633.612 C 2508.576 1660.932 2486.396 1683.112 2459.076 1683.112 C 2431.756 1683.112 2409.576 1660.932 2409.576 1633.612 Z " fill="rgb(0,0,0)"/><path d=" M 2757.076 1633.612 C 2757.076 1606.293 2734.896 1584.112 2707.576 1584.112 C 2680.256 1584.112 2658.076 1606.293 2658.076 1633.612 C 2658.076 1660.932 2680.256 1683.112 2707.576 1683.112 C 2734.896 1683.112 2757.076 1660.932 2757.076 1633.612 Z " fill="rgb(0,0,0)"/><path d=" M 2583.326 1807.362 C 2556.006 1807.362 2533.826 1785.182 2533.826 1757.862 C 2533.826 1730.543 2556.006 1708.362 2583.326 1708.362 C 2610.646 1708.362 2632.826 1730.543 2632.826 1757.862 C 2632.826 1785.182 2610.646 1807.362 2583.326 1807.362 Z " fill="rgb(0,0,0)"/><path d=" M 2305.326 1633.612 C 2305.326 1609.604 2324.818 1590.112 2348.826 1590.112 C 2372.835 1590.112 2392.326 1609.604 2392.326 1633.612 C 2392.326 1657.621 2372.835 1677.112 2348.826 1677.112 C 2324.818 1677.112 2305.326 1657.621 2305.326 1633.612 Z " fill="none" stroke-width="5" stroke="rgb(0,0,0)" stroke-linejoin="miter" stroke-linecap="square" stroke-miterlimit="3"/><line x1="2196.076" y1="1633.482" x2="1863.826" y2="1633.482" stroke-width="4" stroke="rgb(0,0,0)" stroke-linejoin="miter" stroke-linecap="square" stroke-miterlimit="3"/></g><g id="Group"><path d=" M 678.977 1530.788 C 678.977 1399.639 785.453 1293.163 916.602 1293.163 C 1047.75 1293.163 1154.227 1399.639 1154.227 1530.788 C 1154.227 1661.937 1047.75 1768.413 916.602 1768.413 C 785.453 1768.413 678.977 1661.937 678.977 1530.788 Z " fill="none" stroke-width="5" stroke="rgb(255,0,0)" stroke-linejoin="miter" stroke-linecap="square" stroke-miterlimit="3"/><path d=" M 610.977 1530.788 C 610.977 1493.258 641.446 1462.788 678.977 1462.788 C 716.507 1462.788 746.977 1493.258 746.977 1530.788 C 746.977 1568.318 716.507 1598.788 678.977 1598.788 C 641.446 1598.788 610.977 1568.318 610.977 1530.788 Z " fill="none" stroke-width="5" stroke="rgb(255,0,0)" stroke-linejoin="miter" stroke-linecap="square" stroke-miterlimit="3"/><line x1="916.602" y1="1293.163" x2="916.602" y2="487.64" stroke-width="4" stroke="rgb(255,0,0)" stroke-linejoin="miter" stroke-linecap="square" stroke-miterlimit="3"/><path d=" M 1023.627 1148.138 C 1023.627 1011.815 1134.304 901.138 1270.627 901.138 C 1406.95 901.138 1517.627 1011.815 1517.627 1148.138 C 1517.627 1284.461 1406.95 1395.138 1270.627 1395.138 C 1134.304 1395.138 1023.627 1284.461 1023.627 1148.138 Z " fill="none" stroke-width="5" stroke="rgb(255,0,0)" stroke-linejoin="miter" stroke-linecap="square" stroke-miterlimit="3"/><line x1="1095.167" y1="1323.623" x2="1071.841" y2="1346.949" stroke-width="5" stroke="rgb(255,0,0)" stroke-linejoin="miter" stroke-linecap="square" stroke-miterlimit="3"/><path d=" M 271.052 1005.681 C 336.265 709.253 600.702 487.163 916.602 487.163 C 1281.403 487.163 1577.576 783.336 1577.576 1148.138 C 1577.576 1512.94 1281.403 1809.112 916.602 1809.112 C 589.771 1809.112 318.027 1571.387 265 1259.564 C 309.097 1345.113 398.328 1403.663 501.127 1403.663 C 647.66 1403.663 766.627 1284.697 766.627 1138.163 C 766.627 991.63 647.66 872.663 501.127 872.663 C 402.83 872.663 316.939 926.197 271.052 1005.681 Z " fill="none" stroke-width="10" stroke="rgb(255,0,0)" stroke-linejoin="miter" stroke-linecap="square" stroke-miterlimit="3"/><path d=" M 465.127 827.163 C 465.127 807.294 481.258 791.163 501.127 791.163 C 520.996 791.163 537.127 807.294 537.127 827.163 C 537.127 847.032 520.996 863.163 501.127 863.163 C 481.258 863.163 465.127 847.032 465.127 827.163 Z " fill="rgb(255,0,0)"/><path d=" M 465.127 1449.163 C 465.127 1429.294 481.258 1413.163 501.127 1413.163 C 520.996 1413.163 537.127 1429.294 537.127 1449.163 C 537.127 1469.032 520.996 1485.163 501.127 1485.163 C 481.258 1485.163 465.127 1469.032 465.127 1449.163 Z " fill="rgb(255,0,0)"/><path d=" M 618.627 1138.163 C 618.627 1108.084 643.048 1083.663 673.127 1083.663 C 703.206 1083.663 727.627 1108.084 727.627 1138.163 C 727.627 1168.242 703.206 1192.663 673.127 1192.663 C 643.048 1192.663 618.627 1168.242 618.627 1138.163 Z " fill="rgb(255,0,0)"/></g><path d=" M 495.912 2523.597 C 757.071 2796.175 1124.649 2965.989 1531.576 2965.989 C 1621.979 2965.989 1710.439 2957.608 1796.221 2941.579 C 1763.908 2881.587 1745.576 2812.974 1745.576 2740.112 C 1745.576 2504.997 1936.46 2314.112 2171.576 2314.112 C 2335.336 2314.112 2477.638 2406.715 2548.931 2542.366 C 2806.656 2282.993 2965.989 1925.745 2965.989 1531.576 C 2965.989 1303.425 2912.608 1087.644 2817.651 896.059 C 2670.47 999.103 2491.349 1059.587 2298.212 1059.587 C 1797.508 1059.587 1391 653.079 1391 152.375 C 1391 136.097 1391.43 119.919 1392.288 103.853 C 665.869 173.985 97.163 786.89 97.163 1531.576 C 97.163 1579.436 99.512 1626.752 104.112 1673.411 C 138.782 1665.373 174.9 1661.138 212 1661.138 C 475.815 1661.138 690 1875.322 690 2139.138 C 690 2296.671 613.629 2436.507 495.912 2523.597 Z " fill="none" stroke-width="20" stroke="rgb(0,0,0)" stroke-linejoin="miter" stroke-linecap="square" stroke-miterlimit="3"/><path d=" M 10 1531.576 C 10 691.795 691.795 10 1531.576 10 C 2371.357 10 3053.152 691.795 3053.152 1531.576 C 3053.152 2371.357 2371.357 3053.152 1531.576 3053.152 C 691.795 3053.152 10 2371.357 10 1531.576 Z " fill="none" stroke-width="20" stroke="rgb(0,0,0)" stroke-linejoin="miter" stroke-linecap="square" stroke-miterlimit="3"/></g></g></svg>
