<?xml version="1.0" standalone="no"?><!-- Generator: Gravit.io --><svg xmlns="http://www.w3.org/2000/svg" xmlns:xlink="http://www.w3.org/1999/xlink" style="isolation:isolate" viewBox="0 0 1905.5 1905.5" width="1905.5" height="1905.5"><defs><clipPath id="_clipPath_8mZwvzWcABNdDwYOBnVTA0BQmVtNfoBA"><rect width="1905.5" height="1905.5"/></clipPath></defs><g clip-path="url(#_clipPath_8mZwvzWcABNdDwYOBnVTA0BQmVtNfoBA)"><path d=" M 876.25 1681.5 C 876.25 1639.279 910.529 1605 952.75 1605 C 994.971 1605 1029.25 1639.279 1029.25 1681.5 C 1029.25 1723.721 994.971 1758 952.75 1758 C 910.529 1758 876.25 1723.721 876.25 1681.5 Z " fill="none" stroke-width="5" stroke="rgb(0,0,0)" stroke-linejoin="miter" stroke-linecap="square" stroke-miterlimit="3"/><path d=" M 1282.295 294.862 C 1183.137 245.048 1071.193 217 952.75 217 C 546.679 217 217 546.679 217 952.75 C 217 1358.821 546.679 1688.5 952.75 1688.5 C 1224.515 1688.5 1462.063 1540.837 1589.468 1321.434 C 1292.651 1299.786 1058.25 1051.8 1058.25 749.5 C 1058.25 564.452 1146.082 399.756 1282.295 294.862 Z " fill="none" stroke-width="10" stroke="rgb(0,0,0)" stroke-linejoin="miter" stroke-linecap="square" stroke-miterlimit="3"/><path d=" M 1537.5 749.5 C 1537.5 697.482 1579.732 655.25 1631.75 655.25 C 1683.768 655.25 1726 697.482 1726 749.5 C 1726 801.518 1683.768 843.75 1631.75 843.75 C 1579.732 843.75 1537.5 801.518 1537.5 749.5 Z " fill="none" stroke-width="5" stroke="rgb(0,0,0)" stroke-linejoin="miter" stroke-linecap="square" stroke-miterlimit="3"/><line x1="952.75" y1="1602.364" x2="952.75" y2="749.5" stroke-width="4" stroke="rgb(0,0,0)" stroke-linejoin="miter" stroke-linecap="square" stroke-miterlimit="3"/><line x1="952.75" y1="749.5" x2="1058.25" y2="749.5" stroke-width="4" stroke="rgb(0,0,0)" stroke-linejoin="miter" stroke-linecap="square" stroke-miterlimit="3"/><path d=" M 70.5 952.75 C 70.5 465.823 465.823 70.5 952.75 70.5 C 1439.677 70.5 1835 465.823 1835 952.75 C 1835 1439.677 1439.677 1835 952.75 1835 C 465.823 1835 70.5 1439.677 70.5 952.75 Z " fill="none" stroke-width="15" stroke="rgb(0,0,0)" stroke-linejoin="miter" stroke-linecap="square" stroke-miterlimit="3"/><path d=" M 7.5 952.75 C 7.5 431.052 431.052 7.5 952.75 7.5 C 1474.448 7.5 1898 431.052 1898 952.75 C 1898 1474.448 1474.448 1898 952.75 1898 C 431.052 1898 7.5 1474.448 7.5 952.75 Z " fill="none" stroke-width="15" stroke="rgb(0,0,0)" stroke-linejoin="miter" stroke-linecap="square" stroke-miterlimit="3"/><line x1="1382.392" y1="1556.392" x2="1481" y2="1655" stroke-width="4" stroke="rgb(0,0,0)" stroke-linejoin="miter" stroke-linecap="square" stroke-miterlimit="3"/><line x1="1412" y1="1525" x2="1516" y2="1629" stroke-width="4" stroke="rgb(0,0,0)" stroke-linejoin="miter" stroke-linecap="square" stroke-miterlimit="3"/></g></svg>
