<?xml version="1.0" standalone="no"?><!-- Generator: Gravit.io --><svg xmlns="http://www.w3.org/2000/svg" xmlns:xlink="http://www.w3.org/1999/xlink" style="isolation:isolate" viewBox="0 0 1258.728 219.822" width="1258.728" height="219.822"><defs><clipPath id="_clipPath_phfP19Yo61ZZyTKz1bTPbyaXMg3Xbi3y"><rect width="1258.728" height="219.822"/></clipPath></defs><g clip-path="url(#_clipPath_phfP19Yo61ZZyTKz1bTPbyaXMg3Xbi3y)"><line x1="5" y1="156.91" x2="1253.728" y2="156.91" stroke-width="10" stroke="rgb(0,0,0)" stroke-linejoin="miter" stroke-linecap="round" stroke-miterlimit="3"/><path d=" M 53.26 156.91 C 53.26 130.275 74.885 108.65 101.52 108.65 C 128.155 108.65 149.78 130.275 149.78 156.91 C 149.78 183.546 128.155 205.17 101.52 205.17 C 74.885 205.17 53.26 183.546 53.26 156.91 Z " fill="none" stroke-width="10" stroke="rgb(0,0,0)" stroke-linejoin="miter" stroke-linecap="square" stroke-miterlimit="3"/><path d=" M 217.344 123.128 C 217.344 115.138 223.831 108.65 231.822 108.65 C 239.813 108.65 246.3 115.138 246.3 123.128 C 246.3 131.119 239.813 137.606 231.822 137.606 C 223.831 137.606 217.344 131.119 217.344 123.128 Z " fill="rgb(0,0,0)"/><path d=" M 255.952 123.128 C 255.952 115.138 262.439 108.65 270.43 108.65 C 278.421 108.65 284.908 115.138 284.908 123.128 C 284.908 131.119 278.421 137.606 270.43 137.606 C 262.439 137.606 255.952 131.119 255.952 123.128 Z " fill="rgb(0,0,0)"/><path d=" M 333.168 123.128 C 333.168 115.138 339.655 108.65 347.646 108.65 C 355.637 108.65 362.124 115.138 362.124 123.128 C 362.124 131.119 355.637 137.606 347.646 137.606 C 339.655 137.606 333.168 131.119 333.168 123.128 Z " fill="rgb(0,0,0)"/><path d=" M 371.776 123.128 C 371.776 115.138 378.263 108.65 386.254 108.65 C 394.245 108.65 400.732 115.138 400.732 123.128 C 400.732 131.119 394.245 137.606 386.254 137.606 C 378.263 137.606 371.776 131.119 371.776 123.128 Z " fill="rgb(0,0,0)"/><path d=" M 410.384 123.128 C 410.384 115.138 416.871 108.65 424.862 108.65 C 432.853 108.65 439.34 115.138 439.34 123.128 C 439.34 131.119 432.853 137.606 424.862 137.606 C 416.871 137.606 410.384 131.119 410.384 123.128 Z " fill="rgb(0,0,0)"/><line x1="526.208" y1="156.91" x2="526.208" y2="98.998" stroke-width="10" stroke="rgb(0,0,0)" stroke-linejoin="miter" stroke-linecap="round" stroke-miterlimit="3"/><line x1="632.38" y1="156.91" x2="632.38" y2="98.998" stroke-width="10" stroke="rgb(0,0,0)" stroke-linejoin="miter" stroke-linecap="round" stroke-miterlimit="3"/><line x1="661.336" y1="156.91" x2="661.336" y2="98.998" stroke-width="10" stroke="rgb(0,0,0)" stroke-linejoin="miter" stroke-linecap="round" stroke-miterlimit="3"/><line x1="777.16" y1="156.91" x2="777.16" y2="98.998" stroke-width="10" stroke="rgb(0,0,0)" stroke-linejoin="miter" stroke-linecap="round" stroke-miterlimit="3"/><line x1="806.116" y1="156.91" x2="806.116" y2="98.998" stroke-width="10" stroke="rgb(0,0,0)" stroke-linejoin="miter" stroke-linecap="round" stroke-miterlimit="3"/><line x1="835.072" y1="156.91" x2="835.072" y2="98.998" stroke-width="10" stroke="rgb(0,0,0)" stroke-linejoin="miter" stroke-linecap="round" stroke-miterlimit="3"/><path d=" M 883.332 156.91 C 883.332 136.934 899.55 120.715 919.527 120.715 C 939.504 120.715 955.722 136.934 955.722 156.91 C 955.722 176.887 939.504 193.105 919.527 193.105 C 899.55 193.105 883.332 176.887 883.332 156.91 Z " fill="rgb(0,0,0)"/><path d=" M 1018.46 118.302 C 1018.46 107.648 1027.11 98.998 1037.764 98.998 C 1048.418 98.998 1057.068 107.648 1057.068 118.302 C 1057.068 128.956 1048.418 137.606 1037.764 137.606 C 1027.11 137.606 1018.46 128.956 1018.46 118.302 Z " fill="rgb(0,0,0)"/><path d=" M 1105.328 156.91 C 1105.328 124.948 1131.277 98.998 1163.24 98.998 C 1195.203 98.998 1221.152 124.948 1221.152 156.91 C 1221.152 188.873 1195.203 214.822 1163.24 214.822 C 1131.277 214.822 1105.328 188.873 1105.328 156.91 Z " fill="none" stroke-width="10" stroke="rgb(0,0,0)" stroke-linejoin="miter" stroke-linecap="square" stroke-miterlimit="3"/><path d=" M 1127.045 156.91 C 1127.045 136.934 1143.263 120.715 1163.24 120.715 C 1183.217 120.715 1199.435 136.934 1199.435 156.91 C 1199.435 176.887 1183.217 193.105 1163.24 193.105 C 1143.263 193.105 1127.045 176.887 1127.045 156.91 Z " fill="none" stroke-width="10" stroke="rgb(0,0,0)" stroke-linejoin="miter" stroke-linecap="square" stroke-miterlimit="3"/><path d=" M 250.244 44.661 L 250.244 48.193 L 247.385 48.193 L 247.385 42.979 L 247.385 42.979 Q 247.385 40.4 248.142 38.354 L 248.142 38.354 L 248.142 38.354 Q 248.899 36.308 249.796 35.215 L 249.796 35.215 L 249.796 35.215 Q 250.693 34.122 252.122 32.636 L 252.122 32.636 L 252.122 32.636 Q 253.552 31.151 254.225 30.198 L 254.225 30.198 L 254.225 30.198 Q 256.075 27.339 256.075 24.872 L 256.075 24.872 L 256.075 24.872 Q 256.075 21.901 254.084 19.995 L 254.084 19.995 L 254.084 19.995 Q 252.094 18.089 249.375 18.089 L 249.375 18.089 L 249.375 18.089 Q 246.656 18.089 244.666 19.855 L 244.666 19.855 L 244.666 19.855 Q 242.676 21.62 242.676 25.04 L 242.676 25.04 L 239.537 25.04 L 239.537 25.04 Q 239.537 20.836 242.144 17.977 L 242.144 17.977 L 242.144 17.977 Q 244.75 15.117 249.516 15.117 L 249.516 15.117 L 249.516 15.117 Q 252.431 15.117 254.785 16.631 L 254.785 16.631 L 254.785 16.631 Q 259.382 19.49 259.382 24.76 L 259.382 24.76 L 259.382 24.76 Q 259.382 28.235 257.308 31.263 L 257.308 31.263 L 257.308 31.263 Q 256.243 32.776 254.729 34.318 L 254.729 34.318 L 254.729 34.318 Q 253.215 35.86 252.403 36.757 L 252.403 36.757 L 252.403 36.757 Q 251.59 37.654 250.945 39.644 L 250.945 39.644 L 250.945 39.644 Q 250.3 41.634 250.244 44.661 L 250.244 44.661 L 250.244 44.661 Z  M 250.076 54.303 L 250.076 54.303 L 250.076 54.303 Q 249.516 54.864 248.787 54.864 L 248.787 54.864 L 248.787 54.864 Q 248.058 54.864 247.497 54.303 L 247.497 54.303 L 247.497 54.303 Q 246.937 53.743 246.937 53.014 L 246.937 53.014 L 246.937 53.014 Q 246.937 52.285 247.497 51.725 L 247.497 51.725 L 247.497 51.725 Q 248.058 51.164 248.787 51.164 L 248.787 51.164 L 248.787 51.164 Q 249.516 51.164 250.076 51.725 L 250.076 51.725 L 250.076 51.725 Q 250.637 52.285 250.637 53.014 L 250.637 53.014 L 250.637 53.014 Q 250.637 53.743 250.076 54.303 Z " fill-rule="evenodd" fill="rgb(0,0,0)"/><path d=" M 386.629 17.08 L 386.124 48.137 L 383.489 48.137 L 382.929 17.136 L 382.929 17.136 Q 382.929 15.061 384.779 15.061 L 384.779 15.061 L 384.779 15.061 Q 386.629 15.061 386.629 17.08 L 386.629 17.08 L 386.629 17.08 Z  M 386.012 54.303 L 386.012 54.303 L 386.012 54.303 Q 385.451 54.864 384.723 54.864 L 384.723 54.864 L 384.723 54.864 Q 383.994 54.864 383.433 54.303 L 383.433 54.303 L 383.433 54.303 Q 382.873 53.743 382.873 53.014 L 382.873 53.014 L 382.873 53.014 Q 382.873 52.285 383.433 51.725 L 383.433 51.725 L 383.433 51.725 Q 383.994 51.164 384.723 51.164 L 384.723 51.164 L 384.723 51.164 Q 385.451 51.164 386.012 51.725 L 386.012 51.725 L 386.012 51.725 Q 386.573 52.285 386.573 53.014 L 386.573 53.014 L 386.573 53.014 Q 386.573 53.743 386.012 54.303 Z " fill-rule="evenodd" fill="rgb(0,0,0)"/><path d=" M 521.198 24.965 L 520.414 35.505 L 518.171 35.505 L 517.386 24.965 L 517.386 24.965 Q 517.386 23.732 518.339 23.227 L 518.339 23.227 L 518.339 23.227 Q 518.788 22.947 519.292 22.947 L 519.292 22.947 L 520.245 23.227 L 520.245 23.227 Q 521.198 23.732 521.198 24.965 L 521.198 24.965 L 521.198 24.965 Z  M 529.327 24.965 L 528.542 35.505 L 526.3 35.505 L 525.515 24.965 L 525.515 24.965 Q 525.515 23.732 526.468 23.227 L 526.468 23.227 L 526.468 23.227 Q 526.973 22.947 527.421 22.947 L 527.421 22.947 L 528.374 23.227 L 528.374 23.227 Q 529.327 23.732 529.327 24.965 L 529.327 24.965 L 529.327 24.965 Z " fill-rule="evenodd" fill="rgb(0,0,0)"/><path d=" M 649.04 24.965 L 648.255 31.188 L 646.013 31.188 L 645.228 24.965 L 645.228 24.965 Q 645.228 23.732 646.181 23.227 L 646.181 23.227 L 646.181 23.227 Q 646.686 22.947 647.134 22.947 L 647.134 22.947 L 648.087 23.227 L 648.087 23.227 Q 649.04 23.732 649.04 24.965 L 649.04 24.965 L 649.04 24.965 Z " fill="rgb(0,0,0)"/><path d=" M 813.962 41.055 L 813.962 44.138 L 796.023 44.138 L 796.023 41.055 L 813.962 41.055 L 813.962 41.055 Z " fill="rgb(0,0,0)"/><path d=" M 913.359 58.751 L 913.359 58.751 L 911.117 57.181 L 911.117 57.181 Q 913.639 55.723 914.368 54.602 L 914.368 54.602 L 914.648 54.21 L 914.088 54.042 L 914.088 54.042 Q 913.079 53.313 913.107 52.304 L 913.107 52.304 L 913.107 52.304 Q 913.135 51.295 913.667 50.818 L 913.667 50.818 L 913.667 50.818 Q 914.2 50.342 914.592 50.342 L 914.592 50.342 L 914.592 50.342 Q 914.985 50.342 915.377 50.37 L 915.377 50.37 L 915.377 50.37 Q 915.77 50.398 916.358 51.043 L 916.358 51.043 L 916.358 51.043 Q 916.947 51.687 916.947 52.528 L 916.947 52.528 L 916.947 52.528 Q 916.947 55.78 913.359 58.751 Z " fill="rgb(0,0,0)"/><path d=" M 1035.625 40.821 L 1035.625 40.821 L 1035.625 40.821 Q 1035.093 41.353 1034.308 41.353 L 1034.308 41.353 L 1034.308 41.353 Q 1033.523 41.353 1032.99 40.821 L 1032.99 40.821 L 1032.99 40.821 Q 1032.458 40.288 1032.458 39.504 L 1032.458 39.504 L 1032.458 39.504 Q 1032.458 38.719 1032.99 38.186 L 1032.99 38.186 L 1032.99 38.186 Q 1033.523 37.654 1034.308 37.654 L 1034.308 37.654 L 1034.308 37.654 Q 1035.093 37.654 1035.625 38.186 L 1035.625 38.186 L 1035.625 38.186 Q 1036.158 38.719 1036.158 39.504 L 1036.158 39.504 L 1036.158 39.504 Q 1036.158 40.288 1035.625 40.821 Z  M 1032.626 59.573 L 1032.626 59.573 L 1030.384 58.003 L 1030.384 58.003 Q 1032.906 56.546 1033.635 55.425 L 1033.635 55.425 L 1033.915 55.032 L 1033.355 54.864 L 1033.355 54.864 Q 1032.346 54.135 1032.374 53.126 L 1032.374 53.126 L 1032.374 53.126 Q 1032.402 52.117 1032.934 51.64 L 1032.934 51.64 L 1032.934 51.64 Q 1033.467 51.164 1033.859 51.164 L 1033.859 51.164 L 1033.859 51.164 Q 1034.252 51.164 1034.644 51.192 L 1034.644 51.192 L 1034.644 51.192 Q 1035.036 51.22 1035.625 51.865 L 1035.625 51.865 L 1035.625 51.865 Q 1036.214 52.509 1036.214 53.35 L 1036.214 53.35 L 1036.214 53.35 Q 1036.214 56.602 1032.626 59.573 Z " fill-rule="evenodd" fill="rgb(0,0,0)"/><path d=" M 1161.985 52.435 L 1161.985 52.435 L 1161.985 52.435 Q 1161.424 52.995 1160.695 52.995 L 1160.695 52.995 L 1160.695 52.995 Q 1159.967 52.995 1159.406 52.435 L 1159.406 52.435 L 1159.406 52.435 Q 1158.845 51.874 1158.845 51.145 L 1158.845 51.145 L 1158.845 51.145 Q 1158.845 50.416 1159.406 49.856 L 1159.406 49.856 L 1159.406 49.856 Q 1159.967 49.295 1160.695 49.295 L 1160.695 49.295 L 1160.695 49.295 Q 1161.424 49.295 1161.985 49.856 L 1161.985 49.856 L 1161.985 49.856 Q 1162.545 50.416 1162.545 51.145 L 1162.545 51.145 L 1162.545 51.145 Q 1162.545 51.874 1161.985 52.435 Z  M 1161.985 65.973 L 1161.985 65.973 L 1161.985 65.973 Q 1161.424 66.506 1160.695 66.506 L 1160.695 66.506 L 1160.695 66.506 Q 1159.967 66.506 1159.406 65.973 L 1159.406 65.973 L 1159.406 65.973 Q 1158.845 65.441 1158.845 64.656 L 1158.845 64.656 L 1158.845 64.656 Q 1158.845 63.871 1159.406 63.338 L 1159.406 63.338 L 1159.406 63.338 Q 1159.967 62.806 1160.695 62.806 L 1160.695 62.806 L 1160.695 62.806 Q 1161.424 62.806 1161.985 63.338 L 1161.985 63.338 L 1161.985 63.338 Q 1162.545 63.871 1162.545 64.656 L 1162.545 64.656 L 1162.545 64.656 Q 1162.545 65.441 1161.985 65.973 Z " fill-rule="evenodd" fill="rgb(0,0,0)"/><path d=" M 100.686 55.816 L 100.686 55.816 L 100.686 55.816 Q 100.23 56.296 99.558 56.296 L 99.558 56.296 L 99.558 56.296 Q 98.886 56.296 98.43 55.816 L 98.43 55.816 L 98.43 55.816 Q 97.974 55.336 97.974 54.712 L 97.974 54.712 L 97.974 54.712 Q 97.974 54.088 98.43 53.608 L 98.43 53.608 L 98.43 53.608 Q 98.886 53.128 99.558 53.128 L 99.558 53.128 L 99.558 53.128 Q 100.23 53.128 100.686 53.608 L 100.686 53.608 L 100.686 53.608 Q 101.142 54.088 101.142 54.712 L 101.142 54.712 L 101.142 54.712 Q 101.142 55.336 100.686 55.816 Z " fill="rgb(0,0,0)"/></g></svg>
