<?xml version="1.0" standalone="no"?><!-- Generator: Gravit.io --><svg xmlns="http://www.w3.org/2000/svg" xmlns:xlink="http://www.w3.org/1999/xlink" style="isolation:isolate" viewBox="0 0 933 933" width="933" height="933"><defs><clipPath id="_clipPath_Sao2altVNhAXwI3IKkOgAN6qb2G4EFsW"><rect width="933" height="933"/></clipPath></defs><g clip-path="url(#_clipPath_Sao2altVNhAXwI3IKkOgAN6qb2G4EFsW)"><path d=" M 5 466.5 C 5 211.791 211.791 5 466.5 5 C 721.209 5 928 211.791 928 466.5 C 928 721.209 721.209 928 466.5 928 C 211.791 928 5 721.209 5 466.5 Z " fill="none" stroke-width="10" stroke="rgb(0,0,0)" stroke-linejoin="miter" stroke-linecap="square" stroke-miterlimit="3"/><path d=" M 785 844.5 C 785 822.699 802.699 805 824.5 805 C 846.301 805 864 822.699 864 844.5 C 864 866.301 846.301 884 824.5 884 C 802.699 884 785 866.301 785 844.5 Z " fill="none" stroke-width="5" stroke="rgb(0,0,0)" stroke-linejoin="miter" stroke-linecap="square" stroke-miterlimit="3"/><path d=" M 263 344 C 263 199.95 379.95 83 524 83 C 668.05 83 785 199.95 785 344 C 785 488.05 668.05 605 524 605 C 379.95 605 263 488.05 263 344 Z " fill="none" stroke-width="5" stroke="rgb(0,0,0)" stroke-linejoin="miter" stroke-linecap="square" stroke-miterlimit="3"/><path d=" M 291 344 C 291 215.404 395.404 111 524 111 C 652.596 111 757 215.404 757 344 C 757 472.596 652.596 577 524 577 C 395.404 577 291 472.596 291 344 Z " fill="none" stroke-width="5" stroke="rgb(0,0,0)" stroke-linejoin="miter" stroke-linecap="square" stroke-miterlimit="3"/><path d=" M 580 540.75 C 580 532.057 587.057 525 595.75 525 C 604.443 525 611.5 532.057 611.5 540.75 C 611.5 549.443 604.443 556.5 595.75 556.5 C 587.057 556.5 580 549.443 580 540.75 Z " fill="rgb(0,0,0)"/><path d=" M 618 521.75 C 618 513.057 625.057 506 633.75 506 C 642.443 506 649.5 513.057 649.5 521.75 C 649.5 530.443 642.443 537.5 633.75 537.5 C 625.057 537.5 618 530.443 618 521.75 Z " fill="rgb(0,0,0)"/><path d=" M 651 495.75 C 651 487.057 658.057 480 666.75 480 C 675.443 480 682.5 487.057 682.5 495.75 C 682.5 504.443 675.443 511.5 666.75 511.5 C 658.057 511.5 651 504.443 651 495.75 Z " fill="rgb(0,0,0)"/></g></svg>
