<?xml version="1.0" standalone="no"?><!-- Generator: Gravit.io --><svg xmlns="http://www.w3.org/2000/svg" xmlns:xlink="http://www.w3.org/1999/xlink" style="isolation:isolate" viewBox="0 0 1060 1060" width="1060" height="1060"><defs><clipPath id="_clipPath_saPtD2PM7ePmlsUT7r8fzqd1D8iJxCOP"><rect width="1060" height="1060"/></clipPath></defs><g clip-path="url(#_clipPath_saPtD2PM7ePmlsUT7r8fzqd1D8iJxCOP)"><path d=" M 5 530 C 5 240.245 240.245 5 530 5 C 819.755 5 1055 240.245 1055 530 C 1055 819.755 819.755 1055 530 1055 C 240.245 1055 5 819.755 5 530 Z " fill="none" stroke-width="10" stroke="rgb(0,0,0)" stroke-linejoin="miter" stroke-linecap="square" stroke-miterlimit="3"/><path d=" M 369.029 724.515 C 369.029 577.437 488.437 458.029 635.515 458.029 C 782.592 458.029 902 577.437 902 724.515 C 902 871.592 782.592 991 635.515 991 C 488.437 991 369.029 871.592 369.029 724.515 Z " fill="none" stroke-width="5" stroke="rgb(0,0,0)" stroke-linejoin="miter" stroke-linecap="square" stroke-miterlimit="3"/><path d=" M 379 728.708 C 379 713.339 391.477 700.862 406.846 700.862 C 422.214 700.862 434.691 713.339 434.691 728.708 C 434.691 744.076 422.214 756.553 406.846 756.553 C 391.477 756.553 379 744.076 379 728.708 Z " fill="rgb(0,0,0)"/><path d=" M 389.737 659.846 C 389.737 644.477 402.214 632 417.583 632 C 432.951 632 445.428 644.477 445.428 659.846 C 445.428 675.214 432.951 687.691 417.583 687.691 C 402.214 687.691 389.737 675.214 389.737 659.846 Z " fill="rgb(0,0,0)"/><path d=" M 667.557 472.204 C 667.557 445.139 689.53 423.166 716.594 423.166 C 743.659 423.166 765.632 445.139 765.632 472.204 C 765.632 499.268 743.659 521.242 716.594 521.242 C 689.53 521.242 667.557 499.268 667.557 472.204 Z " fill="none" stroke-width="5" stroke="rgb(0,0,0)" stroke-linejoin="miter" stroke-linecap="square" stroke-miterlimit="3"/><path d=" M 651.39 472.204 C 651.39 436.217 680.607 407 716.594 407 C 752.581 407 781.798 436.217 781.798 472.204 C 781.798 508.191 752.581 537.408 716.594 537.408 C 680.607 537.408 651.39 508.191 651.39 472.204 Z " fill="none" stroke-width="5" stroke="rgb(0,0,0)" stroke-linejoin="miter" stroke-linecap="square" stroke-miterlimit="3"/><path d=" M 214.15 271.682 C 214.15 155.403 308.554 61 424.832 61 C 541.111 61 635.515 155.403 635.515 271.682 C 635.515 387.961 541.111 482.364 424.832 482.364 C 308.554 482.364 214.15 387.961 214.15 271.682 Z " fill="none" stroke-width="5" stroke="rgb(0,0,0)" stroke-linejoin="miter" stroke-linecap="square" stroke-miterlimit="3"/><path d=" M 364.5 431.5 C 364.5 423.497 370.997 417 379 417 C 387.003 417 393.5 423.497 393.5 431.5 C 393.5 439.503 387.003 446 379 446 C 370.997 446 364.5 439.503 364.5 431.5 Z " fill="rgb(0,0,0)"/><path d=" M 556 147 C 556 118.3 579.3 95 608 95 C 636.7 95 660 118.3 660 147 C 660 175.7 636.7 199 608 199 C 579.3 199 556 175.7 556 147 Z " fill="rgb(0,0,0)"/><path d=" M 511 271.682 C 511 254.573 524.891 240.682 542 240.682 C 559.109 240.682 573 254.573 573 271.682 C 573 288.791 559.109 302.682 542 302.682 C 524.891 302.682 511 288.791 511 271.682 Z " fill="rgb(0,0,0)"/></g></svg>
