<?xml version="1.0" encoding="UTF-8" standalone="no"?>
<!DOCTYPE svg PUBLIC "-//W3C//DTD SVG 1.1//EN" "http://www.w3.org/Graphics/SVG/1.1/DTD/svg11.dtd">
<svg width="100%" height="100%" viewBox="0 0 403 403" version="1.1" xmlns="http://www.w3.org/2000/svg" xmlns:xlink="http://www.w3.org/1999/xlink" xml:space="preserve" xmlns:serif="http://www.serif.com/" style="fill-rule:evenodd;clip-rule:evenodd;stroke-linejoin:round;stroke-miterlimit:2;">
    <path id="Compound-Shape" serif:id="Compound Shape" d="M338.063,343.199C375.18,307.426 398.281,257.21 398.281,201.64C398.281,93.112 310.169,5 201.64,5C93.112,5 5,93.112 5,201.64C5,257.21 28.1,307.426 65.218,343.199C87.03,289.26 139.922,251.171 201.64,251.171C263.358,251.171 316.25,289.26 338.063,343.199ZM342.416,308.267C364.924,278.632 378.281,241.684 378.281,201.64C378.281,104.15 299.131,25 201.64,25C104.15,25 25,104.15 25,201.64C25,241.684 38.356,278.632 60.864,308.267C90.566,261.915 142.541,231.171 201.64,231.171C260.738,231.171 312.714,261.914 342.416,308.267Z"/>
</svg>
