<?xml version="1.0" standalone="no"?><!-- Generator: Gravit.io --><svg xmlns="http://www.w3.org/2000/svg" xmlns:xlink="http://www.w3.org/1999/xlink" style="isolation:isolate" viewBox="0 0 1448.5 1355" width="1448.5" height="1355"><defs><clipPath id="_clipPath_pWy514kS2dTW38cAbEtgp4kRniyh06kg"><rect width="1448.5" height="1355"/></clipPath></defs><g clip-path="url(#_clipPath_pWy514kS2dTW38cAbEtgp4kRniyh06kg)"><path d=" M 1193.5 1262.5 C 1193.5 1239.596 1212.096 1221 1235 1221 C 1257.904 1221 1276.5 1239.596 1276.5 1262.5 C 1276.5 1285.404 1257.904 1304 1235 1304 C 1212.096 1304 1193.5 1285.404 1193.5 1262.5 Z " fill="none" stroke-width="5" stroke="rgb(0,0,0)" stroke-linejoin="miter" stroke-linecap="square" stroke-miterlimit="3"/><path d=" M 798.5 531.5 C 798.5 381.655 920.155 260 1070 260 C 1219.845 260 1341.5 381.655 1341.5 531.5 C 1341.5 681.345 1219.845 803 1070 803 C 920.155 803 798.5 681.345 798.5 531.5 Z " fill="none" stroke-width="5" stroke="rgb(0,0,0)" stroke-linejoin="miter" stroke-linecap="square" stroke-miterlimit="3"/><path d=" M 816.5 531.5 C 816.5 391.59 930.09 278 1070 278 C 1209.91 278 1323.5 391.59 1323.5 531.5 C 1323.5 671.41 1209.91 785 1070 785 C 930.09 785 816.5 671.41 816.5 531.5 Z " fill="none" stroke-width="5" stroke="rgb(0,0,0)" stroke-linejoin="miter" stroke-linecap="square" stroke-miterlimit="3"/><path d=" M 1031.5 531.5 C 1031.5 510.251 1048.751 493 1070 493 C 1091.249 493 1108.5 510.251 1108.5 531.5 C 1108.5 552.749 1091.249 570 1070 570 C 1048.751 570 1031.5 552.749 1031.5 531.5 Z " fill="none" stroke-width="5" stroke="rgb(0,0,0)" stroke-linejoin="miter" stroke-linecap="square" stroke-miterlimit="3"/><path d=" M 816.5 677.5 C 816.5 657.355 832.855 641 853 641 C 873.145 641 889.5 657.355 889.5 677.5 C 889.5 697.645 873.145 714 853 714 C 832.855 714 816.5 697.645 816.5 677.5 Z " fill="rgb(0,0,0)"/><path d=" M 1119.5 581 C 1119.5 540.158 1152.658 507 1193.5 507 C 1234.342 507 1267.5 540.158 1267.5 581 C 1267.5 621.842 1234.342 655 1193.5 655 C 1152.658 655 1119.5 621.842 1119.5 581 Z " fill="rgb(0,0,0)"/><path d=" M 959.5 334.5 C 959.5 307.18 981.68 285 1009 285 C 1036.32 285 1058.5 307.18 1058.5 334.5 C 1058.5 361.82 1036.32 384 1009 384 C 981.68 384 959.5 361.82 959.5 334.5 Z " fill="rgb(0,0,0)"/><mask id="_mask_vkoOROHZFRHTeL4W0rSsIbqMGPeRIcSA"><path d=" M 98.856 762.948 C 140.914 1096.597 426.019 1355 771 1355 C 801.878 1355 832.277 1352.93 862.065 1348.922 C 741.741 1322.793 651.5 1215.602 651.5 1087.5 C 651.5 939.863 771.363 820 919 820 C 1066.637 820 1186.5 939.863 1186.5 1087.5 C 1186.5 1149.608 1165.288 1206.801 1129.709 1252.215 C 1321.103 1132.438 1448.5 919.729 1448.5 677.5 C 1448.5 303.578 1144.922 0 771 0 C 739.105 0 707.723 2.209 676.999 6.49 C 777.949 31.002 853 122.056 853 230.5 C 853 357.716 749.716 461 622.5 461 C 495.284 461 392 357.716 392 230.5 C 392 174.684 411.882 123.474 444.953 83.581 C 384.033 117.123 328.816 159.765 281.14 209.671 C 354.605 266.087 402 354.802 402 454.5 C 402 622.976 266.656 760.091 98.856 762.948 Z " fill="white" stroke="none"/></mask><path d=" M 98.856 762.948 C 140.914 1096.597 426.019 1355 771 1355 C 801.878 1355 832.277 1352.93 862.065 1348.922 C 741.741 1322.793 651.5 1215.602 651.5 1087.5 C 651.5 939.863 771.363 820 919 820 C 1066.637 820 1186.5 939.863 1186.5 1087.5 C 1186.5 1149.608 1165.288 1206.801 1129.709 1252.215 C 1321.103 1132.438 1448.5 919.729 1448.5 677.5 C 1448.5 303.578 1144.922 0 771 0 C 739.105 0 707.723 2.209 676.999 6.49 C 777.949 31.002 853 122.056 853 230.5 C 853 357.716 749.716 461 622.5 461 C 495.284 461 392 357.716 392 230.5 C 392 174.684 411.882 123.474 444.953 83.581 C 384.033 117.123 328.816 159.765 281.14 209.671 C 354.605 266.087 402 354.802 402 454.5 C 402 622.976 266.656 760.091 98.856 762.948 Z " fill="none" mask="url(#_mask_vkoOROHZFRHTeL4W0rSsIbqMGPeRIcSA)" stroke-width="20" stroke="rgb(0,0,0)" stroke-linejoin="miter" stroke-linecap="square" stroke-miterlimit="3"/><path d=" M 2.5 968 C 2.5 876.934 76.434 803 167.5 803 C 258.566 803 332.5 876.934 332.5 968 C 332.5 1059.066 258.566 1133 167.5 1133 C 76.434 1133 2.5 1059.066 2.5 968 Z " fill="none" stroke-width="5" stroke="rgb(0,0,0)" stroke-linejoin="miter" stroke-linecap="square" stroke-miterlimit="3"/><path d=" M 332.5 1077.5 C 332.5 998.3 396.8 934 476 934 C 555.2 934 619.5 998.3 619.5 1077.5 C 619.5 1156.7 555.2 1221 476 1221 C 396.8 1221 332.5 1156.7 332.5 1077.5 Z " fill="none" stroke-width="5" stroke="rgb(0,0,0)" stroke-linejoin="miter" stroke-linecap="square" stroke-miterlimit="3"/><path d=" M 148.5 285 C 148.5 249.677 177.177 221 212.5 221 C 247.823 221 276.5 249.677 276.5 285 C 276.5 320.323 247.823 349 212.5 349 C 177.177 349 148.5 320.323 148.5 285 Z " fill="none" stroke-width="5" stroke="rgb(0,0,0)" stroke-linejoin="miter" stroke-linecap="square" stroke-miterlimit="3"/><path d=" M 206.5 705 C 206.5 663.606 240.106 630 281.5 630 C 322.894 630 356.5 663.606 356.5 705 C 356.5 746.394 322.894 780 281.5 780 C 240.106 780 206.5 746.394 206.5 705 Z " fill="rgb(0,0,0)"/><path d=" M 315.5 594 C 315.5 563.645 340.145 539 370.5 539 C 400.855 539 425.5 563.645 425.5 594 C 425.5 624.355 400.855 649 370.5 649 C 340.145 649 315.5 624.355 315.5 594 Z " fill="rgb(0,0,0)"/><path d=" M 370.5 493 C 370.5 474.235 385.735 459 404.5 459 C 423.265 459 438.5 474.235 438.5 493 C 438.5 511.765 423.265 527 404.5 527 C 385.735 527 370.5 511.765 370.5 493 Z " fill="rgb(0,0,0)"/><path d=" M 158.5 886 C 158.5 859.508 180.008 838 206.5 838 C 232.992 838 254.5 859.508 254.5 886 C 254.5 912.492 232.992 934 206.5 934 C 180.008 934 158.5 912.492 158.5 886 Z " fill="rgb(0,0,0)"/><path d=" M 39.5 926 C 39.5 903.923 57.423 886 79.5 886 C 101.577 886 119.5 903.923 119.5 926 C 119.5 948.077 101.577 966 79.5 966 C 57.423 966 39.5 948.077 39.5 926 Z " fill="rgb(0,0,0)"/><path d=" M 86.5 1037 C 86.5 1018.787 101.287 1004 119.5 1004 C 137.713 1004 152.5 1018.787 152.5 1037 C 152.5 1055.213 137.713 1070 119.5 1070 C 101.287 1070 86.5 1055.213 86.5 1037 Z " fill="none" stroke-width="5" stroke="rgb(0,0,0)" stroke-linejoin="miter" stroke-linecap="square" stroke-miterlimit="3"/><path d=" M 476 934 C 478.225 752.722 494.309 599.39 543 459" fill="none" stroke-width="4" stroke="rgb(0,0,0)" stroke-linejoin="miter" stroke-linecap="square" stroke-miterlimit="3"/><path d=" M 830 828 C 782.463 709.177 621.085 612.942 619.5 466.369" fill="none" stroke-width="4" stroke="rgb(0,0,0)" stroke-linejoin="miter" stroke-linecap="square" stroke-miterlimit="3"/><path d=" M 1031.5 531.5 C 839.747 535.822 727.312 512.983 698 455" fill="none" stroke-width="4" stroke="rgb(0,0,0)" stroke-linejoin="miter" stroke-linecap="square" stroke-miterlimit="3"/></g></svg>
